<?xml version="1.0" standalone="no"?>
<!DOCTYPE svg PUBLIC "-//W3C//DTD SVG 20010904//EN"
 "http://www.w3.org/TR/2001/REC-SVG-20010904/DTD/svg10.dtd">
<svg version="1.0" xmlns="http://www.w3.org/2000/svg"
 width="4000.000000pt" height="4000.000000pt" viewBox="0 0 4000.000000 4000.000000"
 preserveAspectRatio="xMidYMid meet">

<g transform="translate(0.000000,4000.000000) scale(0.100000,-0.100000)"
fill="#000000" stroke="none">
<path d="M19635 33460 c-4 -6 -161 -10 -439 -10 -268 0 -436 -4 -442 -10 -6
-6 -163 -11 -399 -13 -790 -6 -1546 -24 -1559 -37 -6 -6 -49 -10 -97 -10 -48
0 -91 -4 -94 -10 -3 -5 -31 -10 -61 -10 -30 0 -54 -4 -54 -10 0 -6 -83 -10
-230 -10 -147 0 -230 -4 -230 -10 0 -6 -83 -10 -230 -10 -147 0 -230 -4 -230
-10 0 -5 -20 -10 -44 -10 -25 0 -48 -4 -51 -10 -4 -6 -78 -10 -190 -10 -112 0
-186 -4 -190 -10 -4 -6 -57 -10 -125 -10 -68 0 -121 -4 -125 -10 -3 -5 -30
-10 -60 -10 -30 0 -57 -4 -60 -10 -3 -5 -46 -10 -94 -10 -48 0 -91 -3 -95 -7
-4 -5 -17 -9 -29 -10 -51 -4 -108 -16 -113 -24 -3 -5 -54 -9 -114 -9 -62 0
-111 -4 -115 -10 -3 -5 -39 -10 -80 -10 -41 0 -77 -4 -80 -10 -3 -5 -24 -10
-45 -10 -21 0 -42 -4 -45 -10 -3 -5 -17 -10 -30 -10 -13 0 -27 -4 -30 -10 -3
-5 -21 -10 -40 -10 -19 0 -37 -4 -40 -10 -3 -5 -17 -10 -30 -10 -13 0 -27 -4
-30 -10 -3 -5 -28 -10 -55 -10 -27 0 -52 -4 -55 -10 -3 -5 -30 -10 -60 -10
-30 0 -56 -4 -59 -8 -3 -5 -21 -9 -41 -10 -19 -1 -44 -6 -54 -11 -10 -6 -21
-8 -24 -5 -2 3 -21 -4 -41 -16 -20 -11 -43 -20 -51 -20 -8 0 -30 -9 -50 -20
-20 -11 -44 -20 -55 -20 -10 0 -22 -4 -25 -10 -3 -5 -22 -10 -41 -10 -19 0
-34 -4 -34 -10 0 -6 -27 -10 -60 -10 -41 0 -70 -6 -95 -20 -20 -11 -44 -20
-54 -20 -10 0 -25 -7 -32 -16 -17 -21 -58 -38 -86 -35 -11 1 -24 -3 -28 -8 -3
-6 -21 -11 -40 -11 -19 0 -37 -4 -40 -10 -3 -5 -19 -10 -35 -10 -24 0 -103
-33 -120 -50 -13 -13 -94 -50 -110 -50 -11 0 -22 -4 -25 -10 -3 -5 -21 -10
-40 -10 -19 0 -37 -4 -40 -10 -3 -5 -17 -10 -30 -10 -13 0 -27 -5 -30 -11 -4
-5 -12 -8 -18 -6 -7 2 -24 -5 -40 -15 -49 -35 -179 -98 -201 -98 -12 0 -71
-25 -131 -55 -61 -30 -115 -55 -121 -55 -17 0 -71 -29 -84 -45 -7 -8 -20 -15
-29 -15 -29 0 -253 -118 -291 -153 -43 -39 -74 -57 -99 -57 -11 0 -23 -4 -26
-10 -3 -5 -16 -10 -28 -10 -11 0 -38 -16 -58 -36 -20 -20 -55 -46 -77 -57 -22
-12 -63 -34 -91 -50 -28 -15 -51 -32 -51 -37 0 -6 -5 -10 -11 -10 -6 0 -29
-13 -52 -28 -23 -15 -55 -34 -72 -42 -16 -8 -43 -26 -60 -40 -16 -15 -50 -35
-75 -45 -25 -10 -54 -27 -66 -37 -11 -10 -25 -18 -30 -18 -6 0 -26 -16 -44
-35 -19 -20 -59 -48 -89 -63 -30 -14 -76 -46 -101 -69 -25 -23 -48 -43 -53
-43 -8 0 -48 -33 -132 -111 -33 -30 -76 -63 -95 -72 -19 -9 -60 -41 -90 -71
-30 -31 -59 -56 -65 -56 -6 0 -35 -25 -65 -55 -30 -30 -59 -55 -65 -55 -6 0
-24 -13 -40 -30 -16 -16 -34 -30 -40 -30 -6 0 -53 -43 -105 -95 -52 -52 -99
-95 -105 -95 -13 0 -435 -422 -435 -435 0 -6 -31 -42 -70 -80 -38 -38 -70 -74
-70 -80 0 -14 -42 -55 -56 -55 -13 0 -54 -43 -54 -56 0 -5 -21 -30 -46 -54
-46 -45 -104 -123 -104 -140 0 -5 -19 -22 -43 -37 -24 -17 -51 -46 -63 -70
-11 -23 -36 -60 -55 -82 -67 -79 -89 -109 -89 -119 0 -6 -14 -22 -30 -35 -17
-14 -30 -30 -30 -34 0 -5 -16 -25 -35 -45 -19 -19 -41 -51 -49 -69 -8 -19 -33
-52 -56 -74 -23 -22 -48 -56 -57 -75 -9 -19 -27 -47 -41 -62 -23 -25 -46 -64
-91 -153 -11 -22 -40 -60 -65 -85 -28 -26 -46 -53 -46 -66 0 -13 -4 -25 -9
-28 -4 -3 -11 -19 -15 -36 -3 -17 -27 -54 -53 -83 -51 -56 -73 -89 -73 -110 0
-20 -28 -73 -45 -87 -8 -7 -15 -18 -15 -25 0 -7 -7 -18 -15 -25 -15 -12 -57
-94 -59 -115 -2 -21 -40 -91 -63 -116 -30 -32 -73 -116 -73 -140 0 -10 -4 -21
-10 -24 -5 -3 -10 -14 -10 -24 0 -24 -28 -78 -48 -93 -21 -16 -62 -94 -62
-118 0 -11 -4 -22 -10 -25 -5 -3 -10 -14 -10 -24 0 -10 -22 -62 -50 -116 -28
-54 -50 -106 -50 -116 0 -10 -5 -21 -11 -25 -6 -3 -8 -15 -6 -26 3 -11 -3 -35
-14 -54 -10 -19 -19 -41 -19 -48 0 -7 -18 -48 -40 -91 -22 -43 -40 -86 -40
-96 0 -10 -5 -21 -10 -24 -6 -3 -10 -24 -10 -45 0 -21 -4 -42 -10 -45 -5 -3
-10 -17 -10 -30 0 -13 -4 -27 -10 -30 -5 -3 -10 -16 -11 -28 0 -12 -9 -35 -19
-52 -36 -58 -50 -88 -50 -111 0 -13 -4 -26 -10 -29 -5 -3 -10 -37 -10 -75 0
-51 -6 -79 -23 -112 -12 -23 -25 -44 -29 -46 -5 -2 -8 -12 -8 -23 0 -10 -3
-19 -7 -19 -15 0 -33 -55 -33 -101 0 -26 -5 -51 -10 -54 -6 -3 -10 -26 -10
-50 0 -24 -4 -46 -9 -49 -9 -6 -18 -47 -26 -126 -11 -96 -33 -198 -46 -206 -5
-3 -9 -20 -9 -39 0 -19 -4 -37 -10 -40 -5 -3 -10 -21 -10 -40 0 -19 -4 -37
-10 -40 -5 -3 -10 -46 -10 -95 0 -49 -5 -92 -10 -95 -6 -3 -10 -42 -10 -85 0
-43 -4 -82 -10 -85 -5 -3 -10 -44 -10 -90 0 -46 -5 -87 -10 -90 -6 -3 -10 -24
-10 -45 0 -21 -5 -42 -10 -45 -6 -3 -10 -35 -10 -70 0 -35 -5 -67 -11 -70 -6
-4 -9 -48 -8 -115 1 -59 -2 -113 -5 -119 -12 -18 -9 -2163 2 -2191 10 -26 41
-56 79 -77 33 -19 25933 -19 25966 -1 12 7 39 29 60 48 l37 34 0 3767 c0 2501
-3 3770 -10 3774 -6 4 -10 73 -10 176 0 106 -4 169 -10 169 -5 0 -10 24 -10
54 0 30 -4 58 -10 61 -5 3 -10 35 -10 71 0 36 -4 64 -10 64 -5 0 -10 13 -10
29 0 16 -3 31 -7 33 -5 2 -23 32 -40 67 -24 46 -33 77 -33 112 0 26 -4 50 -9
53 -9 6 -25 63 -22 82 1 6 -8 19 -19 29 -11 10 -20 23 -20 30 0 7 -9 20 -20
30 -11 10 -20 26 -20 36 0 9 -13 43 -30 74 -16 31 -30 65 -30 74 0 10 -14 30
-31 47 -18 16 -40 48 -51 72 -11 24 -26 46 -34 49 -8 3 -14 11 -14 18 0 6 -9
20 -20 30 -11 10 -20 23 -20 30 0 6 -11 22 -26 35 -14 14 -33 43 -43 65 -10
22 -42 62 -70 90 -28 27 -51 54 -51 60 0 17 -292 300 -325 315 -38 18 -95 70
-95 87 0 7 -19 21 -42 32 -24 11 -61 38 -83 60 -21 23 -44 41 -50 41 -5 1 -26
14 -45 30 -19 17 -40 30 -47 30 -7 0 -21 7 -30 15 -61 53 -93 75 -107 75 -8 0
-31 9 -51 20 -20 11 -41 20 -48 20 -23 0 -113 49 -137 75 -13 14 -32 25 -42
25 -10 0 -26 4 -36 9 -50 25 -71 32 -88 30 -10 -2 -29 2 -40 9 -12 6 -24 9
-26 7 -3 -3 -40 13 -83 35 -62 32 -89 40 -131 40 -29 0 -56 5 -59 10 -3 6 -21
10 -40 10 -19 0 -37 5 -40 10 -3 6 -22 10 -41 10 -19 0 -34 5 -34 10 0 6 -28
10 -64 10 -36 0 -68 5 -71 10 -3 6 -21 10 -39 10 -17 0 -36 4 -42 9 -13 13
-83 22 -192 26 -51 1 -96 5 -99 9 -4 3 -59 6 -124 6 -68 0 -120 4 -124 10 -4
6 -60 10 -135 10 -75 0 -131 4 -135 10 -4 6 -63 10 -145 10 -82 0 -141 4 -145
10 -3 6 -50 10 -105 10 -55 0 -102 4 -105 10 -3 6 -28 10 -55 10 -27 0 -52 5
-55 10 -3 6 -30 10 -60 10 -30 0 -57 5 -60 10 -4 6 -53 10 -115 10 -62 0 -111
4 -115 10 -4 6 -85 10 -210 10 -125 0 -206 4 -210 10 -4 6 -56 10 -124 10 -64
0 -121 4 -127 10 -5 5 -92 11 -194 13 -206 5 -211 5 -259 31 -26 14 -44 16
-80 11 -98 -14 -314 -4 -335 16 -6 5 -92 9 -192 9 -111 0 -185 4 -189 10 -3 6
-52 10 -111 10 -63 0 -104 4 -104 10 0 6 -60 10 -159 10 -96 0 -162 4 -166 10
-4 6 -88 10 -220 10 -132 0 -216 4 -220 10 -4 6 -70 10 -165 10 -95 0 -161 4
-165 10 -3 6 -23 10 -44 10 -20 0 -43 6 -49 12 -10 10 -17 10 -32 0 -24 -15
-76 -16 -85 -2 -3 6 -50 10 -105 10 -55 0 -102 4 -105 10 -4 6 -92 10 -230 10
-135 0 -226 4 -230 10 -4 6 -153 10 -397 10 -215 0 -393 2 -396 5 -3 3 -173 5
-378 5 -238 0 -375 4 -379 10 -4 6 -178 10 -490 10 -312 0 -486 4 -490 10 -4
7 -347 10 -995 10 -648 0 -991 -3 -995 -10z m5505 -8020 l0 -1380 -5260 0
-5260 0 0 1380 0 1380 5260 0 5260 0 0 -1380z"/>
<path d="M5984 22103 c-9 -7 -21 -10 -26 -7 -23 14 -259 -89 -298 -131 -13
-14 -29 -25 -37 -25 -7 0 -13 -6 -13 -14 0 -7 -7 -19 -15 -26 -17 -14 -45 -67
-45 -86 0 -7 -9 -29 -20 -49 -11 -20 -20 -44 -20 -55 0 -10 -13 -44 -29 -75
-16 -31 -28 -62 -25 -69 3 -7 -2 -19 -11 -26 -14 -12 -14 -15 0 -36 13 -21 15
-104 15 -664 0 -353 3 -646 7 -653 4 -6 6 -24 5 -39 -1 -14 2 -29 8 -33 5 -3
10 -14 10 -24 0 -22 47 -116 65 -131 8 -7 15 -18 15 -24 0 -14 152 -166 166
-166 6 0 19 -9 29 -20 10 -11 28 -20 41 -20 13 0 26 -4 29 -10 4 -6 116 -10
303 -10 l296 0 28 -27 c15 -15 28 -37 28 -49 0 -13 4 -25 9 -28 10 -7 16
-3842 5 -3869 -6 -16 -90 -17 -1279 -17 -839 0 -1276 -3 -1280 -10 -9 -14
-138 -13 -153 2 -24 24 -30 -7 -21 -117 5 -60 13 -380 19 -710 9 -559 24
-1033 35 -1062 3 -10 280 -13 1339 -13 1261 0 1334 -1 1341 -17 3 -10 6 -616
6 -1348 0 -731 2 -1349 5 -1373 3 -23 10 -45 15 -48 5 -3 9 -16 9 -29 0 -13 5
-27 10 -30 6 -3 10 -24 10 -45 0 -21 5 -42 10 -45 6 -3 10 -26 10 -50 0 -24 5
-47 10 -50 6 -3 10 -22 10 -41 0 -19 5 -34 10 -34 6 0 10 -21 10 -47 0 -37 12
-72 55 -159 30 -62 55 -118 55 -124 0 -18 40 -90 50 -90 6 0 10 -8 10 -18 0
-21 27 -79 40 -87 5 -3 23 -34 39 -68 16 -34 43 -75 60 -91 17 -17 31 -37 31
-46 0 -25 26 -73 55 -100 14 -13 25 -27 25 -32 0 -5 19 -29 43 -54 23 -25 50
-59 59 -76 22 -40 267 -288 285 -288 7 0 13 -4 13 -10 0 -5 6 -10 13 -10 8 0
39 -26 69 -58 64 -65 95 -92 106 -92 4 0 26 -18 47 -40 21 -22 42 -40 47 -40
4 0 27 -13 50 -29 24 -16 55 -32 70 -36 14 -4 45 -27 69 -51 24 -25 62 -54 84
-64 22 -10 49 -28 60 -40 18 -20 98 -64 120 -65 16 -1 88 -37 107 -53 26 -22
109 -62 129 -62 10 0 21 -4 24 -10 3 -6 17 -10 30 -10 13 0 27 -4 30 -10 3 -5
15 -10 26 -10 10 0 28 -4 39 -10 11 -5 29 -14 40 -20 11 -6 28 -10 39 -10 10
0 24 -7 31 -15 7 -8 23 -15 36 -15 12 0 26 -4 29 -10 3 -5 17 -10 30 -10 13 0
27 -4 30 -10 3 -5 24 -10 45 -10 21 0 42 -4 45 -10 3 -5 44 -10 90 -10 46 0
87 -4 90 -10 3 -5 15 -10 26 -10 17 0 56 -17 69 -30 13 -13 52 -30 69 -30 11
0 23 -4 26 -10 3 -5 25 -10 49 -10 23 0 46 -4 52 -9 5 -5 43 -12 84 -15 155
-12 172 -17 198 -54 28 -40 27 -12 24 -1123 -1 -400 0 -733 3 -741 7 -19 0
-381 -10 -476 -5 -56 -4 -80 8 -105 16 -33 55 -73 94 -95 28 -15 369 -17 378
-2 9 14 4661 14 4670 0 9 -15 98 -12 131 5 31 15 111 96 132 132 15 27 16 69
2 78 -6 4 -10 63 -10 145 0 82 -4 141 -10 145 -5 3 -10 26 -10 50 0 24 5 47
10 50 14 8 14 922 0 930 -28 17 7 97 52 120 35 17 173 21 183 5 3 -5 46 -10
95 -10 49 0 92 -4 95 -10 3 -5 26 -10 50 -10 24 0 47 -4 50 -10 4 -6 57 -10
125 -10 68 0 121 -4 125 -10 3 -6 42 -10 85 -10 43 0 82 -4 85 -10 3 -6 53
-10 114 -10 59 0 111 -4 117 -10 5 -5 97 -11 204 -14 107 -2 254 -8 325 -12
72 -5 285 -10 475 -11 209 -2 353 -7 365 -13 13 -7 461 -9 1365 -6 1292 5
1678 10 1710 22 25 9 121 10 127 0 5 -8 257 -1 418 12 44 3 177 8 295 9 119 2
219 8 224 13 6 6 54 10 107 10 55 0 101 4 104 10 4 6 60 10 135 10 75 0 131 4
135 10 3 5 37 10 75 10 38 0 72 5 75 10 3 6 48 10 101 10 56 0 94 4 94 10 0 6
53 10 138 10 76 0 142 4 148 9 12 13 122 21 344 27 102 3 189 9 194 14 6 6 36
10 67 10 32 0 61 5 64 10 3 6 34 10 69 10 34 0 66 4 72 9 5 6 71 13 147 17 76
4 140 11 143 15 3 5 33 9 68 9 81 0 106 -22 106 -96 0 -28 -5 -55 -12 -62 -9
-9 -9 -15 0 -24 15 -15 16 -74 2 -83 -6 -4 -10 -205 -10 -570 0 -365 4 -566
10 -570 6 -3 10 -35 10 -70 0 -35 -4 -67 -10 -70 -19 -12 -11 -90 16 -142 20
-42 35 -57 77 -77 52 -27 140 -36 152 -16 4 6 100 10 255 10 155 0 251 -4 255
-10 8 -13 195 -13 195 0 0 14 4186 14 4195 0 9 -14 121 -12 148 3 37 20 77 60
93 91 12 26 14 273 14 1920 0 1237 -4 1894 -10 1900 -16 16 -11 53 13 95 25
44 131 161 146 161 12 0 61 48 61 59 0 5 18 24 40 42 22 19 105 98 185 177 79
78 148 142 152 142 12 0 113 103 113 115 0 5 38 46 83 91 46 45 91 97 100 116
9 18 61 78 116 133 56 55 101 105 101 111 0 6 9 19 20 29 11 10 20 23 20 30 0
6 13 24 30 40 17 16 30 34 30 40 0 6 13 24 30 40 17 16 30 34 30 40 0 6 23 33
51 60 28 28 63 77 80 112 19 40 39 67 56 75 28 14 67 73 58 88 -6 9 57 91 99
130 15 13 40 52 56 85 16 33 45 76 65 95 20 19 45 54 56 77 10 23 23 44 29 48
5 3 23 35 40 70 17 35 35 67 40 70 6 4 17 21 24 38 8 18 26 44 40 59 14 15 26
34 26 41 0 8 6 17 14 20 7 3 37 52 66 109 51 101 65 128 85 158 5 8 10 20 10
25 0 19 39 105 47 105 4 0 8 11 8 23 0 13 9 32 20 42 11 10 20 23 20 30 0 7 9
20 20 30 11 10 20 28 20 41 0 13 5 26 10 29 6 3 10 17 10 30 0 13 4 26 9 30 5
3 12 18 16 34 3 16 13 35 20 41 8 7 26 37 41 69 14 31 30 64 35 73 5 10 9 27
9 37 0 11 5 23 10 26 6 3 10 14 10 24 0 10 22 60 48 112 27 52 47 100 45 106
-2 6 1 14 6 18 6 3 11 24 11 45 0 22 9 55 20 75 11 20 20 44 20 54 0 10 7 24
15 31 9 7 23 28 31 46 l16 34 1599 0 c879 0 1600 4 1603 8 3 5 58 12 122 15
64 4 121 10 128 15 6 5 44 13 85 16 40 4 81 12 90 17 17 9 73 29 156 56 71 22
157 54 175 64 47 27 136 69 147 69 6 0 24 10 40 23 15 12 48 33 73 46 25 13
53 31 63 39 19 17 30 24 108 67 29 17 69 46 89 66 19 20 45 42 57 48 12 6 49
34 82 61 33 28 64 50 69 50 5 0 48 39 95 87 48 47 97 91 110 97 12 7 23 23 25
38 4 29 67 108 87 108 7 0 27 21 43 47 17 27 51 65 75 85 24 20 54 54 65 76
11 22 48 78 81 125 34 47 61 88 61 92 0 3 18 33 40 65 22 32 40 62 40 65 0 4
14 26 30 50 17 24 30 48 30 54 0 6 4 19 10 29 5 9 16 35 25 57 9 22 22 49 28
60 6 11 21 43 35 70 13 28 27 57 32 65 4 9 15 54 25 100 10 47 21 90 26 95 4
6 14 48 23 95 9 47 23 101 31 120 7 19 21 76 30 125 9 50 23 122 30 160 8 39
19 97 25 130 6 33 18 96 26 140 23 124 42 299 34 308 -4 5 -131 17 -281 27
-345 24 -607 48 -804 75 -105 14 -236 27 -240 23 -3 -2 -18 -94 -35 -203 -40
-254 -143 -741 -170 -799 -11 -25 -20 -53 -20 -63 0 -10 -6 -27 -14 -38 -7
-11 -19 -38 -26 -60 -12 -36 -97 -148 -127 -168 -7 -4 -21 -28 -32 -53 -20
-43 -55 -83 -76 -84 -5 0 -28 -18 -50 -40 -122 -122 -372 -271 -490 -294 -16
-3 -559 -13 -1205 -20 -646 -8 -1344 -18 -1550 -22 -311 -5 -373 -4 -362 7 6
7 12 23 12 35 0 13 5 26 10 29 6 3 10 26 10 50 0 24 5 47 10 50 6 3 10 46 10
95 0 49 5 92 10 95 6 4 10 68 10 160 0 92 4 156 10 160 6 4 10 70 10 165 0 95
4 161 10 165 7 4 10 235 10 661 l0 654 1264 0 c833 0 1267 3 1271 10 3 6 34
10 68 10 94 1 324 37 372 59 11 5 36 14 55 21 19 7 44 15 55 20 43 16 92 32
125 42 19 5 42 15 50 22 8 7 49 27 90 45 41 18 87 44 103 57 16 13 33 24 39
24 6 0 27 12 47 28 20 15 43 32 52 37 9 6 39 23 65 39 27 16 65 45 85 65 57
57 156 141 167 141 9 0 69 64 125 135 16 19 35 35 43 35 14 0 37 34 28 43 -10
9 25 64 55 89 16 12 38 41 49 63 11 22 36 56 56 74 20 19 36 39 36 44 0 5 23
57 51 115 29 59 74 152 100 207 27 55 51 116 54 135 9 46 23 93 48 155 14 34
22 82 25 150 2 55 10 106 16 114 8 10 12 223 15 747 l3 733 -22 36 c-12 19
-30 40 -40 45 -10 6 -65 10 -122 10 -57 0 -108 4 -114 9 -5 5 -133 14 -284 20
-151 6 -288 14 -305 17 -16 3 -100 10 -185 15 -85 5 -159 14 -164 19 -17 17
-77 11 -108 -12 -17 -11 -39 -39 -49 -62 -17 -38 -25 -106 -14 -118 11 -11 4
-1283 -8 -1378 -11 -88 -16 -101 -60 -166 -26 -40 -47 -82 -47 -94 0 -14 -37
-58 -112 -132 -62 -60 -122 -114 -133 -119 -11 -5 -47 -28 -80 -49 -33 -22
-71 -45 -85 -51 -14 -6 -35 -16 -47 -21 -11 -6 -26 -8 -31 -4 -6 3 -13 2 -17
-4 -4 -7 -433 -10 -1296 -10 l-1289 0 0 98 c0 58 -4 102 -11 109 -7 7 -9 32
-5 67 3 31 9 81 12 112 4 35 2 60 -5 67 -14 14 -15 114 -1 122 5 3 10 21 10
39 0 21 8 40 23 54 23 21 30 22 290 22 166 0 268 4 272 10 3 6 19 10 34 10 15
0 45 9 66 19 22 10 44 17 50 14 7 -2 18 3 25 12 7 8 18 15 24 15 7 0 23 11 36
25 13 14 29 25 35 25 18 0 55 44 55 66 0 11 14 33 30 49 17 16 30 34 30 41 0
6 7 17 15 24 32 26 45 73 45 156 0 46 5 86 10 89 7 4 10 240 10 675 0 435 -3
671 -10 675 -5 3 -10 21 -10 40 0 19 -4 37 -10 40 -5 3 -10 19 -10 34 0 15 -9
36 -20 46 -11 10 -20 23 -20 30 0 7 -9 20 -20 30 -11 10 -20 23 -21 29 -1 19
-65 101 -87 112 -12 6 -30 18 -40 27 -10 10 -26 17 -34 17 -9 0 -33 9 -55 19
-63 32 -116 54 -133 56 -8 1 -22 4 -30 8 -8 4 -6134 8 -13612 10 -10675 1
-13601 -1 -13614 -10z"/>
</g>
</svg>
