<?xml version="1.0" standalone="no"?>
<!DOCTYPE svg PUBLIC "-//W3C//DTD SVG 20010904//EN"
 "http://www.w3.org/TR/2001/REC-SVG-20010904/DTD/svg10.dtd">
<svg version="1.0" xmlns="http://www.w3.org/2000/svg"
 width="4000.000000pt" height="4000.000000pt" viewBox="0 0 4000.000000 4000.000000"
 preserveAspectRatio="xMidYMid meet">

<g transform="translate(0.000000,4000.000000) scale(0.100000,-0.100000)"
fill="#000000" stroke="none">
<path d="M12055 35593 c-75 -17 -99 -28 -132 -56 -51 -45 -83 -118 -83 -190 0
-54 34 -176 76 -272 7 -16 31 -79 53 -140 22 -60 137 -368 256 -684 237 -632
255 -669 367 -762 33 -27 85 -62 116 -78 124 -62 93 -60 1008 -71 655 -7 840
-12 850 -22 7 -7 22 -51 34 -98 22 -87 30 -120 73 -275 150 -540 274 -990 299
-1080 16 -60 35 -132 43 -160 8 -27 27 -99 44 -160 16 -60 52 -190 79 -287 27
-98 47 -180 44 -183 -3 -3 -167 -5 -365 -5 -416 0 -406 2 -448 -93 -20 -43
-24 -72 -27 -174 -5 -173 21 -302 113 -558 26 -71 66 -186 90 -255 24 -69 63
-177 85 -240 23 -63 48 -135 56 -160 8 -25 18 -54 23 -65 5 -11 44 -119 86
-240 42 -121 90 -258 107 -305 73 -205 103 -287 223 -625 31 -88 58 -166 58
-174 1 -8 -22 -21 -63 -33 -150 -45 -190 -57 -295 -88 -60 -17 -137 -40 -170
-50 -33 -10 -109 -33 -170 -50 -284 -83 -482 -151 -761 -264 -1178 -476 -2245
-1217 -3027 -2106 -513 -583 -901 -1213 -1161 -1890 -34 -88 -121 -351 -141
-425 -88 -324 -132 -555 -177 -918 -8 -65 -13 -962 -17 -3071 l-6 -2978 -70
-28 c-248 -99 -439 -301 -524 -555 -24 -74 -51 -224 -51 -287 0 -63 36 -248
61 -312 53 -136 118 -234 221 -332 106 -102 174 -146 303 -198 l60 -24 6
-2759 c4 -1944 9 -2785 17 -2850 63 -510 136 -832 287 -1253 34 -97 54 -147
122 -305 129 -302 367 -707 588 -999 346 -459 794 -878 1260 -1181 172 -111
178 -116 317 -194 557 -312 1248 -536 1853 -600 391 -42 196 -41 6371 -41
5786 0 5875 0 6125 20 140 11 268 22 284 25 17 3 89 14 160 25 194 30 476 94
625 142 216 68 415 139 515 183 17 7 73 32 125 55 310 136 678 355 981 585
483 366 894 819 1241 1366 97 152 292 528 347 668 10 25 34 84 53 131 159 387
290 935 327 1360 27 309 31 655 31 3086 l0 2542 33 12 c126 50 212 105 315
204 145 138 221 282 261 490 25 128 26 173 5 291 -58 331 -260 587 -556 705
l-58 22 0 2767 c0 3084 -2 3161 -66 3576 -161 1054 -661 2071 -1457 2970 -116
131 -402 420 -544 550 -442 406 -980 791 -1543 1105 -182 102 -549 284 -705
350 -55 24 -136 58 -180 77 -44 19 -98 41 -120 49 -22 8 -49 19 -60 24 -66 33
-422 152 -640 215 -44 13 -134 39 -200 59 -66 20 -156 47 -200 60 -44 13 -122
37 -172 52 -51 15 -93 32 -93 38 0 10 53 164 120 351 16 44 81 229 145 410
153 434 166 471 213 600 22 61 63 178 92 260 57 164 108 309 120 340 106 274
143 432 144 615 1 161 -11 209 -64 262 l-38 38 -365 0 c-201 0 -368 4 -371 8
-3 5 2 33 10 63 9 30 27 95 40 144 14 50 33 119 43 155 10 36 30 108 44 160
14 52 74 268 132 480 59 212 113 408 120 435 11 43 42 157 90 325 6 25 26 97
43 160 51 186 89 321 94 325 2 2 361 7 798 10 437 4 831 11 875 16 165 19 345
142 430 294 32 57 51 104 116 285 10 30 23 64 28 75 5 11 24 61 41 110 18 50
39 104 46 120 12 28 26 66 74 200 10 28 75 201 145 385 138 362 175 474 175
524 0 65 -30 136 -75 181 -80 81 80 75 -1994 75 -1191 0 -1869 -4 -1911 -10
-39 -6 -99 -27 -150 -52 -151 -73 -260 -204 -305 -365 -8 -27 -28 -97 -45
-158 -18 -60 -38 -132 -45 -160 -7 -27 -32 -113 -55 -190 -52 -174 -76 -254
-136 -470 -26 -93 -71 -253 -100 -355 -29 -102 -57 -207 -62 -235 -6 -27 -20
-86 -32 -130 -12 -44 -32 -120 -45 -170 -13 -49 -47 -175 -75 -280 -28 -104
-68 -255 -90 -335 -21 -80 -49 -188 -63 -240 -14 -52 -53 -198 -87 -325 -75
-281 -111 -416 -150 -560 -38 -145 -105 -395 -125 -470 -9 -33 -27 -100 -40
-150 -13 -49 -47 -175 -75 -280 -50 -185 -69 -255 -143 -535 -20 -74 -61 -229
-92 -345 -117 -435 -117 -436 -190 -712 -37 -141 -52 -183 -64 -183 -9 0 -56
7 -106 15 -337 58 -712 107 -1010 130 -104 9 -218 18 -252 21 l-63 6 -2 2016
-3 2017 -27 52 c-44 82 -105 121 -207 131 l-66 7 -3 467 -2 467 402 3 c384 3
405 4 448 24 51 24 103 71 127 118 22 41 30 219 13 282 -18 63 -87 138 -147
158 -41 14 -166 16 -1125 16 -745 0 -1093 -3 -1122 -11 -55 -14 -108 -57 -144
-117 -25 -44 -27 -54 -27 -167 0 -138 13 -173 84 -238 66 -59 76 -61 509 -65
l392 -3 -2 -467 -3 -467 -62 -7 c-71 -8 -108 -25 -152 -69 -40 -40 -56 -71
-70 -137 -8 -38 -11 -609 -11 -2037 l0 -1985 -27 0 c-158 0 -813 -81 -1252
-155 -85 -14 -158 -22 -162 -18 -4 5 -16 44 -27 88 -27 103 -83 313 -117 440
-15 55 -33 123 -40 150 -7 28 -26 100 -43 160 -16 61 -49 182 -72 270 -24 88
-56 210 -72 270 -17 61 -38 142 -48 180 -10 39 -31 115 -45 170 -15 55 -40
147 -55 205 -16 58 -38 141 -50 185 -12 44 -32 121 -45 170 -13 50 -47 176
-75 280 -28 105 -67 251 -87 325 -19 74 -48 182 -64 240 -29 108 -100 375
-150 560 -15 58 -41 155 -57 215 -16 61 -50 189 -76 285 -25 96 -60 225 -76
285 -16 61 -39 151 -51 200 -20 82 -103 387 -149 545 -10 36 -44 155 -75 265
-30 110 -62 220 -69 245 -7 25 -21 74 -31 110 -10 36 -31 110 -47 165 -16 55
-35 123 -42 150 -8 28 -22 79 -32 115 -33 120 -72 189 -159 276 -56 57 -100
90 -145 112 -133 65 -20 62 -2050 61 -1015 -1 -1854 -3 -1865 -6z m8075
-12373 c0 -5 7 -10 15 -10 20 0 98 -39 107 -54 4 -6 8 -7 8 -3 0 5 14 -3 31
-17 17 -14 35 -26 40 -26 5 0 9 -4 9 -9 0 -6 10 -21 23 -35 12 -13 31 -44 43
-68 11 -23 32 -68 47 -98 l27 -55 0 -1002 c1 -843 3 -1003 15 -1003 7 0 229
214 492 475 263 261 485 481 493 487 37 31 87 64 110 74 35 16 138 34 186 33
46 0 149 -21 160 -32 4 -4 16 -7 26 -7 10 0 18 -5 18 -11 0 -5 4 -8 9 -5 5 4
11 3 13 -2 1 -4 31 -27 66 -51 34 -24 62 -50 62 -57 0 -7 14 -29 30 -47 17
-19 30 -40 30 -46 0 -9 25 -65 52 -115 6 -12 6 -22 -1 -29 -15 -15 -14 -73 1
-97 9 -14 9 -25 1 -42 -30 -62 -53 -119 -53 -129 0 -14 -40 -65 -103 -132 -27
-29 -53 -60 -58 -69 -5 -10 -15 -18 -22 -18 -8 0 -28 -20 -47 -45 -18 -25 -42
-47 -51 -50 -10 -3 -21 -14 -24 -24 -3 -9 -25 -32 -49 -50 -24 -18 -49 -44
-55 -57 -6 -13 -15 -24 -20 -24 -12 0 -151 -138 -151 -150 0 -5 -12 -16 -28
-25 -15 -9 -38 -32 -50 -51 -12 -19 -34 -39 -47 -44 -14 -5 -25 -15 -25 -22
-1 -7 -23 -31 -50 -53 -28 -22 -50 -46 -50 -52 0 -7 -4 -13 -8 -13 -7 0 -39
-31 -185 -177 -18 -17 -36 -37 -42 -43 -19 -22 -93 -95 -139 -138 -25 -23 -46
-47 -46 -52 0 -6 -3 -10 -8 -10 -11 0 -152 -139 -152 -150 0 -6 -6 -10 -12
-10 -7 0 -31 -22 -53 -50 -22 -27 -45 -49 -51 -50 -6 0 -16 -11 -22 -25 -6
-14 -15 -25 -20 -25 -14 0 -124 -113 -132 -136 -5 -12 -9 -479 -9 -1038 l-1
-1016 23 0 c12 0 30 9 40 20 9 11 25 20 35 20 11 0 33 14 50 30 18 17 40 30
51 30 10 0 21 7 25 15 3 8 25 24 50 36 25 11 50 27 57 35 6 8 17 14 24 14 7 0
18 6 24 14 7 8 31 24 54 35 61 31 105 58 129 81 12 11 28 20 35 20 13 0 62 31
90 57 7 6 26 17 43 25 16 7 30 16 30 20 0 3 13 9 30 13 16 4 33 12 37 19 5 7
27 23 51 36 23 13 42 27 42 32 0 4 6 8 14 8 8 0 27 11 43 23 29 25 60 43 131
76 23 11 42 25 42 31 0 5 16 16 35 24 19 8 44 24 57 35 12 12 29 21 38 21 9 0
25 9 35 20 10 11 23 20 30 20 7 0 25 11 41 25 16 14 40 28 54 32 14 3 34 13
45 23 36 30 116 80 129 80 7 0 24 10 38 23 13 12 35 28 49 35 44 23 88 132 89
220 0 17 4 32 9 32 10 0 18 36 33 145 6 47 20 99 34 126 17 34 24 63 24 106 0
35 7 73 16 93 19 37 32 87 40 145 3 22 11 54 19 70 7 17 20 68 29 115 18 97
47 213 55 220 3 3 7 21 9 40 3 47 23 120 32 120 4 0 10 35 13 78 3 49 13 93
27 120 12 24 25 74 30 110 4 37 15 87 23 112 9 25 20 76 26 114 5 38 16 73 23
77 7 5 9 9 4 9 -5 0 -4 6 2 13 6 7 14 47 18 90 4 42 11 77 16 77 5 0 7 4 3 9
-3 5 -1 12 4 15 5 4 12 25 16 49 8 47 19 72 46 101 11 11 19 25 19 31 0 21
113 111 192 153 l81 42 115 0 c110 0 117 -1 164 -30 26 -16 52 -30 57 -30 4 0
16 -9 26 -20 10 -11 21 -20 26 -20 11 0 99 -92 99 -104 0 -5 9 -19 20 -31 12
-12 24 -40 27 -61 3 -21 16 -58 29 -82 23 -41 33 -120 17 -135 -12 -12 -40
-102 -48 -153 -12 -79 -14 -86 -30 -144 -8 -30 -15 -64 -15 -77 0 -12 -9 -46
-20 -75 -23 -61 -40 -132 -47 -198 -3 -25 -9 -49 -14 -54 -5 -6 -9 -18 -9 -28
0 -10 -4 -26 -9 -36 -5 -9 -17 -57 -27 -107 -9 -49 -23 -105 -30 -124 -8 -18
-14 -50 -14 -70 0 -38 -27 -132 -41 -141 -4 -3 -10 -42 -14 -88 -8 -90 0 -101
45 -62 12 10 35 25 51 32 16 7 29 16 29 20 0 5 6 8 13 8 6 0 34 16 61 35 27
19 56 35 63 35 8 0 16 7 19 15 4 8 12 15 20 15 7 0 29 14 47 30 19 17 46 30
60 30 16 0 28 7 31 18 4 10 22 24 41 32 19 7 36 19 39 26 3 7 18 15 35 19 17
4 36 15 41 25 6 11 28 25 50 31 22 7 47 20 56 31 10 10 25 18 34 18 10 0 25
11 33 24 9 13 28 27 43 30 15 4 39 16 53 27 47 36 102 69 115 69 7 0 23 12 37
26 13 14 44 36 69 49 91 46 107 55 125 75 10 11 26 20 35 20 9 0 25 9 34 19
10 11 32 25 49 32 18 7 38 21 45 31 7 10 21 18 31 18 9 0 33 14 51 30 18 17
39 30 46 30 6 0 17 7 24 15 7 8 30 20 52 27 22 6 42 18 45 25 3 8 20 20 37 29
17 8 42 21 56 29 14 8 43 15 64 17 20 1 40 6 42 10 7 12 142 10 149 -2 3 -5
23 -10 43 -10 20 0 48 -7 62 -15 14 -8 36 -19 50 -25 14 -6 35 -22 48 -36 13
-13 28 -24 35 -24 7 -1 22 -15 34 -33 75 -110 93 -139 88 -147 -3 -5 -1 -11 5
-15 5 -3 10 -19 10 -35 0 -16 7 -51 16 -77 12 -36 14 -51 5 -65 -6 -10 -15
-47 -20 -84 -7 -44 -18 -76 -35 -99 -14 -19 -26 -37 -26 -42 0 -15 -85 -100
-135 -133 -27 -19 -61 -44 -75 -56 -14 -12 -40 -25 -57 -29 -18 -4 -33 -12
-33 -20 0 -7 -15 -18 -32 -26 -18 -7 -35 -16 -38 -19 -3 -3 -22 -14 -42 -23
-21 -10 -41 -24 -45 -31 -4 -7 -28 -23 -53 -35 -49 -23 -64 -32 -123 -73 -22
-16 -45 -28 -52 -28 -6 0 -22 -11 -35 -24 -12 -14 -35 -28 -50 -31 -15 -3 -36
-15 -46 -26 -9 -10 -25 -19 -34 -19 -10 0 -20 -6 -23 -13 -3 -8 -25 -24 -49
-36 -44 -22 -79 -42 -88 -51 -11 -11 -70 -50 -75 -50 -9 0 -144 -91 -151 -101
-3 -5 -13 -9 -22 -9 -9 0 -33 -14 -52 -30 -19 -16 -42 -30 -51 -30 -8 0 -25
-9 -37 -20 -12 -11 -27 -20 -35 -20 -8 0 -22 -9 -32 -20 -10 -12 -38 -29 -62
-40 -24 -10 -43 -24 -43 -29 0 -6 -11 -13 -24 -17 -14 -3 -32 -14 -42 -25 -9
-10 -23 -19 -31 -19 -8 0 -34 -13 -58 -30 -24 -16 -48 -30 -54 -30 -15 0 -14
-25 2 -39 8 -6 28 -14 45 -17 18 -4 32 -10 32 -15 0 -5 29 -9 65 -9 43 0 80
-7 108 -19 23 -11 71 -22 106 -25 37 -3 79 -15 98 -26 21 -12 62 -22 106 -26
40 -4 82 -13 94 -20 13 -8 44 -17 70 -20 61 -6 120 -22 154 -40 15 -7 60 -17
100 -20 41 -4 80 -11 87 -17 6 -5 12 -6 12 -2 0 4 16 -2 36 -14 23 -14 52 -21
87 -21 30 0 62 -6 74 -15 12 -8 45 -20 75 -26 32 -7 62 -21 75 -35 12 -13 29
-24 38 -24 8 0 15 -4 15 -9 0 -5 16 -18 35 -30 19 -11 35 -27 35 -36 0 -8 5
-15 10 -15 6 0 10 -6 10 -14 0 -7 7 -20 16 -27 20 -17 55 -96 53 -118 -1 -9 2
-25 7 -36 5 -11 9 -51 9 -90 0 -38 -4 -79 -9 -90 -5 -11 -9 -27 -8 -35 1 -8
-6 -29 -16 -46 -9 -18 -26 -49 -36 -69 -21 -39 -75 -105 -87 -105 -5 0 -19
-10 -32 -22 -49 -48 -82 -63 -156 -75 -42 -7 -84 -17 -93 -23 -25 -14 -60 -12
-94 4 -16 8 -72 20 -124 27 -58 7 -105 18 -120 29 -15 10 -55 20 -99 24 -41 4
-83 14 -95 21 -12 7 -48 16 -81 20 -67 7 -137 25 -146 38 -3 5 -26 11 -50 14
-24 2 -51 7 -59 10 -8 3 -29 7 -47 9 -18 1 -52 10 -75 18 -24 8 -65 17 -93 21
-27 4 -65 14 -84 22 -19 8 -52 17 -75 20 -23 3 -48 7 -56 11 -8 3 -42 11 -75
18 -63 13 -148 35 -255 65 -36 10 -90 21 -120 24 -49 6 -79 16 -142 46 -10 5
-44 9 -76 9 -37 0 -71 7 -96 19 -22 12 -71 23 -117 27 -57 5 -87 12 -105 27
-14 11 -44 22 -68 24 -43 5 -42 6 -143 -77 -6 -5 -23 -12 -37 -16 -14 -3 -26
-10 -26 -15 0 -5 -7 -9 -15 -9 -8 0 -15 -5 -15 -10 0 -6 -10 -14 -22 -19 -24
-9 -110 -61 -163 -96 -17 -12 -42 -27 -57 -35 -16 -7 -28 -17 -28 -22 0 -4 -5
-8 -11 -8 -6 0 -30 -13 -54 -30 -24 -16 -51 -30 -59 -30 -9 0 -16 -5 -16 -11
0 -5 -4 -8 -9 -5 -5 3 -11 -2 -14 -13 -2 -10 -17 -20 -33 -24 -16 -3 -40 -15
-53 -26 -13 -12 -29 -21 -36 -21 -6 0 -22 -11 -35 -25 -13 -14 -32 -25 -42
-25 -10 0 -27 -9 -38 -20 -11 -11 -23 -20 -27 -20 -5 0 -26 -14 -47 -30 -22
-17 -45 -30 -51 -30 -6 0 -22 -11 -34 -24 -13 -13 -34 -27 -49 -31 -14 -3 -37
-15 -50 -26 -14 -10 -30 -19 -37 -19 -6 0 -22 -11 -35 -25 -13 -14 -28 -25
-33 -25 -10 0 -117 -64 -163 -97 -17 -13 -36 -23 -41 -23 -6 0 -16 -7 -23 -15
-7 -9 -28 -23 -46 -31 -19 -9 -34 -20 -34 -25 0 -5 -7 -9 -15 -9 -19 0 -52
-18 -85 -46 -14 -12 -38 -29 -55 -37 -95 -50 -95 -50 -95 -79 0 -17 4 -27 10
-23 5 3 17 -3 27 -15 10 -11 23 -20 29 -20 6 0 17 -7 24 -15 7 -8 20 -15 29
-15 10 0 28 -11 41 -25 12 -13 27 -22 31 -19 5 3 9 1 9 -3 0 -8 14 -17 75 -47
17 -8 39 -24 49 -35 11 -12 26 -21 35 -21 9 -1 32 -14 51 -30 19 -17 39 -30
46 -30 6 0 19 -9 29 -20 10 -11 25 -20 34 -20 9 0 32 -13 51 -30 19 -16 43
-29 52 -30 10 0 23 -9 30 -20 7 -11 20 -20 28 -20 8 0 31 -14 50 -30 19 -16
42 -30 51 -30 9 0 22 -7 29 -15 7 -9 29 -23 49 -32 19 -10 43 -25 53 -35 10
-10 24 -18 31 -18 8 0 22 -9 32 -20 10 -11 27 -22 39 -26 11 -3 28 -13 37 -20
20 -18 229 -144 239 -144 3 0 17 -11 29 -24 13 -13 34 -27 48 -31 14 -3 37
-17 51 -30 15 -14 32 -25 38 -25 6 0 19 -9 28 -19 10 -11 31 -23 47 -26 16 -4
37 -18 45 -31 9 -13 24 -24 34 -24 9 0 25 -9 34 -19 10 -11 30 -22 44 -26 15
-3 34 -15 43 -26 9 -12 32 -23 57 -26 43 -6 163 14 172 28 7 9 44 18 129 30
35 5 70 14 77 20 8 6 49 15 91 20 43 5 79 13 81 19 2 5 12 10 21 10 10 0 21 3
25 8 4 4 47 12 94 18 48 7 105 19 127 27 22 9 61 16 86 17 26 0 66 10 95 24
28 13 79 26 119 30 65 7 137 26 177 47 10 5 38 9 63 9 25 0 54 5 65 10 11 6
29 15 40 20 11 6 38 10 59 10 22 0 43 5 46 10 3 6 22 10 41 10 19 0 48 7 63
15 16 8 78 23 137 35 60 11 126 24 146 29 20 5 39 6 42 3 4 -3 6 0 6 6 0 7 16
12 40 12 22 0 48 4 58 9 91 44 89 44 245 45 142 0 155 -1 184 -22 17 -12 39
-25 49 -29 28 -12 103 -67 104 -76 0 -4 12 -20 28 -35 15 -15 35 -44 45 -64
10 -21 21 -38 25 -38 4 0 13 -21 20 -47 7 -27 18 -65 24 -85 10 -34 5 -108 -9
-131 -3 -5 -6 -26 -7 -47 -2 -24 -16 -61 -39 -98 -20 -33 -37 -63 -37 -66 0
-3 -17 -21 -37 -40 -21 -20 -49 -46 -63 -60 -14 -13 -41 -27 -60 -31 -19 -4
-46 -16 -59 -26 -15 -12 -40 -19 -67 -19 -25 0 -53 -4 -64 -10 -11 -5 -29 -15
-41 -21 -11 -5 -58 -14 -104 -20 -45 -5 -96 -16 -111 -24 -16 -8 -39 -15 -51
-15 -12 0 -25 -4 -28 -10 -3 -5 -30 -10 -60 -10 -30 0 -57 -4 -60 -10 -3 -5
-17 -10 -30 -10 -13 0 -27 -4 -30 -10 -3 -5 -30 -10 -60 -10 -30 0 -56 -4 -59
-9 -4 -5 -24 -12 -46 -16 -22 -4 -40 -10 -40 -15 0 -4 -26 -11 -57 -14 -32 -4
-92 -15 -133 -25 -145 -36 -171 -41 -195 -41 -13 0 -26 -4 -30 -9 -3 -6 -26
-13 -50 -17 -50 -7 -59 -26 -22 -45 12 -7 24 -15 27 -19 3 -3 37 -24 75 -45
39 -21 72 -42 73 -47 2 -5 22 -18 44 -29 23 -12 50 -29 61 -40 12 -10 28 -19
38 -19 9 0 23 -7 30 -17 8 -9 33 -25 57 -35 23 -10 42 -23 42 -27 0 -5 20 -18
45 -30 25 -12 45 -25 45 -29 0 -5 16 -14 35 -22 20 -8 43 -22 52 -32 9 -10 24
-18 33 -18 9 0 25 -9 36 -21 18 -21 52 -40 124 -75 19 -9 45 -27 57 -40 12
-13 30 -24 41 -24 10 0 29 -11 41 -24 13 -14 28 -23 35 -20 6 2 25 -9 41 -26
16 -16 36 -30 45 -30 9 0 27 -11 40 -25 13 -14 32 -25 42 -25 10 0 18 -4 18
-8 0 -5 20 -19 45 -32 24 -13 52 -31 61 -41 10 -11 25 -19 34 -19 9 0 25 -9
34 -19 10 -11 28 -22 42 -25 13 -4 24 -11 24 -17 0 -6 4 -8 9 -5 5 3 11 -1 15
-9 3 -8 12 -15 21 -15 8 0 15 -4 15 -9 0 -5 14 -12 30 -16 17 -4 30 -10 30
-15 0 -5 23 -21 50 -36 28 -15 50 -31 50 -36 0 -4 6 -8 13 -8 8 0 20 -11 27
-25 7 -13 22 -27 32 -31 10 -3 25 -19 33 -35 9 -16 19 -29 24 -29 5 0 11 -10
15 -23 3 -12 15 -33 26 -45 43 -46 44 -308 2 -368 -10 -16 -36 -55 -56 -86
-20 -32 -43 -58 -50 -58 -7 0 -18 -11 -25 -24 -13 -24 -125 -85 -197 -106 -23
-7 -76 -11 -125 -8 -74 3 -94 8 -171 46 -48 23 -91 42 -97 42 -5 0 -18 10 -28
22 -10 13 -45 36 -76 53 -32 16 -68 40 -79 52 -12 13 -29 23 -38 23 -9 0 -44
21 -79 46 -35 25 -77 51 -95 57 -17 5 -41 21 -53 34 -12 12 -31 23 -41 23 -11
0 -22 6 -25 14 -3 8 -21 19 -40 25 -20 7 -37 20 -40 31 -3 11 -13 20 -24 20
-10 0 -38 14 -62 30 -24 17 -50 30 -56 30 -7 0 -15 6 -18 13 -2 7 -23 22 -46
32 -22 11 -41 23 -41 27 0 4 -21 17 -47 30 -27 13 -57 31 -67 41 -11 9 -24 17
-28 17 -8 0 -21 9 -53 38 -7 6 -22 12 -32 12 -10 1 -34 14 -53 30 -19 17 -39
30 -46 30 -6 0 -19 9 -29 20 -10 11 -26 20 -36 20 -10 0 -26 11 -35 24 -8 14
-28 28 -44 31 -15 3 -36 15 -46 26 -9 10 -24 19 -32 19 -8 0 -30 14 -49 30
-18 17 -40 30 -48 30 -8 0 -20 8 -27 18 -11 14 -78 52 -93 52 -9 0 -5 -58 4
-84 6 -13 11 -47 12 -75 2 -28 6 -51 11 -51 4 0 8 -8 8 -18 0 -10 5 -23 11
-29 6 -6 15 -40 19 -75 7 -60 29 -157 50 -224 6 -17 10 -41 10 -55 0 -13 9
-47 19 -75 11 -28 21 -73 22 -98 2 -26 6 -49 11 -52 4 -3 8 -18 8 -33 0 -16 7
-42 15 -57 8 -16 19 -54 25 -84 6 -30 20 -95 30 -145 11 -49 24 -116 30 -147
6 -32 16 -60 21 -63 12 -8 12 -115 -1 -115 -6 0 -9 -3 -8 -7 5 -21 -25 -125
-43 -146 -10 -14 -19 -30 -19 -36 0 -6 -18 -30 -40 -53 -22 -24 -40 -45 -40
-48 0 -3 -18 -16 -40 -30 -22 -14 -40 -28 -40 -32 0 -5 -9 -8 -19 -8 -11 0
-26 -6 -33 -12 -35 -33 -61 -38 -177 -38 -109 0 -124 2 -167 25 -26 14 -51 25
-56 25 -5 0 -23 13 -41 30 -18 16 -38 30 -44 30 -7 0 -13 6 -13 13 0 8 -11 20
-25 27 -14 7 -25 18 -25 24 0 7 -13 26 -30 44 -16 18 -30 41 -30 50 0 10 -8
33 -19 52 -10 19 -21 69 -25 110 -4 41 -14 85 -22 98 -20 30 -24 49 -35 146
-5 44 -15 86 -23 95 -7 9 -16 46 -19 82 -7 74 -10 92 -17 99 -19 19 -33 62
-37 114 -2 34 -8 70 -13 81 -16 37 -30 90 -32 123 -1 19 -6 36 -10 38 -4 3 -8
20 -8 38 0 18 -7 47 -16 65 -9 18 -20 62 -25 99 -8 65 -24 127 -39 147 -8 10
-16 54 -26 143 -4 29 -10 55 -15 58 -5 3 -9 16 -9 29 0 13 -4 26 -9 29 -4 3
-11 34 -13 69 -3 35 -10 73 -17 85 -6 12 -15 30 -20 40 -5 10 -12 51 -16 92
-6 74 -22 136 -37 154 -4 6 -8 23 -8 39 0 36 -28 135 -41 142 -5 4 -9 17 -9
31 0 33 -17 64 -35 64 -21 0 -57 21 -73 43 -7 9 -21 17 -31 17 -10 0 -28 11
-40 24 -12 13 -43 34 -69 47 -26 12 -69 39 -97 58 -61 44 -83 58 -115 73 -14
7 -38 21 -55 33 -16 11 -46 28 -65 39 -19 10 -39 25 -43 32 -4 8 -14 14 -21
14 -7 0 -24 9 -38 19 -13 11 -36 23 -51 26 -14 4 -33 18 -42 31 -8 13 -24 24
-34 24 -10 0 -25 8 -35 18 -9 11 -34 24 -56 31 -22 6 -40 16 -40 21 0 5 -18
19 -40 30 -23 12 -50 30 -60 40 -11 11 -26 20 -33 20 -8 0 -22 9 -32 20 -10
11 -26 20 -37 20 -10 0 -18 5 -18 10 0 6 -4 10 -10 10 -5 0 -31 15 -57 34 -27
19 -67 42 -90 51 -24 9 -41 20 -39 24 3 4 -18 20 -46 36 -28 17 -60 37 -72 45
-67 46 -93 60 -108 60 -10 0 -25 11 -34 25 -9 14 -22 25 -29 25 -7 0 -24 9
-38 20 -14 11 -32 20 -41 20 -14 0 -15 -99 -13 -1032 l2 -1033 138 -137 c75
-76 142 -138 147 -138 6 0 10 -4 10 -9 0 -10 248 -261 259 -261 3 -1 24 -23
46 -50 22 -28 45 -50 51 -50 6 0 17 -11 24 -25 7 -13 21 -27 32 -31 10 -3 18
-12 18 -20 0 -8 11 -19 25 -24 14 -5 25 -15 25 -22 0 -7 22 -31 50 -53 27 -22
49 -44 50 -50 0 -5 22 -28 50 -50 27 -22 49 -43 50 -47 0 -11 152 -158 162
-158 5 0 8 -4 8 -9 0 -13 118 -131 130 -131 5 0 15 -10 21 -22 14 -27 51 -63
79 -78 11 -6 20 -15 20 -21 0 -12 79 -89 92 -89 4 0 8 -5 8 -10 0 -6 35 -47
78 -90 99 -102 132 -143 132 -165 0 -10 10 -36 21 -59 12 -22 25 -49 30 -58
12 -24 11 -148 -1 -148 -5 0 -10 -9 -10 -20 0 -33 -41 -134 -66 -161 -13 -14
-24 -30 -24 -37 0 -19 -92 -101 -122 -107 -16 -4 -32 -15 -38 -24 -9 -19 -148
-51 -220 -51 -65 -1 -184 31 -211 56 -14 13 -33 24 -42 24 -9 0 -17 7 -17 15
0 8 -4 15 -10 15 -5 0 -42 32 -81 70 -40 39 -76 70 -81 70 -4 0 -8 4 -8 8 0 4
-38 47 -85 94 -47 47 -85 84 -85 82 0 -3 -19 17 -43 43 -57 64 -107 113 -107
105 0 -4 -8 4 -17 17 -9 13 -48 54 -86 90 -39 36 -91 88 -115 114 -138 145
-264 267 -277 267 -13 0 -14 -123 -14 -1001 l-1 -1001 -25 -53 c-14 -30 -25
-58 -25 -64 0 -26 -113 -171 -134 -171 -3 0 -20 -13 -38 -30 -18 -16 -40 -30
-50 -30 -9 0 -24 -8 -34 -18 -15 -15 -38 -17 -169 -17 -131 0 -154 2 -169 17
-10 10 -23 18 -30 18 -7 0 -32 14 -54 30 -23 16 -46 30 -50 30 -14 0 -122 152
-122 172 0 7 -11 35 -25 62 l-25 49 0 1004 c0 955 -1 1003 -18 1003 -17 0 -45
-25 -49 -43 -1 -5 -17 -21 -35 -36 -36 -29 -385 -378 -396 -396 -4 -6 -21 -22
-38 -36 -18 -14 -51 -48 -75 -75 -24 -27 -48 -51 -52 -54 -13 -7 -197 -190
-192 -190 3 0 -12 -15 -31 -32 -20 -18 -58 -54 -85 -80 -26 -27 -54 -48 -61
-48 -6 0 -24 -11 -38 -25 -19 -18 -45 -29 -90 -36 -35 -5 -70 -13 -79 -18 -18
-9 -65 -6 -131 8 -25 5 -62 13 -82 16 -22 3 -42 14 -48 24 -5 10 -22 22 -36
25 -36 9 -112 72 -120 99 -3 12 -16 33 -29 47 -12 14 -32 52 -44 85 -13 33
-27 68 -32 77 -13 25 -11 131 2 165 7 15 20 47 30 70 11 24 19 48 19 54 0 12
40 65 83 109 15 15 27 33 27 39 0 6 5 11 11 11 14 0 89 76 89 90 0 6 4 10 10
10 13 0 150 136 150 149 0 6 5 11 10 11 13 0 80 66 80 79 0 5 8 12 18 15 11 4
25 18 32 31 7 14 18 25 23 25 12 0 257 249 257 261 0 5 6 9 14 9 8 0 31 23 52
50 21 28 44 50 51 50 8 0 18 11 23 25 5 14 14 25 21 25 13 0 89 78 89 91 0 5
5 9 10 9 8 0 85 75 158 153 4 4 21 20 37 35 17 15 39 39 50 53 11 14 28 28 38
32 9 4 17 13 17 22 0 8 3 15 8 15 13 0 92 75 92 88 0 7 8 16 18 19 17 7 142
127 142 137 0 3 21 26 48 51 l47 45 2 1030 c2 963 1 1030 -15 1030 -9 0 -28
-9 -42 -20 -14 -11 -33 -20 -42 -20 -10 0 -18 -4 -18 -10 0 -5 -21 -21 -47
-36 -27 -15 -68 -41 -93 -58 -50 -35 -78 -52 -100 -63 -8 -4 -42 -24 -74 -45
-33 -21 -65 -38 -73 -38 -7 0 -13 -4 -13 -10 0 -5 -7 -10 -15 -10 -8 0 -15 -4
-15 -10 0 -5 -19 -18 -42 -29 -24 -11 -52 -27 -63 -35 -44 -35 -111 -76 -124
-76 -7 0 -22 -11 -32 -24 -11 -14 -32 -27 -48 -31 -16 -3 -37 -15 -47 -26 -9
-10 -25 -19 -35 -19 -10 0 -23 -8 -28 -19 -6 -10 -27 -26 -48 -36 -60 -27
-103 -52 -127 -74 -12 -12 -27 -21 -32 -21 -6 0 -26 -12 -45 -26 -19 -14 -49
-32 -66 -41 -18 -8 -33 -19 -33 -24 0 -5 -7 -9 -16 -9 -9 0 -32 -13 -51 -30
-18 -16 -40 -30 -47 -30 -12 0 -98 -51 -131 -77 -5 -4 -22 -14 -36 -21 -14 -8
-38 -24 -54 -38 -15 -13 -35 -26 -44 -29 -41 -13 -91 -131 -91 -212 0 -16 -3
-33 -7 -37 -15 -15 -33 -85 -39 -156 -4 -45 -15 -89 -27 -110 -12 -22 -22 -61
-25 -105 -2 -38 -8 -75 -13 -81 -11 -14 -41 -120 -46 -169 -3 -22 -9 -45 -14
-51 -9 -11 -16 -41 -40 -164 -5 -30 -16 -75 -23 -100 -8 -25 -24 -90 -36 -145
-13 -55 -26 -104 -30 -110 -4 -5 -10 -38 -13 -73 -3 -34 -10 -68 -15 -75 -17
-21 -42 -119 -42 -167 0 -25 -7 -55 -15 -68 -9 -12 -20 -54 -24 -94 -10 -80
-18 -108 -33 -108 -5 0 -6 -5 -3 -10 4 -6 2 -16 -3 -23 -5 -7 -14 -54 -20
-105 -6 -51 -18 -102 -27 -114 -8 -13 -15 -32 -15 -44 0 -12 -13 -38 -30 -59
-16 -21 -30 -43 -30 -50 0 -6 -10 -21 -22 -32 -13 -11 -30 -30 -38 -41 -8 -12
-19 -22 -25 -22 -5 0 -26 -14 -45 -30 -19 -16 -45 -30 -57 -30 -12 0 -28 -6
-35 -12 -34 -32 -61 -38 -159 -38 -93 0 -105 2 -135 25 -18 14 -42 25 -53 25
-12 0 -21 3 -21 8 0 4 -13 13 -28 20 -36 15 -142 120 -142 139 0 7 -6 16 -14
19 -16 6 -36 55 -36 89 0 13 -7 28 -15 35 -8 7 -15 23 -15 36 0 12 -4 26 -10
29 -13 8 -13 79 -1 103 33 61 40 89 57 217 1 11 6 31 12 45 5 14 15 59 22 100
7 41 16 77 19 80 10 7 31 84 31 113 0 14 5 29 10 32 6 3 10 19 10 35 0 16 7
55 16 87 9 32 25 96 35 143 10 47 22 92 25 100 10 22 15 48 20 105 5 45 20 92
43 136 15 28 25 169 12 169 -18 0 -72 -30 -104 -56 -16 -13 -34 -24 -41 -24
-7 0 -21 -9 -31 -20 -10 -11 -24 -20 -30 -20 -7 0 -50 -25 -95 -55 -45 -30
-89 -55 -96 -55 -8 0 -23 -9 -34 -20 -11 -11 -22 -20 -24 -20 -4 0 -118 -70
-260 -160 -39 -24 -87 -53 -106 -63 -19 -11 -42 -25 -50 -31 -8 -7 -27 -17
-42 -24 -16 -6 -28 -15 -28 -20 0 -5 -18 -17 -40 -27 -22 -10 -40 -21 -40 -25
0 -4 -22 -17 -50 -29 -27 -12 -50 -25 -50 -30 0 -5 -12 -12 -27 -16 -15 -3
-37 -17 -50 -31 -12 -13 -30 -24 -40 -24 -10 0 -32 -14 -50 -30 -18 -17 -37
-30 -43 -30 -7 0 -23 -9 -37 -20 -14 -11 -33 -20 -43 -20 -9 0 -26 -11 -36
-25 -10 -13 -30 -27 -45 -30 -15 -4 -33 -13 -40 -22 -12 -13 -58 -37 -67 -33
-2 0 -12 -10 -23 -24 -11 -15 -28 -26 -36 -26 -9 0 -24 -6 -32 -14 -24 -22
-131 -46 -203 -46 -70 0 -174 23 -198 44 -8 8 -25 17 -38 21 -30 9 -127 108
-169 174 -25 39 -38 73 -44 120 -5 36 -14 70 -19 75 -13 13 -13 53 0 58 5 2
14 38 20 81 11 86 15 97 35 97 7 0 16 14 20 30 4 17 11 30 16 30 5 0 9 7 9 15
0 8 6 15 14 15 8 0 17 9 21 20 6 19 86 80 106 80 5 0 9 5 9 12 0 6 3 9 6 5 3
-3 16 3 27 14 12 11 32 22 44 25 13 4 23 10 23 15 0 5 4 9 10 9 5 0 20 9 33
21 25 21 72 49 120 71 15 7 27 17 27 24 0 6 18 17 40 24 22 7 47 21 56 32 10
10 23 18 29 18 7 0 29 14 50 30 21 17 43 30 50 30 7 0 19 7 26 17 8 9 33 24
55 35 23 10 47 25 54 33 7 8 18 15 25 15 6 0 25 11 41 25 16 14 34 25 41 25 6
0 25 11 41 25 17 14 37 25 46 25 9 0 16 4 16 9 0 5 21 19 48 32 26 12 51 29
55 36 4 7 13 13 18 13 6 0 30 14 54 30 24 17 49 30 55 30 10 0 19 6 53 36 7 5
41 27 77 48 36 21 76 48 90 61 14 12 37 25 52 29 15 3 33 12 40 19 7 6 25 18
41 26 15 8 27 18 27 23 0 4 18 15 40 24 22 9 40 19 40 23 0 4 16 14 35 21 22
8 35 20 33 29 -4 17 -91 48 -162 57 -28 3 -76 14 -106 24 -31 10 -80 21 -110
24 -30 4 -68 13 -85 20 -53 24 -100 36 -139 36 -20 0 -56 9 -78 20 -26 12 -62
20 -94 20 -29 0 -56 5 -59 10 -3 6 -14 10 -23 10 -9 0 -30 7 -47 16 -16 8 -59
18 -95 21 -36 3 -92 16 -125 28 -33 13 -90 26 -127 30 -37 4 -72 13 -78 20 -6
8 -28 16 -49 20 -22 3 -49 17 -62 31 -12 13 -28 24 -35 24 -6 0 -26 17 -43 38
-17 20 -38 44 -46 53 -8 9 -15 20 -15 26 0 5 -11 20 -25 33 -13 12 -22 27 -19
31 3 5 1 9 -4 9 -5 0 -18 34 -27 75 -18 74 -17 178 1 207 5 7 7 23 6 34 -2 12
3 28 10 35 7 8 24 36 38 63 28 56 107 137 160 164 19 10 44 23 55 29 47 27
158 43 230 33 39 -5 97 -12 130 -16 55 -5 102 -20 147 -44 10 -6 36 -10 58
-10 22 0 40 -4 40 -9 0 -5 17 -11 38 -14 76 -10 257 -49 269 -59 11 -9 64 -20
166 -35 20 -3 40 -9 43 -14 3 -5 16 -9 29 -9 13 0 27 -4 30 -10 3 -5 27 -10
53 -10 41 -1 128 -23 157 -42 6 -3 41 -9 79 -13 38 -4 81 -14 95 -21 14 -8 36
-14 48 -14 12 0 25 -4 28 -10 3 -5 26 -10 50 -10 24 0 57 -5 72 -11 15 -6 37
-15 48 -20 11 -4 54 -11 96 -14 57 -5 82 -12 99 -27 16 -15 42 -22 116 -28 52
-5 102 -14 110 -21 8 -7 54 -18 101 -25 47 -7 89 -17 92 -22 10 -16 92 -34
124 -28 16 3 38 17 49 31 11 14 25 25 33 25 7 0 18 7 25 15 7 8 29 20 50 26
23 7 40 19 43 30 3 11 14 19 25 19 11 0 34 11 50 25 17 14 35 25 40 25 6 0 23
11 37 24 15 14 40 28 56 31 16 4 29 10 29 15 0 9 81 62 143 93 20 11 37 23 37
27 0 5 10 12 23 16 25 7 160 95 165 107 2 4 12 7 23 7 10 0 27 8 37 18 10 9
35 26 56 37 21 11 40 25 43 32 2 6 20 14 39 17 19 4 34 11 34 16 0 5 18 19 40
30 23 12 43 27 47 35 3 8 13 15 23 15 10 0 31 11 47 24 15 13 38 27 51 30 13
4 56 30 97 57 41 27 79 49 84 49 6 0 21 11 35 25 14 14 34 25 44 25 10 0 27 9
37 20 10 11 24 20 32 20 7 0 13 5 13 10 0 6 6 10 13 10 8 0 22 9 32 20 10 11
26 20 35 20 9 0 25 9 35 20 10 11 24 20 32 20 7 0 13 4 13 9 0 5 9 11 20 14
14 3 20 14 20 31 0 14 -4 26 -9 26 -6 0 -22 12 -38 26 -15 14 -40 28 -55 31
-14 3 -37 16 -49 29 -12 13 -28 24 -36 24 -7 0 -13 4 -13 9 0 5 -8 11 -17 15
-20 6 -41 19 -90 53 -17 13 -36 23 -41 23 -6 0 -12 3 -14 8 -1 4 -21 16 -43
27 -21 11 -52 30 -67 43 -26 22 -79 53 -155 90 -18 9 -33 19 -33 23 0 4 -20
17 -44 29 -24 11 -47 27 -50 35 -3 8 -14 15 -24 15 -10 0 -36 13 -58 30 -21
16 -45 30 -51 30 -7 0 -13 5 -13 11 0 5 -15 16 -32 24 -18 7 -44 23 -57 34
-13 12 -30 21 -36 21 -7 0 -19 7 -26 16 -8 9 -34 25 -59 36 -25 11 -49 26 -53
34 -4 8 -14 14 -21 14 -8 0 -19 7 -27 16 -7 9 -30 23 -51 31 -21 8 -38 18 -38
22 0 3 -21 17 -47 31 -27 13 -50 27 -53 30 -12 13 -137 90 -147 90 -5 0 -18 9
-28 20 -18 20 -38 32 -120 72 -22 11 -50 29 -62 41 -19 17 -31 19 -82 14 -33
-3 -66 -9 -73 -13 -25 -16 -83 -34 -133 -40 -27 -3 -76 -14 -107 -24 -31 -10
-81 -20 -110 -21 -54 -3 -91 -13 -118 -35 -8 -6 -44 -15 -80 -19 -36 -4 -83
-13 -105 -20 -22 -8 -80 -21 -129 -30 -49 -9 -102 -23 -117 -31 -16 -8 -39
-14 -53 -14 -14 0 -28 -4 -31 -10 -3 -5 -28 -10 -54 -10 -50 0 -111 -16 -111
-30 0 -4 -31 -10 -70 -14 -38 -4 -84 -12 -102 -17 -72 -23 -106 -30 -172 -38
-38 -5 -71 -13 -75 -17 -14 -19 -53 -34 -90 -34 -46 0 -144 -21 -152 -32 -3
-4 -41 -11 -85 -14 -62 -5 -86 -12 -112 -31 -32 -24 -39 -25 -211 -26 l-178
-2 -37 33 c-20 17 -42 32 -49 32 -19 0 -137 118 -137 137 0 3 -11 20 -23 37
-13 17 -28 45 -32 61 -10 37 -10 36 -20 59 -12 27 -12 146 -1 171 5 11 8 27 7
36 -2 20 34 105 48 114 6 3 17 21 25 39 17 42 132 142 172 150 18 4 40 16 50
27 13 14 30 19 70 19 29 0 55 4 58 9 3 4 20 12 38 16 18 4 35 9 38 10 3 1 12
4 20 8 8 3 47 8 85 12 39 3 79 12 90 19 29 18 92 34 154 40 29 3 59 10 66 16
7 6 58 16 112 22 70 8 104 16 119 29 13 12 43 21 85 25 35 4 90 15 121 25 32
11 73 19 92 19 19 0 38 5 41 10 3 6 21 10 40 10 19 0 36 4 40 9 3 6 26 13 50
17 54 8 59 27 13 50 -18 9 -35 20 -38 23 -3 4 -16 12 -30 19 -44 21 -94 53
-115 72 -11 10 -32 21 -46 25 -15 4 -36 18 -48 31 -11 13 -27 24 -34 24 -7 0
-22 8 -33 18 -10 9 -36 25 -56 34 -21 10 -38 22 -38 27 0 5 -10 13 -22 16 -13
4 -37 18 -55 31 -17 13 -35 24 -38 24 -4 0 -26 14 -50 30 -24 17 -46 30 -50
30 -5 0 -64 39 -75 50 -10 10 -47 31 -88 50 -23 11 -45 26 -48 34 -3 9 -21 18
-40 22 -19 3 -34 10 -34 14 0 11 -125 90 -143 90 -8 0 -22 11 -31 25 -9 14
-25 25 -36 25 -10 0 -27 8 -37 19 -10 10 -30 21 -44 24 -15 4 -34 18 -43 32
-9 14 -23 25 -32 25 -8 0 -35 14 -59 30 -24 17 -48 30 -53 30 -6 0 -12 7 -15
14 -3 8 -22 18 -42 22 -19 3 -40 15 -46 25 -5 11 -31 30 -57 43 -50 26 -186
149 -175 160 3 3 2 6 -4 6 -6 0 -13 10 -17 23 -3 12 -16 33 -28 47 -22 23 -23
32 -23 180 l0 155 38 55 c21 30 47 70 58 88 12 17 27 32 35 32 8 0 19 11 25
24 7 14 21 27 33 30 12 3 33 15 46 26 13 11 31 20 42 20 18 0 27 4 75 28 47
25 125 25 188 2 33 -12 75 -26 93 -30 19 -5 44 -18 56 -29 12 -12 32 -21 44
-21 11 0 27 -9 35 -21 14 -19 29 -29 115 -75 17 -10 32 -23 32 -30 0 -7 14
-16 32 -19 17 -4 49 -20 71 -36 22 -16 46 -29 54 -29 7 0 13 -4 13 -10 0 -5
20 -19 45 -31 25 -12 45 -25 45 -29 0 -5 21 -19 48 -32 71 -36 96 -52 105 -65
4 -7 28 -22 52 -33 25 -11 45 -25 45 -29 0 -5 15 -14 34 -21 18 -6 41 -19 51
-29 9 -11 28 -22 42 -26 13 -3 35 -17 47 -30 13 -14 28 -25 34 -25 6 0 28 -11
48 -25 20 -14 42 -25 48 -25 6 0 17 -9 23 -20 7 -10 31 -25 54 -31 23 -7 43
-19 46 -26 3 -7 10 -13 16 -13 5 0 25 -11 44 -26 18 -14 46 -30 63 -35 16 -6
32 -19 35 -29 3 -10 19 -20 37 -24 17 -3 37 -15 45 -26 8 -11 23 -20 34 -20
10 0 28 -9 39 -20 11 -11 22 -20 25 -20 3 0 29 -16 58 -35 28 -19 57 -35 64
-35 6 0 13 -5 15 -11 2 -6 11 -10 20 -8 14 4 14 10 2 54 -7 28 -13 74 -14 103
0 28 -4 52 -9 52 -9 0 -24 31 -27 55 0 6 -4 17 -7 25 -3 8 -8 33 -11 55 -2 22
-9 58 -14 80 -6 22 -18 78 -27 125 -10 47 -26 109 -36 138 -11 29 -19 68 -19
87 0 19 -4 37 -10 40 -5 3 -10 21 -10 40 0 19 -9 56 -19 83 -11 27 -26 85 -34
128 -22 117 -46 232 -63 290 -18 65 -18 114 1 150 8 16 15 38 15 50 0 48 98
197 151 229 9 6 48 29 87 53 l70 42 134 0 c98 0 139 -4 158 -15 14 -8 44 -24
68 -36 24 -11 46 -27 49 -35 3 -8 11 -14 18 -14 7 0 20 -11 29 -25 9 -14 23
-25 31 -25 8 0 15 -6 15 -13 0 -7 13 -31 30 -53 16 -21 30 -43 30 -47 0 -4 9
-27 19 -50 10 -23 22 -75 26 -116 4 -43 15 -87 26 -105 10 -16 16 -33 13 -37
-2 -4 0 -10 6 -14 5 -3 10 -27 10 -53 0 -26 7 -60 16 -77 8 -16 19 -64 24
-106 11 -97 19 -130 37 -150 8 -10 16 -43 19 -75 3 -33 13 -88 24 -124 26 -92
58 -227 81 -350 11 -58 27 -115 35 -127 8 -12 14 -36 14 -52 0 -17 4 -40 9
-53 5 -13 15 -50 22 -83 7 -33 16 -64 19 -70 4 -5 10 -43 12 -84 3 -40 9 -76
14 -80 18 -12 32 -58 44 -136 20 -135 22 -145 31 -145 5 0 9 -11 9 -24 0 -32
29 -158 39 -171 5 -5 11 -22 15 -37 5 -20 20 -35 54 -52 27 -14 54 -32 61 -40
8 -9 20 -16 27 -16 19 0 55 -21 75 -42 9 -10 21 -18 26 -18 6 0 18 -9 27 -19
10 -11 31 -23 46 -26 15 -3 38 -17 50 -31 13 -13 29 -24 35 -24 6 0 42 -20 79
-45 38 -25 73 -45 77 -45 5 0 23 -13 41 -28 18 -15 45 -33 61 -40 15 -6 27
-16 27 -21 0 -6 16 -13 35 -17 20 -3 40 -16 50 -30 8 -13 24 -24 33 -24 10 0
29 -11 42 -24 12 -14 36 -28 52 -31 16 -4 32 -13 35 -21 3 -8 11 -14 18 -14 8
0 26 -11 42 -24 15 -13 43 -31 62 -41 19 -9 43 -25 54 -36 11 -10 33 -21 48
-24 16 -4 35 -14 41 -24 7 -10 27 -24 43 -32 50 -25 79 -43 105 -65 14 -11 41
-27 60 -34 19 -7 40 -18 45 -25 6 -6 25 -20 43 -30 17 -11 32 -23 32 -27 0 -4
16 -10 35 -14 20 -3 44 -17 54 -30 10 -12 30 -26 44 -30 15 -3 27 -12 27 -20
0 -8 10 -14 25 -14 l26 0 -1 1016 c-1 614 -5 1026 -11 1042 -5 15 -28 40 -49
56 -22 17 -40 33 -40 37 0 5 -30 36 -66 71 -36 35 -75 72 -86 83 -72 74 -94
95 -100 95 -5 0 -8 7 -8 15 0 8 -4 15 -8 15 -10 0 -92 78 -92 88 0 4 -13 15
-28 24 -15 9 -34 27 -41 40 -7 13 -30 37 -51 53 -21 17 -44 40 -51 53 -7 12
-16 22 -20 22 -9 0 -139 129 -139 139 -1 3 -21 22 -45 41 -25 19 -45 40 -45
47 0 7 -10 18 -22 24 -12 6 -33 25 -47 42 -14 17 -34 38 -44 47 -41 34 -317
312 -317 319 0 4 -20 22 -45 41 -25 18 -47 41 -50 49 -4 9 -26 32 -50 51 -24
19 -44 38 -44 43 -1 11 -80 87 -91 87 -5 0 -10 6 -10 14 0 8 -9 18 -21 21 -11
4 -27 21 -34 39 -7 17 -23 40 -34 50 -12 11 -21 25 -21 33 0 12 -29 85 -51
125 -12 23 -12 143 0 166 19 36 51 112 51 122 0 6 11 23 25 38 14 15 28 37 31
49 6 21 111 103 133 103 7 0 14 7 17 15 4 8 14 15 24 15 11 0 21 4 24 9 3 4
46 14 95 21 74 10 102 10 153 0 75 -15 151 -49 193 -86 17 -14 42 -33 58 -42
15 -9 27 -19 27 -23 0 -10 370 -378 392 -390 10 -5 18 -14 18 -19 0 -11 389
-400 401 -400 4 0 13 -8 18 -18 19 -37 66 -82 83 -82 17 0 18 49 18 1004 l0
1004 25 43 c14 24 25 53 25 64 0 11 14 36 30 55 16 19 30 41 30 48 0 6 23 28
50 48 28 20 50 40 50 45 0 4 21 18 48 29 26 11 58 27 72 34 30 17 270 22 270
6z"/>
</g>
</svg>
