<?xml version="1.0" standalone="no"?>
<!DOCTYPE svg PUBLIC "-//W3C//DTD SVG 20010904//EN"
 "http://www.w3.org/TR/2001/REC-SVG-20010904/DTD/svg10.dtd">
<svg version="1.0" xmlns="http://www.w3.org/2000/svg"
 width="4000.000000pt" height="4000.000000pt" viewBox="0 0 4000.000000 4000.000000"
 preserveAspectRatio="xMidYMid meet">

<g transform="translate(0.000000,4000.000000) scale(0.100000,-0.100000)"
fill="#000000" stroke="none">
<path d="M25135 36623 c-16 -2 -39 -8 -50 -13 -44 -19 -90 -30 -126 -30 -21 0
-41 -5 -44 -10 -4 -6 -10 -8 -14 -6 -9 6 -88 -23 -136 -48 -16 -9 -38 -16 -47
-16 -22 0 -67 -19 -97 -42 -13 -10 -33 -18 -45 -18 -12 0 -43 -18 -70 -40 -26
-22 -55 -40 -63 -40 -8 0 -24 -11 -34 -24 -10 -13 -30 -27 -44 -30 -15 -4 -40
-22 -57 -41 -16 -19 -36 -35 -43 -35 -16 0 -265 -244 -265 -260 0 -6 -16 -30
-35 -53 -78 -94 -105 -129 -105 -141 0 -7 -11 -27 -25 -46 -14 -19 -25 -42
-25 -53 0 -20 -25 -70 -51 -102 -9 -11 -20 -42 -24 -69 -4 -27 -17 -65 -30
-85 -15 -23 -28 -65 -35 -116 -7 -44 -15 -84 -19 -90 -24 -33 -31 -109 -31
-341 0 -233 1 -251 20 -282 13 -21 26 -72 35 -135 9 -64 24 -122 40 -154 14
-29 25 -60 25 -69 0 -9 14 -33 30 -54 31 -40 39 -87 18 -108 -15 -15 -64 -16
-73 -2 -3 6 -42 10 -85 10 -43 0 -82 -4 -85 -10 -3 -5 -17 -10 -30 -10 -13 0
-27 5 -30 10 -8 13 -1121 14 -1129 1 -3 -4 -41 -11 -83 -15 -105 -8 -165 -16
-183 -23 -8 -3 -18 -6 -22 -5 -23 5 -198 -33 -223 -48 -16 -9 -50 -20 -73 -23
-24 -3 -54 -14 -65 -25 -12 -11 -33 -23 -47 -26 -48 -13 -107 -40 -190 -87
-30 -17 -71 -40 -90 -50 -33 -19 -81 -54 -160 -116 -38 -30 -249 -239 -318
-315 -23 -25 -42 -52 -42 -58 0 -7 -13 -28 -30 -47 -16 -18 -30 -40 -30 -48 0
-8 -4 -15 -10 -15 -5 0 -10 -5 -10 -10 0 -6 -13 -29 -30 -52 -16 -22 -30 -49
-30 -58 0 -10 -7 -23 -14 -30 -8 -6 -23 -33 -32 -58 -10 -26 -21 -51 -26 -56
-4 -6 -8 -17 -8 -26 0 -9 -9 -25 -19 -34 -11 -10 -22 -38 -25 -64 -9 -62 -25
-113 -42 -133 -8 -9 -18 -65 -25 -145 -6 -71 -15 -133 -19 -139 -19 -24 -22
-169 -23 -1032 l-2 -917 31 -18 c30 -17 224 -18 4854 -18 l4824 0 21 20 22 21
-3 942 c-2 648 -6 954 -14 982 -14 53 -16 64 -30 178 -7 60 -19 114 -32 138
-11 21 -22 58 -25 81 -2 24 -7 50 -9 58 -3 8 -5 17 -5 20 0 3 -6 12 -13 20
-15 17 -41 72 -52 110 -4 14 -17 38 -30 53 -13 16 -24 37 -24 47 0 11 -13 34
-28 52 -16 18 -34 49 -42 68 -7 19 -26 45 -42 58 -15 13 -28 33 -28 45 0 13
-30 53 -75 102 -41 44 -81 87 -88 95 -44 50 -221 205 -245 216 -16 6 -36 20
-43 30 -16 22 -53 44 -72 44 -7 0 -26 13 -41 29 -16 16 -39 32 -52 35 -13 4
-40 17 -60 31 -20 14 -45 25 -55 25 -10 0 -20 4 -23 9 -3 5 -18 12 -33 16 -15
3 -38 14 -52 24 -14 10 -53 24 -86 31 -33 8 -69 19 -80 26 -23 13 -101 32
-160 37 -22 3 -47 7 -55 10 -22 8 -201 27 -259 27 -27 0 -53 5 -56 10 -4 7
-235 10 -660 10 -425 0 -656 -3 -660 -10 -11 -17 -51 -11 -71 11 -15 16 -16
24 -6 39 7 11 12 26 12 33 0 8 9 22 20 32 11 10 20 30 20 44 0 14 12 49 26 76
16 32 31 87 41 155 8 57 23 115 32 129 14 22 16 62 16 296 0 242 -2 274 -18
305 -10 19 -25 80 -32 136 -10 77 -20 110 -39 139 -14 21 -26 48 -26 62 0 26
-14 54 -47 95 -12 15 -25 42 -28 60 -4 18 -18 46 -31 61 -13 16 -24 33 -24 39
0 14 -68 107 -102 140 -16 14 -28 33 -28 41 0 20 -235 257 -255 257 -9 0 -18
7 -21 15 -4 8 -13 15 -20 15 -8 0 -20 11 -26 25 -6 14 -17 25 -24 25 -7 0 -31
16 -54 35 -23 19 -50 35 -59 35 -10 0 -34 15 -55 34 -25 21 -52 36 -77 39 -21
3 -52 16 -68 30 -16 13 -47 27 -68 30 -21 4 -67 20 -102 37 -42 21 -90 34
-144 41 -45 6 -95 18 -112 27 -25 14 -66 17 -250 18 -121 1 -233 0 -250 -3z
m352 -1013 c53 -7 104 -21 145 -40 223 -106 301 -183 411 -402 l42 -83 0 -201
0 -200 -31 -65 c-18 -35 -38 -79 -45 -98 -17 -46 -161 -221 -182 -221 -5 0
-23 -12 -40 -26 -16 -14 -68 -43 -114 -66 -109 -52 -272 -76 -393 -58 -111 16
-219 41 -225 51 -3 5 -27 18 -53 29 -26 12 -58 31 -72 44 -14 12 -37 30 -52
39 -16 10 -28 24 -28 32 0 8 -12 21 -28 29 -29 15 -73 76 -115 161 -13 28 -35
70 -47 95 -21 40 -24 64 -28 215 -3 106 0 190 7 223 18 87 116 257 193 334 37
38 71 68 76 68 5 0 29 16 53 35 24 19 49 35 56 35 6 0 42 14 79 31 105 46 230
59 391 39z"/>
<path d="M30803 33079 c-43 -16 -42 -104 2 -188 14 -25 27 -73 31 -106 3 -33
8 -67 11 -75 3 -8 6 -26 7 -40 0 -14 4 -29 7 -35 4 -5 12 -44 19 -85 6 -41 16
-84 21 -95 5 -11 10 -284 11 -607 2 -465 6 -590 16 -600 10 -10 125 -14 532
-18 285 -3 522 -9 527 -13 12 -13 15 -17349 3 -17381 l-10 -26 -3116 0 -3116
0 -49 -36 c-28 -20 -60 -50 -73 -68 -12 -17 -50 -114 -83 -216 -55 -169 -174
-499 -369 -1023 -49 -131 -74 -213 -74 -240 0 -53 23 -148 49 -210 l20 -47
3500 0 c2383 0 3502 3 3506 10 4 6 12 10 18 9 7 -1 19 1 27 4 28 11 121 27
155 27 19 0 36 4 39 9 3 4 28 11 56 13 32 3 59 13 73 25 12 12 44 24 72 28 28
3 66 17 85 30 19 13 46 26 60 30 14 4 39 17 55 30 43 32 91 55 113 55 11 0 22
8 24 18 3 10 23 24 46 31 22 8 50 27 61 42 12 16 36 35 54 43 34 14 264 236
295 285 9 14 27 34 39 44 13 10 23 23 23 28 0 5 29 45 65 89 36 44 65 84 65
89 0 6 13 35 30 65 16 30 34 63 39 73 26 49 70 152 77 178 4 17 11 35 15 41
15 18 39 107 39 142 0 18 4 40 9 50 5 9 15 50 21 89 7 40 15 75 19 77 4 3 9
19 11 38 3 18 5 4016 5 8884 0 7139 -2 8854 -13 8866 -7 9 -17 53 -23 99 -6
46 -15 92 -20 101 -5 10 -9 27 -9 38 0 11 -11 43 -24 70 -13 27 -27 72 -31
100 -4 27 -16 61 -27 75 -11 14 -24 41 -29 61 -6 19 -28 63 -50 97 -21 34 -39
68 -39 76 0 13 -24 46 -92 125 -21 24 -38 50 -38 57 0 8 -28 43 -62 78 -35 36
-63 68 -63 73 0 4 -15 17 -32 28 -18 11 -33 26 -33 33 0 8 -23 31 -51 53 -28
21 -65 54 -82 72 -17 17 -38 32 -47 32 -9 0 -27 12 -41 26 -31 34 -154 116
-187 125 -24 6 -40 15 -64 34 -14 12 -44 25 -65 28 -22 4 -48 16 -58 27 -11
12 -37 22 -67 26 -26 4 -51 11 -54 15 -3 5 -12 9 -20 9 -9 0 -30 11 -47 23
-26 19 -53 26 -150 35 -77 7 -129 17 -150 29 -30 17 -77 18 -687 20 -360 1
-662 4 -670 6 -9 2 -25 0 -37 -4z"/>
<path d="M18605 33073 c-11 -2 -29 -8 -40 -13 -25 -11 -120 -27 -210 -36 -38
-4 -85 -13 -105 -22 -19 -8 -46 -19 -60 -25 -14 -6 -30 -9 -37 -8 -6 1 -14 -3
-18 -9 -3 -5 -21 -10 -39 -10 -22 0 -46 -10 -71 -30 -21 -17 -50 -30 -65 -30
-15 0 -35 -9 -46 -21 -10 -11 -42 -31 -70 -45 -28 -13 -59 -33 -69 -44 -10
-11 -23 -20 -30 -20 -7 0 -31 -13 -53 -30 -23 -16 -46 -30 -52 -30 -5 0 -10
-5 -10 -10 0 -6 -8 -14 -17 -17 -25 -9 -150 -117 -198 -171 -22 -24 -57 -62
-77 -82 -21 -21 -38 -46 -38 -54 0 -9 -7 -16 -15 -16 -9 0 -20 -10 -25 -22 -5
-13 -38 -59 -74 -103 -36 -44 -66 -87 -66 -95 0 -9 -6 -24 -14 -35 -28 -41
-63 -111 -70 -140 -4 -16 -16 -39 -26 -50 -10 -11 -23 -46 -30 -77 -6 -31 -22
-79 -36 -105 -13 -26 -24 -63 -24 -81 0 -18 -4 -40 -9 -50 -5 -9 -17 -57 -26
-107 -9 -49 -20 -94 -26 -99 -5 -6 -9 -530 -9 -1363 l0 -1352 41 -78 c70 -134
66 -131 223 -169 75 -19 282 -76 459 -128 577 -169 848 -246 864 -246 37 0
136 67 207 140 l76 78 0 1459 0 1460 23 21 c23 22 24 22 496 22 321 0 479 -3
493 -11 16 -9 24 -7 43 11 12 12 25 35 29 51 3 17 6 282 6 590 0 308 5 570 9
582 5 12 14 54 21 92 7 39 17 75 22 82 5 7 9 25 7 40 -1 15 1 35 4 43 3 8 8
40 11 72 3 31 17 78 31 105 26 49 39 162 22 180 -9 8 -1295 15 -1332 6z"/>
<path d="M30169 29757 c-20 -8 -52 -23 -70 -35 -19 -12 -338 -325 -709 -697
-371 -371 -677 -675 -681 -675 -3 0 -119 114 -259 254 -156 157 -271 264 -299
280 -127 69 -279 45 -370 -59 -55 -63 -73 -111 -74 -195 -2 -130 -5 -126 431
-563 279 -280 401 -396 437 -415 41 -21 64 -26 130 -26 142 -1 91 -46 996 861
650 651 811 818 830 858 33 71 33 182 0 247 -31 61 -91 121 -147 147 -56 27
-167 36 -215 18z"/>
<path d="M19931 28664 c-87 -23 -171 -74 -241 -144 -104 -105 -150 -217 -150
-370 0 -153 46 -265 150 -370 36 -37 92 -80 126 -98 129 -67 -158 -62 3434
-62 3592 0 3305 -5 3434 62 34 18 90 61 126 98 104 105 150 217 150 370 0 153
-46 265 -150 370 -36 37 -92 80 -126 98 -129 67 159 62 -3439 61 -2814 0
-3267 -2 -3314 -15z"/>
<path d="M16350 28129 c-30 -11 -76 -24 -101 -29 -26 -5 -64 -21 -84 -35 -21
-14 -44 -25 -52 -25 -9 0 -28 -10 -44 -22 -15 -13 -49 -39 -75 -58 -25 -19
-61 -50 -78 -69 -17 -19 -39 -42 -49 -52 -44 -40 -135 -141 -248 -274 -51 -60
-102 -119 -113 -131 -12 -11 -46 -49 -76 -83 -52 -59 -98 -110 -219 -242 -28
-31 -51 -61 -51 -67 0 -6 -9 -17 -21 -25 -11 -8 -46 -44 -77 -80 -31 -36 -100
-115 -152 -174 -52 -59 -103 -118 -114 -129 -10 -12 -32 -37 -50 -57 -17 -19
-51 -59 -76 -88 -46 -54 -67 -78 -165 -184 -30 -33 -71 -80 -92 -105 -65 -79
-99 -103 -146 -102 -23 0 -170 5 -327 10 -220 7 -319 6 -435 -5 -82 -7 -240
-16 -350 -19 l-200 -7 -95 96 c-52 53 -117 121 -145 152 -27 31 -74 80 -102
110 -29 30 -53 57 -53 60 0 3 -17 22 -37 43 -21 21 -78 82 -128 136 -49 54
-124 133 -165 176 -41 42 -109 114 -150 160 -41 46 -86 95 -100 110 -14 16
-61 67 -105 116 -44 48 -127 138 -185 198 -58 61 -159 169 -225 240 -66 71
-126 134 -133 140 -8 6 -26 23 -40 37 -15 14 -49 41 -77 60 -27 18 -59 41 -70
50 -11 9 -31 20 -45 23 -14 4 -47 18 -75 31 -56 27 -182 54 -295 64 -54 5 -93
2 -140 -10 -36 -9 -92 -20 -125 -24 -33 -4 -78 -16 -100 -28 -22 -11 -63 -24
-91 -28 -27 -4 -71 -16 -97 -28 -26 -12 -70 -26 -99 -31 -28 -6 -56 -14 -63
-20 -6 -5 -45 -17 -85 -25 -41 -9 -81 -22 -90 -30 -9 -8 -37 -19 -63 -24 -25
-4 -61 -17 -80 -28 -19 -12 -53 -24 -76 -28 -23 -4 -61 -17 -84 -30 -23 -12
-60 -26 -82 -30 -21 -4 -51 -15 -65 -25 -15 -10 -39 -22 -55 -26 -16 -4 -43
-17 -61 -29 -19 -13 -53 -26 -78 -29 -24 -4 -50 -13 -56 -21 -6 -8 -28 -19
-48 -25 -35 -10 -93 -36 -192 -85 -25 -12 -68 -30 -97 -39 -28 -10 -57 -24
-63 -32 -7 -7 -18 -14 -24 -14 -6 0 -29 -10 -51 -21 -22 -12 -57 -28 -79 -36
-22 -7 -47 -20 -56 -27 -8 -8 -30 -17 -48 -21 -18 -4 -45 -17 -60 -29 -15 -13
-38 -27 -52 -31 -14 -4 -41 -17 -60 -29 -63 -39 -74 -46 -125 -72 -27 -15 -62
-35 -77 -45 -14 -11 -33 -19 -41 -19 -9 0 -28 -11 -44 -24 -15 -13 -44 -31
-63 -40 -19 -9 -55 -29 -80 -46 -25 -16 -63 -39 -85 -51 -47 -26 -235 -212
-235 -233 0 -8 -11 -28 -25 -44 -14 -17 -31 -45 -37 -64 -6 -18 -19 -44 -30
-57 -10 -13 -18 -33 -18 -45 -1 -11 -8 -39 -16 -61 -39 -100 -46 -164 -39
-340 3 -93 12 -219 20 -280 18 -151 24 -232 35 -510 5 -132 16 -287 24 -345 8
-58 20 -229 25 -380 6 -151 16 -306 21 -345 19 -133 30 -265 30 -364 l0 -100
-41 -33 c-22 -18 -64 -57 -93 -85 -30 -29 -59 -53 -65 -53 -6 0 -17 -11 -23
-25 -6 -14 -15 -25 -20 -25 -9 0 -358 -345 -358 -354 0 -4 -35 -43 -77 -87
-43 -44 -91 -94 -106 -112 -16 -18 -56 -63 -89 -100 l-61 -68 -266 6 c-435 8
-625 16 -826 31 -245 18 -1351 38 -1467 26 -58 -6 -95 -16 -115 -29 -15 -11
-41 -23 -57 -27 -15 -4 -40 -15 -55 -25 -84 -57 -138 -91 -143 -91 -10 0 -121
-116 -153 -160 -16 -22 -40 -54 -53 -70 -22 -28 -56 -86 -90 -155 -8 -16 -23
-39 -32 -50 -10 -11 -21 -31 -25 -45 -4 -14 -18 -37 -31 -52 -12 -15 -25 -41
-29 -57 -3 -16 -12 -35 -20 -41 -8 -6 -21 -33 -30 -60 -9 -26 -25 -56 -35 -65
-11 -10 -20 -25 -20 -34 0 -8 -22 -60 -49 -116 -27 -55 -54 -117 -61 -137 -6
-21 -16 -38 -20 -38 -5 0 -14 -19 -21 -42 -6 -24 -19 -54 -29 -68 -9 -14 -22
-41 -29 -60 -6 -19 -22 -57 -36 -84 -14 -27 -25 -57 -25 -65 0 -9 -11 -34 -25
-56 -13 -22 -25 -47 -25 -55 0 -8 -11 -36 -25 -61 -13 -26 -29 -68 -36 -95 -7
-27 -20 -59 -30 -72 -9 -12 -21 -42 -24 -65 -4 -23 -18 -62 -31 -87 -13 -25
-24 -53 -24 -64 0 -10 -11 -44 -24 -75 -14 -31 -30 -80 -36 -110 -6 -30 -15
-59 -20 -65 -4 -6 -16 -42 -24 -79 -9 -37 -22 -80 -30 -95 -7 -15 -19 -54 -26
-87 -6 -33 -18 -70 -26 -82 -7 -12 -19 -55 -25 -95 -6 -40 -19 -89 -29 -108
-10 -19 -24 -66 -30 -105 -6 -38 -20 -94 -30 -123 -16 -41 -20 -78 -20 -171 0
-102 3 -128 25 -185 14 -37 25 -77 25 -90 0 -13 11 -40 25 -60 14 -20 28 -49
31 -63 4 -15 22 -47 41 -72 19 -26 41 -57 51 -70 36 -51 207 -213 397 -376 50
-43 97 -85 105 -94 8 -9 44 -41 80 -71 36 -29 72 -61 80 -70 8 -9 85 -76 170
-149 85 -74 161 -142 168 -152 7 -11 18 -19 24 -19 5 0 22 -12 37 -27 14 -16
64 -62 110 -103 47 -41 103 -92 125 -113 23 -21 73 -65 113 -98 39 -33 74 -67
77 -75 3 -8 11 -14 18 -14 8 0 26 -12 40 -27 15 -16 41 -39 59 -53 18 -14 44
-36 58 -50 14 -14 59 -54 99 -90 41 -35 80 -77 88 -91 12 -23 11 -60 -2 -256
-16 -227 -15 -315 6 -623 34 -479 33 -496 -20 -533 -23 -16 -230 -209 -305
-284 -29 -29 -56 -53 -61 -53 -4 0 -22 -15 -39 -32 -26 -28 -75 -74 -279 -263
-17 -16 -71 -66 -118 -110 -191 -178 -221 -205 -228 -205 -4 0 -12 -11 -18
-25 -6 -14 -16 -25 -22 -25 -6 0 -49 -37 -94 -82 -46 -46 -112 -108 -146 -138
-34 -30 -75 -66 -90 -80 -15 -14 -64 -59 -110 -100 -100 -90 -260 -251 -260
-262 0 -4 -8 -16 -17 -26 -32 -33 -133 -232 -133 -261 0 -9 -11 -61 -25 -116
-31 -125 -31 -161 0 -281 14 -53 25 -110 25 -128 0 -17 11 -53 25 -81 13 -27
25 -63 25 -78 0 -15 11 -54 25 -86 13 -33 28 -79 31 -103 4 -23 15 -59 25 -78
10 -19 21 -56 24 -82 4 -26 18 -68 31 -94 13 -26 24 -57 24 -68 0 -12 9 -37
19 -57 11 -20 26 -58 34 -86 8 -28 22 -64 31 -81 8 -16 20 -52 26 -78 6 -27
20 -58 30 -69 10 -11 23 -38 29 -60 6 -22 17 -49 25 -60 8 -11 19 -40 25 -63
7 -23 23 -59 36 -79 14 -20 25 -46 25 -58 0 -12 10 -34 21 -49 12 -15 26 -46
31 -68 5 -23 19 -53 32 -69 13 -15 26 -45 29 -66 4 -22 16 -48 27 -58 11 -10
20 -25 20 -34 0 -9 11 -38 25 -66 13 -27 31 -66 40 -85 24 -52 54 -113 65
-130 6 -8 18 -31 26 -50 9 -19 25 -47 35 -62 11 -14 19 -31 19 -37 0 -5 14
-30 30 -54 17 -25 30 -49 30 -54 0 -4 11 -24 24 -43 13 -19 27 -46 31 -60 4
-14 18 -37 31 -52 12 -15 25 -41 29 -58 4 -17 14 -34 24 -39 10 -6 23 -28 31
-50 7 -23 21 -48 32 -57 10 -10 18 -21 18 -25 0 -21 98 -134 158 -183 37 -30
79 -66 93 -80 15 -14 36 -26 47 -26 11 0 33 -11 49 -23 15 -13 46 -27 68 -30
21 -4 53 -16 69 -29 24 -17 50 -23 131 -29 113 -9 666 7 735 21 71 14 274 29
535 40 132 6 294 17 360 25 66 8 233 19 370 25 224 9 391 21 496 36 42 6 61
-11 204 -171 136 -154 627 -635 648 -635 6 0 23 -11 37 -25 14 -14 44 -43 68
-65 l42 -40 -5 -313 c-6 -310 -16 -564 -35 -852 -14 -216 -32 -1210 -24 -1339
5 -83 12 -118 29 -150 12 -22 25 -54 29 -71 4 -16 14 -37 21 -45 8 -9 24 -36
35 -60 57 -121 191 -251 360 -349 41 -24 87 -52 102 -62 15 -11 31 -19 36 -19
4 0 23 -11 41 -24 19 -14 46 -28 61 -31 15 -3 36 -15 46 -26 9 -10 35 -24 56
-29 21 -6 55 -22 75 -35 20 -14 40 -25 45 -25 6 0 58 -23 116 -51 212 -100
238 -112 287 -135 28 -13 67 -28 87 -34 20 -6 42 -17 48 -25 6 -7 34 -18 62
-24 28 -6 62 -20 77 -30 15 -11 40 -23 57 -27 16 -3 38 -15 49 -25 11 -9 38
-21 60 -24 22 -4 70 -20 107 -36 36 -16 72 -29 80 -29 7 0 30 -9 51 -20 21
-12 61 -25 88 -30 28 -6 62 -18 75 -29 13 -11 48 -23 77 -27 28 -4 54 -8 57
-9 3 0 19 -8 35 -17 17 -9 53 -19 80 -24 28 -4 66 -15 86 -25 19 -11 61 -24
92 -30 32 -5 72 -18 90 -29 18 -10 59 -21 92 -25 33 -4 83 -18 111 -31 28 -13
64 -24 80 -24 16 0 69 -12 117 -26 82 -24 99 -25 245 -22 136 4 163 7 202 26
25 12 59 22 77 22 18 0 43 10 60 24 15 13 43 27 61 31 18 3 45 17 60 29 15 12
41 30 57 41 44 27 165 146 165 162 0 7 11 19 25 25 14 6 25 15 25 19 0 5 12
22 28 39 15 16 38 44 52 61 14 17 39 46 55 64 17 18 35 40 42 48 7 8 16 17 20
18 7 4 79 85 193 220 83 97 95 111 125 144 17 18 68 74 115 126 47 52 100 108
118 126 17 17 32 36 32 42 0 6 11 18 25 27 14 9 25 22 25 30 0 7 8 19 19 26
10 7 35 33 55 58 47 57 111 131 156 178 19 21 63 69 97 107 34 39 82 93 107
120 25 28 46 53 46 57 0 4 15 22 33 40 17 18 47 51 64 72 l32 40 388 -2 c374
-3 630 7 798 28 44 6 103 13 131 17 l52 5 93 -94 c52 -51 128 -131 169 -178
41 -46 89 -98 105 -115 17 -18 45 -50 64 -71 36 -41 267 -287 361 -384 30 -32
78 -83 105 -114 28 -31 85 -92 127 -136 42 -43 80 -86 85 -94 4 -8 55 -64 113
-123 58 -60 143 -151 190 -203 93 -102 272 -282 317 -318 73 -59 107 -82 123
-82 9 0 38 -11 63 -24 25 -14 67 -27 94 -31 26 -3 74 -16 106 -27 49 -18 73
-20 160 -15 56 3 115 10 131 16 16 7 63 16 105 22 42 6 104 21 138 35 34 13
72 24 86 24 13 0 45 11 71 24 26 13 68 27 94 31 26 4 63 14 82 23 42 19 34 16
95 26 27 4 60 16 72 26 13 10 45 21 72 25 27 4 64 17 82 30 17 13 53 27 78 31
25 4 64 17 87 30 22 13 52 24 65 24 14 0 40 11 58 24 18 13 49 27 69 31 20 4
46 15 58 26 11 10 40 23 65 27 24 5 62 21 83 35 21 15 49 27 60 27 12 0 37 11
55 24 18 13 49 27 69 31 20 4 46 15 57 25 11 10 38 23 61 29 22 6 49 20 59 31
10 11 34 23 54 26 20 4 46 15 59 25 13 10 37 21 55 25 18 3 45 17 60 30 16 13
39 24 51 24 13 0 30 8 40 18 9 11 35 25 59 32 23 7 55 23 70 36 16 13 34 24
41 24 7 0 21 9 31 20 9 10 34 25 54 31 20 7 49 22 64 35 16 13 35 24 42 24 8
0 26 11 41 25 15 14 35 25 44 25 10 0 34 14 55 30 21 17 45 30 55 30 9 0 25 9
35 20 11 12 33 28 50 36 39 18 163 139 201 196 15 24 36 52 45 63 9 11 20 34
23 50 4 17 16 39 26 50 9 11 21 37 24 58 4 21 16 53 27 71 32 54 40 204 29
496 -6 140 -17 311 -25 380 -22 194 -25 237 -35 510 -6 140 -17 305 -25 365
-8 61 -19 227 -25 370 -5 143 -15 301 -20 352 -20 180 -21 175 67 257 162 149
481 473 506 514 15 23 32 42 37 42 6 0 10 5 10 11 0 24 189 234 257 286 l33
25 182 -6 c101 -3 282 -13 403 -21 121 -8 458 -20 750 -25 291 -5 597 -14 680
-20 294 -19 459 -17 564 7 51 12 101 28 110 36 9 8 32 19 51 26 19 6 52 23 72
36 21 14 42 25 46 25 14 0 119 82 164 128 60 61 138 156 138 169 0 5 13 27 30
49 16 21 30 44 30 50 0 6 13 28 30 50 16 21 30 44 30 50 0 6 8 22 18 35 10 13
24 40 32 59 8 19 22 46 32 59 10 13 18 31 18 41 0 10 9 29 20 43 11 14 27 45
35 68 9 24 22 50 29 59 8 8 19 34 25 56 6 23 18 47 25 53 8 7 17 30 21 52 4
22 17 52 30 67 12 15 25 38 29 52 8 26 54 128 87 192 10 20 19 43 19 51 0 7
16 44 35 83 19 38 35 75 35 82 0 8 9 26 20 42 11 15 25 52 31 81 6 30 17 61
24 69 8 8 19 38 25 65 7 28 21 65 31 83 11 18 24 54 30 80 7 26 20 63 29 82
10 19 21 53 24 75 4 22 16 59 26 82 10 23 21 63 25 90 3 26 15 63 25 80 11 18
24 60 30 93 6 33 19 75 29 93 10 17 22 57 26 87 3 30 15 75 26 100 11 25 23
65 26 90 3 25 16 83 29 129 20 69 24 106 24 216 0 114 -3 143 -25 209 -14 42
-25 87 -25 100 0 13 -9 35 -20 49 -12 14 -26 41 -33 59 -21 58 -88 151 -163
225 -40 40 -75 73 -79 73 -4 0 -28 21 -54 48 -49 50 -190 174 -214 189 -7 4
-18 15 -23 24 -5 9 -56 56 -113 103 -57 48 -123 105 -147 128 -25 24 -51 46
-58 50 -7 4 -53 45 -101 90 -48 46 -95 87 -104 92 -9 6 -24 20 -34 33 -10 13
-23 23 -28 23 -5 0 -33 22 -62 49 -28 28 -106 98 -173 158 -66 59 -147 132
-180 162 -32 29 -69 58 -81 64 -13 6 -23 16 -23 23 0 7 -10 18 -22 25 -13 6
-32 20 -43 30 -11 10 -45 41 -75 70 -30 28 -70 62 -88 77 -63 48 -63 48 -73
460 -5 208 -13 508 -18 667 l-10 290 27 28 c33 34 49 48 147 135 11 10 63 58
115 108 53 49 149 139 215 199 65 61 146 137 180 170 34 33 77 75 96 93 39 37
58 56 96 95 14 15 30 27 34 27 5 0 19 10 32 23 13 12 52 49 88 81 35 33 141
132 234 221 94 89 199 187 235 219 36 31 69 61 74 66 4 4 17 16 27 27 84 79
158 157 179 188 14 20 35 49 48 65 12 15 22 34 22 41 0 8 14 32 30 53 17 22
30 46 30 54 0 8 9 30 21 49 11 18 27 61 35 94 8 33 21 74 30 91 24 47 25 280
1 325 -9 18 -24 64 -32 103 -8 39 -21 80 -29 93 -8 12 -20 51 -27 87 -7 36
-21 79 -31 96 -10 17 -21 53 -25 80 -3 27 -14 65 -24 84 -10 19 -21 58 -24 85
-4 28 -15 64 -24 80 -10 17 -23 52 -30 79 -7 27 -20 60 -30 73 -10 12 -22 43
-25 67 -4 25 -16 56 -27 70 -10 13 -24 48 -29 76 -5 28 -19 63 -30 77 -11 14
-20 33 -20 43 0 9 -13 42 -30 73 -16 31 -30 62 -30 68 0 11 -33 84 -87 190
-13 26 -23 53 -23 61 0 8 -13 34 -29 59 -16 24 -32 60 -36 79 -4 19 -16 46
-26 59 -11 13 -19 29 -19 35 0 6 -14 38 -30 71 -17 33 -30 64 -30 70 0 6 -11
26 -24 44 -14 19 -28 46 -31 62 -4 16 -11 29 -16 29 -5 0 -13 10 -18 23 -16
41 -41 91 -71 142 -16 28 -36 64 -44 80 -8 17 -26 45 -40 64 -14 19 -26 41
-26 49 0 8 -11 27 -25 44 -14 16 -25 35 -25 42 0 6 -15 35 -32 63 -18 29 -46
75 -63 102 -16 28 -33 51 -37 51 -3 0 -16 16 -28 35 -21 33 -171 165 -188 165
-5 0 -26 14 -47 30 -21 17 -46 30 -55 30 -10 0 -30 10 -46 23 -16 12 -51 27
-79 33 -27 7 -70 20 -95 30 -39 17 -70 19 -235 17 -104 -1 -230 -6 -280 -13
-159 -19 -305 -30 -550 -40 -132 -5 -288 -17 -347 -25 -59 -8 -230 -19 -380
-25 -262 -10 -347 -17 -523 -40 -127 -16 -288 -17 -293 -2 -2 7 -76 85 -163
174 -88 88 -164 169 -170 179 -5 11 -14 19 -19 19 -11 0 -68 54 -375 356
l-205 201 0 84 c0 79 7 211 30 569 6 85 15 387 20 670 5 283 17 627 25 764 14
219 13 374 -2 399 -3 4 -11 46 -18 93 -9 53 -22 94 -35 111 -11 14 -20 34 -20
44 0 9 -10 30 -23 46 -13 15 -29 42 -36 60 -7 17 -21 39 -32 49 -10 9 -19 23
-19 31 0 18 -177 193 -195 193 -8 0 -19 9 -25 20 -6 10 -28 25 -50 31 -22 7
-47 20 -56 31 -10 10 -21 18 -26 18 -5 0 -28 13 -51 28 -23 16 -55 36 -72 44
-140 73 -211 108 -217 108 -4 0 -24 11 -44 25 -20 14 -44 25 -53 25 -9 0 -27
9 -41 20 -14 11 -31 20 -39 20 -18 0 -181 78 -203 97 -9 8 -36 19 -59 24 -23
5 -52 18 -65 28 -13 10 -41 22 -61 26 -20 4 -48 15 -61 26 -14 11 -43 22 -64
26 -22 3 -55 16 -74 29 -19 13 -43 24 -53 24 -10 0 -34 11 -53 24 -19 13 -52
26 -74 30 -21 4 -58 18 -80 31 -23 14 -61 27 -85 31 -24 4 -62 17 -85 30 -22
13 -52 24 -65 24 -14 0 -43 9 -64 20 -38 20 -155 53 -155 44 0 -3 -10 2 -23
10 -12 9 -46 20 -76 27 -29 6 -78 22 -108 35 -29 13 -66 24 -81 24 -15 0 -47
11 -72 24 -26 13 -72 26 -108 29 -34 4 -79 15 -100 26 -20 10 -68 24 -107 30
-38 7 -96 21 -128 31 -82 28 -269 28 -347 -1z m-1955 -4034 c375 -36 846 -112
1095 -175 134 -33 169 -43 280 -74 122 -35 291 -89 395 -126 50 -17 126 -44
170 -60 74 -25 377 -155 541 -231 198 -92 555 -274 580 -297 6 -6 38 -25 70
-43 33 -18 79 -47 104 -64 25 -18 61 -40 80 -50 19 -10 37 -21 40 -25 3 -4 33
-25 67 -46 34 -22 82 -52 107 -69 55 -36 263 -191 283 -211 8 -8 18 -14 22
-14 5 0 19 -11 32 -23 13 -13 47 -41 74 -62 85 -64 182 -146 348 -293 194
-172 645 -642 717 -747 8 -12 26 -32 38 -46 13 -13 37 -43 53 -66 16 -23 45
-58 64 -79 19 -20 35 -40 35 -44 0 -4 11 -20 25 -36 29 -33 45 -53 113 -144
26 -36 57 -79 67 -96 24 -38 96 -147 125 -189 46 -66 121 -187 141 -227 12
-24 25 -45 29 -48 25 -16 316 -586 393 -771 20 -46 57 -133 82 -194 26 -60 51
-121 55 -135 5 -14 23 -63 40 -110 40 -108 79 -224 126 -370 159 -502 269
-1124 305 -1718 13 -221 7 -889 -11 -1072 -39 -418 -110 -850 -190 -1165 -51
-198 -66 -255 -104 -375 -64 -202 -91 -279 -151 -440 -25 -65 -155 -380 -182
-438 -101 -223 -342 -689 -363 -702 -4 -3 -17 -24 -29 -48 -20 -39 -94 -159
-141 -227 -11 -16 -35 -52 -53 -80 -17 -27 -34 -52 -37 -55 -3 -3 -32 -43 -65
-90 -32 -47 -65 -91 -72 -98 -7 -7 -13 -16 -13 -20 0 -4 -13 -20 -28 -37 -15
-16 -41 -48 -57 -70 -44 -60 -166 -213 -190 -239 -6 -6 -19 -23 -30 -37 -124
-161 -508 -554 -765 -783 -14 -12 -52 -44 -85 -71 -32 -26 -65 -53 -71 -59 -6
-6 -20 -18 -31 -26 -80 -64 -119 -95 -123 -100 -3 -3 -21 -17 -40 -30 -36 -25
-49 -35 -104 -80 -17 -14 -42 -34 -56 -43 -14 -10 -50 -36 -80 -58 -78 -57
-326 -220 -425 -279 -22 -13 -42 -27 -45 -30 -3 -4 -45 -29 -95 -55 -49 -27
-92 -52 -95 -56 -3 -3 -66 -37 -140 -74 -74 -37 -142 -73 -150 -80 -8 -6 -51
-28 -95 -48 -44 -20 -160 -72 -258 -116 -98 -45 -183 -81 -188 -81 -6 0 -65
-22 -132 -49 -169 -69 -529 -187 -742 -245 -260 -70 -387 -95 -835 -166 -105
-16 -412 -48 -585 -61 -203 -14 -727 -15 -995 0 -386 20 -957 108 -1315 202
-44 11 -96 24 -115 29 -75 19 -322 96 -460 145 -58 20 -141 49 -185 65 -282
99 -886 387 -1182 564 -169 101 -542 349 -609 405 -6 4 -39 30 -75 57 -60 46
-155 121 -208 165 -13 11 -44 36 -70 57 -25 20 -53 43 -62 52 -9 8 -38 33 -64
55 -167 137 -575 551 -747 756 -20 24 -44 54 -55 65 -10 12 -29 36 -43 54 -14
18 -47 61 -75 95 -397 491 -719 1036 -1003 1695 -348 809 -531 1639 -574 2603
-29 661 52 1445 218 2097 164 644 436 1308 777 1900 149 257 457 704 588 855
15 16 44 53 65 80 20 28 40 52 43 55 3 3 27 30 52 60 92 110 105 124 169 193
195 210 515 518 670 645 25 20 50 42 56 47 6 6 26 22 45 37 19 15 61 49 94 75
33 27 89 70 124 97 36 27 69 53 75 58 44 37 222 160 331 230 44 28 109 70 145
93 36 23 83 52 105 63 22 11 49 28 60 37 45 36 484 263 665 343 208 92 444
189 500 207 30 10 75 27 100 38 25 10 65 25 90 32 25 7 97 30 160 50 147 47
236 74 280 85 19 5 71 18 115 29 383 101 924 181 1445 215 145 9 875 -4 1025
-19z"/>
<path d="M13336 22511 c-4 -5 -22 -7 -42 -4 -44 7 -303 -17 -310 -29 -3 -4
-32 -8 -64 -8 -32 0 -62 -4 -65 -10 -3 -5 -42 -10 -85 -10 -43 0 -82 -4 -85
-10 -3 -5 -19 -10 -35 -10 -16 0 -32 -4 -35 -10 -3 -5 -15 -10 -26 -10 -10 0
-27 -4 -37 -10 -9 -5 -43 -12 -74 -15 -32 -4 -60 -11 -63 -16 -4 -5 -17 -9
-30 -9 -13 0 -27 -4 -30 -10 -3 -5 -28 -10 -55 -10 -27 0 -52 -4 -55 -10 -3
-5 -24 -10 -45 -10 -21 0 -42 -4 -45 -10 -3 -5 -21 -10 -40 -10 -19 0 -37 -4
-40 -10 -3 -5 -15 -10 -26 -10 -10 0 -29 -5 -42 -12 -49 -25 -57 -27 -71 -22
-8 3 -17 1 -21 -5 -3 -6 -14 -11 -24 -11 -21 0 -71 -22 -71 -32 0 -5 -9 -8
-20 -8 -11 0 -20 -4 -20 -10 0 -5 -15 -10 -34 -10 -19 0 -38 -4 -41 -10 -3 -5
-23 -10 -43 -11 -20 0 -50 -9 -67 -19 -58 -36 -170 -90 -188 -90 -9 0 -17 -4
-17 -10 0 -5 -16 -10 -35 -10 -21 0 -35 -5 -35 -12 0 -12 -123 -78 -145 -78
-5 0 -18 -8 -29 -18 -24 -22 -66 -38 -117 -46 -23 -4 -48 -20 -74 -46 -22 -22
-45 -40 -52 -40 -7 0 -13 -4 -13 -10 0 -5 -5 -10 -11 -10 -19 0 -136 -59 -149
-75 -7 -8 -18 -15 -25 -15 -6 0 -20 -9 -30 -20 -11 -12 -33 -28 -51 -36 -17
-8 -41 -24 -52 -34 -12 -11 -30 -20 -41 -20 -12 0 -25 -11 -33 -27 -8 -17 -26
-31 -46 -37 -19 -5 -46 -25 -63 -48 -23 -28 -38 -38 -60 -38 -17 0 -29 -5 -29
-13 0 -6 -14 -18 -32 -26 -17 -8 -49 -31 -71 -53 -22 -21 -46 -38 -53 -38 -8
0 -14 -4 -14 -9 0 -6 -12 -16 -27 -23 -16 -7 -32 -23 -38 -36 -5 -12 -14 -22
-20 -22 -6 0 -44 -34 -85 -75 -41 -41 -79 -75 -85 -75 -6 0 -64 -54 -130 -120
-66 -66 -125 -120 -132 -120 -7 0 -13 -6 -13 -13 0 -7 -25 -37 -55 -67 -30
-30 -55 -59 -55 -65 0 -6 -22 -33 -50 -60 -27 -27 -50 -55 -50 -62 0 -8 -11
-18 -24 -24 -13 -6 -26 -19 -29 -29 -2 -10 -17 -24 -33 -31 -16 -8 -34 -24
-40 -37 -6 -12 -21 -33 -33 -46 -11 -12 -21 -28 -21 -34 0 -7 -4 -12 -10 -12
-5 0 -10 -6 -10 -13 0 -8 -9 -22 -20 -32 -11 -10 -20 -23 -20 -30 0 -7 -10
-23 -22 -37 -13 -14 -28 -34 -34 -44 -6 -11 -20 -23 -31 -28 -11 -5 -30 -33
-42 -62 -13 -28 -38 -67 -57 -85 -19 -18 -34 -40 -34 -49 0 -9 -8 -25 -18 -36
-10 -10 -21 -27 -25 -37 -4 -11 -16 -21 -27 -24 -11 -3 -20 -14 -20 -24 0 -11
-4 -19 -10 -19 -5 0 -10 -16 -10 -35 0 -23 -5 -35 -14 -35 -8 0 -33 -38 -56
-85 -23 -47 -46 -85 -51 -85 -5 0 -9 -6 -9 -14 0 -7 -7 -20 -16 -27 -13 -11
-37 -57 -35 -66 0 -2 -8 -19 -19 -38 -11 -20 -20 -43 -20 -52 0 -8 -8 -23 -17
-32 -23 -21 -63 -98 -63 -121 0 -11 -4 -21 -9 -25 -5 -3 -12 -19 -16 -35 -9
-39 -31 -85 -50 -100 -8 -7 -15 -27 -15 -45 0 -19 -8 -39 -20 -50 -29 -26 -50
-73 -50 -111 0 -18 -4 -36 -10 -39 -5 -3 -10 -22 -10 -41 0 -19 -4 -34 -10
-34 -5 0 -10 -9 -10 -19 0 -10 -13 -44 -30 -75 -16 -31 -27 -62 -24 -70 3 -7
-2 -18 -10 -25 -7 -6 -12 -21 -9 -31 3 -11 0 -20 -6 -20 -6 0 -11 -13 -11 -30
0 -16 -9 -45 -20 -65 -13 -23 -20 -54 -20 -90 0 -29 -4 -57 -10 -60 -6 -3 -10
-24 -10 -45 0 -21 -4 -42 -10 -45 -6 -3 -10 -17 -10 -30 0 -13 -4 -26 -9 -30
-5 -3 -12 -31 -16 -63 -3 -31 -10 -65 -15 -74 -6 -10 -10 -28 -10 -41 0 -26
-21 -77 -32 -77 -5 0 -8 -24 -8 -54 0 -30 -4 -58 -10 -61 -6 -3 -10 -46 -10
-94 0 -56 -5 -98 -14 -117 -9 -18 -17 -75 -20 -149 -3 -67 -8 -129 -12 -138
-3 -9 -3 -241 1 -515 7 -531 9 -620 19 -629 3 -4 6 -26 6 -50 0 -24 5 -43 10
-43 6 0 10 -36 10 -89 0 -50 4 -93 10 -96 6 -3 10 -38 10 -77 0 -61 2 -70 20
-75 14 -4 20 -14 20 -34 0 -16 4 -37 10 -47 5 -9 12 -43 15 -74 4 -32 11 -60
16 -63 5 -4 9 -17 9 -30 0 -13 5 -27 10 -30 6 -3 10 -28 10 -55 0 -27 4 -52
10 -55 5 -3 10 -26 10 -50 0 -26 8 -59 20 -80 11 -20 20 -49 20 -65 0 -17 5
-30 11 -30 6 0 9 -9 6 -20 -3 -10 2 -25 9 -31 8 -7 13 -18 10 -26 -3 -7 3 -29
14 -48 11 -20 20 -42 20 -51 0 -8 9 -24 20 -36 13 -14 20 -36 20 -59 0 -21 5
-41 10 -44 6 -3 10 -23 11 -43 0 -20 9 -50 19 -67 34 -55 50 -88 50 -105 0
-10 9 -20 20 -23 15 -4 20 -14 20 -41 0 -20 3 -36 8 -36 12 0 42 -60 42 -84 0
-24 25 -82 40 -91 14 -9 40 -66 40 -90 0 -12 9 -30 20 -40 11 -10 17 -21 15
-26 -3 -4 -1 -10 5 -14 5 -3 10 -16 10 -29 0 -12 16 -37 36 -57 19 -18 51 -67
70 -106 20 -40 42 -73 50 -73 9 0 14 -11 14 -33 0 -26 10 -42 45 -77 25 -24
45 -50 45 -57 0 -21 21 -54 67 -105 24 -26 43 -53 43 -61 0 -24 24 -64 44 -73
11 -5 24 -18 30 -28 6 -11 18 -27 28 -37 9 -9 24 -34 34 -56 10 -21 31 -51 46
-67 16 -16 28 -37 28 -47 0 -11 6 -19 14 -19 7 0 16 -9 19 -20 3 -12 14 -20
27 -20 13 0 24 -8 27 -20 3 -11 9 -20 14 -20 5 0 9 -6 9 -13 0 -8 11 -24 25
-37 14 -13 25 -30 25 -37 0 -8 8 -16 18 -20 23 -8 82 -64 82 -78 0 -6 29 -40
65 -75 36 -35 65 -70 65 -77 0 -7 11 -13 25 -13 14 0 25 -6 25 -13 0 -15 171
-187 185 -187 6 0 46 -36 90 -81 44 -44 90 -85 103 -90 12 -5 27 -20 32 -34 5
-14 15 -25 22 -25 7 0 24 -12 37 -25 13 -14 28 -25 33 -25 6 0 18 -8 27 -18 9
-10 32 -25 51 -34 19 -9 55 -38 80 -63 39 -40 111 -85 138 -85 4 0 21 -14 37
-30 16 -16 33 -30 37 -30 5 0 18 -9 30 -20 11 -10 35 -26 52 -34 17 -8 42 -26
56 -40 13 -15 74 -51 134 -81 63 -30 126 -69 145 -89 31 -32 71 -52 97 -48 6
1 19 -7 29 -18 10 -11 26 -20 37 -20 16 0 55 -17 68 -30 14 -14 94 -50 111
-50 10 0 19 -7 19 -15 0 -9 9 -15 24 -15 14 0 28 -4 31 -10 3 -5 16 -10 28
-10 21 0 128 -50 192 -90 17 -10 47 -19 67 -19 20 -1 40 -5 43 -11 3 -5 14
-10 24 -10 10 0 47 -14 82 -31 102 -50 107 -52 123 -46 9 4 32 -2 51 -13 20
-11 44 -20 55 -20 11 0 20 -4 20 -10 0 -5 20 -10 44 -10 25 0 48 -4 51 -10 3
-5 24 -10 45 -10 21 0 42 -4 45 -10 3 -5 28 -10 55 -10 27 0 52 -4 55 -10 3
-6 17 -10 30 -10 13 0 26 -4 30 -9 3 -5 31 -12 63 -16 31 -3 65 -10 74 -15 10
-6 27 -10 37 -10 11 0 23 -4 26 -10 3 -5 24 -10 45 -10 21 0 42 -4 45 -10 3
-5 16 -10 29 -10 12 0 27 -5 33 -11 8 -8 13 -8 17 0 9 14 63 14 71 1 3 -5 21
-10 40 -10 19 0 36 -4 39 -8 5 -9 151 -23 274 -28 35 -1 66 -5 69 -8 8 -8 948
-8 956 0 3 4 28 7 54 9 125 5 264 19 269 27 3 4 32 8 64 8 32 0 62 5 65 10 3
6 26 10 50 10 24 0 47 5 50 10 3 6 24 10 45 10 21 0 42 5 45 10 3 6 15 10 26
10 10 0 27 4 37 10 9 5 43 12 74 15 32 4 60 11 63 16 4 5 21 9 40 9 19 0 37 4
40 10 3 6 19 10 35 10 16 0 32 5 35 10 3 6 28 10 55 10 27 0 52 5 55 10 3 6
21 10 40 10 19 0 37 5 40 10 3 6 18 10 33 10 15 0 36 7 46 15 11 8 37 15 57
15 21 0 41 5 44 10 3 6 14 10 24 10 9 0 27 9 39 20 12 11 30 20 41 20 11 0 23
5 26 10 3 6 17 10 30 10 13 0 27 4 30 10 3 5 21 10 39 10 39 0 86 20 86 38 0
6 8 12 18 12 24 0 76 26 92 45 7 8 27 15 45 15 32 0 90 23 100 41 4 5 14 9 24
9 23 0 75 26 91 45 7 8 21 15 31 15 10 0 21 5 24 10 3 6 16 10 29 10 13 0 31
9 41 20 10 12 24 19 31 16 18 -7 65 18 98 53 33 34 120 84 130 74 3 -4 16 3
29 14 12 11 38 27 57 36 19 9 46 28 60 42 14 14 39 33 56 41 17 8 41 24 52 34
12 11 30 20 41 20 12 0 25 11 33 27 7 15 26 31 43 36 17 5 39 18 51 28 11 11
25 19 31 19 6 0 13 9 16 20 3 11 12 20 20 20 8 0 17 7 21 15 3 8 12 15 21 15
27 0 85 39 85 58 0 16 36 42 58 42 12 0 22 4 22 9 0 6 12 16 28 23 15 7 31 23
37 36 5 12 15 22 22 22 7 0 25 16 40 35 15 19 35 35 44 35 17 0 49 30 49 47 0
12 43 53 57 53 5 0 18 10 29 21 10 12 29 25 42 30 12 5 22 14 22 22 0 7 16 28
35 47 19 19 35 40 35 47 0 7 6 13 13 13 7 0 35 22 62 50 26 27 52 47 57 44 4
-3 12 5 17 18 5 13 18 32 30 42 11 11 21 24 21 31 0 14 59 70 83 78 9 4 17 12
17 20 0 7 16 28 35 47 19 19 35 40 35 47 0 7 7 13 15 13 9 0 20 12 25 26 6 14
19 28 30 31 13 3 20 14 20 29 0 13 5 24 10 24 6 0 10 7 10 15 0 9 8 19 18 22
26 10 42 29 42 50 0 11 14 32 31 49 17 16 35 39 40 52 5 12 14 22 21 22 7 0
26 27 41 60 15 33 34 60 42 60 7 0 26 26 41 58 16 31 31 59 34 62 4 3 10 13
13 23 4 11 15 21 25 23 21 6 42 48 42 86 0 18 5 28 14 28 8 0 30 33 49 73 20
39 47 83 61 96 14 14 26 30 26 36 0 7 9 20 20 30 12 10 18 25 16 32 -3 7 3 29
14 48 11 20 20 41 20 48 0 7 8 22 18 33 24 27 62 102 62 124 0 10 7 23 15 30
8 7 15 23 15 36 0 13 5 24 10 24 6 0 10 16 10 36 0 27 5 37 20 41 15 4 20 14
20 38 0 19 8 39 20 50 29 26 50 73 50 111 0 18 5 36 10 39 6 3 10 22 10 41 0
19 5 34 10 34 6 0 10 8 10 18 0 10 9 24 20 32 13 9 20 26 20 47 0 17 5 35 10
38 6 4 8 15 5 24 -3 10 1 23 9 30 8 6 12 21 9 31 -3 11 0 20 6 20 6 0 11 13
11 30 0 16 9 45 20 65 11 20 20 51 20 70 0 18 5 37 10 40 6 3 10 21 10 40 0
19 5 37 10 40 6 3 10 28 10 54 0 26 4 51 10 57 5 5 12 36 16 69 4 33 16 75 26
93 10 18 18 50 18 72 0 22 5 40 10 40 6 0 10 19 10 43 0 24 5 48 12 55 9 9 9
15 0 24 -15 15 -16 54 -2 63 5 3 10 21 10 40 0 19 5 37 10 40 6 3 10 23 10 44
0 21 2 40 5 43 27 26 27 1380 0 1406 -3 3 -5 22 -5 43 0 21 -4 41 -10 44 -5 3
-10 42 -10 85 0 43 -4 82 -10 85 -5 3 -10 26 -10 51 0 24 -4 44 -10 44 -5 0
-10 24 -10 53 0 40 -5 58 -19 71 -12 11 -20 37 -25 78 -3 34 -11 67 -16 72 -6
6 -10 31 -10 57 0 26 -4 51 -10 54 -5 3 -10 21 -10 40 0 19 -4 37 -10 40 -5 3
-10 22 -10 40 0 19 -9 50 -20 70 -11 20 -20 49 -20 65 0 17 -4 30 -9 30 -9 0
-21 48 -22 82 0 10 -4 20 -10 23 -5 4 -9 14 -9 24 0 21 -22 71 -32 71 -5 0 -8
9 -8 20 0 11 -4 20 -10 20 -5 0 -10 15 -10 34 0 19 -4 38 -10 41 -5 3 -10 21
-10 39 0 38 -21 85 -50 111 -11 10 -20 28 -20 40 0 12 -9 30 -20 40 -12 11
-20 31 -20 52 0 18 -4 33 -10 33 -5 0 -10 11 -10 24 0 14 -4 27 -9 30 -14 9
-61 107 -61 128 0 10 -4 18 -10 18 -5 0 -10 6 -10 13 0 8 -9 22 -20 32 -11 10
-20 28 -20 41 0 13 -5 26 -10 29 -6 4 -8 15 -5 24 3 11 -3 25 -15 36 -11 10
-20 24 -20 31 0 8 -9 19 -20 26 -11 7 -20 21 -20 30 0 10 -4 18 -9 18 -5 0
-24 29 -41 65 -17 36 -38 65 -46 65 -9 0 -14 11 -14 35 0 19 -4 35 -10 35 -5
0 -10 8 -10 19 0 10 -9 21 -20 24 -11 3 -23 13 -27 24 -3 10 -9 20 -13 23 -3
3 -18 30 -33 61 -16 34 -35 59 -47 62 -11 3 -25 18 -30 34 -24 62 -35 83 -48
83 -7 0 -16 10 -21 23 -5 12 -21 33 -36 47 -14 14 -34 41 -43 60 -9 19 -29 47
-44 62 -15 14 -28 30 -28 35 0 6 -10 18 -21 29 -12 10 -25 29 -30 42 -5 12
-15 22 -24 22 -8 0 -15 6 -15 13 0 7 -16 28 -35 47 -19 19 -35 40 -35 47 0 8
-8 16 -17 20 -24 8 -83 64 -83 78 0 6 -29 40 -65 75 -36 35 -65 69 -65 75 0 6
-16 17 -35 25 -25 10 -35 20 -35 35 0 15 -10 25 -35 35 -26 10 -35 20 -35 37
0 15 -8 27 -22 32 -13 5 -32 18 -42 30 -11 11 -24 21 -31 21 -14 0 -55 42 -55
57 0 14 -34 43 -51 43 -8 0 -27 16 -42 35 -15 19 -34 35 -40 35 -7 0 -37 25
-66 55 -29 30 -62 55 -72 55 -11 0 -23 8 -26 18 -11 28 -58 62 -87 62 -7 0
-21 11 -30 25 -9 14 -25 25 -34 25 -10 0 -28 13 -39 28 -12 16 -36 33 -55 38
-20 6 -38 20 -46 37 -8 16 -21 27 -33 27 -11 0 -29 9 -41 20 -11 10 -35 26
-52 34 -18 8 -40 24 -51 36 -10 11 -24 20 -30 20 -7 0 -18 7 -25 15 -7 8 -54
35 -106 60 -51 25 -96 50 -100 56 -3 6 -17 14 -30 19 -13 5 -24 16 -24 24 0
13 -43 31 -66 28 -6 -1 -19 7 -29 18 -10 11 -28 20 -41 20 -13 0 -26 5 -29 10
-3 6 -14 10 -24 10 -10 0 -24 7 -31 15 -16 19 -68 45 -92 45 -10 0 -18 7 -18
15 0 10 -10 15 -34 15 -19 0 -60 14 -91 30 -31 17 -62 30 -69 30 -20 0 -66 24
-66 35 0 16 -50 35 -92 35 -20 0 -53 9 -73 20 -20 11 -44 20 -55 20 -11 0 -20
3 -20 8 0 10 -50 32 -71 32 -10 0 -20 4 -24 9 -3 6 -13 10 -23 10 -34 1 -82
13 -82 22 0 5 -15 9 -34 9 -19 0 -38 5 -41 10 -3 6 -17 10 -30 10 -13 0 -27 5
-30 10 -3 6 -24 10 -45 10 -21 0 -42 5 -45 10 -3 6 -28 10 -55 10 -27 0 -52 5
-55 10 -3 6 -17 10 -30 10 -13 0 -26 4 -30 9 -3 5 -31 12 -63 16 -31 3 -65 10
-74 15 -10 6 -31 10 -47 10 -17 0 -33 5 -36 10 -3 6 -24 10 -45 10 -21 0 -42
5 -45 10 -3 6 -17 10 -30 10 -13 0 -27 5 -30 10 -3 6 -48 10 -100 10 -52 0
-96 4 -99 9 -3 4 -40 12 -83 16 -43 4 -100 10 -128 13 -92 11 -953 13 -959 3z
m4001 -2585 c208 -62 387 -194 507 -376 56 -85 79 -136 112 -245 24 -78 27
-108 28 -225 0 -207 -36 -329 -150 -500 -61 -93 -4761 -4791 -4859 -4858 -68
-47 -182 -102 -211 -102 -8 0 -22 -4 -32 -9 -51 -27 -105 -33 -272 -29 l-175
4 -100 40 c-194 78 -154 41 -1365 1253 -645 645 -1133 1140 -1155 1174 -118
172 -155 294 -155 503 0 166 19 253 81 381 76 155 198 289 343 376 43 26 80
47 83 47 2 0 24 9 49 20 24 11 59 23 77 27 17 3 38 11 46 17 9 7 75 11 185 11
186 0 217 -5 348 -61 162 -69 185 -90 995 -901 419 -420 766 -763 770 -763 4
0 918 910 2030 2022 2058 2058 2080 2079 2208 2137 47 22 136 55 185 69 19 5
105 10 190 11 136 0 165 -2 237 -23z"/>
<path d="M30169 25907 c-20 -8 -52 -23 -70 -35 -19 -12 -338 -325 -709 -697
-371 -371 -677 -675 -681 -675 -3 0 -119 114 -259 254 -156 157 -271 264 -299
280 -127 69 -279 45 -370 -59 -55 -63 -73 -111 -74 -195 -2 -130 -5 -126 431
-563 279 -280 401 -396 437 -415 41 -21 64 -26 130 -26 142 -1 91 -46 996 861
650 651 811 818 830 858 33 71 33 182 0 247 -31 61 -91 121 -147 147 -56 27
-167 36 -215 18z"/>
<path d="M20250 24772 l-45 -59 2 -371 2 -371 41 -68 c23 -37 53 -83 66 -100
l25 -33 3082 0 c2736 0 3089 2 3142 15 181 47 333 198 380 376 19 69 19 209 0
278 -47 178 -199 329 -380 376 -53 13 -408 15 -3165 15 l-3106 0 -44 -58z"/>
<path d="M30169 22047 c-20 -8 -52 -23 -70 -35 -19 -12 -338 -325 -709 -697
-371 -371 -677 -675 -681 -675 -3 0 -119 114 -259 254 -156 157 -271 264 -299
280 -127 69 -279 45 -370 -59 -55 -63 -73 -111 -74 -195 -2 -130 -5 -126 431
-563 279 -280 401 -396 437 -415 41 -21 64 -26 130 -26 142 -1 91 -46 996 861
650 651 811 818 830 858 33 71 33 182 0 247 -31 61 -91 121 -147 147 -56 27
-167 36 -215 18z"/>
<path d="M25107 20903 c59 -156 108 -297 218 -635 l117 -358 532 0 c586 0 592
1 710 62 34 18 90 61 126 98 104 105 150 217 150 370 0 153 -46 265 -150 370
-36 37 -92 80 -126 98 -121 63 -106 62 -891 62 l-712 0 26 -67z"/>
<path d="M30169 18197 c-20 -8 -52 -23 -70 -35 -19 -12 -338 -325 -709 -697
-371 -371 -677 -675 -681 -675 -3 0 -119 114 -259 254 -156 157 -271 264 -299
280 -127 69 -279 45 -370 -59 -55 -63 -73 -111 -74 -195 -2 -130 -5 -126 431
-563 279 -280 401 -396 437 -415 41 -21 64 -26 130 -26 142 -1 91 -46 996 861
650 651 811 818 830 858 33 71 33 182 0 247 -31 61 -91 121 -147 147 -56 27
-167 36 -215 18z"/>
<path d="M23597 17103 c-8 -10 -29 -47 -46 -83 -29 -60 -31 -73 -31 -171 0
-285 67 -633 145 -751 l25 -38 1408 0 c1232 0 1415 2 1467 15 181 47 333 198
380 376 19 69 19 209 0 278 -47 178 -199 329 -380 376 -52 13 -239 15 -1506
15 -1364 0 -1447 -1 -1462 -17z"/>
</g>
</svg>
