<?xml version="1.0" encoding="UTF-8"?>
<svg version="1.1" xmlns="http://www.w3.org/2000/svg" width="400" height="400">
<path d="M0 0 C1.70884005 1.62339805 3.37446717 3.29319053 5 5 C5 5.66 5 6.32 5 7 C8.78117795 8.96515977 12.68743919 10.47065328 16.66015625 12 C19 13 19 13 22 15 C15.6302415 20.62037515 11.62997653 21 3 21 C3 41.13 3 61.26 3 82 C4.65 81.67 6.3 81.34 8 81 C8.33 81.99 8.66 82.98 9 84 C8.18660156 84.47308594 7.37320313 84.94617188 6.53515625 85.43359375 C3.3547105 88.65324376 3.46107769 90.25189636 3.40039062 94.60351562 C3.41263672 95.41498047 3.42488281 96.22644531 3.4375 97.0625 C3.52339803 105.42103954 3.52339803 105.42103954 1.16015625 108.03515625 C-1.77715691 109.34712072 -3.81537593 109.39807801 -7 109 C-9.375 107.875 -9.375 107.875 -11 106 C-11.5 103 -11.5 103 -11 100 C-9.25 98.125 -9.25 98.125 -7 97 C-5.68 97 -4.36 97 -3 97 C-3 95.35 -3 93.7 -3 92 C-3.64324219 92.26554687 -4.28648438 92.53109375 -4.94921875 92.8046875 C-21.43710383 99.2493102 -39.05373983 100.14938837 -55.79296875 93.96875 C-65.53721511 89.49697183 -72.65945271 82.80453034 -77 73 C-77.31839844 72.360625 -77.63679688 71.72125 -77.96484375 71.0625 C-82.05092344 61.42161152 -81.38478031 48.6194655 -77.9375 38.9375 C-75.39986735 33.25463253 -72.17545761 28.59119582 -68 24 C-67.46632813 23.38640625 -66.93265625 22.7728125 -66.3828125 22.140625 C-57.66149476 12.70991778 -43.60349556 4.42144259 -30.54296875 3.90234375 C-29.37701172 3.91974609 -29.37701172 3.91974609 -28.1875 3.9375 C-27.00220703 3.95103516 -27.00220703 3.95103516 -25.79296875 3.96484375 C-24.90544922 3.98224609 -24.90544922 3.98224609 -24 4 C-24 4.99 -24 5.98 -24 7 C-24.90878906 7.38478516 -24.90878906 7.38478516 -25.8359375 7.77734375 C-38.0200734 13.34455661 -47.04844159 22.34805158 -52.15625 34.82421875 C-54.49901593 43.6421294 -54.3241579 53.44761655 -50.3125 61.6875 C-47.15039079 67.11888758 -43.60419161 72.82429142 -38 76 C-37.01 75.67 -36.02 75.34 -35 75 C-35 57.18 -35 39.36 -35 21 C-31.04 19.35 -27.08 17.7 -23 16 C-14.42668772 11.71825412 -7.21045426 6.25946915 0 0 Z M-12 16 C-11.98810135 16.62925385 -11.9762027 17.25850769 -11.96394348 17.90682983 C-11.85032007 24.4943152 -11.81467378 31.07904501 -11.82299805 37.66748047 C-11.81604966 40.12139185 -11.78964188 42.5753322 -11.74291992 45.02880859 C-11.353981 66.55592267 -11.353981 66.55592267 -15.38818359 71.79003906 C-18.1489814 74.31621726 -20.74545719 76.1756103 -24 78 C-26.2927507 79.48963509 -26.2927507 79.48963509 -28 81 C-28 81.66 -28 82.32 -28 83 C-19.85879261 85.55410428 -11.31406875 86.07851719 -3 84 C-3 62.88 -3 41.76 -3 20 C-7.32670474 17.26590948 -7.32670474 17.26590948 -12 16 Z " fill="#005A9B" transform="translate(108,165)"/>
<path d="M0 0 C0.61875 0.61875 1.2375 1.2375 1.875 1.875 C4.98997463 3.99318275 6.40148043 4.38429475 10 4.9375 C14.71880883 5.7263158 17.09167497 7.02528913 20 11 C20 13.66666667 20 16.33333333 20 19 C20.66 18.67 21.32 18.34 22 18 C21.67 17.01 21.34 16.02 21 15 C22.125 13.4375 22.125 13.4375 24 12 C24.928125 12.20625 25.85625 12.4125 26.8125 12.625 C29.87416273 13.31465357 29.87416273 13.31465357 31.72265625 11.96484375 C33.20489162 10.70687094 34.60885357 9.35802389 36 8 C42.26221692 10.20023838 42.26221692 10.20023838 44 13 C43.6875 16.6875 43.6875 16.6875 43 20 C43.99 20.33 44.98 20.66 46 21 C45.67 19.35 45.34 17.7 45 16 C50.5 12 50.5 12 55 12 C56.70993434 10.3777546 58.37347684 8.70586575 60 7 C64.23653236 3.70491927 68.68526606 2.56477769 74 3 C78.87943158 4.72298307 83.63447427 6.96136912 87 11 C87 11.66 87 12.32 87 13 C88.0828125 12.5978125 88.0828125 12.5978125 89.1875 12.1875 C92 12 92 12 94.8125 14.1875 C97 17 97 17 97 21 C97.99 20.67 98.98 20.34 100 20 C99.835 19.236875 99.67 18.47375 99.5 17.6875 C99 15 99 15 99 12 C101.25 9.75 101.25 9.75 104 8 C106.0625 8 106.0625 8 108 9 C108.61875 9.70125 109.2375 10.4025 109.875 11.125 C110.57625 11.74375 111.2775 12.3625 112 13 C114.00720923 12.71325582 116.0085944 12.38133299 118 12 C119.9375 13.125 119.9375 13.125 121 15 C120.6875 17.6875 120.6875 17.6875 120 20 C120.99 19.34 121.98 18.68 123 18 C122.505 14.535 122.505 14.535 122 11 C122.61875 10.731875 123.2375 10.46375 123.875 10.1875 C126.2995233 9.04443152 126.2995233 9.04443152 128 6 C130.0234375 5.41015625 130.0234375 5.41015625 132.375 5.0625 C136.44213612 4.29868792 138.2990918 3.24108984 141 0 C141.66 0 142.32 0 143 0 C143.30164828 4.37390008 143.40040117 7.08999735 141.625 11.125 C138.49683928 14.55108079 135.19483986 16.4971004 131.14453125 18.703125 C128.86789853 19.81925249 128.86789853 19.81925249 128 22 C127.67 29.26 127.34 36.52 127 44 C90.37 44 53.74 44 16 44 C15.67 37.07 15.34 30.14 15 23 C12.27129651 20.27129651 9.99156689 18.14419573 6.9375 15.9375 C0.2740489 11.11577051 0.2740489 11.11577051 -0.546875 7.7734375 C-0.61390625 6.98195312 -0.6809375 6.19046875 -0.75 5.375 C-0.82734375 4.57835937 -0.9046875 3.78171875 -0.984375 2.9609375 C-0.98953125 2.31382812 -0.9946875 1.66671875 -1 1 C-0.67 0.67 -0.34 0.34 0 0 Z M55 13 C55.515625 13.5775 56.03125 14.155 56.5625 14.75 C58 17 58 17 57.6875 19.25 C57.460625 19.8275 57.23375 20.405 57 21 C58.94603274 21.59070014 58.94603274 21.59070014 61 22 C62.25156054 20.95137906 62.25156054 20.95137906 62.3125 18.625 C62.26104191 15.88732881 62.26104191 15.88732881 60.1875 14.1875 C57.97541303 12.76145407 57.97541303 12.76145407 55 13 Z M80 17 C80 18.32 80 19.64 80 21 C81.32 21.33 82.64 21.66 84 22 C84.185625 21.1646875 84.185625 21.1646875 84.375 20.3125 C85.05976855 17.77885636 85.99133763 15.42078968 87 13 C83.76044293 13 82.27445032 14.84525759 80 17 Z M30 14 C29.67 15.98 29.34 17.96 29 20 C29.99 20.33 30.98 20.66 32 21 C32.77242269 19.16299211 32.77242269 19.16299211 33 17 C31.64555699 15.22809091 31.64555699 15.22809091 30 14 Z M111 15 C110.67 16.65 110.34 18.3 110 20 C110.99 20 111.98 20 113 20 C113.33 19.34 113.66 18.68 114 18 C113.01 17.01 112.02 16.02 111 15 Z M23 37 C22.67 38.32 22.34 39.64 22 41 C23.32 41.33 24.64 41.66 26 42 C26.33 41.01 26.66 40.02 27 39 C25.68 38.34 24.36 37.68 23 37 Z M70 37 C69.67 38.32 69.34 39.64 69 41 C70.32 41 71.64 41 73 41 C72.67 39.68 72.34 38.36 72 37 C71.34 37 70.68 37 70 37 Z M93 37 C92.67 38.32 92.34 39.64 92 41 C93.32 41.33 94.64 41.66 96 42 C96.33 41.01 96.66 40.02 97 39 C95.68 38.34 94.36 37.68 93 37 Z M117 37 C116.67 38.32 116.34 39.64 116 41 C117.32 41 118.64 41 120 41 C119.67 39.68 119.34 38.36 119 37 C118.34 37 117.68 37 117 37 Z M45 38 C45.33 39.32 45.66 40.64 46 42 C47.32 41.67 48.64 41.34 50 41 C49.34 39.68 48.68 38.36 48 37 C46.7763932 36.9254644 46.7763932 36.9254644 45 38 Z " fill="#FFCA05" transform="translate(128,126)"/>
<path d="M0 0 C2.23046875 1.37890625 2.23046875 1.37890625 4.23046875 3.06640625 C6.1629557 4.60664645 6.1629557 4.60664645 8.60546875 4.31640625 C11.42840305 3.44135038 11.42840305 3.44135038 14.23046875 1.25390625 C17.23046875 -0.62109375 17.23046875 -0.62109375 19.6484375 -0.43359375 C22.49533875 0.46225415 24.20622728 1.66697968 26.54296875 3.50390625 C29.56520412 5.58200528 31.52051085 6.85935132 35.23046875 6.50390625 C39.05988086 5.66311716 42.55533997 4.056484 46.0546875 2.31640625 C51.08718132 0.14800676 53.91531678 0.31073471 59.11328125 2.32617188 C59.81195313 2.61169922 60.510625 2.89722656 61.23046875 3.19140625 C61.92914063 3.46533203 62.6278125 3.73925781 63.34765625 4.02148438 C65.31380965 4.7949617 67.27279619 5.58425398 69.23046875 6.37890625 C70.22046875 6.77464844 71.21046875 7.17039063 72.23046875 7.578125 C73.22046875 7.97451172 73.22046875 7.97451172 74.23046875 8.37890625 C73.90046875 9.36890625 73.57046875 10.35890625 73.23046875 11.37890625 C73.12209981 13.84552914 73.06645684 16.28306302 73.0625 18.75 C73.0591716 19.46873795 73.0558432 20.18747589 73.05241394 20.92799377 C73.04735582 22.4468624 73.04500527 23.96574211 73.04516602 25.48461914 C73.04298008 27.80438597 73.02481465 30.12367669 73.00585938 32.44335938 C73.00292508 33.92057129 73.00094053 35.39778547 73 36.875 C72.98922173 37.91266762 72.98922173 37.91266762 72.97822571 38.97129822 C72.99544321 42.61275763 73.23657328 45.28162646 75.23046875 48.37890625 C74.07546875 48.79140625 72.92046875 49.20390625 71.73046875 49.62890625 C65.25394859 52.07049704 59.48083728 54.78483379 54.23046875 59.37890625 C53.68648438 59.10046875 53.1425 58.82203125 52.58203125 58.53515625 C44.68236713 54.65093602 36.96100611 51.67303458 28.23046875 50.37890625 C28.98046875 45.62890625 28.98046875 45.62890625 31.23046875 43.37890625 C31.40535129 40.94145728 31.4622428 38.61954545 31.42578125 36.18359375 C31.42295135 35.47615021 31.42012146 34.76870667 31.41720581 34.03982544 C31.40600012 31.77768115 31.38089554 29.5159311 31.35546875 27.25390625 C31.34543942 25.72135988 31.33631349 24.18880731 31.328125 22.65625 C31.30605961 18.89698324 31.27152771 15.13801161 31.23046875 11.37890625 C30.03421875 11.89453125 28.83796875 12.41015625 27.60546875 12.94140625 C22.23046875 14.37890625 22.23046875 14.37890625 8.23046875 13.37890625 C7.90046875 24.26890625 7.57046875 35.15890625 7.23046875 46.37890625 C9.21046875 46.37890625 11.19046875 46.37890625 13.23046875 46.37890625 C12.54984375 46.89453125 11.86921875 47.41015625 11.16796875 47.94140625 C4.89583593 52.97726165 4.89583593 52.97726165 0.23046875 59.37890625 C-3.19554818 58.23690061 -4.01474776 57.1758257 -6.26953125 54.44140625 C-8.39829146 51.86915433 -9.9534427 50.25629862 -12.76953125 48.37890625 C-12.76953125 47.71890625 -12.76953125 47.05890625 -12.76953125 46.37890625 C-11.44953125 46.37890625 -10.12953125 46.37890625 -8.76953125 46.37890625 C-8.788985 41.76989324 -8.84079837 37.16278081 -8.92211914 32.55444336 C-8.94526007 30.98814256 -8.95968573 29.42168703 -8.96508789 27.85522461 C-8.97440713 25.59781922 -9.01545358 23.34283404 -9.0625 21.0859375 C-9.05856735 20.38990921 -9.0546347 19.69388092 -9.05058289 18.97676086 C-9.1691882 14.98981621 -9.68339233 13.47985766 -12.3137207 10.3972168 C-13.12413818 9.73117432 -13.93455566 9.06513184 -14.76953125 8.37890625 C-12.88943814 6.81366127 -10.99458269 5.27856625 -9.08203125 3.75390625 C-8.55158203 3.30789062 -8.02113281 2.861875 -7.47460938 2.40234375 C-3.43453779 -0.7702278 -3.43453779 -0.7702278 0 0 Z M46.23046875 10.37890625 C46.10683648 14.73875086 46.01611967 19.0976668 45.95581055 23.45874023 C45.93067065 24.94199393 45.89655283 26.42512378 45.85327148 27.90795898 C45.79258617 30.0405122 45.76425759 32.1714283 45.7421875 34.3046875 C45.71600342 35.58770752 45.68981934 36.87072754 45.6628418 38.19262695 C45.90752104 41.49366183 45.90752104 41.49366183 48.38598633 43.25854492 C51.67113703 44.66666535 51.67113703 44.66666535 57.23046875 45.37890625 C57.23046875 35.14890625 57.23046875 24.91890625 57.23046875 14.37890625 C53.60046875 13.05890625 49.97046875 11.73890625 46.23046875 10.37890625 Z " fill="#005A9B" transform="translate(175.76953125,190.62109375)"/>
<path d="M0 0 C3.84345809 1.45786341 5.15079935 3.38965588 7 7 C7.495 8.485 7.495 8.485 8 10 C6.68 10 5.36 10 4 10 C4 10.66 4 11.32 4 12 C4.73863281 11.98839844 5.47726563 11.97679688 6.23828125 11.96484375 C17.36730856 11.86585621 27.34212975 12.69401366 38 16 C38.84175781 16.25007813 39.68351562 16.50015625 40.55078125 16.7578125 C44.62088811 18.02347584 47.69513217 19.24594347 51 22 C52.22286397 22.67815842 53.45265509 23.34391068 54.6875 24 C58 26 58 26 59 29 C62.96 28.505 62.96 28.505 67 28 C66.67 29.65 66.34 31.3 66 33 C65.38511719 33.17015625 64.77023437 33.3403125 64.13671875 33.515625 C58.03454234 35.27858113 58.03454234 35.27858113 54 40 C53.34 40 52.68 40 52 40 C51.34 39.113125 50.68 38.22625 50 37.3125 C46.61247344 33.00389371 41.9182696 31.1583086 37 29 C37.165 29.5775 37.33 30.155 37.5 30.75 C38 33 38 33 38 37 C35.03 37 32.06 37 29 37 C28.46375 35.9275 27.9275 34.855 27.375 33.75 C25.18920261 29.87374779 22.83416019 28.17850011 19 26 C18.505 26.495 18.505 26.495 18 27 C18.350625 27.53625 18.70125 28.0725 19.0625 28.625 C20.28924249 31.73274763 19.72856431 33.79431703 19 37 C16.4375 37.75 16.4375 37.75 13 38 C11.29238704 37.00120752 9.58622501 35.99847814 7.9140625 34.94140625 C4.35604064 33.1914404 0.84413847 33.30407838 -3 34 C-5.13453033 34.93872593 -7.11302608 36.0199648 -9.13671875 37.17578125 C-11.9515323 38.42090842 -14.13093133 37.8607206 -17 37 C-17.36923077 29.61538462 -17.36923077 29.61538462 -15.5 26.5 C-15.005 26.005 -14.51 25.51 -14 25 C-19.08817151 27.06976468 -21.93052442 28.27135836 -24.4375 33.25 C-25.5703125 35.359375 -25.5703125 35.359375 -27 37 C-30.1012915 37.69384827 -32.87705618 37.48987354 -36 37 C-35.7525 35.576875 -35.7525 35.576875 -35.5 34.125 C-34.9473365 31.19831099 -34.9473365 31.19831099 -35 29 C-40.98502805 31.79202301 -46.23678479 34.35517719 -50 40 C-50.66 40 -51.32 40 -52 40 C-52.721875 39.21625 -53.44375 38.4325 -54.1875 37.625 C-57.55551466 34.48151965 -59.58355591 33.95256637 -64 33 C-64.33 31.35 -64.66 29.7 -65 28 C-62.36 28.33 -59.72 28.66 -57 29 C-57 28.34 -57 27.68 -57 27 C-56.360625 26.896875 -55.72125 26.79375 -55.0625 26.6875 C-54.381875 26.460625 -53.70125 26.23375 -53 26 C-52.67 25.01 -52.34 24.02 -52 23 C-50.03533587 21.93224776 -48.03144641 20.93446535 -46 20 C-45.01 19.34 -44.02 18.68 -43 18 C-38.08240635 16.39425514 -33.12469938 15.39439369 -28.0390625 14.46484375 C-26.01666471 14.19408227 -26.01666471 14.19408227 -25 13 C-23.2962092 12.77246643 -21.58426501 12.60526762 -19.87109375 12.46484375 C-18.83662109 12.37783203 -17.80214844 12.29082031 -16.73632812 12.20117188 C-15.64771484 12.11416016 -14.55910156 12.02714844 -13.4375 11.9375 C-12.34501953 11.84662109 -11.25253906 11.75574219 -10.12695312 11.66210938 C-7.41827508 11.43737189 -4.70931834 11.21685911 -2 11 C-2.99 10.67 -3.98 10.34 -5 10 C-4.67 8.68 -4.34 7.36 -4 6 C-3.34 6 -2.68 6 -2 6 C-1.855625 5.195625 -1.71125 4.39125 -1.5625 3.5625 C-1 1 -1 1 0 0 Z " fill="#FFCA05" transform="translate(198,95)"/>
<path d="M0 0 C0.87019775 0.40597412 1.74039551 0.81194824 2.63696289 1.23022461 C3.51852051 1.5628833 4.40007812 1.89554199 5.30834961 2.23828125 C8.59640502 3.91096436 10.41663839 5.25070254 12.63696289 8.23022461 C14.22135054 14.84762083 13.24313265 21.9563363 12.76196289 28.66772461 C12.66351582 30.56266871 12.56971623 32.45786035 12.48071289 34.35327148 C12.2531624 38.98351818 11.9622696 43.60585969 11.63696289 48.23022461 C12.95696289 48.56022461 14.27696289 48.89022461 15.63696289 49.23022461 C15.08266602 49.77291992 14.52836914 50.31561523 13.95727539 50.87475586 C13.23282227 51.59018555 12.50836914 52.30561523 11.76196289 53.04272461 C11.04266602 53.75041992 10.32336914 54.45811523 9.58227539 55.18725586 C7.48337352 57.27421655 7.48337352 57.27421655 5.63696289 60.23022461 C2.25499061 59.10290051 1.39638475 58.08840088 -0.86303711 55.41772461 C-1.45084961 54.7306543 -2.03866211 54.04358398 -2.64428711 53.33569336 C-4.27453135 51.33864417 -5.83364033 49.30516841 -7.36303711 47.23022461 C-6.37303711 47.23022461 -5.38303711 47.23022461 -4.36303711 47.23022461 C-4.36303711 36.01022461 -4.36303711 24.79022461 -4.36303711 13.23022461 C-10.19148703 11.65430649 -10.19148703 11.65430649 -14.36303711 14.23022461 C-14.36303711 25.12022461 -14.36303711 36.01022461 -14.36303711 47.23022461 C-12.71303711 47.23022461 -11.06303711 47.23022461 -9.36303711 47.23022461 C-9.36303711 47.89022461 -9.36303711 48.55022461 -9.36303711 49.23022461 C-10.97241211 50.56225586 -10.97241211 50.56225586 -13.11303711 52.04272461 C-16.47189654 54.45801752 -18.84095909 56.93212259 -21.36303711 60.23022461 C-22.02303711 60.23022461 -22.68303711 60.23022461 -23.36303711 60.23022461 C-24.94897461 58.58569336 -24.94897461 58.58569336 -26.73803711 56.41772461 C-28.59869993 54.16771604 -30.23176414 52.32672175 -32.58959961 50.59350586 C-33.46745117 49.91868164 -33.46745117 49.91868164 -34.36303711 49.23022461 C-34.36303711 48.57022461 -34.36303711 47.91022461 -34.36303711 47.23022461 C-33.04303711 47.23022461 -31.72303711 47.23022461 -30.36303711 47.23022461 C-30.40722141 42.60306201 -30.47708368 37.97725999 -30.57055664 33.35083008 C-30.59874665 31.77769817 -30.61997109 30.20442514 -30.6340332 28.63110352 C-30.65549153 26.36653505 -30.70215059 24.10365957 -30.75366211 21.83959961 C-30.75489075 21.13841003 -30.75611938 20.43722046 -30.75738525 19.71478271 C-30.8623195 16.20050389 -31.13408782 14.50832066 -33.40112305 11.75463867 C-34.04855469 11.25158203 -34.69598633 10.74852539 -35.36303711 10.23022461 C-33.87735349 5.77317374 -30.40768206 3.30982419 -26.36303711 1.23022461 C-21.83367671 1.1169906 -18.13577695 3.93699059 -14.36303711 6.23022461 C-13.55479492 5.70170898 -12.74655273 5.17319336 -11.91381836 4.62866211 C-10.84518555 3.96092773 -9.77655273 3.29319336 -8.67553711 2.60522461 C-7.09192383 1.59588867 -7.09192383 1.59588867 -5.47631836 0.56616211 C-2.36303711 -0.76977539 -2.36303711 -0.76977539 0 0 Z " fill="#005A9B" transform="translate(286.363037109375,189.769775390625)"/>
<path d="M0 0 C0.86882812 0.25007812 1.73765625 0.50015625 2.6328125 0.7578125 C7.11290814 2.3015563 11.48902584 4.08363712 15.875 5.875 C15.88958252 6.94459961 15.90416504 8.01419922 15.91918945 9.11621094 C15.97722301 13.08985594 16.05445519 17.06293725 16.13745117 21.03613281 C16.17067681 22.75478965 16.19871616 24.47355499 16.22143555 26.19238281 C16.25502561 28.66518323 16.30734178 31.13699156 16.36328125 33.609375 C16.36967117 34.37618591 16.3760611 35.14299683 16.38264465 35.93304443 C16.47029758 39.12333438 16.66350278 41.48803641 18.20776367 44.31347656 C20.50325521 46.46342002 22.8733914 47.07457104 25.875 47.875 C22.48727103 52.56659716 19.09314817 56.9049782 14.875 60.875 C11.05815774 59.31999019 8.68304268 56.83904505 5.875 53.875 C2.73150159 54.9228328 2.14248815 55.45413668 0.1875 57.9375 C-0.575625 58.906875 -1.33875 59.87625 -2.125 60.875 C-5.33334839 59.39930658 -7.98996917 57.55098927 -10.8125 55.4375 C-15.38210521 52.17834621 -19.70337207 50.25005056 -25.125 48.875 C-24.79975342 48.19630859 -24.47450684 47.51761719 -24.1394043 46.81835938 C-22.93265711 43.31690473 -22.88227245 40.4829283 -22.89453125 36.78125 C-22.89498947 36.11210571 -22.89544769 35.44296143 -22.8959198 34.75354004 C-22.89892811 33.34495256 -22.90677163 31.93636799 -22.91918945 30.52783203 C-22.93744289 28.38171489 -22.93969885 26.23603046 -22.93945312 24.08984375 C-22.90141344 15.92420646 -22.90141344 15.92420646 -24.125 7.875 C-23.08859375 7.39289063 -22.0521875 6.91078125 -20.984375 6.4140625 C-19.61456968 5.77607098 -18.24477877 5.13804852 -16.875 4.5 C-16.19308594 4.18289062 -15.51117188 3.86578125 -14.80859375 3.5390625 C-14.14472656 3.2296875 -13.48085938 2.9203125 -12.796875 2.6015625 C-12.15153809 2.30427246 -11.50620117 2.00698242 -10.84130859 1.70068359 C-9.01836604 0.85588334 -9.01836604 0.85588334 -6.9609375 -0.421875 C-4.30450746 -1.43923118 -2.69496953 -0.80927656 0 0 Z M-8.125 9.875 C-8.125 19.775 -8.125 29.675 -8.125 39.875 C-5.155 41.525 -2.185 43.175 0.875 44.875 C0.875 34.315 0.875 23.755 0.875 12.875 C-2.095 11.885 -5.065 10.895 -8.125 9.875 Z " fill="#005A9B" transform="translate(329.125,189.125)"/>
<path d="M0 0 C3.23310568 1.03440137 6.43394027 2.11852141 9.625 3.27734375 C10.82125 3.70917969 12.0175 4.14101562 13.25 4.5859375 C16.06046052 5.63010165 18.84844729 6.7092399 21.625 7.83984375 C21.295 8.82984375 20.965 9.81984375 20.625 10.83984375 C20.51663106 13.30646664 20.46098809 15.74400052 20.45703125 18.2109375 C20.45370285 18.92967545 20.45037445 19.64841339 20.44694519 20.38893127 C20.44188707 21.9077999 20.43953652 23.42667961 20.43969727 24.94555664 C20.43751133 27.26532347 20.4193459 29.58461419 20.40039062 31.90429688 C20.39745633 33.38150879 20.39547178 34.85872297 20.39453125 36.3359375 C20.38734573 37.02771591 20.38016022 37.71949432 20.37275696 38.43223572 C20.38997446 42.07369513 20.63110453 44.74256396 22.625 47.83984375 C21.51125 48.23171875 20.3975 48.62359375 19.25 49.02734375 C9.58640419 52.58464904 9.58640419 52.58464904 1.625 58.83984375 C1.08101562 58.56140625 0.53703125 58.28296875 -0.0234375 57.99609375 C-7.92310162 54.11187352 -15.64446264 51.13397208 -24.375 49.83984375 C-23.625 45.08984375 -23.625 45.08984375 -21.375 42.83984375 C-21.07898764 39.60026961 -21.07898764 39.60026961 -21.14453125 35.78515625 C-21.14498947 35.0871994 -21.14544769 34.38924255 -21.1459198 33.6701355 C-21.14894252 32.1923452 -21.15682946 30.7145581 -21.16918945 29.23681641 C-21.18737238 26.98067863 -21.1896996 24.72495319 -21.18945312 22.46875 C-20.98841096 14.55948731 -20.98841096 14.55948731 -22.375 6.83984375 C-20.83779297 6.45892578 -20.83779297 6.45892578 -19.26953125 6.0703125 C-17.90874653 5.72307778 -16.54807535 5.37539791 -15.1875 5.02734375 C-14.51396484 4.86169922 -13.84042969 4.69605469 -13.14648438 4.52539062 C-10.00850552 3.71410829 -7.44644657 2.88521493 -4.69921875 1.140625 C-2.375 -0.16015625 -2.375 -0.16015625 0 0 Z M-6.375 9.83984375 C-6.49863227 14.19968836 -6.58934908 18.5586043 -6.6496582 22.91967773 C-6.6747981 24.40293143 -6.70891592 25.88606128 -6.75219727 27.36889648 C-6.81288258 29.5014497 -6.84121116 31.6323658 -6.86328125 33.765625 C-6.88946533 35.04864502 -6.91564941 36.33166504 -6.94262695 37.65356445 C-6.69794771 40.95459933 -6.69794771 40.95459933 -4.21948242 42.71948242 C-0.93433172 44.12760285 -0.93433172 44.12760285 4.625 44.83984375 C4.625 34.60984375 4.625 24.37984375 4.625 13.83984375 C0.995 12.51984375 -2.635 11.19984375 -6.375 9.83984375 Z " fill="#005A9B" transform="translate(137.375,191.16015625)"/>
<path d="M0 0 C1.41791235 0.03012699 2.83588609 0.05749803 4.25390625 0.08203125 C7.71222213 0.14783757 11.16821818 0.25120341 14.625 0.375 C13.75085638 4.32075794 12.67732891 6.58663035 9.625 9.375 C6.68407647 9.98308007 3.86188022 9.84848442 0.875 9.6875 C0.08222656 9.66494141 -0.71054688 9.64238281 -1.52734375 9.61914062 C-3.4773762 9.56040471 -5.42643312 9.47072654 -7.375 9.375 C-7.045 12.015 -6.715 14.655 -6.375 17.375 C-4.458412 17.40212153 -2.5417127 17.42145097 -0.625 17.4375 C0.44234375 17.44910156 1.5096875 17.46070313 2.609375 17.47265625 C5.15868501 17.39010087 7.20433591 17.12117558 9.625 16.375 C9.1270163 20.10987777 8.75008244 22.18737635 6.625 25.375 C2.26852194 25.79496896 -1.99057569 25.50395366 -6.375 25.375 C-6.705 29.665 -7.035 33.955 -7.375 38.375 C-4.77123726 38.65065727 -2.17044032 38.89627265 0.4375 39.125 C1.17548828 39.20621094 1.91347656 39.28742188 2.67382812 39.37109375 C5.10223115 39.61458271 5.10223115 39.61458271 8.625 39.375 C10.41697328 37.47261607 10.41697328 37.47261607 11.625 35.375 C12.945 35.375 14.265 35.375 15.625 35.375 C15.32223124 41.43037521 12.34745962 44.88983458 8.625 49.375 C7.71621094 49.230625 6.80742187 49.08625 5.87109375 48.9375 C-3.30715632 47.58194307 -12.09590867 47.13808703 -21.375 47.375 C-21.065625 46.818125 -20.75625 46.26125 -20.4375 45.6875 C-18.34410886 41.13129576 -18.25469343 36.7221385 -18.27734375 31.76171875 C-18.28056641 30.51455078 -18.28378906 29.26738281 -18.28710938 27.98242188 C-18.29548828 26.68884766 -18.30386719 25.39527344 -18.3125 24.0625 C-18.31701172 22.74958984 -18.32152344 21.43667969 -18.32617188 20.08398438 C-18.33794051 16.8476099 -18.3543824 13.61132822 -18.375 10.375 C-19.695 10.375 -21.015 10.375 -22.375 10.375 C-21.63048283 6.74313679 -20.38504486 4.20423194 -17.63964844 1.59667969 C-12.41324503 -1.22273845 -5.79474411 -0.21372403 0 0 Z " fill="#005A9B" transform="translate(143.375,255.625)"/>
<path d="M0 0 C4.98524294 1.76895717 9.4121988 4.3979635 14 7 C14 12.94 14 18.88 14 25 C15.32 25 16.64 25 18 25 C17 28 17 28 15 29.8125 C11.09658344 31.35760239 8.83167115 30.58064699 4.890625 29.4453125 C4.26671875 29.29835938 3.6428125 29.15140625 3 29 C2.505 29.495 2.505 29.495 2 30 C-3.5085923 29.55931262 -6.69044861 28.27552202 -12 26 C-12 20.72 -12 15.44 -12 10 C-12.99 10.33 -13.98 10.66 -15 11 C-16.9375 11.1328125 -16.9375 11.1328125 -19 11.125 C-20.0209375 11.12886719 -20.0209375 11.12886719 -21.0625 11.1328125 C-23 11 -23 11 -26 10 C-26 14.62 -26 19.24 -26 24 C-25.34 24 -24.68 24 -24 24 C-25.14018002 27.42054006 -25.92458518 28.2426201 -29 30 C-32.34759458 29.79077534 -34.53583655 28.20014594 -37 26 C-37 25.34 -37 24.68 -37 24 C-36.34 24 -35.68 24 -35 24 C-35.33 19.05 -35.66 14.1 -36 9 C-37.32 9 -38.64 9 -40 9 C-38.61725283 5.65836101 -37.20955991 3.74233252 -34 2 C-30.49389321 2.2565444 -28.9721099 3.0185934 -26 5 C-24.35 3.68 -22.7 2.36 -21 1 C-18.64454784 2.17772608 -16.34867716 3.37416418 -14.0625 4.6875 C-11.17233969 6.16413304 -11.17233969 6.16413304 -8.5 6 C-5.01004598 4.60401839 -2.78172597 2.52296077 0 0 Z M-2 9 C-2 12.96 -2 16.92 -2 21 C-0.02 21.66 1.96 22.32 4 23 C4.10815225 21.23050905 4.18566083 19.45912513 4.25 17.6875 C4.29640625 16.70136719 4.3428125 15.71523438 4.390625 14.69921875 C4.26118768 11.88144036 4.26118768 11.88144036 2.109375 10.14453125 C0.10699604 8.84102925 0.10699604 8.84102925 -2 9 Z " fill="#005A9B" transform="translate(250,274)"/>
<path d="M0 0 C4.006564 0.73589951 5.34810046 2.62801401 8.0625 5.5625 C9.0525 5.5625 10.0425 5.5625 11.0625 5.5625 C11.84625 4.716875 12.63 3.87125 13.4375 3 C14.30375 2.195625 15.17 1.39125 16.0625 0.5625 C18.875 0.75 18.875 0.75 21.0625 1.5625 C21.3925 2.8825 21.7225 4.2025 22.0625 5.5625 C21.11375 5.85125 20.165 6.14 19.1875 6.4375 C16.01038422 7.33075109 16.01038422 7.33075109 14.0625 9.5625 C14.0625 14.8118914 17.67166726 17.96427688 21.0625 21.5625 C22.7125 21.2325 24.3625 20.9025 26.0625 20.5625 C25.8077901 24.29824522 25.43013692 26.14079882 22.9375 29 C20.0625 30.5625 20.0625 30.5625 16.625 30.75 C11.99035159 29.2051172 9.64383695 26.65670843 7.0625 22.5625 C7.0625 21.9025 7.0625 21.2425 7.0625 20.5625 C3.48839203 23.24308098 0.74308098 25.98839203 -1.9375 29.5625 C-3.5875 29.2325 -5.2375 28.9025 -6.9375 28.5625 C-7.2675 26.5825 -7.5975 24.6025 -7.9375 22.5625 C-7.215625 22.68625 -6.49375 22.81 -5.75 22.9375 C-2.48736264 22.50248169 -2.1333004 22.00688849 -0.125 19.5625 C0.596875 18.5725 1.31875 17.5825 2.0625 16.5625 C-0.51860689 11.97705183 -0.51860689 11.97705183 -4.9375 9.5625 C-5.9275 9.5625 -6.9175 9.5625 -7.9375 9.5625 C-7.59759204 6.50332833 -7.08051602 4.75848492 -5.25 2.25 C-2.9375 0.5625 -2.9375 0.5625 0 0 Z " fill="#005A9B" transform="translate(166.9375,274.4375)"/>
<path d="M0 0 C0.66 0.33 1.32 0.66 2 1 C2 3.31 2 5.62 2 8 C3.65 8 5.3 8 7 8 C7 8.99 7 9.98 7 11 C5.35 11 3.7 11 2 11 C2 16.61 2 22.22 2 28 C3.98 27.67 5.96 27.34 8 27 C8 28.32 8 29.64 8 31 C6.59248779 31.86916887 5.1735479 32.71985149 3.75 33.5625 C2.96109375 34.03816406 2.1721875 34.51382813 1.359375 35.00390625 C-1 36 -1 36 -3.046875 35.83984375 C-5.43192825 34.81427085 -7.08966586 33.77303505 -9 32 C-9.36230469 29.73168945 -9.36230469 29.73168945 -9.171875 27.11328125 C-9.11386719 26.17548828 -9.05585938 25.23769531 -8.99609375 24.27148438 C-8.91488281 23.29501953 -8.83367187 22.31855469 -8.75 21.3125 C-8.68425781 20.32443359 -8.61851562 19.33636719 -8.55078125 18.31835938 C-8.38566427 15.87698692 -8.20139619 13.43860383 -8 11 C-8.99 11 -9.98 11 -11 11 C-11 9.68 -11 8.36 -11 7 C-10.01 7 -9.02 7 -8 7 C-7.67 6.01 -7.34 5.02 -7 4 C-4.78406817 2.28945613 -2.53809348 1.24678276 0 0 Z " fill="#005A9B" transform="translate(203,268)"/>
<path d="M0 0 C2.375 1.5625 2.375 1.5625 4 4 C4.5625 7.5 4.5625 7.5 4 11 C1.875 13.5 1.875 13.5 -1 15 C-4.15548924 14.93689022 -6.13769198 14.48864121 -8.875 12.9375 C-10.71751909 9.76427268 -10.66053097 6.56241421 -10 3 C-7.21052771 -0.43319666 -4.246332 -0.61925675 0 0 Z M-6.75 3.1875 C-8.4578723 5.66391483 -8.51560833 7.05366671 -8 10 C-6.42304368 12.0785608 -6.42304368 12.0785608 -4 13 C-1.60736593 12.33228817 0.22097385 11.77902615 2 10 C2.29978682 7.15202522 2.40071289 5.58103368 0.75 3.1875 C-1.9008605 1.3887018 -4.0991395 1.3887018 -6.75 3.1875 Z " fill="#005A9B" transform="translate(368,233)"/>
<path d="M0 0 C1.98 0 3.96 0 6 0 C6 1.98 6 3.96 6 6 C4.02 6 2.04 6 0 6 C0 4.02 0 2.04 0 0 Z " fill="#005A9B" transform="translate(362,237)"/>
</svg>
