<?xml version="1.0" encoding="UTF-8"?>
<svg version="1.1" xmlns="http://www.w3.org/2000/svg" width="2000" height="1293">
<path d="M0 0 C4.7628135 3.91586968 7.54974134 9.11664564 10.625 14.375 C11.93732845 16.43760916 13.24983443 18.50010537 14.5625 20.5625 C62.12427913 98.43236104 73.51190869 197.76620142 52.875 285.75 C40.05171184 338.09885247 17.05122659 387.6663024 -17.375 429.375 C-18.1175 430.30828125 -18.86 431.2415625 -19.625 432.203125 C-34.17787635 450.39422043 -50.88390082 468.18856373 -69.375 482.375 C-70.48604454 483.28283364 -71.59389674 484.1945826 -72.69921875 485.109375 C-87.33106006 497.16075634 -103.13494636 507.62348584 -119.375 517.375 C-119.97747559 517.74012695 -120.57995117 518.10525391 -121.20068359 518.48144531 C-139.09633929 529.2410334 -158.45472983 537.88320825 -178.19970703 544.62792969 C-180.32739993 545.3586525 -182.44298161 546.11791826 -184.55859375 546.8828125 C-271.3567551 577.70842168 -371.61558606 570.78023473 -454.74804688 532.27587891 C-458.73371994 530.37346308 -462.66581359 528.37871318 -466.57324219 526.32080078 C-468.35647362 525.38472509 -470.14950158 524.47026022 -471.9453125 523.55859375 C-479.62057917 519.61648198 -487.01967385 515.25900975 -494.375 510.75 C-495.25953857 510.21157471 -496.14407715 509.67314941 -497.05541992 509.1184082 C-503.58254593 505.06693892 -509.63939898 500.71578033 -514.625 494.8125 C-515.2025 494.13058594 -515.78 493.44867187 -516.375 492.74609375 C-517.035 491.96363281 -517.695 491.18117188 -518.375 490.375 C-519.6125 488.96927734 -519.6125 488.96927734 -520.875 487.53515625 C-543.49499095 461.6942221 -543.49499095 461.6942221 -543.375 451.375 C-542.16796875 449.12890625 -542.16796875 449.12890625 -540.375 447.375 C-536.08898219 446.41962998 -531.30875801 447.3714757 -526.98046875 447.890625 C-520.24264342 448.57708741 -513.51558033 448.48278967 -506.75 448.4375 C-505.45964844 448.43298828 -504.16929688 448.42847656 -502.83984375 448.42382812 C-499.68484625 448.41214295 -496.52994863 448.39576044 -493.375 448.375 C-494.07625 447.3334375 -494.7775 446.291875 -495.5 445.21875 C-501.49304335 436.20903851 -506.89151738 427.1593446 -511.45751953 417.34570312 C-512.067356 416.03580424 -512.68549591 414.72973804 -513.31201172 413.42773438 C-525.16123898 388.77539537 -530.39946573 359.65476872 -521.30859375 333.28125 C-513.23371107 312.17462597 -495.24970048 296.266556 -475.375 286.375 C-471.76112026 284.8021197 -468.15034946 283.5010854 -464.375 282.375 C-463.34439453 282.03855469 -463.34439453 282.03855469 -462.29296875 281.6953125 C-446.24133547 277.21435942 -429.58101054 281.07631868 -415 288.1875 C-414.3702124 288.49429687 -413.7404248 288.80109375 -413.09155273 289.1171875 C-409.44852049 291.00189275 -406.37451704 293.14053839 -403.21484375 295.7578125 C-397.74813684 300.11591506 -391.71050793 302.71130269 -385.3125 305.4375 C-384.10440674 305.96134277 -382.89631348 306.48518555 -381.65161133 307.02490234 C-372.98171086 310.75645824 -364.30090008 314.29992943 -355.375 317.375 C-353.80057129 317.92752441 -353.80057129 317.92752441 -352.19433594 318.49121094 C-328.74965373 326.69012929 -305.22445514 332.91119956 -280.69775391 336.98876953 C-278.68585363 337.32331086 -276.67662928 337.6738703 -274.66796875 338.02734375 C-257.15998851 340.87265015 -239.06807436 340.67644544 -221.375 340.375 C-220.27937744 340.36412354 -220.27937744 340.36412354 -219.16162109 340.35302734 C-199.04217911 340.07945116 -178.58872362 336.0285705 -159.42431641 330.01220703 C-157.36743345 329.37264728 -155.30106171 328.77706345 -153.23046875 328.18359375 C-127.33779161 320.46721333 -100.5536803 306.69842506 -81.375 287.375 C-81.67269287 286.69397217 -81.97038574 286.01294434 -82.27709961 285.3112793 C-83.62357096 282.22893528 -84.96805783 279.1457296 -86.3125 276.0625 C-87.01536133 274.4547168 -87.01536133 274.4547168 -87.73242188 272.81445312 C-88.18037109 271.78642578 -88.62832031 270.75839844 -89.08984375 269.69921875 C-89.50355225 268.75135498 -89.91726074 267.80349121 -90.34350586 266.8269043 C-91.375 264.375 -91.375 264.375 -92.375 261.375 C-91.93220703 261.02832275 -91.48941406 260.68164551 -91.03320312 260.32446289 C-69.33009683 243.2482285 -52.58568895 222.34365059 -49.08154297 194.00146484 C-46.48100507 167.54952881 -53.59663819 144.45828377 -61.98181152 119.71899414 C-65.64292649 108.89145334 -69.04184687 98.04129077 -72 87 C-72.31815674 85.82655029 -72.63631348 84.65310059 -72.96411133 83.4440918 C-75.94177636 72.01919657 -77.76715902 60.57253608 -77.6875 48.75 C-77.68186035 47.85047607 -77.6762207 46.95095215 -77.67041016 46.02416992 C-77.41259313 31.86848368 -73.09875539 20.85125586 -63.47265625 10.37890625 C-45.20941606 -7.06809974 -22.34226696 -14.72363953 0 0 Z " fill="#00A261" transform="translate(1642.375,122.625)"/>
<path d="M0 0 C0.95003906 0.47953125 1.90007812 0.9590625 2.87890625 1.453125 C12.40868074 6.57211729 21.80128657 14.01293797 28 23 C33.76777192 21.36832768 38.75688693 18.58031142 44 15.75 C65.75976394 4.2299057 88.60209849 -4.16358554 113 -8 C114.09884521 -8.1750708 115.19769043 -8.3501416 116.32983398 -8.53051758 C121.86768814 -9.23891201 127.37160456 -9.22426551 132.94873047 -9.24023438 C134.96755721 -9.24984555 136.98532151 -9.28089016 139.00390625 -9.3125 C161.37643812 -9.39997813 182.22939331 -2.64577269 198.8671875 12.76953125 C210.13686583 24.5552205 214.8402326 36.90274154 215.3125 53.0625 C214.91192128 69.00578256 210.84858971 84.10462006 206.1875 99.25 C205.6086113 101.16482377 205.0310073 103.08003633 204.45458984 104.99560547 C203.25034246 108.9926424 202.03987933 112.98771668 200.82470703 116.98144531 C199.04696499 122.83260372 197.29798249 128.69202745 195.55859375 134.5546875 C195.13502342 135.98207245 195.13502342 135.98207245 194.70289612 137.43829346 C194.13081082 139.36639998 193.55877416 141.29452094 192.98678589 143.22265625 C188.0566411 159.82651936 183.07935992 176.41632873 178.09912109 193.00521851 C171.59618524 214.65410851 171.59618524 214.65410851 165.125 236.3125 C164.80934082 237.36663086 164.49368164 238.42076172 164.16845703 239.50683594 C163.88856934 240.44946289 163.60868164 241.39208984 163.3203125 242.36328125 C163.08586426 243.15001221 162.85141602 243.93674316 162.60986328 244.74731445 C161.34573531 249.41669347 160.84055704 253.71985418 160.8125 258.5625 C160.79832031 259.67753906 160.78414062 260.79257812 160.76953125 261.94140625 C161.00059178 265.00785359 161.15601319 266.56464715 163 269 C165.61554754 270.56233317 165.61554754 270.56233317 168.625 271.75 C169.62789062 272.17796875 170.63078125 272.6059375 171.6640625 273.046875 C172.43492187 273.36140625 173.20578125 273.6759375 174 274 C173.44690468 280.79910939 172.06055292 286.84887764 170.015625 293.34375 C169.56941803 294.79569763 169.56941803 294.79569763 169.11419678 296.27697754 C168.16700179 299.3537064 167.20889263 302.42689911 166.25 305.5 C165.31068719 308.53604511 164.37365395 311.57278685 163.43688965 314.60961914 C162.82639786 316.58710453 162.21451683 318.56416161 161.60119629 320.54077148 C159.48884477 327.35980245 157.44686396 334.19659419 155.49664307 341.06384277 C154.10644613 345.89355387 154.10644613 345.89355387 153 347 C151.51983606 347.09568576 150.03511727 347.12188268 148.55186462 347.12025452 C147.11098228 347.12231651 147.11098228 347.12231651 145.64099121 347.12442017 C144.57860229 347.12082489 143.51621338 347.11722961 142.42163086 347.11352539 C140.75355125 347.11374443 140.75355125 347.11374443 139.05177307 347.1139679 C135.35611049 347.11326821 131.66049759 347.1054732 127.96484375 347.09765625 C125.41036507 347.09579227 122.85588603 347.09436827 120.30140686 347.09336853 C114.2523829 347.08993344 108.20338045 347.08204264 102.15436512 347.07201904 C95.26934846 347.06085683 88.38433096 347.05534718 81.49930751 347.05032361 C67.3328617 347.03986 53.16643183 347.02226123 39 347 C28.29220594 325.58441187 49.98101224 280.57167265 56.51757812 258.91503906 C58.00263119 253.99479157 59.47880679 249.0719107 60.953125 244.1484375 C62.95721142 237.45760399 64.96347772 230.76743127 66.97265625 224.078125 C67.22372635 223.24221832 67.47479645 222.40631165 67.73347473 221.54507446 C68.73521767 218.2101191 69.73707168 214.87519711 70.73895264 211.5402832 C73.69554501 201.69859372 76.65022625 191.85633731 79.59909058 182.0123291 C81.0009537 177.3326475 82.40409831 172.65335512 83.80908203 167.97460938 C85.38150301 162.73755457 86.9504469 157.49946748 88.51739502 152.26077271 C89.11927576 150.25041117 89.72221944 148.24036747 90.32635498 146.23068237 C93.28379693 136.39000624 96.18954838 126.53963656 98.84765625 116.61328125 C99.05257187 115.85943649 99.25748749 115.10559174 99.46861267 114.3289032 C102.22128844 103.85525195 104.5012298 91.82362465 99 82 C94.26017223 74.72097878 87.30875719 72.31568711 79.1640625 70.4765625 C64.96279747 68.33760653 50.53550363 73.96764444 37.828125 79.828125 C35 81 35 81 32 81 C31.72849121 82.28382568 31.45698242 83.56765137 31.17724609 84.89038086 C30.058303 89.91692612 28.65079322 94.82553156 27.1640625 99.75390625 C26.75127045 101.13604813 26.75127045 101.13604813 26.33013916 102.54611206 C25.43143871 105.55248576 24.52826372 108.5574945 23.625 111.5625 C22.9920801 113.6764328 22.35943406 115.79044762 21.72705078 117.90454102 C20.12420828 123.26018165 18.51767387 128.61470641 16.90991211 133.96887207 C15.54750893 138.50735254 14.18789773 143.04666839 12.828125 147.5859375 C10.62558783 154.93640413 8.41970282 162.28586099 6.21211243 169.6348114 C4.44099147 175.53092137 2.67126098 181.42744727 0.90234375 187.32421875 C0.64566422 188.17977859 0.38898468 189.03533844 0.12452698 189.91682434 C-1.14672657 194.15439457 -2.41746913 198.39211695 -3.68725586 202.63012695 C-5.80197251 209.68642219 -7.91870781 216.7420054 -10.0579071 223.79092407 C-10.90557912 226.5844505 -11.75077867 229.37872231 -12.59585571 232.17303467 C-13.16888935 234.06359936 -13.7458778 235.95296395 -14.32299805 237.84228516 C-14.66371338 238.96940918 -15.00442871 240.0965332 -15.35546875 241.2578125 C-15.65090576 242.2286377 -15.94634277 243.19946289 -16.25073242 244.19970703 C-18.22468994 251.57712401 -19.96049603 260.81166758 -16.625 267.9375 C-12.74452866 270.98644176 -8.47120999 272.95916174 -4 275 C-6.20004749 284.30184015 -8.87737961 293.43097392 -11.6875 302.5625 C-16.22181368 317.34734497 -20.60629493 332.17124538 -25 347 C-62.95 347 -100.9 347 -140 347 C-140 324.69305556 -140 324.69305556 -138.75 318.375 C-138.58435547 317.50407715 -138.41871094 316.6331543 -138.24804688 315.73583984 C-134.8853031 299.46545819 -129.61485924 283.55893989 -124.80712891 267.67279053 C-123.51854696 263.40567829 -122.24382842 259.13444402 -120.96875 254.86328125 C-117.74499346 244.07420907 -114.49801701 233.29216421 -111.25 222.51037598 C-109.49826906 216.69493719 -107.74814004 210.87901926 -106 205.0625 C-105.75382935 204.2436734 -105.50765869 203.4248468 -105.25402832 202.58120728 C-101.0965885 188.74401497 -97.02313906 174.88310622 -92.98953247 161.00933838 C-90.23869173 151.54789492 -87.43825424 142.11118617 -84.47167969 132.71484375 C-75.81713908 106.9620817 -75.81713908 106.9620817 -80 81 C-83.40704659 75.32158901 -88.35305874 73.04198322 -94.54296875 71.2734375 C-105.12209358 68.98358364 -115.00250732 70.42882038 -125.20703125 73.78125 C-127.99040174 74.67559767 -130.54546078 75.33067973 -133.38671875 75.90625 C-138.19920669 77.08034644 -142.35390881 78.54109428 -146 82 C-149.95092342 88.57138964 -151.25038075 96.46046964 -152.97314453 103.84228516 C-154.65302241 110.84767541 -156.86381698 117.70823243 -158.97625732 124.59234619 C-160.28615295 128.87996307 -161.56532935 133.17673073 -162.84765625 137.47265625 C-164.93198387 144.44086227 -167.0237808 151.40678589 -169.12109375 158.37109375 C-174.15866593 175.1067251 -179.14921536 191.85224514 -183.97802734 208.64941406 C-185.97736888 215.57738643 -188.07757411 222.45729463 -190.3125 229.3125 C-192.27451125 235.38113941 -193.95364949 241.46901153 -195.375 247.6875 C-195.54298096 248.40655518 -195.71096191 249.12561035 -195.8840332 249.86645508 C-197.12846136 255.60185032 -198.1224027 261.23038514 -195.85546875 266.82421875 C-193.57885992 269.49384215 -191.54442843 270.48170594 -188.3125 271.8125 C-187.31863281 272.23144531 -186.32476562 272.65039062 -185.30078125 273.08203125 C-184.16189453 273.53642578 -184.16189453 273.53642578 -183 274 C-183.67112422 280.52658204 -185.53610082 286.56272595 -187.45703125 292.8203125 C-187.80126633 293.95596649 -188.1455014 295.09162048 -188.50016785 296.26168823 C-189.59948651 299.88426887 -190.70590299 303.50463688 -191.8125 307.125 C-192.54538625 309.53631724 -193.27781274 311.94777427 -194.00976562 314.359375 C-197.31725842 325.24659122 -200.65372401 336.12460303 -204 347 C-251.52 347 -299.04 347 -348 347 C-347.19768468 342.1861081 -346.14136538 337.67647365 -344.77734375 333.015625 C-344.55615875 332.25021393 -344.33497375 331.48480286 -344.10708618 330.69619751 C-343.38798028 328.21292187 -342.66336998 325.73130637 -341.9375 323.25 C-341.69111786 322.40584534 -341.44473572 321.56169067 -341.19088745 320.69195557 C-339.94022667 316.40880671 -338.68499651 312.12703388 -337.42480469 307.84667969 C-336.53156751 304.81254455 -335.64335708 301.77706629 -334.76269531 298.73925781 C-333.71122844 295.11325997 -332.63900407 291.49365124 -331.5625 287.875 C-331.25755615 286.81700195 -330.9526123 285.75900391 -330.63842773 284.66894531 C-330.34653564 283.70311523 -330.05464355 282.73728516 -329.75390625 281.7421875 C-329.50970947 280.9157373 -329.2655127 280.08928711 -329.01391602 279.23779297 C-327.40428198 275.68520314 -325.15642516 273.53241356 -321.6328125 271.91015625 C-320.80523437 271.63042969 -319.97765625 271.35070312 -319.125 271.0625 C-314.51432768 269.35559919 -311.62837695 267.26553926 -308 264 C-307.34 264 -306.68 264 -306 264 C-305.59467041 263.18160645 -305.59467041 263.18160645 -305.18115234 262.34667969 C-304.34365076 260.6827555 -303.48789578 259.02796207 -302.61962891 257.37988281 C-299.12064826 250.6340192 -296.48365675 244.03975743 -294.375 236.75 C-294.04854492 235.65703613 -293.72208984 234.56407227 -293.38574219 233.43798828 C-292.65404835 230.98570734 -291.92708731 228.53201081 -291.20410156 226.07714844 C-289.90068681 221.65300338 -288.57233385 217.23648193 -287.2421875 212.8203125 C-285.20283405 206.04590949 -283.16881858 199.26994033 -281.140625 192.4921875 C-278.84203579 184.81141199 -276.54101817 177.13137189 -274.23612976 169.45248413 C-272.99600706 165.32086933 -271.75699332 161.18893033 -270.52075195 157.05615234 C-268.20730246 149.32644327 -265.88299671 141.60052624 -263.51937866 133.88598633 C-262.41833373 130.28989085 -261.32357361 126.6918951 -260.22924805 123.09375 C-259.71185624 121.39878528 -259.19147489 119.70472948 -258.66772461 118.01171875 C-252.08242 98.79812818 -252.08242 98.79812818 -252 79 C-255.49972824 74.43974805 -259.86215903 72.28206832 -265 70 C-264.34628739 64.27399745 -262.95895353 58.97803842 -261.3046875 53.46484375 C-261.03415558 52.55029922 -260.76362366 51.6357547 -260.4848938 50.6934967 C-259.9105468 48.75550501 -259.33382531 46.81821563 -258.75488281 44.8815918 C-257.89370939 42.00010171 -257.03991632 39.11651303 -256.1875 36.23242188 C-255.62284126 34.33059686 -255.05774893 32.42890052 -254.4921875 30.52734375 C-254.24709442 29.70040512 -254.00200134 28.87346649 -253.7494812 28.02146912 C-250.63925533 17.63449183 -247.28891993 7.3366055 -244 -3 C-204.73 -3 -165.46 -3 -125 -3 C-127.25 9.375 -127.25 9.375 -128.625 13.6875 C-128.88539063 14.51636719 -129.14578125 15.34523438 -129.4140625 16.19921875 C-129.60742188 16.79347656 -129.80078125 17.38773438 -130 18 C-129.25617065 17.57086304 -129.25617065 17.57086304 -128.49731445 17.13305664 C-111.9427237 7.64650532 -94.65075048 -1.44092766 -76 -6 C-74.85273438 -6.29648437 -73.70546875 -6.59296875 -72.5234375 -6.8984375 C-48.99413508 -12.03810476 -21.50751709 -11.51379862 0 0 Z " fill="#007AC8" transform="translate(548,749)"/>
<path d="M0 0 C40.26 0 80.52 0 122 0 C121.21135886 4.73184681 120.18899263 9.15873667 118.84765625 13.73828125 C118.63221161 14.48319321 118.41676697 15.22810516 118.1947937 15.99559021 C117.4877028 18.43564426 116.77532223 20.87411463 116.0625 23.3125 C115.56381404 25.02699804 115.06519845 26.74151654 114.56665039 28.45605469 C111.03008688 40.59193507 107.39537554 52.69650667 103.70581055 64.78662109 C100.4807243 75.36193546 97.35166651 85.96369421 94.25003052 96.57580566 C91.04951546 107.52077496 87.75207697 118.43053391 84.33544922 129.31030273 C84.02623535 130.30102783 83.71702148 131.29175293 83.3984375 132.3125 C82.99117432 133.60607422 82.99117432 133.60607422 82.57568359 134.92578125 C81.91085557 136.96242127 81.91085557 136.96242127 82 139 C83.15048828 138.38125 83.15048828 138.38125 84.32421875 137.75 C111.26164211 123.73377972 139.94879307 115.31273174 170.375 115.5625 C171.58124527 115.56756058 171.58124527 115.56756058 172.81185913 115.57272339 C195.40919202 115.70967692 217.01672111 119.13295716 235 134 C235.69351562 134.56976562 236.38703125 135.13953125 237.1015625 135.7265625 C248.78755301 146.3296813 254.60643288 161.53831442 255.375 177.02734375 C256.08867457 201.78465918 249.25667928 223.54491194 242.1318512 246.94770813 C239.80347126 254.61032226 237.58427475 262.30238034 235.375 270 C232.2433367 280.85652488 228.96714126 291.6594816 225.58984375 302.44189453 C222.54349858 312.18888599 219.59008817 321.96189387 216.66238403 331.74508667 C215.87973069 334.3591992 215.09524391 336.97275526 214.31030273 339.58618164 C212.16706845 346.72701352 210.02960163 353.86836783 207.9609375 361.03125 C200.36000767 387.1631289 188.68158185 410.7501896 169 430 C168.34 430 167.68 430 167 430 C167 430.66 167 431.32 167 432 C165.1408712 433.63700703 163.28730465 435.13817366 161.3125 436.625 C160.72452637 437.07085449 160.13655273 437.51670898 159.53076172 437.97607422 C153.60008316 442.40471475 147.41625117 446.31009537 141 450 C139.86175781 450.65742187 138.72351563 451.31484375 137.55078125 451.9921875 C123.57987408 459.84843574 108.45293103 465.78730505 93 470 C91.86691406 470.32484375 90.73382812 470.6496875 89.56640625 470.984375 C69.11700326 476.51699183 48.42962458 478.67911691 27.28564453 478.52148438 C23.86809788 478.49995652 20.45264204 478.52149159 17.03515625 478.546875 C-4.88225694 478.57494154 -25.3606896 475.34738806 -46 468 C-47.34225529 467.5437038 -48.68469781 467.08795792 -50.02734375 466.6328125 C-70.39591681 459.54258266 -89.84532799 448.55159314 -108 437 C-107.43638191 431.61605218 -106.49162218 426.73329956 -104.91796875 421.53125 C-104.70799255 420.83054886 -104.49801636 420.12984772 -104.28167725 419.40791321 C-103.5895758 417.10343335 -102.88852313 414.80177994 -102.1875 412.5 C-101.69346782 410.86045807 -101.20007275 409.22072405 -100.70727539 407.58081055 C-99.67085551 404.1353642 -98.63086651 400.69102597 -97.58789062 397.24755859 C-95.27530332 389.61053119 -92.98379549 381.9671815 -90.69122314 374.3241272 C-89.93474843 371.80333096 -89.17717607 369.28286658 -88.41943359 366.76245117 C-84.96165372 355.25359079 -81.5647169 343.72782901 -78.19308472 332.19348145 C-75.39158605 322.61844011 -72.49031665 313.08066739 -69.5 303.5625 C-65.65253195 291.31535313 -62.08773663 278.99962334 -58.625 266.63891602 C-56.34546245 258.5293564 -53.91667018 250.48329293 -51.35595703 242.45806885 C-48.20445881 232.55481635 -45.2660998 222.58866895 -42.3125 212.625 C-41.69563257 210.5487 -41.07860517 208.47244752 -40.46142578 206.39624023 C-38.92382473 201.22251193 -37.38793697 196.04827715 -35.85272217 190.87384033 C-33.91521429 184.34406018 -31.97561086 177.81490251 -30.03552246 171.28588867 C-29.37652912 169.06764717 -28.71804561 166.84925471 -28.05957031 164.63085938 C-25.65399072 156.5314106 -23.2315504 148.43723248 -20.79296875 140.34765625 C-20.24885945 138.54093461 -19.70475137 136.73421261 -19.16064453 134.92749023 C-18.12917451 131.50299885 -17.09459041 128.07947051 -16.05810547 124.65649414 C-13.86175494 117.38420446 -11.6978866 110.10352512 -9.6875 102.77734375 C-9.37296875 101.63515381 -9.0584375 100.49296387 -8.734375 99.31616211 C-7.42757007 93.41512109 -6.42095052 86.72568358 -8.84765625 81 C-11.86845735 76.9039985 -16.46867557 74.96904168 -21 73 C-20.41693045 67.16476862 -19.25257154 61.87184055 -17.5234375 56.27734375 C-17.15399269 55.05430794 -17.15399269 55.05430794 -16.77708435 53.80656433 C-15.98256152 51.18162298 -15.17897141 48.55956114 -14.375 45.9375 C-13.8271616 44.13477189 -13.27988173 42.33187395 -12.7331543 40.52880859 C-11.65518714 36.97727728 -10.57366624 33.42686192 -9.48876953 29.87744141 C-8.21102814 25.69580696 -6.94445836 21.51097234 -5.68359375 17.32421875 C-5.06006799 15.25776055 -4.43638734 13.19134907 -3.8125 11.125 C-3.53390137 10.20066162 -3.25530273 9.27632324 -2.96826172 8.32397461 C-2.59145264 7.08466187 -2.59145264 7.08466187 -2.20703125 5.8203125 C-1.9953833 5.12180176 -1.78373535 4.42329102 -1.56567383 3.70361328 C-1 2 -1 2 0 0 Z M60.46069336 209.13720703 C58.23889212 211.97062562 57.47656525 215.22630425 56.50390625 218.63671875 C56.15982475 219.7984687 56.15982475 219.7984687 55.80879211 220.98368835 C55.05110182 223.54909206 54.30693343 226.11822117 53.5625 228.6875 C53.03177208 230.49264762 52.50001762 232.29749372 51.96728516 234.10205078 C50.85887183 237.85937568 49.75492368 241.6179716 48.65380859 245.37744141 C47.08899221 250.71001555 45.49762051 256.03428902 43.89453125 261.35546875 C43.64365753 262.1882132 43.39278381 263.02095764 43.13430786 263.87893677 C42.63158886 265.5470065 42.12877167 267.21504665 41.62585449 268.88305664 C37.42080033 282.83883222 33.28451922 296.81364983 29.19381714 310.80331421 C26.36716667 320.46118884 23.44485743 330.08399219 20.4375 339.6875 C17.40278844 349.41580965 14.39285055 359.15119511 11.49441528 368.92105103 C11.08540516 370.2938153 10.67245455 371.66541241 10.25534058 373.03573608 C9.67751401 374.93719988 9.1157531 376.84352327 8.5546875 378.75 C8.22968262 379.83796875 7.90467773 380.9259375 7.56982422 382.046875 C6.97489211 385.13012215 7.0632236 387.02230709 8 390 C17.46104392 399.76623888 33.84411632 402.30473331 46.83984375 402.96582031 C52.35692878 403.05311596 57.63312117 402.19489 63 401 C63.89074219 400.80277344 64.78148437 400.60554688 65.69921875 400.40234375 C81.65620849 396.21895712 92.69988074 386.17374909 101.03564453 372.27294922 C107.83324971 360.18868676 111.31675067 346.78063071 115.11256409 333.53625488 C117.38958397 325.60210763 119.78276025 317.70341917 122.1680603 309.80130005 C126.71983723 294.70856603 131.20305725 279.59611073 135.61499023 264.46191406 C138.69401591 253.92582545 138.69401591 253.92582545 140.35986328 248.7265625 C140.58706558 248.01487915 140.81426788 247.3031958 141.0483551 246.56994629 C141.48264507 245.21665114 141.92168245 243.86486568 142.36656189 242.51501465 C145.7060015 232.11395566 146.59612613 220.42876577 143 210 C139.56146014 203.51967489 133.24373926 197.08758165 126.2265625 194.4921875 C104.59362685 189.71017015 78.34663991 195.92344985 60.46069336 209.13720703 Z " fill="#007AC8" transform="translate(870,624)"/>
<path d="M0 0 C0.598125 0.45632813 1.19625 0.91265625 1.8125 1.3828125 C12.96192758 10.0933028 19.85647613 23.30882271 21.72265625 37.171875 C23.70024651 57.33772495 16.6830394 77.05486765 10.70751953 96.01733398 C7.56976785 106.00577405 4.65966189 116.05026123 1.8125 126.125 C-0.9560258 135.91455331 -3.75947387 145.67901058 -6.89013672 155.36035156 C-9.13760998 162.33461595 -11.15914723 169.36951537 -13.18652344 176.41040039 C-15.1346081 183.13615741 -17.18547519 189.82287421 -19.29394531 196.5 C-22.73657309 207.41292425 -26.03417702 218.3481291 -29.02542114 229.39300537 C-29.54958554 231.32734146 -30.08121844 233.25964886 -30.61303711 235.19189453 C-30.92764893 236.37380371 -31.24226074 237.55571289 -31.56640625 238.7734375 C-31.84427979 239.80903809 -32.12215332 240.84463867 -32.40844727 241.91162109 C-33.25496895 246.33114208 -33.61794461 250.37789541 -32 254.625 C-28.26835487 259.0563286 -23.12162142 261.45554697 -18 264 C-22.30826754 279.22693031 -26.77374002 294.40282796 -31.3125 309.5625 C-32.26112975 312.73255868 -33.20937607 315.90272994 -34.15653992 319.07322693 C-34.73883623 321.02227271 -35.32197397 322.97106737 -35.90608215 324.91957092 C-36.166931 325.79246262 -36.42777985 326.66535431 -36.6965332 327.56469727 C-36.92492386 328.32742447 -37.15331451 329.09015167 -37.3886261 329.87599182 C-37.97249744 331.90445184 -38.48805126 333.95220502 -39 336 C-77.94 336 -116.88 336 -157 336 C-155.87579834 327.00638674 -155.87579834 327.00638674 -154.58984375 322.9140625 C-154.32236328 322.04652344 -154.05488281 321.17898438 -153.77929688 320.28515625 C-153.50150391 319.40730469 -153.22371094 318.52945312 -152.9375 317.625 C-152.38174513 315.8470931 -151.82824287 314.06847998 -151.27734375 312.2890625 C-150.90984009 311.12431396 -150.90984009 311.12431396 -150.53491211 309.93603516 C-149.91122847 308.01346668 -149.91122847 308.01346668 -150 306 C-150.58676514 306.33620361 -151.17353027 306.67240723 -151.77807617 307.01879883 C-158.830195 311.05180844 -165.90685989 315.03960855 -173 319 C-174.38396973 319.77537109 -174.38396973 319.77537109 -175.79589844 320.56640625 C-188.74949902 327.77085596 -201.81339282 333.65107386 -216 338 C-217.13864502 338.35795654 -217.13864502 338.35795654 -218.30029297 338.72314453 C-242.83413098 346.05001677 -275.99018447 345.56491638 -299.0625 334.25 C-313.71563225 325.34453048 -322.66418948 312.51698223 -326.75 295.9609375 C-332.53228441 265.52363486 -320.84072334 231.28717444 -304 206 C-300.6049433 201.42823368 -296.81771185 197.21865875 -293 193 C-291.76944994 191.54283379 -290.54007777 190.08467106 -289.3125 188.625 C-263.40977798 159.43883435 -222.66152685 146.61376371 -186.82258606 134.90969849 C-182.31806959 133.43743628 -177.82275098 131.93957275 -173.33203125 130.42578125 C-152.58542213 123.43781202 -131.75030631 116.81327778 -110.66967773 110.90136719 C-107.29790583 109.95492893 -103.97941967 108.99280171 -100.671875 107.8359375 C-98 107 -98 107 -94 107 C-86.19104061 82.39975718 -86.19104061 82.39975718 -88.38671875 57.70703125 C-91.02095955 53.28686449 -93.67341078 51.47378186 -98.5 49.75 C-110.87432069 47.19620023 -123.31907176 49.09392512 -134 55.9375 C-137.32634151 58.36712285 -140.26900492 60.89995153 -143 64 C-143.48082031 64.53882813 -143.96164062 65.07765625 -144.45703125 65.6328125 C-152.44386 75.29788628 -155.13243341 88.39730024 -159 100 C-192 100 -225 100 -259 100 C-257.87497017 90.99976136 -257.87497017 90.99976136 -256.9753418 88.03881836 C-256.77333664 87.36304749 -256.57133148 86.68727661 -256.36320496 85.99102783 C-256.03453178 84.92619171 -256.03453178 84.92619171 -255.69921875 83.83984375 C-255.46781693 83.06864197 -255.2364151 82.29744019 -254.9980011 81.50286865 C-253.70335352 77.20391406 -252.36985536 72.91763201 -251.02539062 68.6340332 C-250.45719631 66.81366831 -249.89015247 64.99294395 -249.32421875 63.171875 C-249.03892303 62.254561 -248.75362732 61.33724701 -248.45968628 60.39213562 C-246.51229875 54.0060663 -244.95099 47.59666046 -243.51953125 41.078125 C-237.94392967 16.69375503 -237.94392967 16.69375503 -231.25195312 10.42626953 C-224.62134747 6.3294876 -217.48642363 4.57246731 -209.9296875 2.93701172 C-205.88576414 2.03147754 -202.06447672 0.704687 -198.1875 -0.74609375 C-196.86998429 -1.23665247 -195.55243858 -1.72713063 -194.23486328 -2.2175293 C-193.57875061 -2.46175629 -192.92263794 -2.70598328 -192.24664307 -2.95761108 C-163.33705438 -13.52574352 -132.63366398 -20.27571957 -102 -23 C-100.10507813 -23.185625 -100.10507813 -23.185625 -98.171875 -23.375 C-64.97517055 -26.10723905 -26.16647174 -22.78663581 0 0 Z M-123.52734375 180.21484375 C-128.77640685 182.91890656 -134.12251451 185.27219016 -139.5625 187.5625 C-141.33488865 188.31320448 -143.10702644 189.06450153 -144.87890625 189.81640625 C-145.73701904 190.18032471 -146.59513184 190.54424316 -147.47924805 190.91918945 C-150.63175455 192.27087432 -153.76281335 193.66796308 -156.89379883 195.06860352 C-158.85907596 195.93768109 -160.83340881 196.77777612 -162.81640625 197.60546875 C-181.56141268 205.46946881 -200.93587619 214.8212535 -210.01953125 234.171875 C-212.48240674 240.51462283 -213.31936422 247.51084249 -211.37890625 254.11328125 C-209.40331928 258.21372175 -206.59620468 260.60464784 -202.5078125 262.33203125 C-187.04232095 266.45134442 -172.07531368 258.77747869 -158.87890625 251.34765625 C-152.34796592 247.5026516 -146.22240885 243.0219425 -140.1171875 238.54223633 C-138 237 -138 237 -136.33065796 236.08026123 C-130.32274446 232.49182691 -129.07008276 228.01646567 -127.2890625 221.4765625 C-126.99059418 220.45702484 -126.69212585 219.43748718 -126.38461304 218.38705444 C-125.4407797 215.1393921 -124.53315531 211.88279638 -123.625 208.625 C-122.99311395 206.44206202 -122.35902141 204.25976145 -121.72265625 202.078125 C-118.17604051 190.18681143 -118.17604051 190.18681143 -116 178 C-119.34238996 178 -120.61444886 178.67120061 -123.52734375 180.21484375 Z " fill="#007AC8" transform="translate(1968,760)"/>
<path d="M0 0 C0.77504883 0.17660156 1.55009766 0.35320313 2.34863281 0.53515625 C25.51610855 5.95797242 48.00379847 18.01947699 61.375 38.1875 C72.6742768 57.65244849 69.30898074 77.29130108 64 98 C61.02776269 109.06136481 57.69140205 120.02325219 54.39253235 130.990448 C52.55847775 137.09752134 50.77230874 143.21678527 49.01953125 149.34765625 C48.77948364 150.18580368 48.53943604 151.02395111 48.29211426 151.88749695 C47.37334123 155.0972814 46.45493014 158.3071471 45.54388428 161.51913452 C42.05032413 173.8235262 38.05240744 185.84277767 34 198 C-26.06 198 -86.12 198 -148 198 C-148.99 201.96 -149.98 205.92 -151 210 C-151.71126993 212.52761681 -152.43917327 215.0506763 -153.19140625 217.56640625 C-153.58286539 218.88991982 -153.97413586 220.2134892 -154.36523438 221.53710938 C-154.96405579 223.5536889 -155.56465692 225.56969523 -156.16870117 227.5847168 C-163.34965166 250.78260364 -163.34965166 250.78260364 -159 274 C-155.83694682 279.2717553 -150.93436179 281.87516622 -145.12133789 283.53710938 C-131.09064138 286.59870456 -116.84551584 283.42209776 -104.85546875 276.0078125 C-89.8430018 265.45185078 -83.61068626 249.83205878 -78 233 C-44.67 233 -11.34 233 23 233 C21.77279197 239.13604013 20.59336212 244.77543019 18.8203125 250.69921875 C18.61202316 251.4010025 18.40373383 252.10278625 18.18913269 252.82583618 C17.02602795 256.7328019 15.83757768 260.63189447 14.64526367 264.5300293 C14.13423396 266.20480284 13.62357891 267.87969076 13.11328125 269.5546875 C12.85485947 270.40128433 12.59643768 271.24788116 12.33018494 272.12013245 C10.72712255 277.42634345 9.2522278 282.75180363 7.86889648 288.11936951 C6.94719925 291.67102192 5.97669915 295.20845853 5.00067139 298.74551392 C4.54704406 300.43761426 4.11565645 302.13585647 3.70831299 303.83969116 C0.34744743 317.8240281 0.34744743 317.8240281 -5.61669922 321.71875 C-8.99935143 323.56963136 -12.49573359 325.00485539 -16.11904907 326.31295776 C-18.54156398 327.19781342 -20.84509137 328.28887408 -23.171875 329.3984375 C-24.69465091 330.06480489 -26.22074406 330.72364123 -27.75 331.375 C-28.60215088 331.73875732 -29.45430176 332.10251465 -30.33227539 332.47729492 C-37.94517391 335.6656144 -45.67049778 338.52378817 -53.4375 341.3125 C-54.57348633 341.72097168 -55.70947266 342.12944336 -56.87988281 342.55029297 C-70.67162331 347.41761305 -84.65803019 351.18211529 -99 354 C-100.329104 354.2794043 -100.329104 354.2794043 -101.68505859 354.56445312 C-118.99536606 358.09289721 -136.2038296 358.42589884 -153.8125 358.5 C-154.93395416 358.51035278 -156.05540833 358.52070557 -157.21084595 358.53137207 C-191.53785912 358.78094783 -227.14180969 352.34304986 -253.1875 328.3125 C-265.91934957 314.95320815 -270.6828218 298.37785369 -270.33203125 280.3359375 C-269.12071098 253.60713379 -258.4183519 226.5710679 -250.45288086 201.21826172 C-247.41162553 191.48122761 -244.58986026 181.68997507 -241.8125 171.875 C-238.83294216 161.34726647 -235.78804716 150.85718211 -232.421875 140.4453125 C-231.04272388 136.17382896 -229.74522307 131.87948942 -228.45288086 127.58105469 C-227.27327278 123.66476879 -226.0759542 119.7540628 -224.87353516 115.84472656 C-224.30674449 113.99893428 -223.74369223 112.15198832 -223.18505859 110.30371094 C-217.56600699 91.83473033 -210.47235657 72.98714945 -198 58 C-197.27425781 57.05382812 -196.54851562 56.10765625 -195.80078125 55.1328125 C-191.80470273 49.95297642 -191.80470273 49.95297642 -190 48 C-189.34 48 -188.68 48 -188 48 C-187.34 46.68 -186.68 45.36 -186 44 C-185.34 44 -184.68 44 -184 44 C-183.67 43.01 -183.34 42.02 -183 41 C-180.99568145 39.2127664 -179.00249247 37.56586314 -176.875 35.9375 C-176.24464844 35.45289307 -175.61429688 34.96828613 -174.96484375 34.46899414 C-172.98700195 32.96480629 -170.99649239 31.47932274 -169 30 C-168.12069824 29.34257813 -168.12069824 29.34257813 -167.22363281 28.671875 C-145.74710825 12.83034066 -119.07597815 3.74208485 -93 -1 C-92.24348145 -1.14953125 -91.48696289 -1.2990625 -90.70751953 -1.453125 C-62.03317424 -6.95897901 -28.4151895 -6.84048404 0 0 Z M-108 87 C-117.29988348 98.08111116 -129 118.9904103 -129 134 C-102.27 134 -75.54 134 -48 134 C-38.64317909 107.48068628 -38.64317909 107.48068628 -42.6796875 80.015625 C-46.18463752 74.6648729 -50.94451736 71.24153107 -57.0859375 69.46875 C-77.52431819 66.18107482 -93.64736498 72.08974571 -108 87 Z " fill="#007AC8" transform="translate(1384,744)"/>
<path d="M0 0 C52.8 0 105.6 0 160 0 C157.7498499 11.25075051 157.7498499 11.25075051 156.49121094 15.42358398 C156.21041687 16.36254013 155.9296228 17.30149628 155.64031982 18.26890564 C155.34135803 19.25137772 155.04239624 20.23384979 154.734375 21.24609375 C154.41849426 22.29668472 154.10261353 23.3472757 153.77716064 24.42970276 C153.11026198 26.64478247 152.44117879 28.85920555 151.77001953 31.07299805 C150.76269772 34.39561697 149.76157294 37.72004906 148.76171875 41.04492188 C147.46914932 45.34143195 146.15989186 49.63236493 144.84033203 53.9206543 C143.64118395 57.83142332 142.50844977 61.75090811 141.43701172 65.69848633 C141.18888733 66.57453018 140.94076294 67.45057404 140.68511963 68.35316467 C140.22917956 69.96585285 139.79468653 71.58484016 139.387146 73.21043396 C138.50507609 76.24922104 137.86348516 78.33161423 135.31227112 80.30639648 C132.23590747 81.95277329 129.04155035 83.18683333 125.63671875 83.96875 C116.91171341 86.44286537 112.33175667 92.37651554 108 100 C103.06245425 109.39639923 100.27192274 119.4250304 97.3125 129.5625 C96.78611636 131.34306663 96.25900548 133.12341842 95.73120117 134.90356445 C94.14385727 140.26604634 92.5708747 145.63267487 91 151 C90.53917883 152.57197421 90.07824626 154.14391577 89.6171875 155.71582031 C89.399487 156.45808868 89.1817865 157.20035706 88.95748901 157.96511841 C88.53019274 159.42188836 88.10288575 160.87865516 87.67556763 162.3354187 C87.46826019 163.04215729 87.26095276 163.74889587 87.04736328 164.47705078 C86.74067719 165.52243011 86.74067719 165.52243011 86.42779541 166.58892822 C86.01672488 167.99095561 85.60604126 169.39309649 85.19573975 170.79534912 C82.3685179 180.45589004 79.44688807 190.08176326 76.4375 199.6875 C73.20781291 209.99857509 70.12594346 220.34356714 67.13635254 230.72668457 C63.89296058 241.98583735 60.56142214 253.21678813 57.1875 264.4375 C56.93528687 265.27645813 56.68307373 266.11541626 56.42321777 266.97979736 C55.1339548 271.26740113 53.84364716 275.55468957 52.55273438 279.84179688 C48.77170341 292.39975507 45.00320346 304.96148454 41.24020386 317.52485657 C39.96909092 321.76831043 38.6964087 326.0112836 37.42089844 330.25341797 C36.12660691 334.55825826 34.83589299 338.86415645 33.54763794 343.17080688 C33.06281788 344.78933585 32.57674147 346.40748909 32.08932495 348.02523804 C31.41682575 350.25801034 30.74889898 352.49210284 30.08203125 354.7265625 C29.70280518 355.99064941 29.3235791 357.25473633 28.93286133 358.55712891 C27.43082512 364.10062918 26.8249185 369.32499124 26.75 375.0625 C26.71132813 376.84333984 26.71132813 376.84333984 26.671875 378.66015625 C27.0312918 382.31850585 27.77389706 384.10709203 30 387 C31.59341149 388.33235746 31.59341149 388.33235746 33.375 389.1875 C33.98214844 389.50589844 34.58929688 389.82429688 35.21484375 390.15234375 C37.440171 391.20900899 39.68484451 392.15812528 42 393 C41.41455728 398.70095385 40.33457935 403.9384676 38.70703125 409.42578125 C38.48037781 410.20709412 38.25372437 410.98840698 38.02020264 411.793396 C37.29054932 414.30163765 36.55188483 416.80711152 35.8125 419.3125 C35.30757608 421.03889772 34.80293816 422.76537911 34.29858398 424.49194336 C31.38267654 434.44590616 28.40860871 444.37848457 25.2109375 454.24609375 C23.66024045 459.05325461 22.20643374 463.88646248 20.76171875 468.7265625 C20 471 20 471 19 472 C16.96238813 472.09678239 14.92136288 472.12186965 12.88145447 472.12025452 C12.23539877 472.12110894 11.58934307 472.12196337 10.92370993 472.12284368 C8.74330183 472.12450024 6.56296945 472.11897429 4.38256836 472.11352539 C2.82579042 472.11324353 1.26901236 472.11340123 -0.2877655 472.1139679 C-4.52725204 472.11425592 -8.76671054 472.10835846 -13.00619054 472.10139394 C-17.4318142 472.09516115 -21.85743843 472.09455666 -26.2830658 472.09336853 C-34.66953978 472.09025499 -43.0560008 472.0820413 -51.44246906 472.07201904 C-60.98765349 472.0608586 -70.53283852 472.05534763 -80.07802784 472.05032361 C-99.71869248 472.03985871 -119.35934542 472.02225883 -139 472 C-138.8513705 470.56742389 -138.69972843 469.13516014 -138.54682922 467.70303345 C-138.42064949 466.50659682 -138.42064949 466.50659682 -138.29192066 465.28598976 C-137.91453435 462.33073045 -137.19647668 459.56719949 -136.35546875 456.7109375 C-136.01507568 455.54038818 -135.67468262 454.36983887 -135.32397461 453.16381836 C-134.54515125 450.56735011 -133.76381914 447.97177376 -132.97875977 445.37719727 C-132.55344845 443.96894287 -132.1282394 442.5606576 -131.703125 441.15234375 C-131.48422104 440.43089676 -131.26531708 439.70944977 -131.03977966 438.96614075 C-129.56913328 434.06530574 -128.24221469 429.14145356 -126.98356628 424.18212891 C-126.07198012 420.62677473 -125.10671731 417.08708618 -124.13442993 413.5479126 C-123.67370131 411.82221285 -123.23602704 410.0901752 -122.82284546 408.35247803 C-119.6008609 394.89242837 -119.6008609 394.89242837 -115.23886108 391.71856689 C-111.87257382 390.00700274 -108.47463154 388.96630026 -104.81689453 388.07250977 C-97.58063596 386.03919239 -93.02145703 381.37444867 -89.21777344 375.02490234 C-84.72533437 366.11485443 -81.58958101 357.19373686 -78.8125 347.625 C-78.34474522 346.05016847 -77.87571634 344.47571489 -77.40551758 342.90161133 C-76.42168226 339.60150475 -75.44489497 336.2994338 -74.47363281 332.99560547 C-73.04091131 328.12788031 -71.58281493 323.26806127 -70.1171875 318.41015625 C-64.40163577 299.45400675 -58.75536271 280.47714732 -53.10733032 261.50079346 C-49.04440778 247.85031972 -44.96955131 234.20352065 -40.875 220.5625 C-40.50906738 219.34311234 -40.50906738 219.34311234 -40.13574219 218.09909058 C-37.68037202 209.91760611 -35.22237722 201.73691833 -32.75918579 193.55778503 C-27.27607674 175.34856716 -21.83933997 157.12695688 -16.5 138.875 C-16.25024414 138.021409 -16.00048828 137.16781799 -15.74316406 136.2883606 C-14.36385348 131.5715374 -12.98948895 126.85331205 -11.62039185 122.1335144 C-11.0178483 120.06137991 -10.41050925 117.99069936 -9.80249023 115.92016602 C-9.26410522 114.07056274 -9.26410522 114.07056274 -8.71484375 112.18359375 C-8.40409912 111.12197021 -8.09335449 110.06034668 -7.77319336 108.96655273 C-5.72011968 101.08941404 -4.79492491 93.32447624 -9 86 C-12.87414772 82.65414515 -17.28838644 80.88464542 -22 79 C-21.42207851 73.25993204 -20.30479056 68.0587377 -18.59375 62.55859375 C-18.22836121 61.35409325 -18.22836121 61.35409325 -17.85559082 60.1252594 C-17.07650899 57.56076112 -16.28876321 54.99903527 -15.5 52.4375 C-10.16678313 35.00372163 -5.08411549 17.51195337 0 0 Z " fill="#007AC8" transform="translate(139,624)"/>
<path d="M0 0 C4.7628135 3.91586968 7.54974134 9.11664564 10.625 14.375 C11.93732845 16.43760916 13.24983443 18.50010537 14.5625 20.5625 C62.12427913 98.43236104 73.51190869 197.76620142 52.875 285.75 C40.05171184 338.09885247 17.05122659 387.6663024 -17.375 429.375 C-18.1175 430.30828125 -18.86 431.2415625 -19.625 432.203125 C-34.17787635 450.39422043 -50.88390082 468.18856373 -69.375 482.375 C-70.48604454 483.28283364 -71.59389674 484.1945826 -72.69921875 485.109375 C-93.23012877 502.01946995 -116.06733619 516.37561687 -139.65625 528.6328125 C-140.29626953 528.96684082 -140.93628906 529.30086914 -141.59570312 529.64501953 C-143.375 530.375 -143.375 530.375 -146.375 530.375 C-146.375 529.715 -146.375 529.055 -146.375 528.375 C-145.385 528.375 -144.395 528.375 -143.375 528.375 C-143.375 527.715 -143.375 527.055 -143.375 526.375 C-141.83796943 525.16776536 -140.24165431 524.03582023 -138.625 522.9375 C-132.04033686 518.2607008 -126.19011924 512.9608767 -120.375 507.375 C-119.88966797 506.91158203 -119.40433594 506.44816406 -118.90429688 505.97070312 C-85.47120408 473.88753332 -64.33356819 427.51254315 -63.09375 381.09375 C-62.44886928 364.01806701 -62.44886928 364.01806701 -65.375 347.375 C-65.71541893 345.06644473 -66.02335666 342.75303636 -66.3125 340.4375 C-66.49109151 339.07277279 -66.67079157 337.70819023 -66.8515625 336.34375 C-67.16262265 333.99002412 -67.47017375 331.63600383 -67.7734375 329.28125 C-68.92101383 321.39978236 -71.19110753 313.97880898 -73.69287109 306.44482422 C-74.38156145 304.35509021 -75.04644279 302.25892621 -75.70703125 300.16015625 C-76.13742572 298.81491362 -76.56839402 297.46985442 -77 296.125 C-77.38414063 294.92359375 -77.76828125 293.7221875 -78.1640625 292.484375 C-79.18195797 289.44910004 -79.18195797 289.44910004 -80.81152344 287.4855957 C-82.48287321 285.22937791 -83.50956529 283.0793636 -84.6015625 280.49609375 C-85.189375 279.11454102 -85.189375 279.11454102 -85.7890625 277.70507812 C-86.18867187 276.75052734 -86.58828125 275.79597656 -87 274.8125 C-87.40734375 273.85408203 -87.8146875 272.89566406 -88.234375 271.90820312 C-91.19738231 264.90785308 -91.19738231 264.90785308 -92.375 261.375 C-91.71081055 260.85498413 -91.71081055 260.85498413 -91.03320312 260.32446289 C-69.33009683 243.2482285 -52.58568895 222.34365059 -49.08154297 194.00146484 C-46.48100507 167.54952881 -53.59663819 144.45828377 -61.98181152 119.71899414 C-65.64292649 108.89145334 -69.04184687 98.04129077 -72 87 C-72.31815674 85.82655029 -72.63631348 84.65310059 -72.96411133 83.4440918 C-75.94177636 72.01919657 -77.76715902 60.57253608 -77.6875 48.75 C-77.68186035 47.85047607 -77.6762207 46.95095215 -77.67041016 46.02416992 C-77.41259313 31.86848368 -73.09875539 20.85125586 -63.47265625 10.37890625 C-45.20941606 -7.06809974 -22.34226696 -14.72363953 0 0 Z " fill="#007AC8" transform="translate(1642.375,122.625)"/>
<path d="M0 0 C1.63291992 -0.01740234 1.63291992 -0.01740234 3.29882812 -0.03515625 C9.41267095 -0.01285652 13.90911322 0.45299685 19.3125 3.375 C18.74546466 9.26235662 17.51427511 14.45776215 15.640625 20.0546875 C15.09270979 21.74001099 14.54654807 23.42590536 14.00195312 25.11230469 C13.72134033 25.97915894 13.44072754 26.84601318 13.15161133 27.73913574 C11.78269236 32.03926191 10.50586293 36.36554909 9.234375 40.6953125 C8.97762497 41.56800781 8.72087494 42.44070313 8.4563446 43.33984375 C7.92808513 45.13772097 7.40043827 46.9357783 6.87338257 48.73400879 C5.47356176 53.50891972 4.06723386 58.28191072 2.66015625 63.0546875 C2.23885185 64.48385498 2.23885185 64.48385498 1.80903625 65.94189453 C-0.91888371 75.18227756 -3.69861749 84.40665372 -6.5 93.625 C-6.71668335 94.33803284 -6.9333667 95.05106567 -7.15661621 95.78570557 C-8.33135609 99.64948258 -9.50830493 103.51257993 -10.6875 107.375 C-11.32598877 107.30571289 -11.96447754 107.23642578 -12.62231445 107.16503906 C-32.64774563 105.06437787 -50.86252967 106.46127824 -67.5 118.75 C-74.2584134 124.36785531 -78.95836418 130.47435327 -83.3125 138.0625 C-83.67279297 138.68503662 -84.03308594 139.30757324 -84.40429688 139.94897461 C-91.54487567 152.85306702 -95.19181854 167.31224058 -99.3125 181.375 C-99.92775117 183.46189036 -100.54347989 185.54863999 -101.15966797 187.63525391 C-102.09607886 190.80702145 -103.03194978 193.97894036 -103.96560669 197.15151978 C-105.92360414 203.80312993 -107.90465363 210.44732672 -109.90625 217.0859375 C-110.6433454 219.53736944 -111.38012982 221.98889468 -112.11688232 224.44042969 C-112.57106537 225.94839551 -113.02676751 227.45590486 -113.48419189 228.96289062 C-115.85512406 236.77960971 -118.06721085 244.60823553 -119.96484375 252.5546875 C-120.13327789 253.25330902 -120.30171204 253.95193054 -120.47525024 254.67172241 C-121.95879648 261.06388556 -122.78013747 266.862951 -120.8125 273.1875 C-117.41295053 276.68703622 -113.11080038 278.42476437 -108.6875 280.375 C-109.20787343 288.82177586 -111.6694323 296.54117339 -114.1875 304.5625 C-114.63553677 306.00950193 -115.08270834 307.45677202 -115.52905273 308.90429688 C-116.21814169 311.13876814 -116.90779502 313.37304563 -117.60044861 315.60641479 C-119.20573527 320.78652244 -120.77343447 325.97679067 -122.31640625 331.17578125 C-122.52345184 331.87245407 -122.73049744 332.56912689 -122.94381714 333.28691101 C-123.74311769 335.97792921 -124.54180926 338.66911413 -125.3359375 341.36166382 C-125.87867393 343.20028222 -126.42555472 345.03767576 -126.97265625 346.875 C-127.43490601 348.43734375 -127.43490601 348.43734375 -127.90649414 350.03125 C-128.6875 352.375 -128.6875 352.375 -129.6875 353.375 C-131.53511268 353.47148248 -133.3864581 353.49687318 -135.23658752 353.49525452 C-136.44118622 353.49662918 -137.64578491 353.49800385 -138.8868866 353.49942017 C-140.23391748 353.49588056 -141.58094812 353.49224575 -142.92797852 353.48852539 C-144.33697508 353.48824352 -145.74597179 353.48840125 -147.15496826 353.4889679 C-150.9915763 353.48925589 -154.82815334 353.48335894 -158.66475415 353.47639394 C-162.66996941 353.47016063 -166.6751853 353.46955662 -170.68040466 353.46836853 C-178.27002004 353.46525515 -185.85962108 353.45704167 -193.44923013 353.44701904 C-202.08753924 353.43585812 -210.72584901 353.43034751 -219.36416352 353.42532361 C-237.13861715 353.41485906 -254.91305742 353.39725948 -272.6875 353.375 C-272.54515743 351.95584497 -272.39837364 350.53713503 -272.24977112 349.11862183 C-272.16851769 348.32853163 -272.08726427 347.53844143 -272.00354862 346.7244091 C-271.53095848 343.21131808 -270.54403065 339.93783619 -269.46484375 336.5703125 C-269.2440213 335.85640854 -269.02319885 335.14250458 -268.79568481 334.40696716 C-268.08080969 332.10182305 -267.35427709 329.80062549 -266.625 327.5 C-265.60853104 324.28362735 -264.59522886 321.06628868 -263.5859375 317.84765625 C-263.33423294 317.04684128 -263.08252838 316.24602631 -262.82319641 315.42094421 C-261.2552692 310.37505536 -259.86507103 305.31337325 -258.6015625 300.18359375 C-258.28453369 298.9517334 -257.96750488 297.71987305 -257.64086914 296.45068359 C-257.06331829 294.17308513 -256.52352976 291.88544491 -256.02905273 289.58837891 C-254.82281861 284.97452425 -254.05766034 282.23724256 -249.9128418 279.62890625 C-246.86952262 278.35481872 -243.83810277 277.34598546 -240.6875 276.375 C-232.64863919 272.87483839 -228.31882722 266.4855749 -224.89425659 258.53289795 C-222.99054032 253.63413052 -221.40285621 248.63221564 -219.8125 243.625 C-219.29043384 242.01832046 -218.76763456 240.41187897 -218.24414062 238.80566406 C-214.03405682 225.80356248 -210.19976834 212.69972322 -206.46318054 199.55448914 C-204.26175121 191.83814437 -201.94972406 184.15508931 -199.63745117 176.47137451 C-198.8762687 173.94171629 -198.11669298 171.41158016 -197.35742188 168.88134766 C-194.99283096 161.00693043 -192.61773719 153.1358844 -190.21907043 145.27177429 C-189.13212062 141.70541946 -188.05015598 138.13756104 -186.96865845 134.56954956 C-186.45876324 132.89229573 -185.94648066 131.2157653 -185.43148804 129.54006958 C-182.81039263 121.01027964 -180.35277753 112.47034031 -178.34375 103.7734375 C-178.17403687 103.06208649 -178.00432373 102.35073547 -177.82946777 101.61782837 C-176.42858807 95.28424358 -175.20293452 88.86523888 -178.625 83.125 C-180.92120331 80.74094124 -183.47786509 79.27068668 -186.37890625 77.703125 C-187.18658447 77.26387695 -187.9942627 76.82462891 -188.82641602 76.37207031 C-189.44057373 76.04303711 -190.05473145 75.71400391 -190.6875 75.375 C-186.21028055 58.77899106 -181.3061421 42.32175796 -176.3125 25.875 C-175.99432312 24.82334656 -175.67614624 23.77169312 -175.34832764 22.68817139 C-174.43632335 19.67642674 -173.51975469 16.66611313 -172.6015625 13.65625 C-172.18321136 12.27350388 -172.18321136 12.27350388 -171.75640869 10.86282349 C-171.49857605 10.02186127 -171.24074341 9.18089905 -170.97509766 8.31445312 C-170.74972321 7.5748938 -170.52434875 6.83533447 -170.29214478 6.07336426 C-169.6875 4.375 -169.6875 4.375 -168.6875 3.375 C-167.1693148 3.27921407 -165.64667604 3.25311853 -164.12547302 3.25474548 C-162.64672699 3.25268349 -162.64672699 3.25268349 -161.1381073 3.25057983 C-160.04766617 3.25417511 -158.95722504 3.25777039 -157.83374023 3.26147461 C-156.69242645 3.26132858 -155.55111267 3.26118256 -154.37521362 3.2610321 C-150.58215469 3.26173182 -146.78914416 3.26952693 -142.99609375 3.27734375 C-140.37435432 3.27920772 -137.75261454 3.28063172 -135.13087463 3.28163147 C-128.92248045 3.28474449 -122.71410379 3.29295748 -116.50571734 3.30298096 C-109.43932559 3.31414301 -102.37293301 3.31965278 -95.30653465 3.32467639 C-80.76684737 3.33514012 -66.22717393 3.352739 -51.6875 3.375 C-52.76168387 11.05165318 -52.76168387 11.05165318 -53.66015625 14.55859375 C-53.83740234 15.25791016 -54.01464844 15.95722656 -54.19726562 16.67773438 C-54.37966797 17.38220703 -54.56207031 18.08667969 -54.75 18.8125 C-54.93626953 19.54404297 -55.12253906 20.27558594 -55.31445312 21.02929688 C-55.7688758 22.81203198 -56.22772466 24.59363787 -56.6875 26.375 C-55.77871094 25.52228516 -55.77871094 25.52228516 -54.8515625 24.65234375 C-39.02830239 10.07060097 -21.92330334 -0.23615767 0 0 Z " fill="#007AC8" transform="translate(1686.6875,742.625)"/>
<path d="M0 0 C7.79016991 -0.04681778 15.58030544 -0.08211567 23.37058163 -0.10362434 C26.98986296 -0.11395942 30.60904644 -0.12792465 34.22827148 -0.15087891 C80.76029233 -0.43778965 80.76029233 -0.43778965 90.60546875 8.44921875 C96.67104537 15.22629995 98 22.15331104 98 31 C97.67967922 34.15315763 96.9977698 36.99572609 96 40 C95.76539063 40.72703125 95.53078125 41.4540625 95.2890625 42.203125 C90.39779436 55.03709462 80.83738736 60.6442669 69 66 C68.01 66.66 67.02 67.32 66 68 C66.86625 68.515625 67.7325 69.03125 68.625 69.5625 C73.6190551 72.92342808 77.16771356 76.8814527 79.375 82.5 C81.53993891 94.62365791 77.69888289 105.90620813 71 116 C61.59856498 128.5749152 49.20790597 134.31003554 34 137 C31.11374551 137.24376566 28.25428447 137.25504089 25.35913086 137.22705078 C24.54827026 137.22734283 23.73740967 137.22763489 22.90197754 137.22793579 C20.25615245 137.22655679 17.61061885 137.21106392 14.96484375 137.1953125 C13.11682794 137.19157727 11.26881013 137.18873271 9.42079163 137.18673706 C4.58259509 137.17914073 -0.25547929 137.15952703 -5.09362793 137.1373291 C-10.04091744 137.11678405 -14.9882269 137.10771691 -19.93554688 137.09765625 C-29.62375127 137.07627701 -39.31186543 137.04218992 -49 137 C-48.34658237 132.8513718 -47.46784121 129.14393448 -46.015625 125.19921875 C-45.58596436 124.02423828 -45.15630371 122.84925781 -44.71362305 121.63867188 C-44.2258319 120.32158377 -43.73795394 119.0045278 -43.25 117.6875 C-42.72847842 116.26774118 -42.20741905 114.84781251 -41.68676758 113.42773438 C-40.15519616 109.25538108 -38.6162972 105.08575783 -37.07647705 100.91644287 C-35.0672153 95.4728553 -33.0634376 90.02724709 -31.05859375 84.58203125 C-28.3608879 77.25630767 -25.66233532 69.93089839 -22.96118164 62.60644531 C-15.27049597 41.75110671 -7.62222744 20.88044575 0 0 Z M25 25 C22.14245405 30.47954581 19.81038123 35.90684606 17.8125 41.75 C17.55275391 42.49121094 17.29300781 43.23242188 17.02539062 43.99609375 C15.87374328 47.31117164 14.81605949 50.58420137 14 54 C18.69557647 54.09954745 23.39052663 54.17178467 28.08691406 54.21972656 C29.68142408 54.23973053 31.27586178 54.26694301 32.87011719 54.30175781 C45.07402232 54.79082916 45.07402232 54.79082916 56 50 C60.03465605 45.99960854 61.92214152 40.73085884 62.26171875 35.11328125 C61.76917611 31.13618324 59.99904176 29.61618537 57 27 C52.78700368 25.26749093 49.26200505 24.75978213 44.7265625 24.8046875 C43.57285156 24.81113281 42.41914062 24.81757812 41.23046875 24.82421875 C39.44576172 24.84935547 39.44576172 24.84935547 37.625 24.875 C35.80548828 24.88853516 35.80548828 24.88853516 33.94921875 24.90234375 C30.96594227 24.92583412 27.98307406 24.95868318 25 25 Z M4 80 C2.43138156 84.25339842 0.86485483 88.50755891 -0.69970703 92.76245117 C-1.23265552 94.21090696 -1.76618298 95.65914984 -2.30029297 97.10717773 C-3.06628987 99.18418047 -3.83022617 101.26193083 -4.59375 103.33984375 C-4.83436157 103.99089584 -5.07497314 104.64194794 -5.32287598 105.31272888 C-6.50204786 108.08460673 -6.50204786 108.08460673 -7 111 C-2.46512356 111.07479497 2.06938482 111.12890262 6.60473633 111.16479492 C8.14386255 111.17977543 9.68294688 111.2001671 11.22192383 111.22631836 C27.12562136 111.5087765 27.12562136 111.5087765 40.55859375 103.73828125 C43.74179024 99.89946706 44.75809401 95.72789995 45.4375 90.875 C44.84222561 86.96319689 43.62221878 84.95840068 41 82 C36.14962629 80.24194772 31.88927214 79.76060711 26.75390625 79.8046875 C26.09792953 79.8075174 25.44195282 79.81034729 24.76609802 79.81326294 C22.69803591 79.82434016 20.63042827 79.84941937 18.5625 79.875 C17.14909485 79.88504598 15.73568283 79.89416898 14.32226562 79.90234375 C10.88136606 79.92423816 7.44072748 79.95867949 4 80 Z " fill="#007AC8" transform="translate(660,1121)"/>
<path d="M0 0 C20.00589909 -0.61836415 37.27926907 7.44497963 51.6862793 20.86621094 C64.43163187 33.20731485 72.03066334 50.31058581 72.3359375 68.05859375 C72.24310066 82.2609422 66.71483776 94.74260358 57.125 105.05078125 C45.16557066 116.17095239 29.73330529 118.79637245 14.03173828 118.24414062 C-4.08628991 117.19910901 -20.27165591 106.67897084 -32.3515625 93.74609375 C-44.75280169 79.13397791 -50.27951655 63.28247959 -49.1015625 44.12109375 C-48.1346755 32.51844977 -41.91725485 19.78317011 -33.1015625 12.12109375 C-22.92154661 4.40655046 -12.6192278 0.72713023 0 0 Z " fill="#007AC8" transform="translate(1474.1015625,213.87890625)"/>
<path d="M0 0 C0.79792969 0.42023438 1.59585937 0.84046875 2.41796875 1.2734375 C9.08746483 5.01662755 14.55196649 9.65949346 20 15 C20.70125 15.66515625 21.4025 16.3303125 22.125 17.015625 C34.27153389 29.44684328 39.50445406 46.37327121 39.35424805 63.41723633 C38.90194187 78.48398651 32.77010814 89.63597791 22 100 C10.13473697 109.8595691 -4.00748945 111.85716017 -19 111 C-38.39612509 108.35128184 -55.48589963 98.50308003 -67.6875 83.23046875 C-78.31107078 68.38977106 -83.96984305 52.12281742 -81.3125 33.6875 C-79.45384357 24.51730766 -76.13275109 17.07852476 -70 10 C-69.47535156 9.39285156 -68.95070313 8.78570312 -68.41015625 8.16015625 C-51.26302706 -10.2780509 -21.41308907 -11.50904605 0 0 Z " fill="#00A261" transform="translate(1504,92)"/>
<path d="M0 0 C1.50005776 4.82297053 0.40498306 8.5369498 -0.875 13.25 C-1.06191406 13.9821875 -1.24882813 14.714375 -1.44140625 15.46875 C-2.84527726 20.84527726 -2.84527726 20.84527726 -4 22 C-6.0608626 22.13267356 -8.12398429 22.23089203 -10.1875 22.3125 C-15.7419029 22.67872437 -18.84690425 23.32154377 -23 27 C-21.91884632 29.43259577 -20.8409533 31.17956886 -19.0625 33.1875 C-14.66887601 39.17880544 -13.36380014 45.19829668 -14.4296875 52.5234375 C-16.81546403 62.88359039 -22.97557117 71.13775367 -31.4375 77.3984375 C-40.06156637 82.78847898 -50.0659976 86.35379929 -60.25390625 86.0546875 C-61.61652659 86.02940997 -62.9791573 86.00468695 -64.34179688 85.98046875 C-66.45729144 85.93081964 -68.57222428 85.87469385 -70.68725586 85.80810547 C-72.75117347 85.74738091 -74.81437626 85.71208274 -76.87890625 85.6796875 C-78.1016626 85.64601074 -79.32441895 85.61233398 -80.58422852 85.57763672 C-84.70179888 86.08677808 -86.82107593 87.37870364 -90 90 C-90.96219702 92.62766389 -90.96219702 92.62766389 -91 95 C-84.4427246 98.5888436 -78.2952375 98.42977233 -70.9375 98.5 C-44.68588251 99.12315775 -44.68588251 99.12315775 -37 106 C-32.52606295 110.72248911 -30.93006151 115.26087076 -30.625 121.6875 C-30.94752348 133.00977172 -36.10111767 140.30434792 -44 148 C-44.55558594 148.5878125 -45.11117188 149.175625 -45.68359375 149.78125 C-57.95581441 161.77803429 -77.48936537 161.37332357 -93.43237305 161.37060547 C-96.29601725 161.37497485 -99.15811187 161.41137791 -102.02148438 161.44921875 C-115.2701613 161.53172096 -128.49915313 161.39633314 -138.64453125 151.68359375 C-141.99558465 147.52133434 -141.52545903 142.05191326 -141 137 C-138.71814008 129.178444 -132.98446372 124.69700132 -126.25 120.625 C-123 119 -123 119 -120 119 C-120.66 117.88625 -121.32 116.7725 -122 115.625 C-124.97693072 109.52122119 -125.14115729 104.37179682 -122.96484375 97.94140625 C-118.12310499 87.13852951 -110.22196331 82.24389134 -100 77 C-100.3609375 76.39414063 -100.721875 75.78828125 -101.09375 75.1640625 C-105.58333993 67.05785846 -106.16684045 60.87015523 -103.875 51.9375 C-100.04823391 40.58179412 -92.37544098 33.06767644 -81.875 27.6875 C-72.23760703 23.02218377 -63.46223843 21.82808462 -52.875 21.875 C-51.99457031 21.87113281 -51.11414062 21.86726563 -50.20703125 21.86328125 C-46.01254718 21.86960777 -42.08791174 21.93137577 -38 23 C-37.5875 22.21496094 -37.175 21.42992187 -36.75 20.62109375 C-31.52016733 11.10700083 -26.20391094 4.45560697 -15.80859375 0.64453125 C-10.57877773 -0.55563515 -5.32751535 -0.30061215 0 0 Z M-70.9375 46.9375 C-74.47448468 52.18938634 -75.99635456 56.6769807 -75 63 C-73.67838573 66.06873898 -73.67838573 66.06873898 -71 68 C-65.06797537 69.50814186 -59.75233447 69.13444693 -54 67 C-48.85562435 63.69983449 -45.78674296 59.80189569 -44 54 C-43.50459902 50.59285446 -43.18738606 47.36398271 -44 44 C-47.79158921 40.4413686 -51.59309427 39.63724742 -56.74609375 39.72265625 C-62.26891582 40.40224094 -67.25051614 42.74084484 -70.9375 46.9375 Z M-112 131 C-113.31150132 134.02323485 -113.31150132 134.02323485 -113 137 C-109.48297925 141.47116518 -104.37762174 142.17996847 -99 143 C-95.3112834 143.26091273 -91.63474747 143.344347 -87.9375 143.375 C-86.55534302 143.39566528 -86.55534302 143.39566528 -85.14526367 143.41674805 C-77.43504721 143.36527798 -70.12955152 142.37845915 -63.875 137.625 C-61.81447419 134.74026387 -61.5057168 133.45998237 -62 130 C-66.79691179 127.17366279 -70.96703824 126.4720384 -76.43359375 126.3125 C-77.22975601 126.28269043 -78.02591827 126.25288086 -78.84620667 126.22216797 C-80.52264175 126.1646767 -82.19934883 126.11467894 -83.8762207 126.07177734 C-86.42791703 126.00026855 -88.97540405 125.88607677 -91.52539062 125.76953125 C-93.16137918 125.7187374 -94.79744874 125.67047632 -96.43359375 125.625 C-97.56516151 125.56759644 -97.56516151 125.56759644 -98.71958923 125.5090332 C-104.28495515 125.42630747 -108.08368751 126.94985099 -112 131 Z " fill="#007AC8" transform="translate(1999,1132)"/>
<path d="M0 0 C0.7115625 0.30164062 1.423125 0.60328125 2.15625 0.9140625 C11.42568252 5.16831698 17.36841215 11.73431464 21.3125 21.125 C23.61656684 30.76018861 23.99338592 41.25455775 22 51 C18.20999332 54.79000668 5.125493 53.36283592 -0.0625 53.5625 C-1.64708008 53.62727539 -1.64708008 53.62727539 -3.26367188 53.69335938 C-5.84234879 53.79837337 -8.42110435 53.90052877 -11 54 C-10.97905273 53.42556152 -10.95810547 52.85112305 -10.93652344 52.25927734 C-10.85286236 49.63136626 -10.8011854 47.0037361 -10.75 44.375 C-10.71648437 43.47136719 -10.68296875 42.56773438 -10.6484375 41.63671875 C-10.56502647 35.9230632 -10.9927921 32.42607981 -15 28 C-19.44377758 25.09511816 -24.0470382 24.71010635 -29.1875 25.625 C-39.71962057 28.35134246 -45.99681484 34.29597461 -51.46508789 43.51831055 C-60.29324551 59.07675377 -70.14993264 79.64025777 -68 98 C-66.73631079 102.28250234 -65.65942555 104.41725184 -62.3125 107.375 C-56.03911157 110.4525113 -50.26796116 110.48339813 -43.57421875 108.89453125 C-32.80127655 105.1509747 -25.94899876 95.89799752 -21 86 C-11.53007103 86.5931489 -2.31177062 88.26427722 7 90 C8 93 8 93 6.6640625 95.75 C-3.11466253 111.33601384 -14.10904597 124.8710701 -31 133 C-31.95390625 133.51304687 -32.9078125 134.02609375 -33.890625 134.5546875 C-47.72249752 140.98407548 -65.80516261 140.89158896 -80 136 C-90.40479905 131.31565148 -96.66725177 124.14627286 -101 113.69921875 C-108.22026159 94.21015329 -103.16015236 72.40222043 -95 54 C-94.57074219 53.01902344 -94.14148437 52.03804687 -93.69921875 51.02734375 C-83.28235536 28.7557964 -64.87374853 8.34962359 -41.609375 -0.25390625 C-28.71502625 -4.25896912 -12.60425298 -5.67191384 0 0 Z " fill="#007AC8" transform="translate(1432,1122)"/>
<path d="M0 0 C1.25159912 0.00523682 2.50319824 0.01047363 3.79272461 0.01586914 C4.78942421 0.01799156 4.78942421 0.01799156 5.80625916 0.02015686 C7.93590735 0.02577021 10.06545175 0.03832485 12.19506836 0.05102539 C13.63582205 0.05603868 15.07657739 0.06060188 16.51733398 0.06469727 C20.05577938 0.07574394 23.59416375 0.09301747 27.13256836 0.11352539 C26.57200627 4.83859181 25.6333653 9.02541417 24.01879883 13.49755859 C23.58099091 14.72025955 23.14318298 15.94296051 22.69210815 17.20271301 C22.21152767 18.52331834 21.73073796 19.84384754 21.24975586 21.16430664 C20.75176699 22.54588848 20.25430998 23.92766212 19.75735474 25.30961609 C18.71398766 28.20676761 17.66625485 31.10228705 16.61499023 33.99658203 C15.28773905 37.65087516 13.96815538 41.30787215 12.65144253 44.96597385 C7.75984314 58.55283165 2.8552039 72.12908384 -2.47900391 85.55004883 C-4.49159899 90.71548541 -6.29889488 95.94737762 -8.11743164 101.18383789 C-10.80724286 108.83870114 -13.68165328 116.42799502 -16.52880859 124.02539062 C-16.94606201 125.14373291 -17.36331543 126.2620752 -17.79321289 127.41430664 C-18.16873291 128.41631104 -18.54425293 129.41831543 -18.93115234 130.45068359 C-19.9812735 133.30540886 -19.9812735 133.30540886 -20.86743164 137.11352539 C-30.76743164 137.11352539 -40.66743164 137.11352539 -50.86743164 137.11352539 C-50.53743164 135.46352539 -50.20743164 133.81352539 -49.86743164 132.11352539 C-49.86743164 131.12352539 -49.86743164 130.13352539 -49.86743164 129.11352539 C-50.36629883 129.57243164 -50.86516602 130.03133789 -51.37915039 130.50415039 C-58.98274878 137.00201903 -67.53892096 140.67613347 -77.67993164 140.11352539 C-84.19625414 139.15552165 -88.85790324 137.0317116 -93.61743164 132.48852539 C-101.10651048 122.15613526 -101.30239821 110.1873483 -99.55395508 97.9128418 C-95.63349149 76.43050617 -83.63249112 53.20171825 -65.74243164 40.17602539 C-55.39525032 33.35811522 -43.77741124 31.17746977 -31.50805664 33.57446289 C-25.89963973 35.68382323 -23.06496622 40.31722352 -19.86743164 45.11352539 C-19.66920303 44.56451065 -19.47097443 44.01549591 -19.26673889 43.44984436 C-17.21000288 37.75521671 -15.14936865 32.06201091 -13.08642578 26.36962891 C-12.31621034 24.24271563 -11.54700239 22.11543725 -10.77880859 19.98779297 C-9.67686017 16.93629814 -8.57133982 13.88611853 -7.46508789 10.83618164 C-7.12026871 9.87889664 -6.77544952 8.92161163 -6.42018127 7.93531799 C-5.93979652 6.61406166 -5.93979652 6.61406166 -5.44970703 5.26611328 C-5.16768936 4.48667862 -4.88567169 3.70724396 -4.59510803 2.90419006 C-3.42161911 0.01647077 -3.30145752 0.13070905 0 0 Z M-50.66040039 60.75024414 C-60.80816923 72.56995659 -68.96200406 93.27326911 -68.32055664 108.82836914 C-67.96643533 111.41905462 -67.96643533 111.41905462 -65.67993164 114.23852539 C-62.7601372 116.18505502 -61.36072516 117.11352539 -57.86743164 117.11352539 C-50.56786109 114.90988145 -45.12192115 110.64746148 -41.01586914 104.21118164 C-34.85260966 92.5770112 -27.71467519 76.48550022 -28.86743164 63.11352539 C-30.89744694 59.27099644 -32.60978817 56.44403897 -36.86743164 55.11352539 C-42.57401979 55.11352539 -46.43382352 56.89199641 -50.66040039 60.75024414 Z " fill="#007AC8" transform="translate(1261.867431640625,1120.886474609375)"/>
<path d="M0 0 C4.0089722 3.39891121 7.32738018 6.98214055 9 12 C9.77330624 22.14489043 8.62996632 30.20960437 5 39.75 C4.57082275 40.93505127 4.14164551 42.12010254 3.69946289 43.34106445 C2.45565038 46.76951464 1.17876078 50.18490873 -0.10272217 53.59942627 C-1.44754625 57.19736355 -2.77264749 60.80251336 -4.09976196 64.40701294 C-7.29596387 73.0854816 -10.51083072 81.75690374 -13.75390625 90.41796875 C-14.22359581 91.67534096 -14.22359581 91.67534096 -14.70277405 92.95811462 C-16.88117227 98.76234453 -16.88117227 98.76234453 -18 101 C-28.23 101 -38.46 101 -49 101 C-45.62622318 88.629485 -45.62622318 88.629485 -43.74755859 83.62988281 C-43.33057709 82.51212463 -42.91359558 81.39436646 -42.48397827 80.24273682 C-41.82288559 78.49062897 -41.82288559 78.49062897 -41.1484375 76.703125 C-40.44633691 74.81913124 -39.74424442 72.93513442 -39.04262733 71.05096054 C-37.33005964 66.45683234 -35.60671706 61.86673901 -33.8828125 57.27685547 C-32.90892124 54.68278143 -31.93883989 52.08733794 -30.9725647 49.49041748 C-30.06722664 47.05847587 -29.15600612 44.62871374 -28.23812866 42.20147705 C-24.34363483 33.05281673 -24.34363483 33.05281673 -24.9375 23.5625 C-27.48376378 21.63351229 -29.51255641 21.31312487 -32.68359375 21.5 C-39.16776405 22.89961855 -44.51123782 26.58651666 -48.125 32.125 C-50.62646161 36.96878637 -52.67023444 41.95605159 -54.68359375 47.015625 C-55.20476524 48.32241714 -55.20476524 48.32241714 -55.73646545 49.65560913 C-59.66369953 59.57456914 -63.30793707 69.59420791 -66.9375 79.625 C-67.94236323 82.39494202 -68.94814846 85.16454374 -69.95521545 87.9336853 C-70.57322048 89.6337044 -71.18985173 91.33422371 -71.80491638 93.03530884 C-73.88902282 98.77804565 -73.88902282 98.77804565 -75 101 C-85.23 101 -95.46 101 -106 101 C-105.2785853 97.39292652 -104.53043258 94.43217589 -103.28857422 91.03417969 C-102.75992516 89.57946762 -102.75992516 89.57946762 -102.22059631 88.09536743 C-101.83584641 87.04811493 -101.4510965 86.00086243 -101.0546875 84.921875 C-100.65233383 83.81782318 -100.24998016 82.71377136 -99.83543396 81.57626343 C-98.51881972 77.96620888 -97.19703924 74.35807101 -95.875 70.75 C-94.9687161 68.26947006 -94.06271198 65.78883787 -93.15698242 63.30810547 C-91.32413786 58.28967681 -89.48920536 53.27202121 -87.65283203 48.25488281 C-85.21697242 41.59752055 -82.79252802 34.93605711 -80.37109375 28.2734375 C-79.3425878 25.44733649 -78.3136791 22.62138265 -77.28448486 19.79553223 C-76.637313 18.01742498 -75.99094851 16.23902366 -75.34539795 14.46032715 C-74.45815872 12.01685311 -73.56745324 9.57467174 -72.67578125 7.1328125 C-72.4163121 6.41572113 -72.15684296 5.69862976 -71.88951111 4.95980835 C-70.11419952 0.11419952 -70.11419952 0.11419952 -69 -1 C-66.85441173 -1.08775605 -64.70595579 -1.10695219 -62.55859375 -1.09765625 C-61.25341797 -1.09443359 -59.94824219 -1.09121094 -58.60351562 -1.08789062 C-57.2148431 -1.07953401 -55.82617123 -1.07106905 -54.4375 -1.0625 C-53.04492344 -1.05748666 -51.65234519 -1.05292347 -50.25976562 -1.04882812 C-46.8398013 -1.03699434 -43.41992156 -1.0205088 -40 -1 C-40.781658 3.07729712 -41.82827534 7.01613614 -43 11 C-42.0409375 9.948125 -42.0409375 9.948125 -41.0625 8.875 C-30.14146376 -1.92332797 -14.39186871 -7.18168498 0 0 Z " fill="#007AC8" transform="translate(1149,1157)"/>
<path d="M0 0 C5.83870497 6.17234525 7.05947219 12.28145919 6.83203125 20.73046875 C5.4021664 34.17721878 -0.9671559 47.50624309 -5.94213867 59.98754883 C-9.54814647 69.04575099 -12.83656913 78.2239138 -16.16918945 87.38525391 C-16.40266586 88.02588776 -16.63614227 88.66652161 -16.87669373 89.3265686 C-17.51905121 91.08968687 -18.15972175 92.85341947 -18.80029297 94.6171875 C-19.8125 97.3125 -19.8125 97.3125 -20.8125 99.3125 C-31.0425 99.3125 -41.2725 99.3125 -51.8125 99.3125 C-51.03975758 95.44878791 -50.16088441 92.27274442 -48.80297852 88.62353516 C-48.38907364 87.50532379 -47.97516876 86.38711243 -47.54872131 85.23501587 C-47.10080734 84.03597626 -46.65289337 82.83693665 -46.19140625 81.6015625 C-45.7264015 80.34767229 -45.26180334 79.09363124 -44.79759216 77.83944702 C-43.57670166 74.54319371 -42.35181208 71.24844335 -41.12561035 67.9541626 C-39.16614968 62.68968545 -37.21019817 57.42391874 -35.25913811 52.15632248 C-34.58010794 50.32599543 -33.89770094 48.49692229 -33.21522522 46.6678772 C-29.02108521 36.06544896 -29.02108521 36.06544896 -27.6875 24.875 C-27.70554687 24.01003906 -27.72359375 23.14507813 -27.7421875 22.25390625 C-27.76539063 21.61324219 -27.78859375 20.97257812 -27.8125 20.3125 C-35.34030989 19.60529448 -40.85133908 20.4424957 -46.8125 25.3125 C-58.19261398 37.77517702 -62.62421249 58.6295613 -68.125 74.125 C-69.35632766 77.58785378 -70.58895004 81.0502261 -71.82499695 84.51139832 C-72.58912568 86.65157418 -73.3504552 88.79275194 -74.10871887 90.93501282 C-74.62011665 92.36867439 -74.62011665 92.36867439 -75.1418457 93.83129883 C-75.59102104 95.09699455 -75.59102104 95.09699455 -76.04927063 96.38825989 C-76.8125 98.3125 -76.8125 98.3125 -77.8125 99.3125 C-80.10401417 99.40040975 -82.39822524 99.41944038 -84.69140625 99.41015625 C-85.72139992 99.40803383 -85.72139992 99.40803383 -86.77220154 99.40586853 C-88.97317801 99.40025479 -91.17405409 99.38770007 -93.375 99.375 C-94.86393083 99.36998676 -96.35286324 99.36542355 -97.84179688 99.36132812 C-101.49873075 99.35028093 -105.15560558 99.33300713 -108.8125 99.3125 C-106.81241173 92.39544105 -104.56327121 85.60817146 -102.109375 78.83984375 C-101.75433395 77.85407349 -101.39929291 76.86830322 -101.03349304 75.85266113 C-99.87931099 72.65074985 -98.7211114 69.45031093 -97.5625 66.25 C-96.76039847 64.02941422 -95.95839761 61.80879208 -95.15649414 59.58813477 C-92.71358469 52.82774219 -90.26369818 46.06989081 -87.8125 39.3125 C-87.42898376 38.25450195 -87.04546753 37.19650391 -86.65032959 36.10644531 C-84.51609095 30.21927096 -82.37814697 24.33346928 -80.23376465 18.44998169 C-79.57889043 16.65265303 -78.92483512 14.85502577 -78.27160645 13.05709839 C-77.37010295 10.57738478 -76.46494391 8.09903925 -75.55859375 5.62109375 C-75.15987312 4.52166443 -75.15987312 4.52166443 -74.75309753 3.40002441 C-72.92710666 -1.57289334 -72.92710666 -1.57289334 -71.8125 -2.6875 C-69.66691173 -2.77525605 -67.51845579 -2.79445219 -65.37109375 -2.78515625 C-64.06591797 -2.78193359 -62.76074219 -2.77871094 -61.41601562 -2.77539062 C-60.0273431 -2.76703401 -58.63867123 -2.75856905 -57.25 -2.75 C-55.85742344 -2.74498666 -54.46484519 -2.74042347 -53.07226562 -2.73632812 C-49.6523013 -2.72449434 -46.23242156 -2.7080088 -42.8125 -2.6875 C-43.594158 1.38979712 -44.64077534 5.32863614 -45.8125 9.3125 C-45.44640625 8.87679688 -45.0803125 8.44109375 -44.703125 7.9921875 C-33.13262301 -4.73536469 -15.03860989 -9.02316594 0 0 Z " fill="#007AC8" transform="translate(1870.8125,1158.6875)"/>
<path d="M0 0 C0.83184814 0.00563965 1.66369629 0.0112793 2.52075195 0.01708984 C14.0259 0.24451326 21.65411496 3.40411496 29.8125 11.5625 C37.85874311 24.20659632 37.55213759 36.96024563 34.4140625 51.11328125 C33.5625 54.3125 33.5625 54.3125 31.5625 59.3125 C10.1125 59.3125 -11.3375 59.3125 -33.4375 59.3125 C-35.55474965 69.44156592 -35.55474965 69.44156592 -33.390625 79.234375 C-30.27047176 82.35452824 -27.53988685 83.47389648 -23.25 83.5625 C-16.55006394 83.47646551 -11.22467882 80.97370043 -6.4375 76.3125 C-4.63219501 73.72141488 -3.00172814 71.05489146 -1.4375 68.3125 C16.41899203 70.23960706 16.41899203 70.23960706 24.5625 72.3125 C23.5110235 80.17090334 17.18705382 86.0994989 11.5625 91.3125 C11.01335937 91.85519531 10.46421875 92.39789062 9.8984375 92.95703125 C-1.84758437 104.05049635 -16.8421656 108.04926601 -32.7265625 107.65625 C-42.65051398 106.73697871 -51.50689941 103.67626313 -58.4375 96.3125 C-66.64751952 85.14758121 -68.02486964 73.71416515 -66.14892578 60.23974609 C-63.51120637 46.12352152 -56.79410507 34.04450665 -47.4375 23.3125 C-46.96957031 22.70148438 -46.50164063 22.09046875 -46.01953125 21.4609375 C-34.85584118 7.1216523 -17.81047515 -0.12694565 0 0 Z M-20.4375 28.3125 C-23.23348185 32.45191704 -25.8534282 36.56028461 -27.4375 41.3125 C-16.2175 41.3125 -4.9975 41.3125 6.5625 41.3125 C8.86351556 35.55996109 9.82318301 31.29832819 7.375 25.5 C4.16567129 21.62667225 1.77272851 20.45137868 -3.25 19.875 C-9.78121085 20.13378383 -15.89678331 23.77178331 -20.4375 28.3125 Z " fill="#007AC8" transform="translate(817.4375,1153.6875)"/>
<path d="M0 0 C5.88228353 6.29044198 10.26964494 14.16516301 10 23 C8.86461175 29.05227623 6.87063161 34.16171049 3 39 C2.5875 39.54011719 2.175 40.08023438 1.75 40.63671875 C-2.07389662 45.06805728 -6.60109501 47.63688844 -11.75 50.25 C-12.39291992 50.57919434 -13.03583984 50.90838867 -13.69824219 51.24755859 C-24.30207259 56.38157544 -34.41586081 57.55578505 -46.125 57.5 C-46.80776001 57.49856995 -47.49052002 57.49713989 -48.19396973 57.4956665 C-59.18761431 57.43868627 -68.8841604 56.41036605 -79 52 C-80.53720703 51.33097656 -80.53720703 51.33097656 -82.10546875 50.6484375 C-91.23781924 46.13894581 -100.05688086 39.39880132 -104.21875 29.87109375 C-106.24017399 22.44236058 -106.55399248 14.04960086 -103 7.0625 C-101.58203125 4.9765625 -101.58203125 4.9765625 -100 3 C-99.48824219 2.32710937 -98.97648437 1.65421875 -98.44921875 0.9609375 C-89.76991991 -9.00774719 -75.72645218 -14.06372574 -63 -16 C-62.10152344 -16.14050781 -61.20304687 -16.28101562 -60.27734375 -16.42578125 C-39.15060243 -19.00828424 -16.21884212 -14.17180379 0 0 Z " fill="#007AC8" transform="translate(1323,45)"/>
<path d="M0 0 C7.42554716 6.66049079 11.5202838 15.06577787 12.13671875 25.01171875 C12.42874745 47.81429305 4.3451756 66.02577884 -11.06640625 82.734375 C-23.6053705 94.82703714 -38.40787152 100.19527612 -55.55224609 100.09350586 C-66.57548231 99.85086878 -73.88091284 96.96654353 -81.8984375 89.2421875 C-90.21281776 79.62447196 -90.73475033 68.9077851 -90.06640625 56.734375 C-89.38835691 52.28716904 -88.34308106 48.04522502 -87.06640625 43.734375 C-86.79957031 42.81140625 -86.53273438 41.8884375 -86.2578125 40.9375 C-80.08833517 21.96292971 -66.00388031 6.43342551 -48.40625 -2.63671875 C-33.34417975 -9.15327212 -13.68653629 -10.14561589 0 0 Z M-44.86621094 24.10595703 C-54.39145113 37.02974713 -60.72053997 56.78852592 -59.06640625 72.734375 C-57.25837221 75.80803286 -56.20601161 77.16457232 -53.06640625 78.734375 C-47.00793811 79.2478045 -42.94713017 78.60337711 -38.06640625 74.734375 C-26.41880021 64.832607 -20.55090231 44.44058401 -18.06640625 29.734375 C-17.57847473 23.58643791 -17.97652072 20.66629579 -22.06640625 15.734375 C-31.08807494 11.22354066 -39.32234894 17.24042147 -44.86621094 24.10595703 Z " fill="#007AC8" transform="translate(1539.06640625,1160.265625)"/>
<path d="M0 0 C8.44429807 7.10641546 11.5696956 15.61068638 12.7734375 26.390625 C13.42125438 38.19373695 10.24655592 50.16444163 4.8984375 60.59765625 C4.40601563 61.57992188 3.91359375 62.5621875 3.40625 63.57421875 C-5.57267016 80.20025751 -19.88088211 93.11922349 -38.1015625 98.59765625 C-42.96065159 99.90233421 -47.8533332 99.81808093 -52.8515625 99.84765625 C-53.7075 99.86828125 -54.5634375 99.88890625 -55.4453125 99.91015625 C-64.63096881 99.96582689 -71.86589865 97.64111567 -78.95703125 91.7421875 C-86.85121704 83.84800171 -89.97749064 75.16918002 -90.3515625 64.22265625 C-89.69696359 43.38459085 -80.29594022 22.90638718 -65.1015625 8.59765625 C-47.50728632 -6.34504926 -20.33569485 -14.93976138 0 0 Z M-44.1640625 22.91015625 C-53.13299454 35.88700343 -60.70952587 55.77644522 -59.1015625 71.59765625 C-57.8686737 74.49494493 -56.8770613 75.99449052 -54.4140625 77.91015625 C-50.08798713 79.19628676 -46.26746436 79.41038514 -42.05078125 77.828125 C-28.86929587 70.58470682 -24.3180495 53.40794161 -19.9296875 40.0234375 C-18.16859078 33.6685366 -17.08715064 27.17497186 -18.1015625 20.59765625 C-19.90274728 17.59568161 -21.00488982 16.14599259 -24.1015625 14.59765625 C-32.72279687 13.34560976 -38.64910166 16.33013683 -44.1640625 22.91015625 Z " fill="#007AC8" transform="translate(1035.1015625,1160.40234375)"/>
<path d="M0 0 C8.08176484 7.43111428 12.15949376 15.96321694 13.1171875 26.78515625 C13.48926004 38.59130409 10.87145789 50.03726049 5.84375 60.6953125 C5.44671875 61.56542969 5.0496875 62.43554688 4.640625 63.33203125 C-3.24033161 79.20717661 -18.40135196 93.00178377 -35.03125 99.0703125 C-45.94034349 102.14657346 -60.23622896 102.86289268 -70.765625 98.14453125 C-79.77694693 92.68178544 -85.40738151 85.8532448 -88.76171875 75.8984375 C-91.96205199 58.02726973 -86.60201042 39.4074393 -77.015625 24.328125 C-66.2333782 9.51196069 -52.96408768 -1.8262655 -34.65625 -5.5546875 C-23.16119292 -7.34173419 -9.85224125 -6.97171309 0 0 Z M-44.65234375 25.30078125 C-52.1582253 37.25170434 -61.31021948 57.79719538 -58.74609375 71.9609375 C-57.38160237 75.51010634 -55.60976012 78.10856461 -52.15625 79.6953125 C-46.29265859 80.47712469 -43.04281665 79.55065859 -38.11328125 76.375 C-26.08374514 66.05024845 -18.66550055 45.13203309 -17.15625 29.6953125 C-17.02443521 24.864688 -17.48749095 21.71934979 -20.15625 17.6328125 C-29.27100803 11.74619794 -38.62335837 17.76044258 -44.65234375 25.30078125 Z " fill="#007AC8" transform="translate(1646.15625,1159.3046875)"/>
<path d="M0 0 C10.89 0 21.78 0 33 0 C33.33 18.15 33.66 36.3 34 55 C42.09451088 42.887532 42.09451088 42.887532 49.9375 30.625 C53.94338583 24.24744096 57.97641835 17.88902601 62.0625 11.5625 C62.5155249 10.85883301 62.9685498 10.15516602 63.43530273 9.43017578 C63.86012939 8.77388184 64.28495605 8.11758789 64.72265625 7.44140625 C65.09140869 6.87107666 65.46016113 6.30074707 65.84008789 5.71313477 C66.22285889 5.14780029 66.60562988 4.58246582 67 4 C67.64146973 2.91561646 67.64146973 2.91561646 68.29589844 1.80932617 C70 0 70 0 72.54370117 -0.45410156 C73.53345947 -0.4331543 74.52321777 -0.41220703 75.54296875 -0.390625 C76.61611328 -0.37773438 77.68925781 -0.36484375 78.79492188 -0.3515625 C79.91447266 -0.31804687 81.03402344 -0.28453125 82.1875 -0.25 C83.31865234 -0.23195313 84.44980469 -0.21390625 85.61523438 -0.1953125 C88.41100376 -0.14812652 91.20507972 -0.08230595 94 0 C93.09090488 4.35399946 90.83828888 7.55729973 88.37109375 11.1875 C87.66920677 12.23502441 87.66920677 12.23502441 86.95314026 13.30371094 C85.45331477 15.53948338 83.94559692 17.76980072 82.4375 20 C81.44933609 21.46969338 80.4617005 22.93974213 79.47460938 24.41015625 C77.54239829 27.28708539 75.60715903 30.16193863 73.66943359 33.03515625 C71.39387134 36.41131001 69.13305061 39.79699672 66.87890625 43.1875 C62.06283902 50.42239643 57.16989215 57.60474373 52.28173828 64.79101562 C46.04678344 73.9593301 39.84972419 83.15101181 33.75 92.41015625 C8.01360346 131.41688226 8.01360346 131.41688226 -10.8034668 136.60961914 C-15.62733546 137.46694558 -20.55611955 137.200321 -25.4375 137.125 C-26.55060547 137.11597656 -27.66371094 137.10695313 -28.81054688 137.09765625 C-31.54059023 137.0742224 -34.2701801 137.041414 -37 137 C-36.41598453 131.53702197 -35.47140441 126.41352599 -34 121.125 C-33.82210937 120.46242188 -33.64421875 119.79984375 -33.4609375 119.1171875 C-32.1476702 114.2953404 -32.1476702 114.2953404 -31 112 C-30.43079834 112.01571045 -29.86159668 112.0314209 -29.27514648 112.04760742 C-26.66270126 112.11048439 -24.0504159 112.14915532 -21.4375 112.1875 C-20.54224609 112.21263672 -19.64699219 112.23777344 -18.72460938 112.26367188 C-11.47685675 112.34331751 -5.99325102 111.25578298 -0.59375 106.078125 C3.29606016 101.0865468 2.7170819 95.82377055 2.5 89.75 C2.47808594 88.46891357 2.45617187 87.18782715 2.43359375 85.86791992 C2.35921808 81.90113123 2.23421557 77.93703725 2.10009766 73.97186279 C1.98775647 70.63649401 1.88235475 67.30093951 1.77734375 63.96533203 C1.44368761 53.46469437 1.10096534 42.96459213 0.71289062 32.46582031 C0.66676636 31.20841537 0.62064209 29.95101044 0.57312012 28.65550232 C0.48568493 26.2912205 0.39638917 23.92700639 0.30480957 21.56288147 C0.26480835 20.48163498 0.22480713 19.40038849 0.18359375 18.28637695 C0.13029907 16.89440849 0.13029907 16.89440849 0.07592773 15.47431946 C-0.03677191 10.3173822 0 5.15816858 0 0 Z " fill="#007AC8" transform="translate(868,1156)"/>
<path d="M0 0 C9.86102937 6.94643941 17.56699338 15.50810585 20.44140625 27.46875 C22.13529857 37.91705778 20.80963708 48.39487927 15.3515625 57.5859375 C7.37925995 68.3763563 -2.51671193 75.67628506 -15.765625 78.359375 C-28.28804485 80.19623207 -41.07870065 78.95607567 -51.83203125 71.76953125 C-63.33770174 63.1840817 -69.73889747 54.4172114 -72.140625 40.046875 C-73.56748026 29.30582566 -69.44575714 18.57212409 -63.140625 10.046875 C-48.25971432 -7.83816318 -19.76522488 -12.29180652 0 0 Z " fill="#00A261" transform="translate(1361.140625,180.953125)"/>
<path d="M0 0 C1.38052431 0.46659386 2.75955255 0.93764833 4.13671875 1.4140625 C5.26464844 1.79820313 6.39257812 2.18234375 7.5546875 2.578125 C33.74721347 12.14409101 67.24424099 28.56264974 81.16796875 54.0625 C82.7699797 57.9512524 82.91421777 60.24384049 82.13671875 64.4140625 C79.60218218 67.63360895 78.0237457 69.11838685 74.13671875 70.4140625 C41.03464892 73.34344921 4.27964852 53.74237123 -20.54589844 33.00878906 C-38.62742077 17.36234475 -38.62742077 17.36234475 -40.21484375 8.4375 C-40.50345053 4.38181523 -40.05422328 2.65022764 -37.48828125 -0.5234375 C-27.89123916 -8.06397057 -10.6978886 -3.42459665 0 0 Z " fill="#007AC8" transform="translate(1493.86328125,14.5859375)"/>
<path d="M0 0 C10.23 0 20.46 0 31 0 C28.75298367 10.11157349 28.75298367 10.11157349 27.3984375 13.58203125 C27.08205322 14.40695068 26.76566895 15.23187012 26.43969727 16.08178711 C25.91267212 17.43348999 25.91267212 17.43348999 25.375 18.8125 C20.9808807 30.31067508 16.75575428 41.86490173 12.5625 53.4375 C5.737075 72.25754214 -1.14902016 91.05483708 -8.06030273 109.84350586 C-8.42721725 110.84106903 -8.79413177 111.8386322 -9.17216492 112.86642456 C-9.85153834 114.71321396 -10.53113317 116.55992193 -11.21101379 118.40652466 C-13.48961113 124.59884712 -15.74504893 130.79888457 -18 137 C-28.23 137 -38.46 137 -49 137 C-47.87511965 129.12583755 -47.87511965 129.12583755 -46.56738281 125.62768555 C-46.27407578 124.83222321 -45.98076874 124.03676086 -45.67857361 123.2171936 C-45.35667557 122.3656369 -45.03477753 121.5140802 -44.703125 120.63671875 C-44.3619313 119.7161972 -44.02073761 118.79567566 -43.66920471 117.84725952 C-42.92607573 115.84433305 -42.17982409 113.842563 -41.43081665 111.84182739 C-39.38672819 106.38143332 -37.36496351 100.91276338 -35.33984375 95.4453125 C-34.91084274 94.28904861 -34.48184174 93.13278473 -34.0398407 91.94148254 C-30.77847051 83.1396839 -27.56644504 74.32090914 -24.37890625 65.4921875 C-24.14599003 64.84726915 -23.91307381 64.20235081 -23.67309952 63.53788948 C-21.60496402 57.81059811 -19.53944449 52.08236813 -17.47741699 46.35287476 C-11.88044593 30.80458538 -6.13730828 15.3432707 0 0 Z " fill="#007AC8" transform="translate(1704,1121)"/>
<path d="M0 0 C7.58368174 7.22750099 12.06453478 14.37192695 12.5 25 C12.12022928 34.26877918 8.75630592 41.2291779 2.42578125 47.953125 C-8.70729975 57.34722233 -21.1409097 58.03150818 -35 57 C-43.66209162 55.25919224 -51.53792577 49.54052542 -56.875 42.5625 C-61.90028616 34.68549435 -62.99780017 27.32774988 -62 18 C-59.66848573 8.51587415 -54.59762384 2.54669113 -46.625 -2.8125 C-32.52249672 -11.23246849 -12.94470663 -10.64342545 0 0 Z " fill="#007AC8" transform="translate(1277,141)"/>
<path d="M0 0 C10.89 0 21.78 0 33 0 C29.62433574 11.2522142 29.62433574 11.2522142 27.84277344 16.17382812 C27.2463504 17.82735291 27.2463504 17.82735291 26.63787842 19.51428223 C26.00501923 21.25518127 26.00501923 21.25518127 25.359375 23.03125 C24.91410461 24.26178101 24.46883423 25.49231201 24.0100708 26.76013184 C23.07046982 29.35602356 22.128975 31.95121773 21.18603516 34.54589844 C19.99835583 37.81436128 18.81498821 41.08436456 17.63292027 44.35486031 C13.02262721 57.10604126 8.37270571 69.83545157 3.39892578 82.45019531 C1.74054048 86.6583842 0.13802884 90.88526564 -1.4375 95.125 C-2.283125 97.39375 -3.12875 99.6625 -4 102 C-14.56 102 -25.12 102 -36 102 C-35.25925464 97.55552782 -34.47773265 94.15125501 -32.97802734 90.00488281 C-32.56024017 88.84216858 -32.142453 87.67945435 -31.71200562 86.48150635 C-31.25348566 85.22198421 -30.79479157 83.96252545 -30.3359375 82.703125 C-29.86050369 81.38732646 -29.38546428 80.07138536 -28.91079712 78.75531006 C-27.91358526 75.99375595 -26.91297233 73.23346744 -25.90966797 70.47412109 C-24.64405978 66.99314588 -23.38474715 63.50993836 -22.12770557 60.02586174 C-17.35473293 46.80039899 -12.53437159 33.60107328 -7.37695312 20.51953125 C-5.67521254 16.16983403 -4.08482927 11.79009898 -2.5625 7.375 C-1.716875 4.94125 -0.87125 2.5075 0 0 Z " fill="#007AC8" transform="translate(1744,1156)"/>
<path d="M0 0 C1.44414528 -0.00642769 1.44414528 -0.00642769 2.91746521 -0.01298523 C4.94179505 -0.01868589 6.96614536 -0.0192606 8.99047852 -0.01489258 C12.02722734 -0.0117512 15.06298172 -0.03518213 18.09960938 -0.06054688 C34.9120579 -0.1151269 53.79288902 0.41654317 68.68359375 9.17578125 C71.05017511 11.95039388 71.5719746 13.65850056 71.49609375 17.30078125 C68.55281594 22.06608818 62.57426098 23.59665056 57.49609375 25.30078125 C53.97514657 26.12372157 50.4600406 26.62548508 46.87109375 27.05078125 C45.87964355 27.17146973 44.88819336 27.2921582 43.86669922 27.41650391 C21.07598564 29.95039831 -13.51661551 32.0361873 -33.359375 18.328125 C-35.50390625 16.30078125 -35.50390625 16.30078125 -36.56640625 13.30078125 C-36.50390625 10.30078125 -36.50390625 10.30078125 -34.81640625 8.24609375 C-32.37657048 6.19366434 -30.4379524 5.22611702 -27.44140625 4.17578125 C-26.58417969 3.86382812 -25.72695312 3.551875 -24.84375 3.23046875 C-16.60063666 0.93589451 -8.53758867 -0.00871404 0 0 Z " fill="#00A261" transform="translate(1322.50390625,-0.30078125)"/>
<path d="M0 0 C1.95710047 1.40644675 3.69899479 2.83120067 5.4296875 4.50390625 C5.97367188 4.99117187 6.51765625 5.4784375 7.078125 5.98046875 C9.39060124 8.58701711 9.31476812 11.11378466 9.4296875 14.50390625 C8.19732608 19.14896083 5.88512481 21.15035713 1.9921875 23.69140625 C-11.85900104 31.2304103 -30.12520042 31.77954777 -45.3828125 28.31640625 C-53.66010093 25.72598847 -62.1682745 22.45487412 -66.5703125 14.50390625 C-67.33303443 10.94453725 -67.29192995 8.95963669 -65.66796875 5.68359375 C-53.68842181 -11.13874877 -15.82501811 -9.21121875 0 0 Z " fill="#007AC8" transform="translate(1417.5703125,44.49609375)"/>
<path d="M0 0 C6.1419695 7.02352277 7.49017241 12.14677855 7.40625 21.47265625 C6.5551901 28.86214752 3.04574625 35.52585299 -2.4375 40.5625 C-9.23596091 45.58358551 -15.66824144 47.05647659 -24 46 C-30.1786362 44.21647615 -34.59675532 40.39642225 -38 35 C-41.19147774 28.1955286 -41.99103302 21.90516122 -39.875 14.625 C-37.11144326 7.09270117 -33.22542633 0.84455072 -26.0625 -3.0625 C-17.02283985 -7.17143643 -7.78951289 -6.72730659 0 0 Z " fill="#00A261" transform="translate(1159,222)"/>
<path d="M0 0 C4.99726013 3.65149888 8.40596344 7.58064083 9.59765625 13.765625 C9.98034327 20.16336702 8.20839392 24.44862359 4.125 29.3125 C1.875 31.5625 1.875 31.5625 -0.875 33.3125 C-1.4421875 33.68375 -2.009375 34.055 -2.59375 34.4375 C-10.55113513 38.84466715 -20.98415939 38.69329343 -29.69140625 36.65234375 C-36.34994946 33.97734639 -42.99348198 29.12481695 -45.9375 22.4375 C-47.68002758 16.5989011 -46.96786294 11.41727308 -44.1875 6.0625 C-32.93642239 -7.31715986 -14.74352779 -9.0181245 0 0 Z " fill="#007AC8" transform="translate(1363.875,104.6875)"/>
<path d="M0 0 C4.80886359 5.34318177 5.4742611 9.64191615 5.40625 16.6640625 C4.42850178 24.69287958 -0.04200926 32.1549325 -6.02734375 37.53515625 C-12.63741967 42.44362847 -19.65872314 45.47744682 -28 45 C-34.04359396 43.21664441 -38.11847109 40.22547813 -41.3125 34.75 C-43.30355635 26.78577462 -41.81535923 20.17919666 -38 13 C-33.19706924 5.285448 -26.84920297 -0.76338698 -18 -3.4375 C-11.66684926 -4.67631991 -5.14086824 -4.11269459 0 0 Z " fill="#007AC8" transform="translate(1177,161)"/>
<path d="M0 0 C3.61432235 2.78871572 5.8183497 6.72871392 6.7890625 11.125 C7.94021637 21.1869375 5.77605097 29.09868877 0.0390625 37.375 C-4.04212729 42.47907027 -9.73242329 47.58249662 -16.2109375 49.125 C-21.23849424 49.66760309 -25.00492878 49.72800436 -29.5859375 47.4375 C-34.10849972 43.45333804 -37.00627099 40.22254892 -37.4140625 34.05078125 C-37.56206294 22.64241395 -35.828707 15.69941963 -28.2109375 7.125 C-20.50842402 -0.41079241 -10.70777336 -4.23770536 0 0 Z " fill="#007AC8" transform="translate(1091.2109375,183.875)"/>
<path d="M0 0 C4.36498978 4.58883541 5.38538629 8.43385598 5.265625 14.6015625 C4.4478682 21.9854254 -0.0438291 26.67421804 -5.609375 31.234375 C-12.37004106 36.22754667 -17.87560674 37.34394839 -26.1875 37.4375 C-26.9602124 37.4478125 -27.7329248 37.458125 -28.52905273 37.46875 C-34.27486521 37.37952354 -38.20590165 36.0639533 -42.8984375 32.59765625 C-46.4314779 28.92441584 -47.4456311 26.11841968 -47.625 21 C-47.15888966 13.02653794 -44.52161047 9.25923045 -38.875 3.8125 C-28.06111759 -5.38019081 -12.17413277 -8.4628498 0 0 Z " fill="#007AC8" transform="translate(1225,241)"/>
<path d="M0 0 C2.7608784 2.61556901 3.86022856 4.17884277 4.5 7.9375 C3.2652174 15.50054345 -3.03284174 20.70364605 -9 25 C-18.54164923 29.9729263 -29.40126828 32.97475394 -40.16015625 30.50390625 C-43.11815032 29.39230338 -44.93838813 28.07123873 -47 25.6875 C-48.28706991 22.22849961 -48.07847194 20.52300832 -47 17 C-41.77724835 7.35799696 -33.05129312 2.67350832 -23 -1 C-15.56785619 -2.35865088 -6.97063305 -3.48531652 0 0 Z " fill="#00A261" transform="translate(1224,92)"/>
<path d="M0 0 C3.68455858 3.15069142 5.81545666 6.57637996 6.4375 11.375 C6.30819482 18.47385413 2.68524881 25.23816655 -2.19140625 30.25390625 C-8.37483779 35.26551997 -13.91121032 37.72221336 -22 37 C-25.73339564 35.68233095 -27.68314341 34.34187159 -30.375 31.4375 C-32.57541582 26.78277423 -32.89182407 23.06129215 -32 18 C-28.95531904 10.39431476 -24.19915895 4.01491557 -17 0 C-11.22981967 -2.37882699 -5.77032327 -2.54993333 0 0 Z " fill="#00A261" transform="translate(1139,131)"/>
<path d="M0 0 C1.2463623 0.01047363 2.49272461 0.02094727 3.77685547 0.03173828 C4.77143265 0.03598312 4.77143265 0.03598312 5.78610229 0.04031372 C7.9055988 0.05151643 10.02467401 0.07662027 12.14404297 0.10205078 C13.58023479 0.11208051 15.01643322 0.12120637 16.45263672 0.12939453 C19.97490925 0.15145578 23.496935 0.18598585 27.01904297 0.22705078 C28.33774088 4.18314453 27.35394554 5.7577487 25.92919922 9.64501953 C25.52064697 10.77447998 25.11209473 11.90394043 24.69116211 13.06762695 C23.89440063 15.21935425 23.89440063 15.21935425 23.08154297 17.41455078 C21.41091797 21.97267578 19.74029297 26.53080078 18.01904297 31.22705078 C7.12904297 31.22705078 -3.76095703 31.22705078 -14.98095703 31.22705078 C-12.94376 24.43639402 -10.86051522 17.85474419 -8.41845703 11.22705078 C-8.11488281 10.38271484 -7.81130859 9.53837891 -7.49853516 8.66845703 C-7.20269531 7.86279297 -6.90685547 7.05712891 -6.60205078 6.22705078 C-6.33835693 5.50517578 -6.07466309 4.78330078 -5.80297852 4.03955078 C-4.37232673 0.88506345 -3.47055979 0.26434239 0 0 Z " fill="#007AC8" transform="translate(1761.98095703125,1118.77294921875)"/>
<path d="M0 0 C0.66 0.33 1.32 0.66 2 1 C-1.02299093 4.88670262 -3.45945591 7.84921596 -8 10 C-8.99 10 -9.98 10 -11 10 C-11 9.34 -11 8.68 -11 8 C-10.01 8 -9.02 8 -8 8 C-8 7.34 -8 6.68 -8 6 C-6.25 4.4921875 -6.25 4.4921875 -4 2.875 C-3.2575 2.33617187 -2.515 1.79734375 -1.75 1.2421875 C-1.1725 0.83226562 -0.595 0.42234375 0 0 Z " fill="#007FB9" transform="translate(1507,643)"/>
</svg>
