<?xml version="1.0" encoding="UTF-8"?>
<svg version="1.1" xmlns="http://www.w3.org/2000/svg" width="2000" height="703">
<path d="M0 0 C1.16007647 0.01244421 1.16007647 0.01244421 2.34358883 0.02513981 C3.22844967 0.0321793 4.11331051 0.03921879 5.02498531 0.0464716 C6.00321758 0.05941761 6.98144985 0.07236362 7.98932552 0.08570194 C9.01359646 0.09530949 10.03786739 0.10491703 11.09317684 0.11481571 C14.4966965 0.14793647 17.90009296 0.1882187 21.30353451 0.22852421 C23.65622675 0.25281256 26.00892363 0.27665674 28.36162472 0.30007267 C34.56773789 0.36304152 40.77376966 0.43207168 46.97980404 0.50232792 C53.30707738 0.57289606 59.63440864 0.63778185 65.96173763 0.70313358 C78.38693149 0.83231081 90.81204681 0.96788597 103.23712826 1.10743046 C104.84550799 4.80333545 105.78106139 8.31802574 106.51511288 12.27762699 C106.7492099 13.52628575 106.98330692 14.77494452 107.2244978 16.06144142 C107.47830927 17.44410492 107.73202781 18.82678547 107.98566341 20.20948124 C108.25938596 21.68028494 108.53356773 23.15100324 108.80816936 24.62164307 C109.56096375 28.6604216 110.30734691 32.70036261 111.0527482 36.74051118 C111.85626409 41.08907241 112.66587649 45.43649855 113.47482967 49.78405094 C114.87459247 57.31110226 116.2707676 64.83881163 117.66449642 72.36698246 C119.87479151 84.30540157 122.09185574 96.2425579 124.31037045 108.17945194 C124.68783128 110.21052585 125.06529048 112.24160005 125.44274807 114.27267456 C126.01372718 117.34507096 126.58471325 120.41746607 127.15573263 123.48985499 C128.31664739 129.73645333 129.47696798 135.98316172 130.63684797 142.22995228 C135.91549506 170.65859852 141.21900404 199.08248979 146.54809237 227.50172329 C147.08814192 230.38184724 147.62807932 233.2619922 148.16797924 236.1421442 C151.26364244 252.65615174 154.35989535 269.17004839 157.46155453 285.68293095 C164.14198716 321.25114443 170.77668703 356.82668913 177.22167397 392.43843246 C177.65605527 394.83724435 178.09130806 397.23589673 178.5267477 399.63451672 C179.20083386 403.34932575 179.87203947 407.06464345 180.54080009 410.78041482 C180.78578036 412.13966325 181.03160323 413.49876013 181.27832031 414.85769439 C181.61399411 416.70806082 181.94601737 418.55908841 182.27783871 420.41014957 C182.46429329 421.44446834 182.65074787 422.4787871 182.84285259 423.54444885 C183.23712826 426.10743046 183.23712826 426.10743046 183.23712826 429.10743046 C177.54140554 430.51372441 172.01310191 431.4735423 166.13947201 431.72461796 C164.94788731 431.78091877 164.94788731 431.78091877 163.73223019 431.83835697 C151.82905836 432.32864209 139.90924345 432.25723252 127.99811459 432.23780155 C124.52643162 432.23215506 121.05482628 432.23545359 117.5831461 432.24125385 C99.44517936 432.2667122 81.35988237 431.90003079 63.23712826 431.10743046 C62.96469296 429.89177906 62.69225765 428.67612766 62.41156673 427.42363834 C59.29359231 413.51079001 56.17547694 399.59797326 53.05727458 385.68517601 C52.32515125 382.41858658 51.59303205 379.15199622 50.86092281 375.88540363 C44.03587145 345.43277133 37.20955648 314.98042387 30.37775326 284.52930546 C29.8294937 282.08548348 29.28123523 279.64166125 28.73297787 277.19783878 C26.64385741 267.88586079 24.55473608 258.57388302 22.46491146 249.26206303 C12.0838435 203.00615667 12.0838435 203.00615667 7.23712826 181.10743046 C4.25574315 186.90950722 1.62256319 192.77642522 -0.86052799 198.80664921 C-1.24683887 199.73769978 -1.63314976 200.66875034 -2.03116703 201.62801456 C-2.86334436 203.6341654 -3.69428435 205.64082986 -4.52410221 207.6479578 C-6.76531353 213.06807299 -9.01629994 218.48412654 -11.26677799 223.90039921 C-11.72730564 225.00926487 -12.18783329 226.11813053 -12.66231632 227.26059818 C-17.15177722 238.06158017 -21.7019457 248.83647801 -26.26287174 259.60743046 C-32.81455118 275.08613743 -39.30937656 290.58753717 -45.76287174 306.10743046 C-52.59782486 322.54468502 -59.48362142 338.95931825 -66.42501163 355.35190678 C-71.07102903 366.32514908 -75.68845943 377.30952588 -80.25896549 388.31446171 C-80.71538425 389.4129343 -81.17180302 390.5114069 -81.64205265 391.64316654 C-83.854432 396.96939632 -86.06321527 402.29707842 -88.26677799 407.62696171 C-89.06617179 409.55408045 -89.86564677 411.48116553 -90.66521549 413.40821171 C-91.02167652 414.27388264 -91.37813755 415.13955357 -91.74540043 416.03145695 C-93.88321326 421.17500932 -96.2168568 426.15262803 -98.76287174 431.10743046 C-99.42287174 431.10743046 -100.08287174 431.10743046 -100.76287174 431.10743046 C-108.30897997 415.11421031 -115.7980609 399.09994478 -123.07537174 382.98243046 C-129.31232082 369.17409209 -135.76336672 355.47371087 -142.27068424 341.79102421 C-148.04296856 329.65125533 -153.70744948 317.46614719 -159.31658268 305.25000858 C-161.93025596 299.57087244 -164.56597452 293.90197545 -167.20037174 288.23243046 C-167.74451725 287.06091434 -168.28866276 285.88939823 -168.84929752 284.68238163 C-171.00274623 280.04656486 -173.15682532 275.41104166 -175.31169987 270.77588749 C-184.45631343 251.10562516 -193.55216394 231.41309009 -202.63738346 211.71534061 C-205.41103163 205.70192319 -208.18625724 199.68923418 -210.96163273 193.67661381 C-212.89549112 189.48693774 -214.82916442 185.29717625 -216.76287174 181.10743046 C-223.53723092 208.79242898 -230.17281878 236.50986314 -236.78408146 264.23420048 C-245.8254137 302.14599588 -254.88995094 340.05218372 -264.02741337 377.94093418 C-264.69486295 380.70957944 -265.36160073 383.47839518 -266.02813053 386.247262 C-267.06754981 390.56468591 -268.10886586 394.8816479 -269.151721 399.19824314 C-269.52593763 400.74823582 -269.89959485 402.29836371 -270.27259731 403.84864902 C-272.62958077 413.64154575 -275.12364398 423.38644606 -277.76287174 433.10743046 C-293.87659863 433.2168026 -309.96762248 433.13226237 -326.07537174 432.66993046 C-327.14242847 432.64045826 -327.14242847 432.64045826 -328.23104191 432.61039066 C-338.75583829 432.31448108 -349.25534169 431.77495224 -359.76287174 431.10743046 C-359.16357722 422.28479667 -357.42669338 413.70627832 -355.67693424 405.05664921 C-355.34915692 403.42053745 -355.02159851 401.78438183 -354.69423771 400.14818668 C-353.79159297 395.64778376 -352.88088911 391.14904778 -351.96755314 386.65080357 C-351.38309738 383.77140896 -350.80030751 380.89168069 -350.21770573 378.01191044 C-342.86115113 341.68902476 -335.10776688 305.45233494 -327.26287174 269.23243046 C-327.11765646 268.56195777 -326.97244118 267.89148508 -326.82282543 267.20069504 C-321.38256753 242.08544485 -315.91452768 216.97624697 -310.44155884 191.86810684 C-308.33834728 182.21914586 -306.23672604 172.56984022 -304.13787174 162.91993046 C-303.87213667 161.69845247 -303.87213667 161.69845247 -303.60103321 160.45229816 C-297.97791049 134.59860394 -292.49735337 108.71670034 -287.12310886 82.8101244 C-286.59017874 80.24130294 -286.05663948 77.67260854 -285.52306461 75.10392094 C-284.52257421 70.28421763 -283.52616805 65.46368095 -282.53240299 60.64258671 C-282.29521675 59.49303973 -282.29521675 59.49303973 -282.05323887 58.32026958 C-280.23744405 49.50540806 -278.47627714 40.68223712 -276.79168034 31.84131718 C-276.55129111 30.58419564 -276.55129111 30.58419564 -276.30604553 29.3016777 C-275.53777338 25.28054288 -274.77692799 21.25827198 -274.02967167 17.23317814 C-273.75827369 15.80116256 -273.48665429 14.36918892 -273.21477604 12.93726444 C-272.98171253 11.68702991 -272.74864902 10.43679539 -272.50852299 9.14867496 C-271.76287174 6.10743046 -271.76287174 6.10743046 -269.76287174 3.10743046 C-267.67124271 2.58524418 -267.67124271 2.58524418 -265.02141666 2.38135624 C-264.00985004 2.30126316 -262.99828342 2.22117008 -261.95606327 2.13864994 C-260.83398975 2.06905064 -259.71191624 1.99945133 -258.55584049 1.92774296 C-256.77828625 1.8077544 -256.77828625 1.8077544 -254.96482182 1.68534184 C-238.86106852 0.72115589 -222.73068954 0.88285871 -206.60534 0.97010136 C-202.31998083 0.99098487 -198.03459583 0.99978352 -193.74919987 1.00977421 C-185.42035605 1.03088481 -177.09163303 1.06477219 -168.76287174 1.10743046 C-161.67263578 18.17281302 -154.64213657 35.25950793 -147.74071598 52.40232182 C-145.9384584 56.87898098 -144.13318584 61.35442264 -142.32811832 65.82994938 C-141.41843415 68.08547833 -140.50888635 70.34106229 -139.59948063 72.59670353 C-135.70690169 82.25069935 -131.80107532 91.899279 -127.88787174 101.54493046 C-127.59006809 102.27908176 -127.29226444 103.01323307 -126.98543644 103.76963139 C-125.80054914 106.69059602 -124.61557943 109.61152717 -123.43039799 112.53237247 C-120.9538523 118.63581136 -118.47941302 124.74010268 -116.00554752 130.84462833 C-114.42980303 134.73284302 -112.85369043 138.62090739 -111.27654362 142.5085535 C-110.66260235 144.0219776 -110.04867002 145.53540532 -109.43474674 147.04883671 C-109.13278385 147.79322498 -108.83082096 148.53761326 -108.51970768 149.30455875 C-106.64501229 153.92755484 -104.77466335 158.55228538 -102.90737247 163.17827702 C-101.69124807 166.19024189 -100.47321202 169.20143157 -99.25487614 172.21250248 C-98.6806745 173.63305024 -98.10737914 175.05396468 -97.5350275 176.47525883 C-96.75128265 178.42129098 -95.96447545 180.36605722 -95.17693424 182.31055546 C-94.51105289 183.96039433 -94.51105289 183.96039433 -93.8317194 185.64356327 C-92.985583 188.00714805 -92.985583 188.00714805 -91.76287174 189.10743046 C-83.7419817 176.90856149 -77.0356017 164.25159598 -70.57537174 151.16993046 C-70.07464146 150.16231663 -69.57391117 149.1547028 -69.05800724 148.11655521 C-61.17060444 132.24328036 -53.6190326 116.24891871 -46.42051029 100.05303288 C-44.28011595 95.24319704 -42.09628571 90.45459881 -39.89177799 85.67383671 C-32.69173202 70.05217523 -25.63168613 54.37789784 -18.76287174 38.60743046 C-18.24469883 37.41848179 -18.24469883 37.41848179 -17.71605778 36.20551395 C-14.61150414 29.07472779 -11.52337277 21.93806287 -8.52068424 14.76368046 C-7.96973087 13.44756779 -7.96973087 13.44756779 -7.40764713 12.10486698 C-6.6986569 10.40740074 -5.99202436 8.70894739 -5.28801823 7.009408 C-2.42590196 0.14783592 -2.42590196 0.14783592 0 0 Z " fill="#2E328E" transform="translate(1035.7628717422485,254.89256954193115)"/>
<path d="M0 0 C1.4587374 0.00138269 1.4587374 0.00138269 2.94694424 0.00279331 C4.05898724 0.00141865 5.17103024 0.00004398 6.31677151 -0.00137234 C7.54747372 0.00222294 8.77817593 0.00581821 10.04617214 0.00952244 C11.33378948 0.00937641 12.62140682 0.00923038 13.94804287 0.00907993 C17.48920685 0.00879197 21.03033724 0.01468847 24.57149339 0.02165389 C28.26840913 0.02788766 31.96532556 0.02849125 35.66224575 0.0296793 C42.66749824 0.03279255 49.6727352 0.04100584 56.67798084 0.05102879 C64.65124801 0.06219013 72.6245159 0.06770043 80.59778893 0.07272422 C97.00368814 0.08318846 113.40957172 0.10078778 129.81545925 0.12304783 C129.09085715 4.22023314 127.95721073 6.87349987 125.67483425 10.37695408 C124.69704006 11.89059544 124.69704006 11.89059544 123.69949245 13.43481541 C122.9952615 14.50755711 122.29103054 15.58029881 121.56545925 16.68554783 C120.83453243 17.81098727 120.10431569 18.93688816 119.37478542 20.06323338 C117.8970069 22.34193085 116.41479814 24.61763845 114.92825222 26.89062595 C113.05218675 29.76087172 111.18353574 32.63569372 109.3193655 35.51367283 C106.68620822 39.57673552 104.04519055 43.63460128 101.40090847 47.69043064 C98.66065879 51.89490366 95.92559173 56.10274481 93.19045925 60.31054783 C92.6488113 61.14368504 92.10716335 61.97682224 91.54910183 62.83520603 C88.13140396 68.09363952 84.72068851 73.35653291 81.31545925 78.62304783 C58.64477603 113.68237482 35.77772001 148.61554451 12.84866238 183.50634861 C10.73680854 186.72009568 8.62632947 189.93474084 6.51663113 193.1499033 C-8.41576748 215.90357292 -23.45860443 238.57585084 -38.73141575 261.10278416 C-44.33395894 269.37150333 -49.91479128 277.63637006 -55.18454075 286.12304783 C-54.72829319 286.80480076 -54.27204563 287.48655369 -53.80197239 288.1889658 C-42.49110656 305.09953556 -31.28963749 322.07638781 -20.18454075 339.12304783 C-18.91774064 341.06583896 -17.65081682 343.00854943 -16.3837595 344.95117283 C-14.53678041 347.78298069 -12.68988855 350.61484494 -10.8434763 353.44702244 C-4.01982295 363.91295237 2.81932436 374.36874272 9.65823269 384.82470798 C13.21121187 390.25711503 16.76329425 395.69010838 20.31545925 401.12304783 C21.73212153 403.28971736 23.1487882 405.45638403 24.56545925 407.62304783 C27.39879258 411.95638116 30.23212592 416.2897145 33.06545925 420.62304783 C33.76703152 421.69603123 34.46860378 422.76901463 35.19143581 423.87451267 C36.60488237 426.03627358 38.01829396 428.19805735 39.43167019 430.35986423 C42.65565977 435.29097785 45.87992366 440.22191093 49.10555935 445.15194798 C57.49408892 457.97293917 65.86868182 470.80268006 74.21096706 483.65380955 C75.93887785 486.31298327 77.6698778 488.97012853 79.40139675 491.62695408 C79.9933987 492.53590427 80.58540066 493.44485447 81.19534206 494.38134861 C82.32681649 496.11844995 83.45893823 497.8551299 84.59182644 499.59130955 C91.81545925 510.68719335 91.81545925 510.68719335 91.81545925 513.12304783 C74.90804595 513.31027887 58.00095807 513.45117252 41.09274387 513.5375452 C33.24117319 513.57872327 25.39024818 513.63482002 17.53909206 513.72656345 C10.69261057 513.8065285 3.84659686 513.85796672 -3.00033867 513.87575579 C-6.62300665 513.88614819 -10.24433693 513.91040988 -13.86657429 513.96888828 C-17.91960746 514.03378532 -21.97034461 514.03495287 -26.02389622 514.03125095 C-27.21289021 514.06001316 -28.40188419 514.08877537 -29.6269083 514.11840916 C-37.23937988 514.04339421 -41.37942773 512.3746846 -47.09465313 507.32367802 C-50.80009284 503.42188807 -53.65454291 499.11160288 -56.49704075 494.56054783 C-57.89117084 492.40189478 -59.28709275 490.24439819 -60.68454075 488.08789158 C-61.0472356 487.52343327 -61.40993046 486.95897495 -61.78361607 486.37741184 C-65.65596204 480.35486876 -69.67651794 474.43586485 -73.70672703 468.51828098 C-75.91317629 465.27741349 -78.11311689 462.03213406 -80.313447 458.78711033 C-81.0032037 457.77024395 -81.0032037 457.77024395 -81.70689487 456.73283482 C-85.55057345 451.06406789 -89.38255864 445.38745505 -93.2118845 439.70898533 C-93.81124317 438.82031773 -94.41060184 437.93165012 -95.0281229 437.0160532 C-97.40823777 433.48678284 -99.78821907 429.95742392 -102.16662693 426.42700291 C-108.77700604 416.61492437 -115.41655376 406.82730663 -122.18454075 397.12304783 C-126.86090817 396.89092843 -130.9828019 396.85662224 -135.18454075 399.12304783 C-140.15258649 403.77895784 -143.70824106 409.81411646 -147.41842747 415.47412205 C-150.19225414 419.63447861 -153.19111894 423.6194141 -156.18454075 427.62304783 C-157.35242439 429.20548372 -158.51908887 430.78882011 -159.68454075 432.37304783 C-180.68454075 460.87304783 -180.68454075 460.87304783 -182.43527317 463.24902439 C-183.59952065 464.82908615 -184.76374598 466.40916422 -185.92794895 467.98925877 C-188.88144594 471.99778274 -191.83535186 476.00600427 -194.7900095 480.01367283 C-195.39006809 480.8277158 -195.99012669 481.64175877 -196.60836887 482.4804697 C-197.72280276 483.99229863 -198.8373687 485.50403023 -199.95211887 487.01562595 C-200.47612278 487.72654392 -201.00012669 488.43746189 -201.5400095 489.16992283 C-202.3714397 490.22369366 -202.3714397 490.22369366 -203.21966648 491.29875278 C-204.77582418 493.53556181 -205.8002743 495.39354696 -206.90149021 497.83650303 C-209.23219117 502.47031361 -211.76601291 506.27175849 -216.18454075 509.12304783 C-225.00888044 511.74022388 -234.6357813 510.92048533 -243.75258517 510.6439569 C-247.39430368 510.54953782 -251.03624822 510.54132703 -254.67900181 510.52357578 C-261.56169215 510.47713574 -268.44076572 510.35431907 -275.32187015 510.20333344 C-283.16184938 510.03508032 -291.00201082 509.95305512 -298.84334886 509.87790191 C-314.95918965 509.72153067 -331.07140225 509.45807781 -347.18454075 509.12304783 C-345.77985996 505.48346089 -344.23211338 502.50127239 -341.98141575 499.30664158 C-341.01631077 497.92859348 -341.01631077 497.92859348 -340.03170872 496.52270603 C-339.33964329 495.54519382 -338.64757786 494.56768162 -337.93454075 493.56054783 C-337.21798313 492.53985203 -336.50142551 491.51915623 -335.76315403 490.46753025 C-334.2855264 488.36332195 -332.80586093 486.26054325 -331.32418919 484.15918064 C-328.79628151 480.57211311 -326.28121281 476.97620629 -323.76754856 473.37915134 C-322.05151748 470.92406914 -320.33324747 468.47056978 -318.61422825 466.01757908 C-315.72097094 461.88895206 -312.82932862 457.75919798 -309.938447 453.6289072 C-308.18992343 451.13073823 -306.44113878 448.63275217 -304.69235325 446.13476658 C-302.33205951 442.76301251 -299.97279165 439.39054373 -297.61422825 436.01757908 C-291.66759946 427.51494317 -285.70775173 419.02214077 -279.71872044 410.54931736 C-274.10868666 402.60824975 -268.5384384 394.63939463 -262.96676731 386.67138767 C-260.04077342 382.48761723 -257.11255764 378.30540259 -254.18454075 374.12304783 C-253.01786316 372.45638881 -251.85119649 370.78972214 -250.68454075 369.12304783 C-240.18454075 354.12304783 -240.18454075 354.12304783 -229.68454075 339.12304783 C-229.10655735 338.29732273 -228.52857395 337.47159763 -227.9330759 336.62085056 C-226.77142324 334.96141627 -225.60964029 333.30207317 -224.44772434 331.64282322 C-221.453245 327.36625625 -218.46134275 323.08792047 -215.47360325 318.80664158 C-214.86371555 317.93451023 -214.25382786 317.06237888 -213.62545872 316.16381931 C-212.42948298 314.44928727 -211.23827095 312.7314209 -210.05221653 311.01001072 C-207.61624138 307.49141891 -205.19424321 304.04483303 -202.38766575 300.81054783 C-198.40240568 296.32495775 -198.40240568 296.32495775 -197.2118845 290.68945408 C-198.1741449 287.54415517 -199.55204542 284.98422885 -201.18454075 282.12304783 C-201.93597941 280.7416117 -202.68727022 279.36009513 -203.438447 277.97851658 C-214.75268895 257.60154721 -227.92898108 238.26848674 -241.18454075 219.12304783 C-241.84244602 218.17252537 -242.5003513 217.22200291 -243.17819309 216.24267673 C-247.19059303 210.45173417 -251.21618099 204.67010404 -255.24997044 198.89404392 C-257.11829356 196.21793748 -258.98368979 193.53981229 -260.84860325 190.86132908 C-267.99153456 180.61448373 -275.23709151 170.44835796 -282.57565403 160.34082127 C-285.28497291 156.60615469 -287.98413396 152.86416045 -290.68454075 149.12304783 C-291.76915827 147.62173282 -292.85379368 146.12043073 -293.938447 144.61914158 C-296.09459373 141.63395675 -298.24801579 138.64683395 -300.3993845 135.65820408 C-307.65761937 125.58080955 -314.99346896 115.56344362 -322.37448215 105.57568455 C-324.26649374 103.01200119 -326.15380275 100.44491086 -328.0400095 97.87695408 C-328.67108616 97.01835789 -329.30216282 96.1597617 -329.95236301 95.27514744 C-331.15802309 93.63458119 -332.36297993 91.99349781 -333.56710911 90.35180759 C-334.11375217 89.6085825 -334.66039524 88.8653574 -335.22360325 88.09961033 C-335.98785618 87.05982029 -335.98785618 87.05982029 -336.76754856 85.99902439 C-337.98808434 84.38313932 -339.27949225 82.82123253 -340.58297825 81.27148533 C-342.18454075 79.12304783 -342.18454075 79.12304783 -342.18454075 76.12304783 C-338.27438827 76.10980895 -334.36423192 76.09869453 -330.454072 76.08789158 C-328.5692033 76.08195484 -328.5692033 76.08195484 -326.64625645 76.07589817 C-319.48546036 76.05636562 -312.3256844 76.06457944 -305.1650095 76.1120615 C-302.08428744 76.13031825 -299.00355962 76.14671661 -295.922822 76.16211033 C-295.13601677 76.16633566 -294.34921154 76.17056099 -293.53856373 76.17491436 C-283.40353241 76.22068578 -273.29612556 76.07399275 -263.16822052 75.68551254 C-256.21611632 75.41917021 -249.26522345 75.23983852 -242.30912209 75.11685753 C-238.09624021 75.03665148 -233.89762362 74.90690768 -229.69104099 74.65866184 C-204.52249964 73.21310077 -204.52249964 73.21310077 -197.54311848 78.32535648 C-190.81999318 84.53733428 -186.62018629 92.8067795 -182.71923923 100.96061802 C-180.76988896 104.97748743 -178.45216337 108.65397578 -175.99704075 112.37304783 C-175.23798652 113.59592943 -174.48232003 114.8209262 -173.73141575 116.04882908 C-168.63401692 124.26848897 -163.25548662 132.31397294 -157.95944309 140.40625095 C-155.48093583 144.20003759 -153.01846437 148.00405015 -150.55954075 151.81054783 C-149.69105843 153.15300045 -148.82256878 154.49544832 -147.954072 155.83789158 C-146.4735562 158.12724281 -144.99472154 160.41764858 -143.51803684 162.70947361 C-141.76342539 165.43221372 -140.00540568 168.15273066 -138.24704075 170.87304783 C-137.70289524 171.71955906 -137.15874973 172.56607029 -136.59811497 173.43823338 C-136.08136204 174.2365659 -135.56460911 175.03489841 -135.032197 175.85742283 C-134.57852757 176.56092869 -134.12485813 177.26443455 -133.65744114 177.98925877 C-131.94742952 180.46655058 -130.08681936 182.79127176 -128.18454075 185.12304783 C-116.97524009 168.64709301 -105.7789229 152.16238452 -94.59176731 135.67138767 C-90.22838627 129.23943262 -85.86389493 122.80823088 -81.49960423 116.37689304 C-80.31384692 114.62952229 -79.1280971 112.88214646 -77.94235325 111.13476658 C-77.55088108 110.55787083 -77.15940891 109.98097507 -76.75607395 109.38659763 C-74.36071266 105.85657856 -71.96561385 102.32638154 -69.57071018 98.79605198 C-60.92177603 86.04667333 -52.26801252 73.30062781 -43.6025095 60.56250095 C-38.65393033 53.28707589 -33.71235271 46.00693166 -28.7733469 38.72500706 C-22.37440819 29.29134263 -15.97295056 19.85938136 -9.55954075 10.43554783 C-8.60893772 9.0362302 -8.60893772 9.0362302 -7.63913059 7.60864353 C-7.06372532 6.76390476 -6.48832005 5.91916599 -5.89547825 5.04882908 C-5.39322727 4.3105991 -4.8909763 3.57236912 -4.37350559 2.81176853 C-2.49269907 0.14040535 -2.49269907 0.14040535 0 0 Z " fill="#2E328E" transform="translate(1870.1845407485962,174.87695217132568)"/>
<path d="M0 0 C7.65332862 -0.17453538 15.30572231 -0.31690301 22.96063519 -0.39955044 C26.55933781 -0.43906173 30.15663542 -0.49214251 33.75454712 -0.57839966 C37.85168491 -0.67556839 41.94696124 -0.70703193 46.04516602 -0.73388672 C47.90591766 -0.79104858 47.90591766 -0.79104858 49.80426025 -0.84936523 C58.15365917 -0.83078489 58.15365917 -0.83078489 61.62399292 1.74319458 C63.42451848 3.77122456 64.89634249 5.81853892 66.38500977 8.08251953 C67.06441053 8.8348694 67.7438113 9.58721928 68.44379997 10.36236763 C70.6926374 13.51358777 70.88806879 14.99225717 70.89726257 18.81452942 C70.90972802 19.9634882 70.92219347 21.11244698 70.93503666 22.29622269 C70.92843745 23.55190426 70.92183825 24.80758583 70.91503906 26.10131836 C70.92216711 27.44969555 70.93105567 28.79806439 70.94155788 30.14641953 C70.96531746 33.83445238 70.96449002 37.52213051 70.9596715 41.21022153 C70.95892225 45.14997104 70.98131147 49.08959184 71.00119019 53.02928162 C71.03231028 59.79015724 71.04955441 66.55094821 71.05715942 73.31188965 C71.06930069 83.9194468 71.1084675 94.52681032 71.15234375 105.13427734 C71.16679311 108.69662416 71.18105745 112.25897168 71.19523621 115.82131958 C71.2005286 117.14442247 71.2005286 117.14442247 71.20592791 118.49425471 C71.23060829 124.75632375 71.25138406 131.01839866 71.27046204 137.28048706 C71.33648631 158.6410866 71.45344995 180.00012309 71.65844727 201.35986328 C71.67655299 203.25515998 71.67655299 203.25515998 71.69502449 205.1887455 C71.78649689 214.67614751 71.88346306 224.16349035 71.9819603 233.65082169 C72.1096608 245.97043508 72.22947661 258.28997089 72.31441975 270.60996342 C72.35322042 276.17390644 72.40074466 281.73762218 72.45965576 287.3013916 C72.52498622 293.54534468 72.57127383 299.789215 72.60618401 306.03340912 C72.62253085 308.42307358 72.64499247 310.8127057 72.67419624 313.20224762 C72.8884518 331.2179903 71.37667022 346.29403394 64.38500977 363.08251953 C63.71441503 364.8748422 63.04890604 366.66907731 62.38891602 368.46533203 C56.89723409 382.90672854 49.16191287 394.97431922 38.38500977 406.08251953 C37.7855957 406.75541016 37.18618164 407.42830078 36.56860352 408.12158203 C10.66856363 436.20326675 -33.5390362 443.08831364 -69.70703125 444.6237793 C-119.33203772 446.50181669 -177.95613991 442.15066113 -216.98999023 407.52001953 C-218.54066218 406.0502962 -220.08293799 404.57164211 -221.61499023 403.08251953 C-222.64172852 402.14859375 -222.64172852 402.14859375 -223.68920898 401.19580078 C-239.78215965 386.11458768 -250.90458406 362.3720687 -251.71865416 340.26774907 C-251.77365326 336.73140129 -251.79647287 333.1960885 -251.80926514 329.65933228 C-251.81758451 328.28614423 -251.82629898 326.91295852 -251.83537316 325.53977525 C-251.85890835 321.77625698 -251.87620743 318.01273253 -251.89230537 314.24917603 C-251.90688238 311.01882644 -251.92504095 307.78850063 -251.94313678 304.55816914 C-252.11382479 273.94592243 -252.19870085 243.33310917 -252.26705551 212.72048378 C-252.27610357 208.73894844 -252.28531332 204.75741351 -252.29467773 200.77587891 C-252.29699765 199.78632349 -252.29931756 198.79676808 -252.30170777 197.77722614 C-252.34050543 181.73682123 -252.4210742 165.69689403 -252.5178065 149.65674527 C-252.61633554 133.18204265 -252.67322828 116.70758833 -252.69063401 100.23259771 C-252.70153779 90.98480052 -252.73128268 81.73787738 -252.80858612 72.49037552 C-252.8743791 64.61764489 -252.90302618 56.74589911 -252.88301858 48.87289907 C-252.87398941 44.85683104 -252.88274423 40.84289343 -252.93970871 36.82717323 C-252.99150589 33.14718088 -252.99208447 29.470789 -252.95266536 25.79067604 C-252.94482521 23.83600649 -252.99109363 21.88134851 -253.03954673 19.92726386 C-252.93867429 14.67013727 -252.71229381 11.39518154 -249.27054709 7.27795249 C-242.70738221 1.64965282 -237.84746159 -0.21987887 -229.26855469 0.06079102 C-227.65680611 0.05881966 -227.65680611 0.05881966 -226.01249695 0.05680847 C-222.49935984 0.06302458 -218.99064734 0.13275972 -215.47827148 0.20361328 C-213.02778978 0.22041886 -210.57727763 0.23322081 -208.12675476 0.24220276 C-201.70625948 0.27641239 -195.28762405 0.36468733 -188.86785889 0.46453857 C-181.14962444 0.57321242 -173.43076479 0.61419027 -165.71198273 0.66661835 C-154.01232297 0.75361334 -142.31379093 0.91889839 -130.61499023 1.08251953 C-129.93127269 41.34753699 -129.44929338 81.60753195 -129.2413901 121.87799 C-129.19232439 131.3762535 -129.1357231 140.87445944 -129.07662964 150.37266541 C-129.06719715 151.89470084 -129.05776886 153.4167363 -129.04834473 154.93877178 C-129.03410248 157.238017 -129.01985569 159.5372622 -129.00559143 161.83650728 C-128.95285605 170.34127659 -128.90090042 178.84605046 -128.84985352 187.35083008 C-128.84291032 188.50698914 -128.84291032 188.50698914 -128.83582686 189.68650495 C-128.76015127 202.33442247 -128.69322493 214.98237485 -128.6287023 227.63035352 C-128.56147475 240.75765523 -128.48303734 253.884858 -128.39465129 267.01203436 C-128.3409611 275.04382546 -128.29615515 283.07556285 -128.26319526 291.10746627 C-128.23723807 297.2174586 -128.19590493 303.32725831 -128.14882278 309.43712234 C-128.13201737 311.9344449 -128.12024183 314.4318072 -128.11389923 316.92917824 C-128.10450437 320.33841727 -128.07695896 323.74705217 -128.04495239 327.15614319 C-128.04659114 328.1393547 -128.04822989 329.12256621 -128.04991829 330.13557202 C-127.92841351 339.21860197 -126.0335583 346.61708598 -119.68530273 353.29736328 C-110.24720127 361.43549983 -97.23404339 363.68393329 -85.13452148 363.36376953 C-73.64698558 362.44578664 -63.33632732 359.31131101 -55.17749023 350.83251953 C-48.62263821 342.04373948 -49.17579897 331.38560357 -49.19848633 320.91455078 C-49.19106734 319.28511086 -49.18233608 317.65567647 -49.17241001 316.02624989 C-49.14902028 311.58401077 -49.14385079 307.14191269 -49.14172244 302.69961953 C-49.13612655 297.93615264 -49.11319119 293.17276691 -49.09217834 288.40934753 C-49.05830636 280.22874867 -49.03470834 272.04817499 -49.01828003 263.86752319 C-48.99239341 251.06453202 -48.94626492 238.26165786 -48.89648438 225.45874023 C-48.87991645 221.14405862 -48.86347745 216.82937652 -48.84709167 212.51469421 C-48.84301058 211.44394034 -48.83892949 210.37318646 -48.83472472 209.2699855 C-48.80593927 201.6488541 -48.7800299 194.02771605 -48.75532532 186.40657043 C-48.66445046 158.62498672 -48.52967747 130.84405938 -48.33764648 103.06298828 C-48.32866207 101.76268165 -48.32866207 101.76268165 -48.31949615 100.4361062 C-48.25014067 90.43425426 -48.17813985 80.43242244 -48.10475373 70.43059933 C-48.04677681 62.51945975 -47.99089248 54.60830584 -47.93523753 46.69714963 C-47.83059178 31.82559082 -47.72383246 16.95404829 -47.61499023 2.08251953 C-45.73919405 1.92128877 -43.86327385 1.76150041 -41.98730469 1.60229492 C-40.42034599 1.46858238 -40.42034599 1.46858238 -38.82173157 1.33216858 C-28.14583521 0.50103595 -17.42866685 0.35347066 -6.72607422 0.14550781 C-4.48398439 0.10011354 -2.24196528 0.05117743 0 0 Z " fill="#2E328E" transform="translate(600.614990234375,245.91748046875)"/>
<path d="M0 0 C1.71070211 0.02979586 3.42130841 0.06538692 5.13180542 0.10525513 C6.06370697 0.12300995 6.99560852 0.14076477 7.95574951 0.15905762 C11.05996901 0.21956624 14.16397724 0.28751112 17.26803589 0.35574341 C19.4278494 0.3999631 21.58767011 0.44383235 23.74749756 0.48736572 C28.29234067 0.58008665 32.83709122 0.67634344 37.38180542 0.775177 C43.17016876 0.90088378 48.95865323 1.01913703 54.74722481 1.13480949 C59.21892944 1.22482043 63.69055599 1.31831896 68.1621666 1.41287613 C70.29330407 1.45764256 72.424461 1.50149366 74.55563736 1.54436874 C77.56288187 1.60551266 80.5699953 1.67122579 83.57711792 1.73806763 C84.43799011 1.75474487 85.2988623 1.77142212 86.18582153 1.78860474 C91.50281834 1.91241817 96.79951972 2.19907857 102.10507011 2.56373787 C102.79560618 2.6105177 103.48614224 2.65729754 104.19760364 2.70549494 C105.88519489 2.81992739 107.57271649 2.93538617 109.26022339 3.05105591 C109.43396711 53.22619247 109.59659261 103.40135465 109.74453632 153.57657427 C109.7620557 159.51508987 109.77966608 165.4536052 109.79733276 171.39212036 C109.800848 172.57425342 109.80436323 173.75638647 109.80798499 174.97434174 C109.86494203 194.05553998 109.92925279 213.13670659 109.99633439 232.21787161 C110.06512266 251.83162618 110.12588499 271.44539408 110.17936742 291.05919641 C110.21255336 303.13870774 110.2518226 315.21816658 110.29915176 327.2976309 C110.33110926 335.60776989 110.35519364 343.91790974 110.37339593 352.22809011 C110.38408313 357.00552281 110.39794332 361.78288305 110.42125893 366.56027222 C110.87269044 461.39883809 110.87269044 461.39883809 86.7194519 486.85574341 C66.11115026 507.37761534 34.69639166 516.65201637 6.94772339 522.30105591 C6.20949341 522.45203735 5.47126343 522.6030188 4.71066284 522.75857544 C2.23295792 523.23525351 -0.24837517 523.65181407 -2.73977661 524.05105591 C-3.81928589 524.22910767 -4.89879517 524.40715942 -6.01101685 524.59060669 C-17.5860112 526.2796487 -29.10644348 526.42334894 -40.79031372 526.42166138 C-44.14053239 526.42600823 -47.48940108 526.46237723 -50.83938599 526.50027466 C-79.29845718 526.64872135 -107.06602082 521.57344459 -132.73977661 509.05105591 C-133.73235474 508.56894653 -134.72493286 508.08683716 -135.74758911 507.59011841 C-156.21408032 497.0361728 -172.85070793 479.85516085 -180.73977661 458.05105591 C-184.41455197 446.0301806 -185.88919763 435.21909186 -185.853302 422.6802063 C-185.85301959 421.32943728 -185.85317892 419.9786681 -185.85374451 418.62789917 C-185.85403038 414.97759007 -185.84816768 411.32731411 -185.84117055 407.67701268 C-185.83490197 403.85601169 -185.83433044 400.03500986 -185.83314514 396.21400452 C-185.83004214 388.98583142 -185.82184268 381.75767352 -185.81179565 374.5295071 C-185.80060245 366.29733905 -185.79511599 358.06517026 -185.79010022 349.83299649 C-185.77965918 332.90567418 -185.76207976 315.97836665 -185.73977661 299.05105591 C-172.84905406 299.02793481 -159.95833641 299.01014201 -147.06759739 298.99924374 C-141.08258395 298.9940144 -135.09758465 298.98691583 -129.11257935 298.97561646 C-123.34194232 298.96478938 -117.57131893 298.95877946 -111.80067253 298.95617867 C-109.59374718 298.95432409 -107.38682261 298.95070287 -105.17990303 298.94532585 C-102.1003162 298.93811781 -99.02078647 298.93706487 -95.94119263 298.93753052 C-95.01906479 298.93393524 -94.09693695 298.93033997 -93.14686584 298.92663574 C-86.85382877 298.93700375 -86.85382877 298.93700375 -85.73977661 300.05105591 C-85.61609752 301.62413013 -85.56077966 303.20262784 -85.532547 304.78030396 C-85.51171051 305.80361313 -85.49087402 306.8269223 -85.46940613 307.88124084 C-85.45123337 309.013647 -85.43306061 310.14605316 -85.41433716 311.31277466 C-85.39135559 312.49815323 -85.36837402 313.6835318 -85.34469604 314.90483093 C-85.29478544 317.49011667 -85.24688601 320.07544181 -85.20071983 322.66079712 C-85.12740368 326.75491807 -85.04371941 330.84878505 -84.95774841 334.94265747 C-84.92844483 336.34429904 -84.89915475 337.74594088 -84.86987782 339.14758301 C-84.85520926 339.8497633 -84.84054071 340.55194359 -84.82542765 341.27540207 C-84.62721165 350.80863322 -84.43798253 360.3419791 -84.26834106 369.87576294 C-84.15390827 376.30213422 -84.0258362 382.72808156 -83.88255912 389.1538763 C-83.80735163 392.552812 -83.73910944 395.95156614 -83.68771935 399.35095215 C-83.62711904 403.15261928 -83.54289207 406.95309931 -83.45339966 410.75418091 C-83.44129959 411.87039322 -83.42919952 412.98660553 -83.41673279 414.13664246 C-83.18578907 422.3813491 -81.77653163 429.44402345 -75.61477661 435.30105591 C-63.50235811 444.5454176 -48.73169858 447.29749746 -33.73977661 446.05105591 C-24.78547647 444.73746664 -15.80944222 441.89984284 -9.82180786 434.76589966 C-5.91483261 429.05856052 -4.61452819 425.03176309 -4.61952209 418.0629406 C-4.61824072 416.98439203 -4.61824072 416.98439203 -4.61693347 415.8840546 C-4.61527907 413.45612549 -4.62080757 411.02826464 -4.62625122 408.6003418 C-4.62653104 406.84954998 -4.62636865 405.09875806 -4.62580013 403.34796631 C-4.6255036 398.52239766 -4.63145356 393.69685342 -4.63837004 388.87129045 C-4.64472699 383.67291287 -4.64531181 378.47453443 -4.64654541 373.27615356 C-4.64943608 364.26455161 -4.65588175 355.25295781 -4.66461182 346.24135971 C-4.67714296 333.21090272 -4.68323717 320.18044878 -4.68754518 307.14998676 C-4.69461731 286.00909725 -4.70542384 264.86821155 -4.7192688 243.72732544 C-4.72009661 242.46126359 -4.72092442 241.19520174 -4.72177732 239.89077438 C-4.72767856 230.90253483 -4.73371263 221.91429536 -4.73977661 212.92605591 C-4.74670508 202.6553854 -4.75357218 192.38471485 -4.76028442 182.11404419 C-4.76111255 180.84891164 -4.76194068 179.58377909 -4.7627939 178.28030919 C-4.77645963 157.21790936 -4.78622939 136.15550947 -4.79319477 115.09310639 C-4.79768644 102.08821373 -4.80574799 89.08333236 -4.81833959 76.07844497 C-4.82673864 67.17563908 -4.83164987 58.2728358 -4.83376479 49.37002622 C-4.83511543 44.22569811 -4.83815991 39.08138461 -4.84552383 33.93706131 C-4.85222841 29.2358153 -4.85441828 24.53459052 -4.85288823 19.83334018 C-4.85316165 18.12480844 -4.85516112 16.41627601 -4.85898101 14.70774852 C-4.86390264 12.40096811 -4.86278283 10.09427097 -4.86003113 7.78748894 C-4.86141382 5.8584808 -4.86141382 5.8584808 -4.86282444 3.89050281 C-4.67659744 -0.40686423 -4.46643627 0.06097636 0 0 Z " fill="#2E328E" transform="translate(185.73977661132813,176.94894409179688)"/>
<path d="M0 0 C2.10011795 0.00056483 4.20023629 0.00024614 6.300354 -0.00088501 C11.97517645 -0.0014567 17.64991362 0.01026783 23.32471633 0.02426291 C29.26508252 0.03680095 35.20545086 0.03794318 41.14582825 0.04031372 C52.38296711 0.04651947 63.62006685 0.06291802 74.85718852 0.0830127 C87.65525995 0.1053999 100.45333328 0.11637222 113.25141943 0.12640357 C139.56713004 0.14728506 165.88280599 0.1824434 192.19848633 0.22705078 C192.22161516 7.6416502 192.23940417 15.05624189 192.2502985 22.47087002 C192.25552615 25.91345426 192.26262164 29.3560139 192.27392578 32.79858398 C192.28682868 36.75260121 192.29171551 40.70660834 192.29614258 44.66064453 C192.30130386 45.90228867 192.30646515 47.1439328 192.31178284 48.42320251 C192.31185837 49.56430984 192.3119339 50.70541718 192.31201172 51.88110352 C192.31423233 52.89148178 192.31645294 53.90186005 192.31874084 54.94285583 C192.19848633 57.22705078 192.19848633 57.22705078 191.19848633 58.22705078 C189.43955203 58.32337124 187.67671474 58.34892588 185.91514587 58.3473053 C184.76944626 58.34867996 183.62374664 58.35005463 182.44332886 58.35147095 C181.17522369 58.34787567 179.90711853 58.3442804 178.60058594 58.34057617 C177.26055402 58.3402943 175.92052194 58.34045204 174.58049011 58.34101868 C170.93189195 58.34130665 167.28332638 58.33540998 163.63473582 58.32844472 C159.82571116 58.32221112 156.01668583 58.32160738 152.20765686 58.32041931 C144.98990879 58.31730601 137.77217578 58.30909264 130.55443436 58.29906982 C122.33933376 58.28790864 114.12423245 58.28239822 105.90912616 58.27737439 C89.00557082 58.26691003 72.10203017 58.24931062 55.19848633 58.22705078 C55.21707026 59.19499856 55.21707026 59.19499856 55.23602962 60.18250084 C55.81320663 90.39022296 56.36930142 120.59021314 56.26715088 150.8046875 C56.25631797 154.40249919 56.25223478 158.00032076 56.24731445 161.59814453 C56.23704889 168.47446647 56.22036072 175.35075496 56.19848633 182.22705078 C57.37214752 182.21452271 58.54580872 182.20199463 59.7550354 182.18908691 C70.95937736 182.06969797 82.16373622 181.95201749 93.36811256 181.83589935 C99.12473058 181.7761879 104.88134165 181.71592847 110.63793945 181.65429688 C135.49189903 181.38858577 160.34278927 181.12531947 185.19848633 181.22705078 C186.14566971 184.06860093 186.32497625 185.81969028 186.32788086 188.76416016 C186.33103302 189.68362427 186.33418518 190.60308838 186.33743286 191.55041504 C186.33439651 193.04550598 186.33439651 193.04550598 186.33129883 194.57080078 C186.33225555 195.60910034 186.33321228 196.6473999 186.334198 197.71716309 C186.33487967 199.92635152 186.3330263 202.13554195 186.32885742 204.34472656 C186.32359532 207.65841447 186.32875726 210.97196136 186.33520508 214.28564453 C186.33454261 216.44319691 186.33325799 218.60074919 186.33129883 220.75830078 C186.33332306 221.72264038 186.33534729 222.68697998 186.33743286 223.68054199 C186.30645214 233.21310163 185.74631383 242.71304815 185.19848633 252.22705078 C173.10400617 252.49190895 161.00944883 252.75290414 148.91478729 253.00935364 C143.29495753 253.12862705 137.67515918 253.24908889 132.05541992 253.37255859 C106.76701185 253.92729098 81.49379883 254.41496956 56.19848633 254.22705078 C56.20372314 255.46076416 56.20895996 256.69447754 56.21435547 257.96557617 C56.36752084 298.06731912 55.82137793 338.12840365 55.19848633 378.22705078 C99.74848633 378.22705078 144.29848633 378.22705078 190.19848633 378.22705078 C190.19848633 422.22705078 190.19848633 422.22705078 189.19848633 435.22705078 C160.57367544 435.32054947 131.94888749 435.39105722 103.32395458 435.43429947 C90.03247439 435.45491252 76.74112639 435.48300917 63.44970703 435.52880859 C51.86305165 435.56871468 40.27646506 435.59449274 28.68974286 435.60340476 C22.55634724 435.60861306 16.42314838 435.62082862 10.2898159 435.64997101 C4.51226754 435.67719947 -1.26500373 435.68548066 -7.04261017 435.67948151 C-9.15851792 435.68057841 -11.2744353 435.6884877 -13.3902874 435.70387268 C-35.78788816 435.85869027 -35.78788816 435.85869027 -46.11401367 429.03955078 C-55.67794902 419.03078123 -59.91342776 406.56734574 -59.93573475 392.8035326 C-59.94019259 391.52344722 -59.94465044 390.24336183 -59.94924337 388.92448598 C-59.94915408 387.51124687 -59.94896426 386.09800776 -59.94868469 384.68476868 C-59.95198605 383.17775207 -59.9557122 381.67073635 -59.95982617 380.16372174 C-59.96982296 376.02553722 -59.9735592 371.88736721 -59.97621548 367.74917233 C-59.98012532 363.28480677 -59.98970304 358.82045262 -59.99842834 354.35609436 C-60.01817139 343.57758465 -60.02825527 332.79907403 -60.03715613 322.02055076 C-60.04154172 316.94286541 -60.04690775 311.8651811 -60.052145 306.78749657 C-60.06915352 289.90592446 -60.08364809 273.02435299 -60.09089375 256.14277363 C-60.09280358 251.76404634 -60.09472392 247.38531906 -60.09667969 243.0065918 C-60.09716343 241.91830521 -60.09764717 240.83001863 -60.09814557 239.70875367 C-60.10644745 222.07584969 -60.13178873 204.44301352 -60.16426037 186.81013916 C-60.19733612 168.70144601 -60.21534289 150.59278732 -60.21853799 132.4840638 C-60.22070237 122.31879894 -60.22944087 112.15363301 -60.25499916 101.9883976 C-60.276713 93.33234651 -60.28475311 84.6764184 -60.27503238 76.02034316 C-60.27048996 71.60578667 -60.27237058 67.19148392 -60.29179382 62.77696228 C-60.30944213 58.73084019 -60.30841446 54.68515662 -60.29289653 50.63902976 C-60.29052301 49.1800675 -60.29483075 47.72107473 -60.30672518 46.26215903 C-60.40251951 33.7301419 -58.08863823 22.9690261 -49.80151367 13.22705078 C-35.52118434 -0.37967811 -18.55123689 -0.07003151 0 0 Z " fill="#2E328E" transform="translate(1310.801513671875,245.77294921875)"/>
<path d="M0 0 C0.99 0 1.98 0 3 0 C3 37.29 3 74.58 3 113 C9.6 113 16.2 113 23 113 C23 76.04 23 39.08 23 1 C43.84284958 11.42142479 61.6396042 44.49267397 69 66 C73.78225309 81.10914743 69.93205712 96.17028803 63 110 C56.43030119 121.61095047 48.151816 131.77288196 39.17578125 141.6015625 C36.55928095 144.48581956 34.02693152 147.43685367 31.5078125 150.40625 C30 152 30 152 27 154 C26.55745455 155.88321448 26.55745455 155.88321448 26.64355469 158.06665039 C26.64055359 158.90414322 26.63755249 159.74163605 26.63446045 160.60450745 C26.64680725 161.50974655 26.65915405 162.41498566 26.671875 163.34765625 C26.67468475 164.73820473 26.67468475 164.73820473 26.67755127 166.15684509 C26.68427977 168.11802767 26.69821002 170.07919665 26.71875 172.0402832 C26.74990874 175.05367398 26.75971948 178.06654224 26.765625 181.08007812 C26.7747944 182.98177726 26.78516997 184.88347104 26.796875 186.78515625 C26.80324982 188.14605125 26.80324982 188.14605125 26.80975342 189.53443909 C26.4482271 193.58999863 26.4482271 193.58999863 28 197 C30.38623988 197.42280134 30.38623988 197.42280134 33 197 C35.01115832 195.34443876 35.01115832 195.34443876 36.6875 192.9375 C37.37457031 192.02226562 38.06164062 191.10703125 38.76953125 190.1640625 C42.97764899 184.19457849 47.00770964 178.11527078 51 172 C56.65511076 163.33767073 62.37452402 154.96631184 69 147 C69.98004357 145.7506874 70.9593814 144.50082028 71.9375 143.25 C80.19778077 133.83505633 90.95114171 131.20293074 103 130 C105.66487243 129.88957711 108.3041744 129.81381169 110.96875 129.796875 C111.71501648 129.79004196 112.46128296 129.78320892 113.23016357 129.77616882 C115.65348859 129.75910778 118.07661833 129.7528337 120.5 129.75 C121.3288269 129.74799591 122.15765381 129.74599182 123.01159668 129.743927 C135.15398876 129.73678442 147.16555954 130.25009677 159.25 131.4375 C159.9402124 131.5048938 160.6304248 131.5722876 161.34155273 131.64172363 C172.51690635 132.75845318 172.51690635 132.75845318 175 134 C175 134.66 175 135.32 175 136 C171.70923306 137.41876289 168.41721966 138.83461176 165.125 140.25 C164.2071875 140.64574219 163.289375 141.04148438 162.34375 141.44921875 C157.72070908 143.43517295 153.0883681 145.39585168 148.4296875 147.296875 C147.2228833 147.78945801 147.2228833 147.78945801 145.99169922 148.29199219 C144 149 144 149 142 149 C141.67 149.66 141.34 150.32 141 151 C139.13038881 151.82579605 137.22205219 152.56450782 135.30078125 153.26171875 C128.17325839 155.91493061 121.18148128 158.82760429 114.1875 161.8125 C113.00607422 162.31458984 111.82464844 162.81667969 110.60742188 163.33398438 C107.73743561 164.55401902 104.86831559 165.77604404 102 167 C113.15199829 164.68234991 124.19181707 161.97330422 135.21484375 159.109375 C135.88876789 158.93436966 136.56269203 158.75936432 137.25703812 158.57905579 C142.87354581 157.11934698 148.48808093 155.65210638 154.10235596 154.18383789 C158.32771536 153.07899794 162.5538049 151.97704199 166.78097725 150.87915802 C168.74439828 150.36795283 170.70666657 149.85248055 172.66893005 149.33685303 C173.85189163 149.02943176 175.03485321 148.7220105 176.25366211 148.40527344 C177.29413193 148.13309998 178.33460175 147.86092651 179.40660095 147.58050537 C182 147 182 147 185 147 C182.97011095 151.28068642 180.28000016 154.85436347 177.4375 158.625 C176.9010083 159.33849609 176.3645166 160.05199219 175.81176758 160.78710938 C172.08577341 165.69075512 168.18589002 170.35252938 163.98828125 174.86328125 C162.22160891 176.76184661 160.54509377 178.7045279 158.875 180.6875 C136.10432528 206.62076843 115.46411015 215.18297653 81.30419922 217.43530273 C63.09482562 218.49835802 45.22383793 218.07199047 27 217 C27 231.19 27 245.38 27 260 C19.74 260 12.48 260 5 260 C5 245.81 5 231.62 5 217 C-2.2084375 217.2475 -2.2084375 217.2475 -9.5625 217.5 C-97.18938192 220.17612342 -97.18938192 220.17612342 -124.5390625 195.2421875 C-126.16935555 193.75680939 -127.8099308 192.28263272 -129.4609375 190.8203125 C-135.89746213 185.11474966 -141.96234293 179.12112699 -148 173 C-150.68668848 170.30035321 -153.38804412 167.61764978 -156.11328125 164.95703125 C-157.17973223 163.90889967 -158.24613804 162.86072214 -159.3125 161.8125 C-160.13717773 161.01295898 -160.13717773 161.01295898 -160.97851562 160.19726562 C-162.35715678 158.83575044 -163.68339727 157.42159498 -165 156 C-165 155.34 -165 154.68 -165 154 C-165.66 154 -166.32 154 -167 154 C-170 150.53846154 -170 150.53846154 -170 148 C-152.91240429 149.12049808 -137.09107814 154.0081303 -121.1875 160.0625 C-119.40748538 160.72864044 -117.62695981 161.39341703 -115.84594727 162.05688477 C-112.2745253 163.3889044 -108.70562419 164.72734819 -105.13867188 166.07128906 C-98.24508334 168.66471465 -91.32766698 171.19235573 -84.40884399 173.71749878 C-81.31169636 174.84868141 -78.21644952 175.98501724 -75.12109375 177.12109375 C-74.1252124 177.4864624 -73.12933105 177.85183105 -72.10327148 178.22827148 C-71.0621521 178.6102771 -71.0621521 178.6102771 -70 179 C-72.29044094 177.35243739 -74.58228077 175.70688669 -76.875 174.0625 C-77.85146484 173.35963867 -77.85146484 173.35963867 -78.84765625 172.64257812 C-82.30397839 170.12854419 -82.30397839 170.12854419 -86 168 C-86 167.34 -86 166.68 -86 166 C-86.72574219 165.731875 -87.45148438 165.46375 -88.19921875 165.1875 C-90.96864024 164.01329619 -93.30919434 162.6605676 -95.8125 161 C-96.60269531 160.484375 -97.39289063 159.96875 -98.20703125 159.4375 C-98.79871094 158.963125 -99.39039063 158.48875 -100 158 C-100 157.34 -100 156.68 -100 156 C-100.72316406 155.74992188 -101.44632813 155.49984375 -102.19140625 155.2421875 C-105.24169901 153.89310113 -107.3588874 152.23080074 -109.9375 150.125 C-115.24913537 146.16269136 -120.13211617 144.50465802 -126.515625 142.9296875 C-130.91968377 141.75461352 -134.92776354 139.9894813 -139.09375 138.1640625 C-142.95311277 136.61824246 -146.87445638 135.618689 -150.91796875 134.67578125 C-151.60503906 134.45277344 -152.29210937 134.22976562 -153 134 C-153.495 133.01 -153.495 133.01 -154 132 C-156.52733235 131.34444881 -156.52733235 131.34444881 -159 131 C-159 130.34 -159 129.68 -159 129 C-132.3814631 120.15047328 -99.26563133 113.38715423 -72.6875 125.6875 C-56.11855404 134.78503797 -42.52899694 150.26959505 -31 165 C-28.72209462 167.80302328 -26.42404865 170.58930711 -24.125 173.375 C-23.52816406 174.09888916 -22.93132812 174.82277832 -22.31640625 175.56860352 C-20.54608764 177.71391217 -18.77360774 179.85741004 -17 182 C-16.18088135 182.9902417 -16.18088135 182.9902417 -15.34521484 184.00048828 C-13.83907479 185.81686625 -12.32707453 187.62815289 -10.8125 189.4375 C-10.36729004 189.97487793 -9.92208008 190.51225586 -9.46337891 191.06591797 C-7.41500366 193.49960748 -5.67416509 195.21722327 -3 197 C0.63939932 196.68269476 0.63939932 196.68269476 4 196 C4.12493251 192.18261778 4.12034878 188.37573172 4.04638672 184.55712891 C4.01256023 182.69239931 3.99264888 180.82740208 3.98095703 178.96240234 C4.44149594 164.94935927 4.44149594 164.94935927 -0.265625 152.265625 C-3.03673766 149.58739879 -5.93132431 147.32573315 -9 145 C-10.74445083 143.07084261 -12.43514544 141.09140958 -14.0625 139.0625 C-14.77535156 138.18722656 -15.48820313 137.31195313 -16.22265625 136.41015625 C-17.76432997 134.31957892 -18.94192701 132.36284694 -20 130 C-20.66 130 -21.32 130 -22 130 C-23.41015625 128.0859375 -23.41015625 128.0859375 -25.0625 125.375 C-27.07763644 122.09620508 -29.0936164 118.83202808 -31.25 115.64453125 C-40.45754397 101.95595658 -47.38052754 87.80570562 -45.78515625 70.8984375 C-41.40622325 49.15627265 -25.1648347 29.67830921 -11.53125 12.9609375 C-9.9560736 11.07715234 -9.9560736 11.07715234 -9 9 C-8.34 9 -7.68 9 -7 9 C-7 8.34 -7 7.68 -7 7 C-5.37660195 5.29115995 -3.70680947 3.62553283 -2 2 C-1.34 1.34 -0.68 0.68 0 0 Z " fill="#5AA547" transform="translate(936,0)"/>
<path d="M0 0 C0.99 0 1.98 0 3 0 C3 37.29 3 74.58 3 113 C9.6 113 16.2 113 23 113 C23 83.96 23 54.92 23 25 C38.17723413 40.17723413 49.32810936 60.53265428 49.38085938 82.15136719 C48.94905802 104.57687677 33.63566514 124.32673174 19 140 C17.76528113 141.41183018 16.53575929 142.82822933 15.3125 144.25 C12.33551107 147.6562292 9.31406922 150.91714491 6 154 C5.34 154 4.68 154 4 154 C4 158.29 4 162.58 4 167 C3.67 167 3.34 167 3 167 C3.05542969 166.33355469 3.11085938 165.66710937 3.16796875 164.98046875 C3.20165921 160.16273232 2.84029019 157.06715362 -0.19921875 153.20703125 C-2.59903494 150.88754364 -5.03988414 148.63851489 -7.51904297 146.40576172 C-12.42347831 141.75034815 -17.22820806 136.18985662 -20 130 C-20.66 130 -21.32 130 -22 130 C-23.41015625 128.0859375 -23.41015625 128.0859375 -25.0625 125.375 C-27.07763644 122.09620508 -29.0936164 118.83202808 -31.25 115.64453125 C-40.45754397 101.95595658 -47.38052754 87.80570562 -45.78515625 70.8984375 C-41.40622325 49.15627265 -25.1648347 29.67830921 -11.53125 12.9609375 C-9.9560736 11.07715234 -9.9560736 11.07715234 -9 9 C-8.34 9 -7.68 9 -7 9 C-7 8.34 -7 7.68 -7 7 C-5.37660195 5.29115995 -3.70680947 3.62553283 -2 2 C-1.34 1.34 -0.68 0.68 0 0 Z " fill="#5AA547" transform="translate(936,0)"/>
<path d="M0 0 C19.70679255 9.50515261 37.47679282 41.51932601 44.84765625 61.6328125 C50.15348756 77.13663145 48.07520549 90.94419821 41.57421875 105.859375 C35.07434418 118.82686671 25.91039663 129.94224272 16.17578125 140.6015625 C13.55928095 143.48581956 11.02693152 146.43685367 8.5078125 149.40625 C7 151 7 151 4 153 C3.6205904 155.84539557 3.6205904 155.84539557 3.76953125 159.1875 C3.77017578 160.44433594 3.77082031 161.70117188 3.77148438 162.99609375 C3.79054107 165.63625288 3.84485703 168.27017202 3.91210938 170.91015625 C3.86791 180.56526343 1.69822371 185.18640982 -5 192 C-6.00776489 193.34384766 -6.00776489 193.34384766 -7.03588867 194.71484375 C-9 197 -9 197 -12.625 197.9375 C-13.73875 197.958125 -14.8525 197.97875 -16 198 C-19.60655389 194.39344611 -18.72804944 188.63515479 -18.89892578 183.73535156 C-18.97374011 181.71066622 -19.06591954 179.68660597 -19.16748047 177.66308594 C-19.34368348 173.9423573 -19.45804309 170.22338352 -19.5625 166.5 C-19.6258252 165.28328613 -19.68915039 164.06657227 -19.75439453 162.81298828 C-19.90518664 154.22496184 -19.90518664 154.22496184 -17.38354492 150.8125 C-15.34060419 149.0420646 -13.22840878 147.52711467 -11 146 C-9.96381972 145.03077678 -8.95430164 144.03184918 -7.98046875 143 C-7.5213208 142.51370117 -7.06217285 142.02740234 -6.58911133 141.52636719 C10.96411508 122.41074769 25.94458903 100.7911172 25.3984375 74.01953125 C24.47477426 56.8203976 12.00398143 36.00398143 0 24 C-0.08726223 22.21928754 -0.10699041 20.4351686 -0.09765625 18.65234375 C-0.09443359 17.57275391 -0.09121094 16.49316406 -0.08789062 15.38085938 C-0.07951172 14.24455078 -0.07113281 13.10824219 -0.0625 11.9375 C-0.05798828 10.79732422 -0.05347656 9.65714844 -0.04882812 8.48242188 C-0.03699747 5.65489649 -0.0205141 2.8274736 0 0 Z " fill="#9EC470" transform="translate(959,1)"/>
<path d="M0 0 C24.37417534 -0.61944014 43.49790942 1.35160873 61.94433594 18.84375 C70.5471948 27.12885621 78.62715137 35.59497125 86 45 C88.44567697 47.9896354 90.91109472 50.96288067 93.375 53.9375 C94.57137693 55.38323441 95.76674859 56.8298015 96.9609375 58.27734375 C97.47446777 58.89859131 97.98799805 59.51983887 98.51708984 60.15991211 C103.43025109 66.2564706 103.43025109 66.2564706 103.4375 71.0625 C103.45683594 71.91972656 103.47617187 72.77695313 103.49609375 73.66015625 C103 76 103 76 101.15234375 77.77734375 C98.13725812 79.4900875 96.42444396 79.54791103 93 79 C87.35904465 75.36471766 83.5416848 69.94453482 79.39697266 64.74267578 C76.69050496 61.36644956 73.93756767 58.02823145 71.1875 54.6875 C70.58977783 53.96135498 69.99205566 53.23520996 69.3762207 52.48706055 C64.1064333 46.10075069 58.76443014 39.78103913 53.33007812 33.53417969 C52.09165658 32.10572136 50.86562565 30.66654671 49.640625 29.2265625 C35.61249506 13.05939147 20.64215799 5.08784308 0 1 C0 0.67 0 0.34 0 0 Z " fill="#9DC46F" transform="translate(819,120)"/>
<path d="M0 0 C-2.02988905 4.28068642 -4.71999984 7.85436347 -7.5625 11.625 C-8.0989917 12.33849609 -8.6354834 13.05199219 -9.18823242 13.78710938 C-12.91422659 18.69075512 -16.81410998 23.35252938 -21.01171875 27.86328125 C-22.77839109 29.76184661 -24.45490623 31.7045279 -26.125 33.6875 C-49.00713097 59.74770472 -69.71661569 68.15641817 -104.01000977 70.5078125 C-114.74153709 71.13614998 -125.29322295 70.86590328 -136 70 C-136 69.67 -136 69.34 -136 69 C-135.01829834 68.92483154 -134.03659668 68.84966309 -133.02514648 68.7722168 C-129.30612781 68.4849901 -125.58815814 68.18565493 -121.87036133 67.88305664 C-120.27556261 67.75486459 -118.68051257 67.62975368 -117.08520508 67.50805664 C-96.60324853 65.94046123 -80.01147107 62.95736787 -64 49 C-63.21625 48.33742187 -62.4325 47.67484375 -61.625 46.9921875 C-57.32851477 43.29082354 -53.45573218 39.43958213 -49.796875 35.109375 C-47.837412 32.80913583 -45.7976864 30.59695758 -43.75 28.375 C-40.0061782 24.22452169 -36.46797455 19.94327802 -33 15.5625 C-32.51885742 14.95905762 -32.03771484 14.35561523 -31.54199219 13.73388672 C-29.53346967 11.16856758 -28.03851374 9.11554122 -27 6 C-24.73095703 5.10864258 -24.73095703 5.10864258 -21.7578125 4.39453125 C-20.69175781 4.13349609 -19.62570312 3.87246094 -18.52734375 3.60351562 C-16.84318359 3.21196289 -16.84318359 3.21196289 -15.125 2.8125 C-14.00996094 2.53986328 -12.89492187 2.26722656 -11.74609375 1.98632812 C-3.49212876 0 -3.49212876 0 0 0 Z " fill="#9DC36F" transform="translate(1121,147)"/>
<path d="M0 0 C0.99 0 1.98 0 3 0 C3 37.29 3 74.58 3 113 C2.34 113 1.68 113 1 113 C0.78907715 111.9797876 0.5781543 110.9595752 0.36083984 109.90844727 C-4.6028247 85.76732399 -4.6028247 85.76732399 -10.125 61.75 C-10.35848145 60.78884277 -10.59196289 59.82768555 -10.83251953 58.83740234 C-11.83671461 54.72138228 -12.84916154 50.60750146 -13.87011719 46.49560547 C-14.75958563 42.89590266 -15.63095244 39.29217979 -16.5 35.6875 C-16.7798877 34.57665039 -17.05977539 33.46580078 -17.34814453 32.32128906 C-17.59419434 31.29100586 -17.84024414 30.26072266 -18.09375 29.19921875 C-18.31740234 28.29002686 -18.54105469 27.38083496 -18.77148438 26.4440918 C-19.22759952 21.56570638 -15.73622301 18.05254521 -13 14.25 C-12.29875 13.26515625 -11.5975 12.2803125 -10.875 11.265625 C-10.25625 10.51796875 -9.6375 9.7703125 -9 9 C-8.34 9 -7.68 9 -7 9 C-7 8.34 -7 7.68 -7 7 C-5.37660195 5.29115995 -3.70680947 3.62553283 -2 2 C-1.34 1.34 -0.68 0.68 0 0 Z " fill="#9DC36F" transform="translate(936,0)"/>
<path d="M0 0 C6.93 0 13.86 0 21 0 C22 1 22 1 22.12025452 2.75270081 C22.1169236 3.89520546 22.1169236 3.89520546 22.11352539 5.06079102 C22.11344986 5.92160782 22.11337433 6.78242462 22.11329651 7.66932678 C22.10813522 8.60473801 22.10297394 9.54014923 22.09765625 10.50390625 C22.0962413 11.45692123 22.09482635 12.40993622 22.09336853 13.39183044 C22.08775152 16.44875165 22.07519616 19.50560077 22.0625 22.5625 C22.05748719 24.62955624 22.05292391 26.69661362 22.04882812 28.76367188 C22.03862558 33.84249833 22.01905356 38.92116806 22 44 C14.74 44 7.48 44 0 44 C0 29.48 0 14.96 0 0 Z " fill="#9FC470" transform="translate(941,216)"/>
<path d="M0 0 C16.0199946 -0.33955423 31.79790134 -0.11469102 47.75 1.4375 C48.80550049 1.53872665 48.80550049 1.53872665 49.88232422 1.64199829 C61.56039991 2.78019995 61.56039991 2.78019995 64 4 C64 4.66 64 5.32 64 6 C60.70923306 7.41876289 57.41721966 8.83461176 54.125 10.25 C53.2071875 10.64574219 52.289375 11.04148438 51.34375 11.44921875 C46.72070908 13.43517295 42.0883681 15.39585168 37.4296875 17.296875 C36.62515137 17.62526367 35.82061523 17.95365234 34.99169922 18.29199219 C33 19 33 19 31 19 C30.67 19.66 30.34 20.32 30 21 C28.13399219 21.82140057 26.22962392 22.55622777 24.3125 23.25 C18.30301221 25.46817895 12.49512294 27.97353106 6.6796875 30.66796875 C3.69898551 31.74697021 1.24776798 32.36962549 -1.83984375 32.8828125 C-6.77965844 33.70569318 -11.5467474 34.87897459 -16.37109375 36.19921875 C-17.10694702 36.39966293 -17.84280029 36.60010712 -18.60095215 36.80662537 C-21.6614144 37.64374085 -24.71999459 38.48728161 -27.77612305 39.34008789 C-30.03471371 39.96827844 -32.29630689 40.5844948 -34.55859375 41.19921875 C-35.24714951 41.39496994 -35.93570526 41.59072113 -36.64512634 41.79240417 C-40.19158109 42.74821046 -42.50185763 43.06180863 -46 42 C-43.8077831 41.06047847 -41.61556462 40.12096065 -39.42333984 39.18145752 C-37.4487867 38.33520272 -35.47425954 37.48888729 -33.49975586 36.64251709 C-27.99302906 34.28217136 -22.48583584 31.92292411 -16.9777832 29.56567383 C-6.67335471 25.15452049 3.62716178 20.73554896 13.90625 16.265625 C16.29425549 15.23032213 18.68251449 14.19560687 21.07089233 13.16116333 C22.55984342 12.51442345 24.04766973 11.8650876 25.53433228 11.21310425 C27.57876371 10.31664551 29.6267696 9.42889688 31.67578125 8.54296875 C32.80927002 8.04821045 33.94275879 7.55345215 35.1105957 7.04370117 C38 6 38 6 42 6 C42 5.34 42 4.68 42 4 C40.72769531 3.95101562 39.45539063 3.90203125 38.14453125 3.8515625 C25.37671968 3.32186408 12.70878165 2.3262457 0 1 C0 0.67 0 0.34 0 0 Z " fill="#9BC26E" transform="translate(1047,130)"/>
<path d="M0 0 C15.96377505 1.04680492 31.19162497 5.27639902 46.11938477 10.84375 C48.58520854 11.75842351 51.06194099 12.63759405 53.54101562 13.515625 C62.65088322 16.82354916 69.78024449 20.35691392 77 27 C78.8575127 28.35758953 80.72751366 29.69886651 82.625 31 C83.88183594 31.86625 83.88183594 31.86625 85.1640625 32.75 C85.76992188 33.1625 86.37578125 33.575 87 34 C83.62687357 35.12437548 83.09409134 34.92506555 79.9128418 33.72753906 C79.0879425 33.42225281 78.26304321 33.11696655 77.41314697 32.8024292 C76.51755066 32.46028381 75.62195435 32.11813843 74.69921875 31.765625 C73.76261414 31.41622864 72.82600952 31.06683228 71.86102295 30.70684814 C68.79998397 29.56290755 65.74386894 28.40635297 62.6875 27.25 C60.59355959 26.46578349 58.4992383 25.68258321 56.40454102 24.90039062 C52.2232363 23.33804475 48.04351809 21.77157888 43.86523438 20.20117188 C36.69621969 17.50821002 29.51788502 14.84108618 22.33047485 12.19763184 C20.47704689 11.5145745 18.62558423 10.82619194 16.77416992 10.13769531 C15.67177979 9.73131836 14.56938965 9.32494141 13.43359375 8.90625 C12.02678345 8.38514648 12.02678345 8.38514648 10.59155273 7.85351562 C8.00861969 6.93722947 8.00861969 6.93722947 5.27368164 6.50195312 C3 6 3 6 1.1875 4.0625 C0 2 0 2 0 0 Z " fill="#9BC26E" transform="translate(766,148)"/>
<path d="M0 0 C-2.90599305 2.90599305 -6.06737135 2.79457611 -10 3 C-13.67526977 2.97329815 -17.33177063 2.78259376 -21 2.5625 C-22.44826172 2.48418945 -22.44826172 2.48418945 -23.92578125 2.40429688 C-26.2842825 2.27586364 -28.64222045 2.14096811 -31 2 C-31 1.67 -31 1.34 -31 1 C-26.5841377 0.63528513 -22.16724379 0.28504964 -17.75 -0.0625 C-16.49574219 -0.16626953 -15.24148438 -0.27003906 -13.94921875 -0.37695312 C-12.14130859 -0.51713867 -12.14130859 -0.51713867 -10.296875 -0.66015625 C-9.18666992 -0.74918213 -8.07646484 -0.83820801 -6.93261719 -0.92993164 C-4.34031025 -0.99186904 -2.44585704 -0.79360255 0 0 Z " fill="#8BBB64" transform="translate(1016,215)"/>
<path d="M0 0 C9.9 0 19.8 0 30 0 C29.67 0.99 29.34 1.98 29 3 C19.32058953 2.4609807 9.65625851 1.87445886 0 1 C0 0.67 0 0.34 0 0 Z " fill="#92BE68" transform="translate(1047,130)"/>
<path d="M0 0 C0 0.66 0 1.32 0 2 C-4.19436837 2.81633513 -8.00823857 3.06893987 -12.2734375 2.87890625 C-13.42714844 2.83056641 -14.58085938 2.78222656 -15.76953125 2.73242188 C-17.55423828 2.64831055 -17.55423828 2.64831055 -19.375 2.5625 C-21.19451172 2.48418945 -21.19451172 2.48418945 -23.05078125 2.40429688 C-26.03414513 2.27509608 -29.01713373 2.14014959 -32 2 C-32 1.67 -32 1.34 -32 1 C-10.46808511 -0.19148936 -10.46808511 -0.19148936 0 0 Z " fill="#75AD5A" transform="translate(921,215)"/>
<path d="M0 0 C0 0.66 0 1.32 0 2 C-8.03571429 4.27678571 -8.03571429 4.27678571 -12 3 C-10.5682384 2.30062798 -9.12932968 1.61587282 -7.6875 0.9375 C-6.48673828 0.36322266 -6.48673828 0.36322266 -5.26171875 -0.22265625 C-3 -1 -3 -1 0 0 Z " fill="#8ABA63" transform="translate(1013,169)"/>
</svg>
