<?xml version="1.0" encoding="UTF-8"?>
<svg version="1.1" xmlns="http://www.w3.org/2000/svg" width="300" height="300">
<path d="M0 0 C0.93444862 -0.00384115 1.86889723 -0.00768229 2.83166248 -0.01163983 C3.86520034 -0.01077335 4.8987382 -0.00990687 5.96359539 -0.00901413 C7.05616844 -0.01198525 8.1487415 -0.01495637 9.27442282 -0.01801753 C12.96018388 -0.0267359 16.64591258 -0.02821542 20.33168316 -0.02970505 C22.9642268 -0.03433099 25.59676977 -0.03935534 28.22931194 -0.04475021 C35.39872037 -0.05834492 42.56812322 -0.06436007 49.73754239 -0.06876087 C54.2124479 -0.07152147 58.68735124 -0.0757585 63.16225529 -0.08026505 C75.54690223 -0.09245938 87.93154744 -0.10275825 100.31620026 -0.10614014 C101.10919202 -0.1063597 101.90218378 -0.10657927 102.7192056 -0.10680549 C103.51411816 -0.10702377 104.30903073 -0.10724204 105.12803155 -0.10746694 C106.73888417 -0.10791041 108.34973679 -0.10835697 109.96058941 -0.10880661 C111.15915271 -0.10913875 111.15915271 -0.10913875 112.38192942 -0.10947761 C125.33090293 -0.11342608 138.27982019 -0.13088086 151.22877196 -0.15416613 C164.51667749 -0.17786844 177.80455478 -0.19034148 191.09248179 -0.19150805 C198.55581518 -0.19242547 206.01907527 -0.19819435 213.4823885 -0.21632767 C219.83743233 -0.23171359 226.19238023 -0.2368581 232.54743914 -0.22858956 C235.7906074 -0.22467759 239.03354158 -0.22726471 242.2766943 -0.23964691 C245.79139251 -0.25228146 249.30559072 -0.24653558 252.82028484 -0.23606491 C253.84713054 -0.24412132 254.87397624 -0.25217772 255.93193847 -0.26047826 C264.65303979 -0.19948663 264.65303979 -0.19948663 268.58241558 3.13142776 C269.80486661 5.57632982 269.71627796 7.16674816 269.7295866 9.90068436 C269.74031956 11.41068512 269.74031956 11.41068512 269.75126934 12.95119095 C269.75395824 14.05980484 269.75664715 15.16841873 269.75941753 16.31062698 C269.76598873 17.47492233 269.77255993 18.63921768 269.77933025 19.83879471 C269.79909574 23.70456881 269.81073191 27.57030405 269.82069683 31.43611526 C269.82477236 32.75319599 269.82884789 34.07027672 269.83304691 35.42726898 C269.8520976 41.67645317 269.8663297 47.92562554 269.87465888 54.17483318 C269.88443578 61.39123602 269.91076716 68.60733249 269.95115978 75.82362735 C269.98130286 81.39990752 269.99612596 86.97609977 269.9994399 92.55245984 C270.00179225 95.88383984 270.01274144 99.21481716 270.03590107 102.54612732 C270.06013332 106.26214915 270.05935639 109.97736357 270.05238628 113.69343948 C270.07160137 115.35028763 270.07160137 115.35028763 270.09120464 117.04060745 C270.08078892 118.55906769 270.08078892 118.55906769 270.07016277 120.10820389 C270.07255113 120.98684034 270.07493948 121.8654768 270.07740021 122.7707386 C269.41871498 125.91215149 268.01012043 127.10472561 265.58241558 129.13142776 C263.21767029 130.31380041 261.80261436 130.25879954 259.16483116 130.26285553 C258.23038254 130.26669667 257.29593393 130.27053782 256.33316869 130.27449536 C255.29963082 130.27362888 254.26609296 130.2727624 253.20123577 130.27186966 C252.10866272 130.27484078 251.01608966 130.2778119 249.89040834 130.28087306 C246.20464728 130.28959143 242.51891858 130.29107095 238.833148 130.29256058 C236.20060436 130.29718652 233.5680614 130.30221087 230.93551922 130.30760574 C223.76611079 130.32120045 216.59670794 130.3272156 209.42728877 130.3316164 C204.95238326 130.334377 200.47747992 130.33861403 196.00257587 130.34312057 C183.61792893 130.35531491 171.23328372 130.36561378 158.84863091 130.36899567 C158.05563914 130.36921523 157.26264738 130.3694348 156.44562556 130.36966102 C155.650713 130.3698793 154.85580043 130.37009757 154.03679961 130.37032247 C152.42594699 130.37076594 150.81509437 130.3712125 149.20424175 130.37166214 C148.40519955 130.37188357 147.60615735 130.372105 146.78290174 130.37233314 C133.83392823 130.37628161 120.88501098 130.39373639 107.9360592 130.41702166 C94.64815367 130.44072397 81.36027639 130.45319701 68.07234937 130.45436358 C60.60901598 130.455281 53.14575589 130.46104988 45.68244267 130.4791832 C39.32739884 130.49456912 32.97245094 130.49971363 26.61739203 130.49144509 C23.37422376 130.48753312 20.13128959 130.49012024 16.88813686 130.50250244 C13.37343865 130.51513699 9.85924044 130.50939111 6.34454632 130.49892044 C5.31770062 130.50697685 4.29085492 130.51503325 3.23289269 130.52333379 C-5.48820862 130.46234216 -5.48820862 130.46234216 -9.41758442 127.13142776 C-10.64003545 124.68652571 -10.55144679 123.09610737 -10.56475544 120.36217117 C-10.57191074 119.355504 -10.57906605 118.34883682 -10.58643818 117.31166458 C-10.58912708 116.20305069 -10.59181599 115.0944368 -10.59458637 113.95222855 C-10.60115757 112.7879332 -10.60772877 111.62363785 -10.61449909 110.42406082 C-10.63426458 106.55828672 -10.64590074 102.69255148 -10.65586567 98.82674026 C-10.6599412 97.50965954 -10.66401672 96.19257881 -10.66821575 94.83558655 C-10.68726644 88.58640236 -10.70149854 82.33722999 -10.70982772 76.08802235 C-10.71960462 68.87161951 -10.745936 61.65552304 -10.78632861 54.43922818 C-10.8164717 48.86294801 -10.8312948 43.28675576 -10.83460873 37.71039569 C-10.83696109 34.37901569 -10.84791028 31.04803837 -10.87106991 27.71672821 C-10.89530216 24.00070638 -10.89452523 20.28549196 -10.88755512 16.56941605 C-10.90036518 15.46485062 -10.91317524 14.36028519 -10.92637348 13.22224808 C-10.91942966 12.20994125 -10.91248585 11.19763443 -10.90533161 10.15465164 C-10.90771996 9.27601519 -10.91010832 8.39737873 -10.91256905 7.49211693 C-10.25388382 4.35070404 -8.84528926 3.15812992 -6.41758442 1.13142776 C-4.05283913 -0.05094488 -2.6377832 0.00405599 0 0 Z " fill="#EC222A" transform="translate(20.41758441925049,84.86857223510742)"/>
<path d="M0 0 C0.93444862 -0.00384115 1.86889723 -0.00768229 2.83166248 -0.01163983 C3.86520034 -0.01077335 4.8987382 -0.00990687 5.96359539 -0.00901413 C7.05616844 -0.01198525 8.1487415 -0.01495637 9.27442282 -0.01801753 C12.96018388 -0.0267359 16.64591258 -0.02821542 20.33168316 -0.02970505 C22.9642268 -0.03433099 25.59676977 -0.03935534 28.22931194 -0.04475021 C35.39872037 -0.05834492 42.56812322 -0.06436007 49.73754239 -0.06876087 C54.2124479 -0.07152147 58.68735124 -0.0757585 63.16225529 -0.08026505 C75.54690223 -0.09245938 87.93154744 -0.10275825 100.31620026 -0.10614014 C101.10919202 -0.1063597 101.90218378 -0.10657927 102.7192056 -0.10680549 C103.51411816 -0.10702377 104.30903073 -0.10724204 105.12803155 -0.10746694 C106.73888417 -0.10791041 108.34973679 -0.10835697 109.96058941 -0.10880661 C111.15915271 -0.10913875 111.15915271 -0.10913875 112.38192942 -0.10947761 C125.33090293 -0.11342608 138.27982019 -0.13088086 151.22877196 -0.15416613 C164.51667749 -0.17786844 177.80455478 -0.19034148 191.09248179 -0.19150805 C198.55581518 -0.19242547 206.01907527 -0.19819435 213.4823885 -0.21632767 C219.83743233 -0.23171359 226.19238023 -0.2368581 232.54743914 -0.22858956 C235.7906074 -0.22467759 239.03354158 -0.22726471 242.2766943 -0.23964691 C245.79139251 -0.25228146 249.30559072 -0.24653558 252.82028484 -0.23606491 C253.84713054 -0.24412132 254.87397624 -0.25217772 255.93193847 -0.26047826 C264.65303979 -0.19948663 264.65303979 -0.19948663 268.58241558 3.13142776 C270.1150814 6.19675941 269.68518029 9.39897048 269.64491558 12.75642776 C269.64040386 13.46283401 269.63589214 14.16924026 269.63124371 14.89705276 C269.61945433 16.64188052 269.60151883 18.38666476 269.58241558 20.13142776 C268.92588497 20.13729401 268.26935436 20.14316025 267.59292889 20.14920425 C260.73017901 20.21337536 253.86788781 20.29785565 247.00551128 20.39387894 C244.4479558 20.42703513 241.89032878 20.45509572 239.33265972 20.47786331 C235.64607172 20.51157992 231.96013379 20.56390632 228.27382183 20.61970901 C226.57172306 20.6292939 226.57172306 20.6292939 224.83523846 20.63907242 C208.42315652 20.9397491 198.7493347 28.34744334 187.71913433 39.76033401 C184.20497683 43.48164185 180.97140195 47.39781393 177.79335308 51.40877151 C173.92921697 56.16725715 169.74743376 60.63599061 165.58241558 65.13142776 C167.29944925 69.33091976 170.24917758 72.39541429 173.20741558 75.75642776 C174.28887699 77.00970253 175.3696029 78.26361233 176.44960308 79.51814651 C178.33645813 81.70114731 180.23668768 83.86822963 182.15272808 86.02595901 C187.38970725 92.13576804 187.38970725 92.13576804 188.33241558 97.00642776 C187.45140895 100.67728873 186.78477228 102.10888669 183.58241558 104.13142776 C179.98900505 103.96565306 178.11152391 103.58020027 175.34413433 101.23299026 C174.65964214 100.41572464 173.97514996 99.59845901 173.26991558 98.75642776 C172.12716167 97.41064651 172.12716167 97.41064651 170.96132183 96.03767776 C170.17628277 95.07861526 169.39124371 94.11955276 168.58241558 93.13142776 C167.76643902 92.15174026 166.95046246 91.17205276 166.10975933 90.16267776 C162.84633729 86.21473305 159.62841696 82.25023466 156.58241558 78.13142776 C152.76752617 79.64540854 150.95164929 81.86139844 148.45741558 85.06892776 C147.67366558 86.04345901 146.88991558 87.01799026 146.08241558 88.02205276 C144.82279622 89.58870434 143.56319927 91.1553747 142.30507183 92.72322464 C141.04440871 94.27318888 139.75113248 95.79644386 138.45741558 97.31892776 C137.69171246 98.24060745 136.92600933 99.16228714 136.13710308 100.11189651 C133.58241558 102.13142776 133.58241558 102.13142776 129.90272808 102.52986526 C126.58241558 102.13142776 126.58241558 102.13142776 124.58241558 100.56892776 C123.11274833 96.98661383 123.65476095 94.88438735 124.58241558 91.13142776 C126.33000894 88.41355375 128.44360214 86.11377593 130.64491558 83.75642776 C131.23039165 83.1066597 131.81586773 82.45689163 132.4190855 81.78743362 C133.58804202 80.49193809 134.76282198 79.20167026 135.94374371 77.9170723 C138.12690098 75.53810741 140.26032599 73.1164566 142.39491558 70.69392776 C143.45639159 69.50551236 144.51841303 68.31758166 145.58241558 67.13142776 C143.85275398 62.92188989 140.90034813 59.77999201 137.95741558 56.38142776 C137.44179058 55.77943558 136.92616558 55.17744339 136.39491558 54.55720901 C135.12772423 53.0788191 133.85555783 51.60469606 132.58241558 50.13142776 C133.94611857 47.13922508 135.53149641 44.84116248 137.70741558 42.38142776 C138.24624371 41.76783401 138.78507183 41.15424026 139.34022808 40.52205276 C139.75014996 40.06314651 140.16007183 39.60424026 140.58241558 39.13142776 C144.59313725 40.68248489 146.61225936 43.26113415 149.26991558 46.56892776 C150.05753277 47.5370137 150.84514996 48.50509964 151.65663433 49.50252151 C153.58241558 52.13142776 153.58241558 52.13142776 154.58241558 55.13142776 C161.36165952 48.42443154 167.8284577 41.4578621 173.70741558 33.94392776 C182.60873137 22.61826987 182.60873137 22.61826987 187.58241558 20.13142776 C89.57241558 19.63642776 89.57241558 19.63642776 -10.41758442 19.13142776 C-10.41758442 5.13142776 -10.41758442 5.13142776 -6.41758442 1.13142776 C-4.05283913 -0.05094488 -2.6377832 0.00405599 0 0 Z " fill="#FEFBFB" transform="translate(20.41758441925049,84.86857223510742)"/>
<path d="M0 0 C2.32641066 1.91032938 3.9880249 3.53763785 5.875 5.8125 C6.38603271 6.39475342 6.89706543 6.97700684 7.42358398 7.5769043 C11.50143376 12.26302749 15.38304463 17.12013834 19.16015625 22.05078125 C19.76730469 22.69402344 20.37445313 23.33726562 21 24 C23.98828827 24.34380967 23.98828827 24.34380967 25.53051758 22.55053711 C26.06314209 21.8828833 26.5957666 21.21522949 27.14453125 20.52734375 C27.73943359 19.79193359 28.33433594 19.05652344 28.94726562 18.29882812 C29.56279297 17.51958984 30.17832031 16.74035156 30.8125 15.9375 C32.02669666 14.42526147 33.24153437 12.9135374 34.45703125 11.40234375 C35.04967773 10.6652417 35.64232422 9.92813965 36.25292969 9.16870117 C36.82946289 8.45302979 37.40599609 7.7373584 38 7 C38.55333008 6.30817627 39.10666016 5.61635254 39.67675781 4.90356445 C40.1972168 4.27023193 40.71767578 3.63689941 41.25390625 2.984375 C41.70967041 2.42331055 42.16543457 1.86224609 42.63500977 1.28417969 C44 0 44 0 47.125 -0.6875 C50.69929667 0.16722312 52.00874907 0.89364855 54 4 C54.03445693 10.89138575 50.73218118 14.43213222 46.3125 19.4375 C45.07772166 20.87223193 43.84463728 22.30842355 42.61328125 23.74609375 C42.01209473 24.44331543 41.4109082 25.14053711 40.79150391 25.85888672 C38.05154604 29.13354337 35.51317802 32.54968504 33 36 C35.26626297 40.11842473 37.99514161 43.37138642 41.1875 46.8125 C41.65091797 47.31458984 42.11433594 47.81667969 42.59179688 48.33398438 C43.72400297 49.55956829 44.86146479 50.78029342 46 52 C44.64763423 54.93879484 43.10057341 57.29232911 41 59.75 C40.484375 60.36359375 39.96875 60.9771875 39.4375 61.609375 C38 63 38 63 36 63 C34.46148234 61.28048026 32.99268241 59.49812503 31.5625 57.6875 C27.98901832 53.15615016 27.98901832 53.15615016 24 49 C19.71074239 50.54254044 17.56541408 53.79460028 14.9375 57.3125 C13.96544486 58.57958732 12.99143329 59.84517578 12.015625 61.109375 C11.51869141 61.75455078 11.02175781 62.39972656 10.50976562 63.06445312 C8.12993512 66.11543893 5.6738164 69.09799604 3.1875 72.0625 C2.75622803 72.58561768 2.32495605 73.10873535 1.88061523 73.64770508 C-1.20476801 77.30727797 -4.2150007 79.84583392 -8 83 C56.68 83.33 121.36 83.66 188 84 C188 88.62 188 93.24 188 98 C182.87671302 103.12328698 182.87671302 103.12328698 177.58241558 103.13142776 C176.64796696 103.13526891 175.71351835 103.13911005 174.7507531 103.1430676 C173.71721524 103.14220112 172.68367738 103.14133463 171.61882019 103.14044189 C169.97996061 103.14489858 169.97996061 103.14489858 168.30799276 103.1494453 C164.6222317 103.15816366 160.936503 103.15964318 157.25073242 103.16113281 C154.61818878 103.16575876 151.98564581 103.17078311 149.35310364 103.17617798 C142.18369521 103.18977268 135.01429236 103.19578783 127.84487319 103.20018864 C123.36996768 103.20294924 118.89506434 103.20718626 114.42016029 103.21169281 C102.03551335 103.22388715 89.65086814 103.23418601 77.26621532 103.2375679 C76.47322356 103.23778747 75.6802318 103.23800703 74.86320998 103.23823325 C74.06829742 103.23845153 73.27338485 103.23866981 72.45438403 103.2388947 C70.84353141 103.23933817 69.23267879 103.23978473 67.62182617 103.24023438 C66.82278397 103.2404558 66.02374176 103.24067723 65.20048616 103.24090537 C52.25151265 103.24485385 39.3025954 103.26230863 26.35364362 103.2855939 C13.06573809 103.30929621 -0.2221392 103.32176925 -13.51006621 103.32293582 C-20.9733996 103.32385323 -28.43665969 103.32962212 -35.89997292 103.34775543 C-42.25501675 103.36314135 -48.60996465 103.36828587 -54.96502355 103.36001733 C-58.20819182 103.35610536 -61.45112599 103.35869247 -64.69427872 103.37107468 C-68.20897693 103.38370922 -71.72317514 103.37796335 -75.23786926 103.36749268 C-76.26471496 103.37554908 -77.29156066 103.38360548 -78.34952289 103.39190602 C-87.0706242 103.33091439 -87.0706242 103.33091439 -91 100 C-92.50156874 96.99686252 -92.09281204 94.20932478 -92.0625 90.875 C-92.05347656 89.59367187 -92.04445313 88.31234375 -92.03515625 86.9921875 C-92.02355469 86.00476563 -92.01195313 85.01734375 -92 84 C-91.3935817 83.99191315 -90.78716339 83.98382629 -90.16236877 83.97549438 C-83.81873529 83.88906229 -77.47540049 83.78954432 -71.13208008 83.68261719 C-68.76852456 83.64446664 -66.40491374 83.60959013 -64.04125977 83.578125 C-60.63277495 83.53217113 -57.22466633 83.47422731 -53.81640625 83.4140625 C-52.76916885 83.40251129 -51.72193146 83.39096008 -50.64295959 83.37905884 C-33.44829282 83.03752835 -21.99436137 77.52143278 -10.02734375 65.22265625 C-6.15420136 60.97637876 -2.59189757 56.48380457 1 52 C2.64422123 49.99867447 4.29001106 47.99863642 5.9375 46 C10.1603998 41.58138512 10.1603998 41.58138512 11.9375 36.16015625 C10.58029301 33.03292515 8.34151389 30.85083706 6 28.4375 C1.31954618 23.48675344 -3.04959742 18.39382813 -7.3203125 13.08203125 C-8.83273177 11.13181795 -8.83273177 11.13181795 -10 10 C-10.45681382 3.83301344 -10.45681382 3.83301344 -8.9375 1.0625 C-5.80796442 -0.65369693 -3.51368229 -0.40302925 0 0 Z " fill="#FEFCFC" transform="translate(102,112)"/>
<path d="M0 0 C10.1639218 6.25865654 15.63178401 14.19785162 18.703125 25.74609375 C20.16364016 36.17834488 17.08518898 45.66764566 11.484375 54.42578125 C5.27232675 62.51779146 -4.50466118 67.82098936 -14.56640625 69.19140625 C-25.6934185 69.58738533 -35.08036048 66.2583356 -43.296875 58.74609375 C-50.05550656 52.22268139 -54.33261386 43.75879247 -54.58959961 34.30102539 C-54.69177283 23.36092275 -52.51269257 15.47447977 -45.421875 6.85546875 C-33.13997216 -5.33612598 -15.26491362 -8.33339672 0 0 Z " fill="#FEFAFA" transform="translate(265.296875,116.25390625)"/>
<path d="M0 0 C6.3753124 5.18403226 12.26741053 13.16171674 13.75 21.375 C14.8600028 32.97390568 13.77532113 42.44452812 6.73046875 52.16015625 C-0.17310871 60.36948917 -8.32426599 65.68992991 -19.1875 66.62890625 C-30.67905705 67.04899855 -39.26629376 64.13675423 -48.0234375 56.64453125 C-55.25373388 49.27470283 -59.27782901 39.75498995 -59.6875 29.5 C-59.37375404 18.77807294 -55.02723923 10.23380026 -47.58984375 2.69140625 C-34.1796969 -9.5579534 -14.94633293 -10.0594822 0 0 Z " fill="#FEFAFA" transform="translate(78.25,118.625)"/>
<path d="M0 0 C92.4 0 184.8 0 280 0 C280 8 280 8 278.125 10.4375 C275.03099225 12.7125057 273.3675513 13.12560755 269.58241558 13.13142776 C268.64796696 13.13526891 267.71351835 13.13911005 266.7507531 13.1430676 C265.71721524 13.14220112 264.68367738 13.14133463 263.61882019 13.14044189 C261.97996061 13.14489858 261.97996061 13.14489858 260.30799276 13.1494453 C256.6222317 13.15816366 252.936503 13.15964318 249.25073242 13.16113281 C246.61818878 13.16575876 243.98564581 13.17078311 241.35310364 13.17617798 C234.18369521 13.18977268 227.01429236 13.19578783 219.84487319 13.20018864 C215.36996768 13.20294924 210.89506434 13.20718626 206.42016029 13.21169281 C194.03551335 13.22388715 181.65086814 13.23418601 169.26621532 13.2375679 C168.47322356 13.23778747 167.6802318 13.23800703 166.86320998 13.23823325 C166.06829742 13.23845153 165.27338485 13.23866981 164.45438403 13.2388947 C162.84353141 13.23933817 161.23267879 13.23978473 159.62182617 13.24023438 C158.82278397 13.2404558 158.02374176 13.24067723 157.20048616 13.24090537 C144.25151265 13.24485385 131.3025954 13.26230863 118.35364362 13.2855939 C105.06573809 13.30929621 91.7778608 13.32176925 78.48993379 13.32293582 C71.0266004 13.32385323 63.56334031 13.32962212 56.10002708 13.34775543 C49.74498325 13.36314135 43.39003535 13.36828587 37.03497645 13.36001733 C33.79180818 13.35610536 30.54887401 13.35869247 27.30572128 13.37107468 C23.79102307 13.38370922 20.27682486 13.37796335 16.76213074 13.36749268 C15.73528504 13.37554908 14.70843934 13.38360548 13.65047711 13.39190602 C4.9293758 13.33091439 4.9293758 13.33091439 1 10 C0 8 0 8 0 0 Z " fill="#EEA42D" transform="translate(10,202)"/>
<path d="M0 0 C0.93444862 -0.00384115 1.86889723 -0.00768229 2.83166248 -0.01163983 C3.86520034 -0.01077335 4.8987382 -0.00990687 5.96359539 -0.00901413 C7.05616844 -0.01198525 8.1487415 -0.01495637 9.27442282 -0.01801753 C12.96018388 -0.0267359 16.64591258 -0.02821542 20.33168316 -0.02970505 C22.9642268 -0.03433099 25.59676977 -0.03935534 28.22931194 -0.04475021 C35.39872037 -0.05834492 42.56812322 -0.06436007 49.73754239 -0.06876087 C54.2124479 -0.07152147 58.68735124 -0.0757585 63.16225529 -0.08026505 C75.54690223 -0.09245938 87.93154744 -0.10275825 100.31620026 -0.10614014 C101.10919202 -0.1063597 101.90218378 -0.10657927 102.7192056 -0.10680549 C103.51411816 -0.10702377 104.30903073 -0.10724204 105.12803155 -0.10746694 C106.73888417 -0.10791041 108.34973679 -0.10835697 109.96058941 -0.10880661 C111.15915271 -0.10913875 111.15915271 -0.10913875 112.38192942 -0.10947761 C125.33090293 -0.11342608 138.27982019 -0.13088086 151.22877196 -0.15416613 C164.51667749 -0.17786844 177.80455478 -0.19034148 191.09248179 -0.19150805 C198.55581518 -0.19242547 206.01907527 -0.19819435 213.4823885 -0.21632767 C219.83743233 -0.23171359 226.19238023 -0.2368581 232.54743914 -0.22858956 C235.7906074 -0.22467759 239.03354158 -0.22726471 242.2766943 -0.23964691 C245.79139251 -0.25228146 249.30559072 -0.24653558 252.82028484 -0.23606491 C253.84713054 -0.24412132 254.87397624 -0.25217772 255.93193847 -0.26047826 C264.65303979 -0.19948663 264.65303979 -0.19948663 268.58241558 3.13142776 C269.58241558 5.13142776 269.58241558 5.13142776 269.58241558 13.13142776 C177.18241558 13.13142776 84.78241558 13.13142776 -10.41758442 13.13142776 C-10.41758442 5.13142776 -10.41758442 5.13142776 -8.54258442 2.69392776 C-5.44857667 0.41892207 -3.78513572 0.00582022 0 0 Z " fill="#EEA42D" transform="translate(20.41758441925049,84.86857223510742)"/>
<path d="M0 0 C6.50113738 3.80255205 11.43933628 7.82837284 14.3125 14.9375 C15.20576363 21.87437615 15.37290926 29.13961009 11.63671875 35.26171875 C6.73690183 41.46237203 0.95604342 45.01735705 -6.84375 46.2890625 C-13.28347536 46.7198892 -18.4591107 44.62133966 -23.6875 40.9375 C-29.30400165 35.29783752 -31.71411947 29.47727026 -32.0625 21.5625 C-31.90355368 15.04570074 -30.3065479 10.70417691 -25.81640625 5.9609375 C-18.06437949 -1.16096232 -10.23310887 -2.9485229 0 0 Z " fill="#EC1E26" transform="translate(255.6875,126.0625)"/>
<path d="M0 0 C5.65044957 4.81489326 8.48085934 9.69322886 9.2109375 17.15625 C9.50947985 23.86197049 7.8205184 28.98914265 4.375 34.6875 C-0.5358986 39.46916443 -7.13788425 43.04824862 -14.0625 43.375 C-20.56505302 43.2796857 -26.09928417 40.62559639 -30.89453125 36.28515625 C-36.72322989 29.80409718 -37.4660678 23.97688979 -37.3046875 15.37890625 C-36.71566439 8.84679105 -33.80355357 5.5790241 -29.0625 1.1875 C-20.23295067 -6.03814955 -9.76846122 -5.84144163 0 0 Z " fill="#EC1E26" transform="translate(70,129)"/>
</svg>
