<?xml version="1.0" encoding="UTF-8"?>
<svg version="1.1" xmlns="http://www.w3.org/2000/svg" width="1280" height="1280">
<path d="M0 0 C422.4 0 844.8 0 1280 0 C1280 422.4 1280 844.8 1280 1280 C857.6 1280 435.2 1280 0 1280 C0 857.6 0 435.2 0 0 Z " fill="#FDFDFD" transform="translate(0,0)"/>
<path d="M0 0 C94.79888268 0 94.79888268 0 113.265625 17.09765625 C118.59958962 22.70646256 121.99106016 28.90415123 125 36 C125.34160156 36.80050781 125.68320313 37.60101562 126.03515625 38.42578125 C130.50942547 50.80806118 128.7587301 65.45372749 123.55859375 77.27734375 C117.2279768 89.86513663 108.66867352 98.85071128 96 105 C97.79514239 111.04570941 100.48665318 116.66355599 103.125 122.375 C103.87076294 123.99607666 103.87076294 123.99607666 104.6315918 125.64990234 C107.54817784 131.95748442 110.55584503 138.19749442 113.71142578 144.38867188 C117.11601213 151.12544323 120.32130602 157.95711992 123.52352905 164.79168701 C124.17259353 166.1764742 124.82299715 167.56063454 125.47476196 168.94415283 C126.39346679 170.89580191 127.30689007 172.84983267 128.21875 174.8046875 C128.75435547 175.94921387 129.28996094 177.09374023 129.84179688 178.27294922 C131 181 131 181 131 183 C118.13 183 105.26 183 92 183 C82.97464074 164.94928149 82.97464074 164.94928149 79 156 C75.78788922 148.84968568 72.46098878 141.78705935 68.91601562 134.79638672 C66.37228417 129.77264714 63.91281069 124.71293007 61.5 119.625 C61.14921387 118.89240967 60.79842773 118.15981934 60.43701172 117.4050293 C58 112.23667187 58 112.23667187 58 110 C51.07 110 44.14 110 37 110 C37 134.09 37 158.18 37 183 C24.79 183 12.58 183 0 183 C0 122.61 0 62.22 0 0 Z " fill="#0F1F27" transform="translate(20,552)"/>
<path d="M0 0 C94.01363636 0 94.01363636 0 110.39453125 14.30078125 C120.92741211 25.21265633 127.39985386 39.45170797 127.5 54.6875 C127.16273277 70.59080999 121.68850269 84.02735779 110.671875 95.578125 C106.23014518 99.60425437 101.32706288 102.33646856 96 105 C97.39606503 110.48785548 99.4172235 115.3319874 101.89453125 120.4140625 C102.27874237 121.21442932 102.66295349 122.01479614 103.05880737 122.8394165 C103.88072723 124.55119747 104.70488618 126.26190484 105.53109741 127.97161865 C107.69315161 132.44855224 109.83537558 136.9349319 111.9765625 141.421875 C112.40436508 142.31796478 112.83216766 143.21405457 113.27293396 144.13729858 C117.17893184 152.33817436 120.97034919 160.58702962 124.6875 168.875 C125.10366074 169.79723358 125.10366074 169.79723358 125.52822876 170.73809814 C126.29794045 172.44582642 127.06127113 174.15642659 127.82421875 175.8671875 C128.45976685 177.29200439 128.45976685 177.29200439 129.1081543 178.74560547 C130 181 130 181 130 183 C117.13 183 104.26 183 91 183 C88.36 177.26625 85.72 171.5325 83 165.625 C82.1853125 163.85721191 81.370625 162.08942383 80.53125 160.26806641 C76.53666357 151.58864531 72.58875152 142.89108559 68.73278809 134.14907837 C65.29957789 126.37395463 61.80158549 118.60317099 58 111 C47.11 110.505 47.11 110.505 36 110 C36 134.09 36 158.18 36 183 C24.12 183 12.24 183 0 183 C0 122.61 0 62.22 0 0 Z " fill="#0E2027" transform="translate(834,552)"/>
<path d="M0 0 C94.15277778 0 94.15277778 0 112.375 16.5 C123.18073823 28.03681953 127.55015114 42.44414099 127.31640625 57.94921875 C126.34292147 74.6776789 119.31895294 87.48622203 107.09765625 98.75390625 C96.08297268 107.67277265 83.07202549 111.36502398 69.15234375 111.1953125 C68.35542114 111.19329834 67.55849854 111.19128418 66.73742676 111.18920898 C63.80405799 111.17886595 60.87077226 111.15094495 57.9375 111.125 C51.358125 111.08375 44.77875 111.0425 38 111 C38 135.09 38 159.18 38 184 C25.46 184 12.92 184 0 184 C0 123.28 0 62.56 0 0 Z " fill="#0F2129" transform="translate(435,552)"/>
<path d="M0 0 C1.7687398 -0.13513292 3.54043055 -0.23205586 5.3125 -0.3125 C6.29863281 -0.37050781 7.28476562 -0.42851563 8.30078125 -0.48828125 C11 0 11 0 12.70703125 2.13671875 C14.04664422 5.1032937 15.25587321 8.06805636 16.375 11.125 C18.32582675 16.32134633 20.47887591 21.3548388 22.81640625 26.38671875 C24.32049696 29.7076319 25.64208609 33.08724766 26.97265625 36.48046875 C28.05312144 39.13027881 29.23194205 41.71735812 30.4375 44.3125 C32.15591563 48.04195132 33.70669154 51.7856269 35.140625 55.6328125 C38.93791506 65.58144519 43.20962791 75.33122443 47.40795898 85.11547852 C51.8284152 95.42657628 56.16539083 105.75860045 60.2624054 116.20326233 C62.73800782 122.48054063 65.51294448 128.57063138 68.45703125 134.640625 C69.84385761 137.66004442 71.00857674 140.70612141 72.16499329 143.81835938 C73.52845542 147.38070723 75.05177316 150.87050382 76.57421875 154.3671875 C77.24813962 155.92704327 77.92196507 157.48694026 78.59570312 159.046875 C79.64781056 161.47683044 80.7010831 163.90626874 81.75610352 166.33496094 C82.78194106 168.69852851 83.8033546 171.0639685 84.82421875 173.4296875 C85.14291428 174.15985077 85.4616098 174.89001404 85.78996277 175.64230347 C88 180.7733638 88 180.7733638 88 183 C74.47 183 60.94 183 47 183 C41.42177963 171.84355927 41.42177963 171.84355927 39.65625 167.00390625 C36.48712757 158.55745221 32.98543882 150.25694126 29.5 141.9375 C28.8422786 140.36400305 28.18472576 138.79043564 27.52734375 137.21679688 C26.25780004 134.17827236 24.98713344 131.14022146 23.71557617 128.10253906 C22.26976537 124.64744181 20.83117693 121.18938819 19.39453125 117.73046875 C17.65339322 113.54777214 15.88566492 109.37716037 14.10546875 105.2109375 C13.38520508 103.52291016 13.38520508 103.52291016 12.65039062 101.80078125 C11.65800941 99.47683378 10.66313496 97.15394971 9.66601562 94.83203125 C9.19228516 93.71957031 8.71855469 92.60710937 8.23046875 91.4609375 C7.80145264 90.45853027 7.37243652 89.45612305 6.93041992 88.42333984 C6 86 6 86 6 84 C5.34 84 4.68 84 4 84 C3.65453125 85.15242187 3.3090625 86.30484375 2.953125 87.4921875 C0.46796047 94.938951 -2.97116863 102.0035128 -6.25 109.125 C-6.90014676 110.54668887 -7.54988875 111.96856291 -8.19921875 113.390625 C-11.60506868 120.839306 -15.05070005 128.26904845 -18.51985168 135.68843079 C-21.18318482 141.3854654 -23.8168265 147.09573846 -26.4375 152.8125 C-26.86353516 153.73869141 -27.28957031 154.66488281 -27.72851562 155.61914062 C-31.89868395 164.71267949 -35.93592512 173.85583152 -40 183 C-53.86 183 -67.72 183 -82 183 C-78.6241314 172.87239419 -78.6241314 172.87239419 -76.984375 169.2734375 C-76.62400146 168.47728027 -76.26362793 167.68112305 -75.89233398 166.86083984 C-75.51536377 166.0405127 -75.13839355 165.22018555 -74.75 164.375 C-74.35304932 163.50182129 -73.95609863 162.62864258 -73.54711914 161.72900391 C-70.65824189 155.38937817 -67.70755882 149.07937468 -64.74609375 142.7734375 C-62.77379961 138.54082452 -60.88689894 134.27120391 -59 130 C-56.34366986 123.98976872 -53.63124559 118.01383759 -50.83789062 112.06591797 C-35.09034923 78.5028888 -19.92086321 44.64802305 -4.89575195 10.75634766 C-4.40421631 9.6482373 -3.91268066 8.54012695 -3.40625 7.3984375 C-2.96603516 6.40505371 -2.52582031 5.41166992 -2.07226562 4.38818359 C-1.40969108 2.9124768 -0.72342457 1.44684915 0 0 Z " fill="#0E2027" transform="translate(679,552)"/>
<path d="M0 0 C40.26 0 80.52 0 122 0 C122 12.21 122 24.42 122 37 C81.74 37 41.48 37 0 37 C0 24.79 0 12.58 0 0 Z " fill="#102229" transform="translate(228,552)"/>
<path d="M0 0 C40.59 0 81.18 0 123 0 C123 11.88 123 23.76 123 36 C82.41 36 41.82 36 0 36 C0 24.12 0 12.24 0 0 Z " fill="#0F2127" transform="translate(1033,552)"/>
<path d="M0 0 C39.93 0 79.86 0 121 0 C121 11.88 121 23.76 121 36 C81.07 36 41.14 36 0 36 C0 24.12 0 12.24 0 0 Z " fill="#0E2027" transform="translate(229,699)"/>
<path d="M0 0 C39.93 0 79.86 0 121 0 C121 11.88 121 23.76 121 36 C81.07 36 41.14 36 0 36 C0 24.12 0 12.24 0 0 Z " fill="#0E2027" transform="translate(1033,699)"/>
<path d="M0 0 C33.66 0 67.32 0 102 0 C102 12.21 102 24.42 102 37 C68.34 37 34.68 37 0 37 C0 24.79 0 12.58 0 0 Z " fill="#4BAFD3" transform="translate(228,623)"/>
<path d="M0 0 C33.66 0 67.32 0 102 0 C102 12.21 102 24.42 102 37 C68.34 37 34.68 37 0 37 C0 24.79 0 12.58 0 0 Z " fill="#F41D15" transform="translate(1033,623)"/>
<path d="M0 0 C6.105 -0.061875 12.21 -0.12375 18.5 -0.1875 C20.41103516 -0.21481201 22.32207031 -0.24212402 24.29101562 -0.27026367 C25.82942068 -0.27903694 27.36783278 -0.28667888 28.90625 -0.29296875 C30.07559082 -0.3159906 30.07559082 -0.3159906 31.26855469 -0.33947754 C37.61728207 -0.34246471 43.32282996 0.68101052 48.27734375 4.97265625 C48.82519531 5.66230469 49.37304688 6.35195313 49.9375 7.0625 C50.50339844 7.75472656 51.06929687 8.44695313 51.65234375 9.16015625 C54.97925464 13.70211285 54.5289675 18.5560428 54 24 C51.9073454 30.88073932 47.85076445 34.09949036 42 38 C40.04475403 38.24050903 40.04475403 38.24050903 37.80395508 38.22705078 C36.96331009 38.22689972 36.1226651 38.22674866 35.25654602 38.22659302 C34.35333115 38.21627045 33.45011627 38.20594788 32.51953125 38.1953125 C31.12754768 38.19106766 31.12754768 38.19106766 29.70744324 38.18673706 C26.74233121 38.17553836 23.77752079 38.15043435 20.8125 38.125 C18.80273874 38.1149698 16.79297274 38.10584402 14.78320312 38.09765625 C9.85525895 38.07730126 4.92796725 38.038152 0 38 C0 25.46 0 12.92 0 0 Z " fill="#F1F3F3" transform="translate(870,588)"/>
<path d="M0 0 C6.249375 -0.103125 12.49875 -0.20625 18.9375 -0.3125 C20.89163818 -0.35802002 22.84577637 -0.40354004 24.85913086 -0.45043945 C41.57568143 -0.67742625 41.57568143 -0.67742625 48 5 C52.2086197 9.31653303 54.07051443 13.38678383 54.375 19.375 C54.22900561 24.86803901 52.38665294 28.59420278 48.5390625 32.47265625 C44.58153955 35.917911 41.17373493 38.26059326 35.87402344 38.22705078 C34.67323151 38.22682419 34.67323151 38.22682419 33.44818115 38.22659302 C32.59387512 38.21627045 31.73956909 38.20594788 30.859375 38.1953125 C29.97719299 38.1924826 29.09501099 38.18965271 28.18609619 38.18673706 C25.37392501 38.17555961 22.5620746 38.15045951 19.75 38.125 C17.84115044 38.11496705 15.93229588 38.10584175 14.0234375 38.09765625 C9.34873592 38.07733146 4.67472619 38.03817834 0 38 C0 25.46 0 12.92 0 0 Z " fill="#F4F5F5" transform="translate(57,588)"/>
<path d="M0 0 C5.53373148 -0.13840736 11.06136992 -0.2576251 16.59545898 -0.32958984 C18.4742476 -0.35960914 20.35289789 -0.40043883 22.23120117 -0.45263672 C41.09329212 -0.96337027 41.09329212 -0.96337027 47.50390625 4.44433594 C47.99761719 4.95770508 48.49132812 5.47107422 49 6 C50.2684375 7.299375 50.2684375 7.299375 51.5625 8.625 C54.16295198 14.73040899 53.96659762 21.20195426 51.8125 27.4375 C48.83347593 31.64922369 45.80900908 35.00281628 41 37 C38.96246338 37.24050903 38.96246338 37.24050903 36.78222656 37.22705078 C35.5514035 37.22682419 35.5514035 37.22682419 34.29571533 37.22659302 C32.98144562 37.21110916 32.98144562 37.21110916 31.640625 37.1953125 C30.73624695 37.1924826 29.8318689 37.18965271 28.90008545 37.18673706 C26.01658805 37.17555782 23.13340325 37.15045733 20.25 37.125 C18.29297324 37.11496728 16.33594161 37.10584194 14.37890625 37.09765625 C9.58572069 37.07732892 4.79320954 37.03817601 0 37 C0 24.79 0 12.58 0 0 Z " fill="#F6F8F8" transform="translate(472,589)"/>
<path d="M0 0 C4.41182133 1.62321728 7.21311169 4.21311169 10.5 7.5 C12.84876001 12.98044003 12.95029462 18.14104071 12 24 C9.58290172 29.1714661 6.11751504 32.49694838 1 35 C-4.67895619 35.79792929 -10.88355605 36.07610133 -16.0625 33.3125 C-19.92257001 30.27372148 -22.43718477 27.68844569 -24 23 C-24.71495113 16.8912403 -25.03893832 11.57807389 -21.3125 6.4375 C-15.43662262 -0.62266274 -8.72485238 -1.1169497 0 0 Z " fill="#202A31" transform="translate(1246,700)"/>
<path d="M0 0 C33.66 0 67.32 0 102 0 C102 12.21 102 24.42 102 37 C68.34 37 34.68 37 0 37 C0 24.79 0 12.58 0 0 Z M7 1 C6.11252807 4.54988771 5.89454533 7.14180778 5.9375 10.75 C5.94652344 11.73484375 5.95554687 12.7196875 5.96484375 13.734375 C5.97644531 14.48203125 5.98804688 15.2296875 6 16 C5.01 16.33 4.02 16.66 3 17 C3.52268466 19.76276177 4.10869587 22.3260876 5 25 C5.66 25 6.32 25 7 25 C6.34 28.63 5.68 32.26 5 36 C36.68 36 68.36 36 101 36 C101 24.45 101 12.9 101 1 C69.98 1 38.96 1 7 1 Z " fill="#E9433E" transform="translate(1033,623)"/>
<path d="M0 0 C4.14641194 2.07320597 6.25500922 3.75437512 8 8 C8.77029703 12.00702589 8.87813383 15.54811616 6.7265625 19.10546875 C4.66157124 21.54820232 2.87817285 23.56091357 0 25 C-1.54613014 24.91348369 -3.08909387 24.75997364 -4.625 24.5625 C-5.44226562 24.46066406 -6.25953125 24.35882812 -7.1015625 24.25390625 C-7.72804688 24.17011719 -8.35453125 24.08632813 -9 24 C-7.25 20.125 -7.25 20.125 -5 19 C-2.6670134 18.95977609 -0.33293334 18.95679753 2 19 C1.67 18.34 1.34 17.68 1 17 C0.86322266 13.66263287 0.95716056 10.3414767 1 7 C-5.93 6.505 -5.93 6.505 -13 6 C-12.67 7.03125 -12.34 8.0625 -12 9.125 C-11.02412556 12.49620262 -10.92008749 15.48384958 -11 19 C-10.67 19.99 -10.34 20.98 -10 22 C-10.99 22.33 -11.98 22.66 -13 23 C-16.83146673 19.41572468 -18.14284057 16.85751638 -18.375 11.625 C-18.34443752 7.86581506 -18.14089451 7.1789741 -15.6875 4.0625 C-10.22518606 -0.12950837 -6.7847158 -0.86523592 0 0 Z " fill="#E3E5E7" transform="translate(1245,705)"/>
<path d="M0 0 C0.99 0.99 1.98 1.98 3 3 C2.34 3.33 1.68 3.66 1 4 C1 3.34 1 2.68 1 2 C0.34 2.33 -0.32 2.66 -1 3 C-0.01 4.98 -0.01 4.98 1 7 C-32.33 7 -65.66 7 -100 7 C-100 6.67 -100 6.34 -100 6 C-87.13 5.67 -74.26 5.34 -61 5 C-61 4.34 -61 3.68 -61 3 C-55.60432313 2.82799707 -50.20847173 2.66247528 -44.8125 2.5 C-43.61775055 2.46348831 -43.61775055 2.46348831 -42.39886475 2.42623901 C-31.97311963 2.11122958 -21.56291927 1.86348841 -11.13208008 2.125 C-6.95047129 2.1894633 -3.757297 1.90858712 0 0 Z " fill="#FAEFEF" transform="translate(1133,616)"/>
<path d="M0 0 C39.93 0 79.86 0 121 0 C121 0.33 121 0.66 121 1 C119.17662109 1.09087891 119.17662109 1.09087891 117.31640625 1.18359375 C115.73175772 1.26798332 114.14712298 1.3526321 112.5625 1.4375 C111.76005859 1.47681641 110.95761719 1.51613281 110.13085938 1.55664062 C106.24760439 1.4054296 106.24760439 1.4054296 103 3 C99.95648832 3.03179788 96.92494775 2.93147433 93.8828125 2.83984375 C90.80039063 2.76640625 90.80039063 2.76640625 88 5 C85.73828125 4.9765625 85.73828125 4.9765625 83.3125 4.625 C82.10013672 4.45871094 82.10013672 4.45871094 80.86328125 4.2890625 C79.94095703 4.14597656 79.94095703 4.14597656 79 4 C79 3.34 79 2.68 79 2 C78.01 2 77.02 2 76 2 C76 2.66 76 3.32 76 4 C74.20793453 3.85915204 72.41635083 3.71216299 70.625 3.5625 C69.62726563 3.48128906 68.62953125 3.40007813 67.6015625 3.31640625 C65 3 65 3 63 2 C61.10578215 1.91902204 59.20863381 1.9033452 57.31274414 1.91821289 C55.52562767 1.92800926 55.52562767 1.92800926 53.70240784 1.93800354 C52.40971481 1.94943893 51.11702179 1.96087433 49.78515625 1.97265625 C48.44999034 1.97959956 47.11482043 1.98581022 45.77964783 1.99131775 C40.10342857 2.0157912 34.42731679 2.05135247 28.7512207 2.09594727 C25.28004607 2.12272435 21.8089337 2.13977123 18.33767509 2.15081596 C16.37058033 2.16004865 14.40354817 2.18043021 12.4365387 2.20094299 C11.24197556 2.20432175 10.04741241 2.2077005 8.81665039 2.21118164 C7.76345108 2.21863907 6.71025177 2.2260965 5.62513733 2.23377991 C3 2 3 2 0 0 Z " fill="#1C2D32" transform="translate(1033,699)"/>
<path d="M0 0 C4.62 0 9.24 0 14 0 C14.93491183 4.67455917 15.07972012 8.2965127 15 13 C14.37351562 13.10957031 13.74703125 13.21914063 13.1015625 13.33203125 C12.28429688 13.49058594 11.46703125 13.64914062 10.625 13.8125 C9.40683594 14.03873047 9.40683594 14.03873047 8.1640625 14.26953125 C5.64179359 14.87544942 5.64179359 14.87544942 4 18 C4.99 18.33 5.98 18.66 7 19 C5.02 18.67 3.04 18.34 1 18 C1 17.34 1 16.68 1 16 C1.66 16 2.32 16 3 16 C3 15.34 3 14.68 3 14 C2.34 13.67 1.68 13.34 1 13 C1.020625 12.154375 1.04125 11.30875 1.0625 10.4375 C0.99783768 6.88107223 0.5614504 3.50906497 0 0 Z " fill="#C0C5C8" transform="translate(1232,711)"/>
<path d="M0 0 C0.66 0.33 1.32 0.66 2 1 C3.44753187 9.25093166 3.09219002 17.65168141 3 26 C2.34 26 1.68 26 1 26 C1.33 30.62 1.66 35.24 2 40 C-1 41 -1 41 -4 41 C-4 40.34 -4 39.68 -4 39 C-3.34 39 -2.68 39 -2 39 C-2 26.46 -2 13.92 -2 1 C-1.34 0.67 -0.68 0.34 0 0 Z " fill="#F0F6F6" transform="translate(332,622)"/>
<path d="M0 0 C1.51400391 0.01740234 1.51400391 0.01740234 3.05859375 0.03515625 C4.07050781 0.04417969 5.08242187 0.05320312 6.125 0.0625 C7.29869141 0.07990234 7.29869141 0.07990234 8.49609375 0.09765625 C8.49609375 1.08765625 8.49609375 2.07765625 8.49609375 3.09765625 C9.15609375 3.75765625 9.81609375 4.41765625 10.49609375 5.09765625 C5.87609375 5.09765625 1.25609375 5.09765625 -3.50390625 5.09765625 C-3.17390625 6.12890625 -2.84390625 7.16015625 -2.50390625 8.22265625 C-1.52803181 11.59385887 -1.42399374 14.58150583 -1.50390625 18.09765625 C-1.17390625 19.08765625 -0.84390625 20.07765625 -0.50390625 21.09765625 C-1.49390625 21.42765625 -2.48390625 21.75765625 -3.50390625 22.09765625 C-7.33537298 18.51338093 -8.64674682 15.95517263 -8.87890625 10.72265625 C-8.86010034 6.87371337 -8.64230116 6.26798845 -6.06640625 3.09765625 C-5.22078125 2.43765625 -4.37515625 1.77765625 -3.50390625 1.09765625 C-2.50390625 0.09765625 -2.50390625 0.09765625 0 0 Z " fill="#E8EBEC" transform="translate(1235.50390625,705.90234375)"/>
<path d="M0 0 C4.29 0 8.58 0 13 0 C13 3.96 13 7.92 13 12 C9.04 12 5.08 12 1 12 C1.33 9.36 1.66 6.72 2 4 C2.66 5.32 3.32 6.64 4 8 C5.32 7.67 6.64 7.34 8 7 C8 6.01 8 5.02 8 4 C5.69 3.01 3.38 2.02 1 1 C0.67 1.66 0.34 2.32 0 3 C0 2.01 0 1.02 0 0 Z " fill="#131F23" transform="translate(1234,712)"/>
<path d="M0 0 C-0.66 0.66 -1.32 1.32 -2 2 C-2 2.99 -2 3.98 -2 5 C-3.64333504 6.03789581 -5.31243867 7.03567924 -7 8 C-8.93395001 10.90092502 -9.30131941 11.89674737 -9.625 15.1875 C-9.74875 16.445625 -9.8725 17.70375 -10 19 C-10.33 19 -10.66 19 -11 19 C-11.33 16.69 -11.66 14.38 -12 12 C-12.66 12.99 -13.32 13.98 -14 15 C-14.875 13 -14.875 13 -15 10 C-12.00616117 4.50416729 -6.97864333 -2.84315098 0 0 Z " fill="#1E2C32" transform="translate(1237,701)"/>
<path d="M0 0 C0.33 0.66 0.66 1.32 1 2 C1.99 1.67 2.98 1.34 4 1 C6.6875 1.9375 6.6875 1.9375 9 3 C9 2.34 9 1.68 9 1 C10.32 0.67 11.64 0.34 13 0 C11.51828928 3.53391969 9.54451438 5.59930326 6.6875 8.125 C5.92824219 8.80820312 5.16898438 9.49140625 4.38671875 10.1953125 C1.98820697 12.00891715 -0.16851568 13.02777353 -3 14 C-3.33 13.01 -3.66 12.02 -4 11 C-3.01 10.01 -2.02 9.02 -1 8 C-0.01 8.33 0.98 8.66 2 9 C2 8.01 2 7.02 2 6 C1.34 5.67 0.68 5.34 0 5 C0 3.33333333 0 1.66666667 0 0 Z " fill="#18262E" transform="translate(936,641)"/>
<path d="M0 0 C3.63 0 7.26 0 11 0 C11 1.32 11 2.64 11 4 C10.34 3.34 9.68 2.68 9 2 C5.72226496 2.75150023 5.72226496 2.75150023 4 6 C3.01 6.33 2.02 6.66 1 7 C-0.70855022 10.00007271 -0.70855022 10.00007271 -2 13 C-2.66 13 -3.32 13 -4 13 C-4.433125 14.4540625 -4.433125 14.4540625 -4.875 15.9375 C-6 19 -6 19 -8 20 C-5.83324088 13.04356283 -3.09116478 6.60005454 0 0 Z " fill="#14252D" transform="translate(679,552)"/>
<path d="M0 0 C0.76183594 -0.01417969 1.52367187 -0.02835938 2.30859375 -0.04296875 C4.86571025 0.21850417 6.41960304 0.77290789 8.5625 2.1875 C9.8125 5.3125 9.8125 5.3125 10.5625 8.1875 C9.634375 7.878125 8.70625 7.56875 7.75 7.25 C2.78378454 5.8091844 -2.29955306 5.54055964 -7.4375 5.1875 C-7.4375 3.8675 -7.4375 2.5475 -7.4375 1.1875 C-4.66697819 0.26399273 -2.87061242 0.02420415 0 0 Z " fill="#1C282C" transform="translate(1241.4375,699.8125)"/>
<path d="M0 0 C2.36076277 3.54114415 3.15282091 5.19963715 3.1875 9.375 C3.20167969 10.14585937 3.21585937 10.91671875 3.23046875 11.7109375 C2.97801607 14.21834888 2.25193467 15.83261902 1 18 C-2.29165757 15.12777802 -3.06923186 12.49054081 -3.92578125 8.296875 C-4.04863004 4.49502834 -2.44348535 2.80282143 0 0 Z " fill="#E5E8E8" transform="translate(108,598)"/>
<path d="M0 0 C4.27223816 4.74693129 9 11.43426891 9 18 C8.34 18 7.68 18 7 18 C7 17.34 7 16.68 7 16 C6.34 15.67 5.68 15.34 5 15 C4.690625 14.195625 4.38125 13.39125 4.0625 12.5625 C3.15452711 9.70136041 3.15452711 9.70136041 0 8 C0 7.34 0 6.68 0 6 C-1.9600281 4.36323743 -1.9600281 4.36323743 -4 3 C-2.68 2.67 -1.36 2.34 0 2 C0 1.34 0 0.68 0 0 Z " fill="#1A272F" transform="translate(949,573)"/>
<path d="M0 0 C0.66 1.32 1.32 2.64 2 4 C1.34 4.66 0.68 5.32 0 6 C-0.33 6.99 -0.66 7.98 -1 9 C-2.7904233 10.7904233 -4.75643706 11.85213059 -7 13 C-9.3125 12.6875 -9.3125 12.6875 -11 12 C-9.55928394 8.58301375 -7.76769435 6.68041215 -4.9375 4.3125 C-3.86822266 3.40951172 -3.86822266 3.40951172 -2.77734375 2.48828125 C-1.89755859 1.75158203 -1.89755859 1.75158203 -1 1 C-0.67 0.67 -0.34 0.34 0 0 Z " fill="#ECF0F2" transform="translate(135,642)"/>
<path d="M0 0 C2 1.3125 2 1.3125 4 3 C4 3.99 4 4.98 4 6 C3.01 5.67 2.02 5.34 1 5 C0.855625 5.639375 0.71125 6.27875 0.5625 6.9375 C0 9 0 9 -1 10 C-1.33 10.99 -1.66 11.98 -2 13 C-2.66 13 -3.32 13 -4 13 C-4 13.66 -4 14.32 -4 15 C-4.66 15 -5.32 15 -6 15 C-4.36041242 9.76727367 -2.61047965 4.84803364 0 0 Z M2 6 C2.66 6 3.32 6 4 6 C3.625 7.9375 3.625 7.9375 3 10 C2.01 10.495 2.01 10.495 1 11 C1.33 9.35 1.66 7.7 2 6 Z " fill="#F0F0F2" transform="translate(658,691)"/>
<path d="M0 0 C-0.66 1.32 -1.32 2.64 -2 4 C-6.29 4 -10.58 4 -15 4 C-14.34 2.68 -13.68 1.36 -13 0 C-8.39502873 -1.15124282 -4.61180108 -1.01234658 0 0 Z " fill="#1D272B" transform="translate(1249,731)"/>
<path d="M0 0 C0.5775 0.763125 1.155 1.52625 1.75 2.3125 C5.06348837 6.27027778 7.11518297 8.02756753 12.25 8.6875 C14.10625 8.8421875 14.10625 8.8421875 16 9 C16 9.33 16 9.66 16 10 C14.88625 10.12375 13.7725 10.2475 12.625 10.375 C8.96896323 10.6465813 8.96896323 10.6465813 7 13 C3.70720291 12.68134222 2.13464912 11.45484649 0 9 C0.66 8.67 1.32 8.34 2 8 C1.34 7.01 0.68 6.02 0 5 C-0.125 2.3125 -0.125 2.3125 0 0 Z " fill="#242D32" transform="translate(1227,721)"/>
<path d="M0 0 C0.33 1.32 0.66 2.64 1 4 C0.34 4.66 -0.32 5.32 -1 6 C0.32 6.66 1.64 7.32 3 8 C2.67 8.99 2.34 9.98 2 11 C0.68 10.67 -0.64 10.34 -2 10 C-2.33 10.99 -2.66 11.98 -3 13 C-5.2477975 10.94766315 -6.0022242 9.99332739 -7 7 C-4.69 4.69 -2.38 2.38 0 0 Z " fill="#F7F7F7" transform="translate(549,643)"/>
<path d="M0 0 C1.51400391 0.01740234 1.51400391 0.01740234 3.05859375 0.03515625 C4.07050781 0.04417969 5.08242187 0.05320312 6.125 0.0625 C7.29869141 0.07990234 7.29869141 0.07990234 8.49609375 0.09765625 C8.49609375 1.08765625 8.49609375 2.07765625 8.49609375 3.09765625 C9.15609375 3.75765625 9.81609375 4.41765625 10.49609375 5.09765625 C6.20609375 5.09765625 1.91609375 5.09765625 -2.50390625 5.09765625 C-2.83390625 3.77765625 -3.16390625 2.45765625 -3.50390625 1.09765625 C-2.50390625 0.09765625 -2.50390625 0.09765625 0 0 Z " fill="#F4F2F4" transform="translate(1235.50390625,705.90234375)"/>
<path d="M0 0 C0.66 0 1.32 0 2 0 C2 0.99 2 1.98 2 3 C2.99 3.33 3.98 3.66 5 4 C6.1875 6.5625 6.1875 6.5625 7 9 C7.33 8.34 7.66 7.68 8 7 C8 7.99 8 8.98 8 10 C8.99 10 9.98 10 11 10 C10.67 10.99 10.34 11.98 10 13 C9.34 13 8.68 13 8 13 C8.33 14.98 8.66 16.96 9 19 C6.84416321 15.76624482 5.11056381 12.40510006 3.375 8.9375 C2.88773437 7.98133789 2.88773437 7.98133789 2.390625 7.00585938 C0 2.23967634 0 2.23967634 0 0 Z " fill="#18272E" transform="translate(85,677)"/>
<path d="M0 0 C0.33 0.99 0.66 1.98 1 3 C1.66 3.33 2.32 3.66 3 4 C2.6875 7.375 2.6875 7.375 2 11 C1.01 11.66 0.02 12.32 -1 13 C-2.32 11.35 -3.64 9.7 -5 8 C-3.35 5.36 -1.7 2.72 0 0 Z " fill="#E9EBED" transform="translate(141,632)"/>
<path d="M0 0 C4.20969919 1.50346399 5.91860139 4.14555814 8 8 C7.75 10.375 7.75 10.375 7 12 C7 11.01 7 10.02 7 9 C5.35 9.33 3.7 9.66 2 10 C1.896875 9.360625 1.79375 8.72125 1.6875 8.0625 C1.460625 7.381875 1.23375 6.70125 1 6 C0.01 5.67 -0.98 5.34 -2 5 C-1.01 4.34 -0.02 3.68 1 3 C0.67 2.01 0.34 1.02 0 0 Z " fill="#2A3339" transform="translate(1250,703)"/>
<path d="M0 0 C2.875 -0.1875 2.875 -0.1875 6 0 C8 3 8 3 7.625 5.1875 C7.41875 5.785625 7.2125 6.38375 7 7 C5.02 7.33 3.04 7.66 1 8 C0.26919734 6.02253397 -0.39421747 4.01927511 -1 2 C-0.67 1.34 -0.34 0.68 0 0 Z " fill="#34424A" transform="translate(1235,713)"/>
<path d="M0 0 C1.5625 1.5625 1.5625 1.5625 3 4 C2.6875 7.75 2.6875 7.75 2 11 C1.34 11 0.68 11 0 11 C-0.33 11.66 -0.66 12.32 -1 13 C-1.66 12.34 -2.32 11.68 -3 11 C-3 6.32674845 -1.92757363 4.17640953 0 0 Z " fill="#1A2B32" transform="translate(613,698)"/>
<path d="M0 0 C2.08888889 3.13333333 2.08888889 3.13333333 1.75 6.4375 C1 9 1 9 -1.0625 10.3125 C-2.0215625 10.6528125 -2.0215625 10.6528125 -3 11 C-4.32 9.68 -5.64 8.36 -7 7 C-5.47005208 5.76302083 -3.94010417 4.52604167 -2.41015625 3.2890625 C-0.86733563 2.0333609 -0.86733563 2.0333609 0 0 Z " fill="#253237" transform="translate(1252,722)"/>
<path d="M0 0 C4.29 0 8.58 0 13 0 C13 3.96 13 7.92 13 12 C12.34 11.67 11.68 11.34 11 11 C10.26924352 8.6859378 9.59861742 6.35171131 9 4 C8.236875 3.87625 7.47375 3.7525 6.6875 3.625 C4 3 4 3 1 1 C0.67 1.66 0.34 2.32 0 3 C0 2.01 0 1.02 0 0 Z " fill="#0F2327" transform="translate(1234,712)"/>
<path d="M0 0 C0.99 2.64 1.98 5.28 3 8 C0.36 8 -2.28 8 -5 8 C-5 5.69 -5 3.38 -5 1 C-3 0 -3 0 0 0 Z " fill="#E9EBEC" transform="translate(893,663)"/>
<path d="M0 0 C0.66 0.99 1.32 1.98 2 3 C1.67 3.66 1.34 4.32 1 5 C0.34 5 -0.32 5 -1 5 C-1.12117187 5.67546875 -1.24234375 6.3509375 -1.3671875 7.046875 C-1.61855469 8.38492188 -1.61855469 8.38492188 -1.875 9.75 C-2.03742187 10.63171875 -2.19984375 11.5134375 -2.3671875 12.421875 C-2.96796264 14.86947744 -3.77997117 16.80599857 -5 19 C-5.99 19 -6.98 19 -8 19 C-6.00386732 12.2813095 -3.2708579 6.19265192 0 0 Z " fill="#DADEE0" transform="translate(649,711)"/>
<path d="M0 0 C0.8971875 0.309375 0.8971875 0.309375 1.8125 0.625 C1.1525 1.285 0.4925 1.945 -0.1875 2.625 C-0.1875 3.615 -0.1875 4.605 -0.1875 5.625 C-1.8375 6.285 -3.4875 6.945 -5.1875 7.625 C-5.1875 6.965 -5.1875 6.305 -5.1875 5.625 C-6.8375 5.955 -8.4875 6.285 -10.1875 6.625 C-3.20231959 -0.54896907 -3.20231959 -0.54896907 0 0 Z " fill="#2C3639" transform="translate(1235.1875,700.375)"/>
<path d="M0 0 C-3.625 3 -3.625 3 -7 3 C-7.99 3.20625 -8.98 3.4125 -10 3.625 C-15.1012622 4.42584331 -20.02178299 3.08926629 -25 2 C-25 1.67 -25 1.34 -25 1 C-21.95843125 0.83135856 -18.91676547 0.66502247 -15.875 0.5 C-15.0190625 0.45230469 -14.163125 0.40460937 -13.28125 0.35546875 C-8.84778214 0.11674356 -4.44201651 -0.05825595 0 0 Z " fill="#132830" transform="translate(518,553)"/>
<path d="M0 0 C0.66 0 1.32 0 2 0 C5.05272895 6.34967623 5.05272895 6.34967623 4.8125 9.3125 C4 11 4 11 2 13 C1.34 11.68 0.68 10.36 0 9 C0.99 9.33 1.98 9.66 3 10 C2.67 9.01 2.34 8.02 2 7 C1.01 7 0.02 7 -1 7 C-0.67 4.69 -0.34 2.38 0 0 Z " fill="#1C2931" transform="translate(714,612)"/>
<path d="M0 0 C1.32 0 2.64 0 4 0 C4.12375 0.804375 4.2475 1.60875 4.375 2.4375 C4.684375 3.7059375 4.684375 3.7059375 5 5 C5.66 5.33 6.32 5.66 7 6 C7.33 5.34 7.66 4.68 8 4 C7.42805835 7.31726155 6.42999536 8.72635823 4 11 C3.32880451 9.5437455 2.66318193 8.08492133 2 6.625 C1.62875 5.81289063 1.2575 5.00078125 0.875 4.1640625 C0 2 0 2 0 0 Z " fill="#ECEFF0" transform="translate(959,722)"/>
<path d="M0 0 C1.67542976 0.28604898 3.34385343 0.61781233 5 1 C5.1953125 7.0546875 5.1953125 7.0546875 5 9 C4.34 9.66 3.68 10.32 3 11 C1.68 7.7 0.36 4.4 -1 1 C-0.67 0.67 -0.34 0.34 0 0 Z " fill="#F1F3F3" transform="translate(954,577)"/>
<path d="M0 0 C0.33 0 0.66 0 1 0 C1 2.64 1 5.28 1 8 C0.01 8.33 -0.98 8.66 -2 9 C-2.70381157 10.98723268 -3.3711811 12.98777953 -4 15 C-4.99 15.495 -4.99 15.495 -6 16 C-4.25192871 10.53262809 -2.34205919 5.24175152 0 0 Z " fill="#29353A" transform="translate(677,556)"/>
<path d="M0 0 C2.35953094 2.35953094 2.49141413 3.77895617 3 7 C0.03 7 -2.94 7 -6 7 C-5.34 6.67 -4.68 6.34 -4 6 C-3.34444881 3.47266765 -3.34444881 3.47266765 -3 1 C-2.01 1.33 -1.02 1.66 0 2 C0 1.34 0 0.68 0 0 Z " fill="#1E2A31" transform="translate(764,728)"/>
<path d="M0 0 C0.99 0 1.98 0 3 0 C5.35953094 2.35953094 5.49141413 3.77895617 6 7 C4.02 7.33 2.04 7.66 0 8 C-0.79953138 4.71303767 -1.09658936 3.28976808 0 0 Z " fill="#202C34" transform="translate(954,719)"/>
<path d="M0 0 C1.32 0.66 2.64 1.32 4 2 C4 2.66 4 3.32 4 4 C3.34 4 2.68 4 2 4 C2.33 4.99 2.66 5.98 3 7 C1.02253397 7.73080266 -0.98072489 8.39421747 -3 9 C-3.66 8.67 -4.32 8.34 -5 8 C-3.35 5.36 -1.7 2.72 0 0 Z " fill="#E9ECED" transform="translate(556,632)"/>
<path d="M0 0 C0.33 0 0.66 0 1 0 C1.28571429 7.42857143 1.28571429 7.42857143 -1 11 C-1.66 11 -2.32 11 -3 11 C-3.33 12.32 -3.66 13.64 -4 15 C-4.66 15 -5.32 15 -6 15 C-4.40109514 9.80355921 -2.25861997 4.93387858 0 0 Z " fill="#29353A" transform="translate(660,594)"/>
<path d="M0 0 C0.99 0.66 1.98 1.32 3 2 C3.3125 5.5 3.3125 5.5 3 9 C2.34 9.66 1.68 10.32 1 11 C-1.03435531 7.27034861 -2 5.33094958 -2 1 C-1.34 0.67 -0.68 0.34 0 0 Z " fill="#203037" transform="translate(723,720)"/>
<path d="M0 0 C2.97 0.495 2.97 0.495 6 1 C6.66 2.98 7.32 4.96 8 7 C5.69 6.34 3.38 5.68 1 5 C0.67 3.35 0.34 1.7 0 0 Z " fill="#101F23" transform="translate(1244,701)"/>
<path d="M0 0 C2 1 2 1 2.8515625 3.28515625 C3.10679687 4.20167969 3.36203125 5.11820313 3.625 6.0625 C3.88539063 6.98160156 4.14578125 7.90070312 4.4140625 8.84765625 C4.60742188 9.55792969 4.80078125 10.26820313 5 11 C4.01 11.495 4.01 11.495 3 12 C2.67 10.02 2.34 8.04 2 6 C0.35 5.67 -1.3 5.34 -3 5 C-2.01 3.35 -1.02 1.7 0 0 Z M-4 5 C-4 8 -4 8 -4 8 Z " fill="#1A2A30" transform="translate(741,675)"/>
<path d="M0 0 C0.66 0 1.32 0 2 0 C2.99 2.97 3.98 5.94 5 9 C3.35 9.33 1.7 9.66 0 10 C-0.33 9.01 -0.66 8.02 -1 7 C-0.34 7 0.32 7 1 7 C0.67 4.69 0.34 2.38 0 0 Z " fill="#1B2A2F" transform="translate(145,724)"/>
<path d="M0 0 C0.99 1.32 1.98 2.64 3 4 C2.05016642 5.50539661 1.08988109 7.00420347 0.125 8.5 C-0.40867187 9.3353125 -0.94234375 10.170625 -1.4921875 11.03125 C-1.98976563 11.6809375 -2.48734375 12.330625 -3 13 C-3.66 13 -4.32 13 -5 13 C-3.58192622 8.52761347 -1.88695626 4.28853694 0 0 Z " fill="#253037" transform="translate(605,715)"/>
<path d="M0 0 C0.33 0.66 0.66 1.32 1 2 C0.34 2 -0.32 2 -1 2 C-2.4606285 4.64738916 -3 5.89448334 -3 9 C-3.99 9.495 -3.99 9.495 -5 10 C-5.66 8.02 -6.32 6.04 -7 4 C-4.69 2.68 -2.38 1.36 0 0 Z " fill="#E1E7E9" transform="translate(122,653)"/>
<path d="M0 0 C0.66 0.99 1.32 1.98 2 3 C0.875 5.4375 0.875 5.4375 -1 8 C-4.1875 8.8125 -4.1875 8.8125 -7 9 C-7 8.01 -7 7.02 -7 6 C-5.03277992 4.61876037 -3.03131672 3.28511874 -1 2 C-0.67 1.34 -0.34 0.68 0 0 Z " fill="#212D33" transform="translate(920,618)"/>
<path d="M0 0 C0.33 1.32 0.66 2.64 1 4 C0.34 4 -0.32 4 -1 4 C-1 4.66 -1 5.32 -1 6 C-2.9375 5.25 -2.9375 5.25 -5 4 C-5.75 1.875 -5.75 1.875 -6 0 C-3.50907189 -1.24546405 -2.58919267 -0.7767578 0 0 Z " fill="#1B292F" transform="translate(103,625)"/>
<path d="M0 0 C2.97 0.495 2.97 0.495 6 1 C6.66 2.98 7.32 4.96 8 7 C5.03 6.505 5.03 6.505 2 6 C1.34 4.02 0.68 2.04 0 0 Z " fill="#19262F" transform="translate(136,713)"/>
<path d="M0 0 C0.66 0.33 1.32 0.66 2 1 C2 3.64 2 6.28 2 9 C1.67 8.34 1.34 7.68 1 7 C-0.32 7.33 -1.64 7.66 -3 8 C-2.45276317 4.62537285 -1.9451 2.91765 0 0 Z " fill="#E1E2E2" transform="translate(1220,712)"/>
<path d="M0 0 C0.33 0 0.66 0 1 0 C1.33 2.31 1.66 4.62 2 7 C1.34 7 0.68 7 0 7 C-0.66 8.32 -1.32 9.64 -2 11 C-2.66 10.67 -3.32 10.34 -4 10 C-2.66666667 6.66666667 -1.33333333 3.33333333 0 0 Z " fill="#E4E6E9" transform="translate(956,629)"/>
<path d="M0 0 C0.66 0 1.32 0 2 0 C2.99 2.97 3.98 5.94 5 9 C3.68 8.67 2.36 8.34 1 8 C-0.3125 5.625 -0.3125 5.625 -1 3 C-0.67 2.01 -0.34 1.02 0 0 Z " fill="#28323B" transform="translate(707,595)"/>
<path d="M0 0 C-0.33 0.99 -0.66 1.98 -1 3 C-1.680625 2.855625 -2.36125 2.71125 -3.0625 2.5625 C-6.36273082 1.93054091 -9.67144426 1.45686059 -13 1 C-13 0.67 -13 0.34 -13 0 C-8.34462607 -0.83796731 -4.62921525 -1.0161692 0 0 Z " fill="#0E181E" transform="translate(1249,731)"/>
<path d="M0 0 C0.66 0 1.32 0 2 0 C1.67 2.31 1.34 4.62 1 7 C-2 7 -2 7 -4 6 C-2.7260411 3.96166576 -1.38938077 1.96147874 0 0 Z " fill="#111D21" transform="translate(1255,720)"/>
<path d="M0 0 C2.15377564 2.62198774 3.40072174 4.64404172 4 8 C3.01 8.66 2.02 9.32 1 10 C1 9.34 1 8.68 1 8 C0.34 7.67 -0.32 7.34 -1 7 C-1.625 4.9375 -1.625 4.9375 -2 3 C-1.34 3 -0.68 3 0 3 C0 2.01 0 1.02 0 0 Z " fill="#E7EAEB" transform="translate(907,696)"/>
<path d="M0 0 C0.66 0 1.32 0 2 0 C2 0.66 2 1.32 2 2 C3.32 2.33 4.64 2.66 6 3 C5.67 4.65 5.34 6.3 5 8 C4.34 8 3.68 8 3 8 C0 2.25 0 2.25 0 0 Z " fill="#F1F4F5" transform="translate(745,682)"/>
<path d="M0 0 C0.99 0.33 1.98 0.66 3 1 C3 1.66 3 2.32 3 3 C2.2884375 3.6496875 2.2884375 3.6496875 1.5625 4.3125 C-0.41383086 6.44693733 -0.61663236 8.16307947 -1 11 C-1.99 10.67 -2.98 10.34 -4 10 C-2.8905928 6.51329166 -1.73662334 3.22515763 0 0 Z " fill="#212F36" transform="translate(628,665)"/>
<path d="M0 0 C1 2 2 4 3 6 C2.34 6.66 1.68 7.32 1 8 C0.01 7.67 -0.98 7.34 -2 7 C-1.67 6.34 -1.34 5.68 -1 5 C-1.99 4.01 -2.98 3.02 -4 2 C-2.68 1.34 -1.36 0.68 0 0 Z " fill="#17272D" transform="translate(517,623)"/>
<path d="M0 0 C0.33 0 0.66 0 1 0 C2.25 6.625 2.25 6.625 0 10 C-0.39013716 11.9896995 -0.73202649 13.99019869 -1 16 C-1.66 16 -2.32 16 -3 16 C-2.86722656 15.34773437 -2.73445312 14.69546875 -2.59765625 14.0234375 C-1.65517178 9.3591713 -0.74231297 4.70131546 0 0 Z " fill="#B9C0C3" transform="translate(561,614)"/>
<path d="M0 0 C3.875 4.75 3.875 4.75 5 7 C4.0625 9.125 4.0625 9.125 3 11 C2.01 10.67 1.02 10.34 0 10 C0.66 9.34 1.32 8.68 2 8 C1.34 7.01 0.68 6.02 0 5 C-0.125 2.3125 -0.125 2.3125 0 0 Z " fill="#2B3439" transform="translate(1227,721)"/>
<path d="M0 0 C-0.57344937 2.86724686 -0.8614515 3.8614515 -3 6 C-5.625 6.125 -5.625 6.125 -8 6 C-3.375 0 -3.375 0 0 0 Z " fill="#EDF0F4" transform="translate(1250,723)"/>
<path d="M0 0 C1.2393919 3.5804655 0.87401862 6.34501304 0 10 C-0.66 10.66 -1.32 11.32 -2 12 C-2.66 12 -3.32 12 -4 12 C-3.52309796 10.37433394 -3.04340334 8.74948689 -2.5625 7.125 C-2.29566406 6.22007812 -2.02882812 5.31515625 -1.75390625 4.3828125 C-1 2 -1 2 0 0 Z " fill="#DADFE0" transform="translate(146,620)"/>
<path d="M0 0 C0.33 1.32 0.66 2.64 1 4 C3.97 4.495 3.97 4.495 7 5 C3.93882432 7.62386487 3.26826873 8 -1 8 C-0.67 5.36 -0.34 2.72 0 0 Z " fill="#1A2931" transform="translate(1236,716)"/>
<path d="M0 0 C0.66 0 1.32 0 2 0 C2.66 1.65 3.32 3.3 4 5 C2.02 5.99 2.02 5.99 0 7 C-0.66 5.68 -1.32 4.36 -2 3 C-1.34 2.01 -0.68 1.02 0 0 Z " fill="#F3F4F5" transform="translate(652,706)"/>
<path d="M0 0 C0.99 0 1.98 0 3 0 C2.45660208 4.56454251 1.20536179 7.9728176 -1 12 C-2 9 -2 9 -2 5 C-1.01 5 -0.02 5 1 5 C0.67 3.35 0.34 1.7 0 0 Z " fill="#1F2A31" transform="translate(650,701)"/>
<path d="M0 0 C1.10844919 3.32534757 0.84454356 5.62182575 0 9 C-0.66 9 -1.32 9 -2 9 C-2 9.66 -2 10.32 -2 11 C-2.66 11 -3.32 11 -4 11 C-3.52269162 9.5410574 -3.04308958 8.08286504 -2.5625 6.625 C-2.29566406 5.81289063 -2.02882813 5.00078125 -1.75390625 4.1640625 C-1 2 -1 2 0 0 Z " fill="#D8DBDD" transform="translate(656,695)"/>
<path d="M0 0 C0.99 0.33 1.98 0.66 3 1 C3 1.66 3 2.32 3 3 C3.99 2.67 4.98 2.34 6 2 C6.33 3.65 6.66 5.3 7 7 C6.34 7 5.68 7 5 7 C4.67 7.66 4.34 8.32 4 9 C2.68 6.03 1.36 3.06 0 0 Z " fill="#EBEFF0" transform="translate(121,671)"/>
<path d="M0 0 C0.33 0.99 0.66 1.98 1 3 C-2.42346555 6.14958831 -5.44262737 6.56179109 -10 7 C-6.76478258 4.51137122 -3.40739705 2.24578442 0 0 Z " fill="#E5E6E9" transform="translate(942,649)"/>
<path d="M0 0 C3.96 1.98 3.96 1.98 8 4 C8 4.33 8 4.66 8 5 C6.35 5 4.7 5 3 5 C2.67 5.66 2.34 6.32 2 7 C2 6.01 2 5.02 2 4 C1.34 4 0.68 4 0 4 C0 2.68 0 1.36 0 0 Z " fill="#1C2B30" transform="translate(117,558)"/>
<path d="M0 0 C0.33 0 0.66 0 1 0 C0.979375 0.763125 0.95875 1.52625 0.9375 2.3125 C0.87057159 5.10185786 0.87057159 5.10185786 2 8 C1.01 8.33 0.02 8.66 -1 9 C-2.1875 7.3125 -2.1875 7.3125 -3 5 C-1.6875 2.25 -1.6875 2.25 0 0 Z " fill="#F7F7F9" transform="translate(1233,719)"/>
<path d="M0 0 C2.15377564 2.62198774 3.40072174 4.64404172 4 8 C3.34 8 2.68 8 2 8 C1.67 8.66 1.34 9.32 1 10 C-0.04005702 6.61981469 -0.08004482 3.5219721 0 0 Z " fill="#E5E9E9" transform="translate(913,709)"/>
<path d="M0 0 C0.66 1.98 1.32 3.96 2 6 C1.38125 5.814375 0.7625 5.62875 0.125 5.4375 C-2.04160178 4.76313824 -2.04160178 4.76313824 -4 6 C-4 4.35 -4 2.7 -4 1 C-2 0 -2 0 0 0 Z " fill="#202D35" transform="translate(125,678)"/>
<path d="M0 0 C0.66 0 1.32 0 2 0 C5 6.625 5 6.625 5 10 C4.34 10 3.68 10 3 10 C0.96564469 6.27034861 0 4.33094958 0 0 Z " fill="#2A343A" transform="translate(735,662)"/>
<path d="M0 0 C0.33 1.32 0.66 2.64 1 4 C-0.97389657 5.97389657 -2.43730503 6.95890517 -5 8 C-5.66 7.67 -6.32 7.34 -7 7 C-4.69 4.69 -2.38 2.38 0 0 Z " fill="#E1E5E6" transform="translate(549,643)"/>
<path d="M0 0 C0.66 0 1.32 0 2 0 C2 1.98 2 3.96 2 6 C1.01 6 0.02 6 -1 6 C-1 6.66 -1 7.32 -1 8 C-1.66 8 -2.32 8 -3 8 C-1.125 2.25 -1.125 2.25 0 0 Z " fill="#283339" transform="translate(666,581)"/>
<path d="M0 0 C0.12375 0.639375 0.2475 1.27875 0.375 1.9375 C0.684375 2.9584375 0.684375 2.9584375 1 4 C1.66 4.33 2.32 4.66 3 5 C1.68 5.33 0.36 5.66 -1 6 C-1.99 4.35 -2.98 2.7 -4 1 C-2 0 -2 0 0 0 Z " fill="#1B282B" transform="translate(1227,724)"/>
<path d="M0 0 C1.3271261 3.9813783 1.06915913 7.85045227 1 12 C0.34 11.67 -0.32 11.34 -1 11 C-1.7166207 8.68152126 -2.38242027 6.34680297 -3 4 C-3.33 3.34 -3.66 2.68 -4 2 C-2.68 2 -1.36 2 0 2 C0 1.34 0 0.68 0 0 Z " fill="#2E3E42" transform="translate(1246,712)"/>
<path d="M0 0 C1.32 0.33 2.64 0.66 4 1 C4.33 2.98 4.66 4.96 5 7 C4.01 7.495 4.01 7.495 3 8 C2.01 5.36 1.02 2.72 0 0 Z " fill="#17272D" transform="translate(912,705)"/>
<path d="M0 0 C2.46278801 1.231394 3.42497687 2.78064923 5 5 C3.68 5.99 2.36 6.98 1 8 C0.34 5.69 -0.32 3.38 -1 1 C-0.67 0.67 -0.34 0.34 0 0 Z " fill="#D9DEE1" transform="translate(930,656)"/>
<path d="M0 0 C0.66 0.33 1.32 0.66 2 1 C1.67 2.32 1.34 3.64 1 5 C-0.98 5 -2.96 5 -5 5 C-5 4.01 -5 3.02 -5 2 C-2.625 0.9375 -2.625 0.9375 0 0 Z " fill="#E3E8E9" transform="translate(530,657)"/>
<path d="M0 0 C0.66 1.32 1.32 2.64 2 4 C1.34 4.66 0.68 5.32 0 6 C-0.33 6.99 -0.66 7.98 -1 9 C-1.99 8.01 -2.98 7.02 -4 6 C-3.525625 5.566875 -3.05125 5.13375 -2.5625 4.6875 C-0.76313043 2.97690387 -0.76313043 2.97690387 0 0 Z M-4 8 C-3.34 8.66 -2.68 9.32 -2 10 C-2.66 10 -3.32 10 -4 10 C-4 9.34 -4 8.68 -4 8 Z " fill="#F3F6F6" transform="translate(135,642)"/>
<path d="M0 0 C2.475 0.495 2.475 0.495 5 1 C4.34 2.32 3.68 3.64 3 5 C2.01 4.67 1.02 4.34 0 4 C0 2.68 0 1.36 0 0 Z " fill="#F2F3F6" transform="translate(159,1192)"/>
<path d="M0 0 C-0.66 1.98 -1.32 3.96 -2 6 C-3.32 5.67 -4.64 5.34 -6 5 C-3.74193548 0 -3.74193548 0 0 0 Z " fill="#F4F5F8" transform="translate(1242,724)"/>
<path d="M0 0 C0.33 0 0.66 0 1 0 C1.33 3.3 1.66 6.6 2 10 C0.68 10.33 -0.64 10.66 -2 11 C-1.67 9.68 -1.34 8.36 -1 7 C-0.67 7 -0.34 7 0 7 C0 4.69 0 2.38 0 0 Z " fill="#0D1C22" transform="translate(1225,714)"/>
<path d="M0 0 C2.9375 0.375 2.9375 0.375 6 1 C6.33 1.66 6.66 2.32 7 3 C5.02 3.66 3.04 4.32 1 5 C0.67 3.35 0.34 1.7 0 0 Z " fill="#192A30" transform="translate(1033,700)"/>
<path d="M0 0 C2.51083114 1.25541557 2.87125446 2.50063488 4 5 C3.34 5.66 2.68 6.32 2 7 C0.68 5.68 -0.64 4.36 -2 3 C-1.34 2.01 -0.68 1.02 0 0 Z " fill="#EBEDED" transform="translate(124,557)"/>
<path d="M0 0 C1.32 0 2.64 0 4 0 C4.33 1.32 4.66 2.64 5 4 C4.34 4 3.68 4 3 4 C2.34 5.32 1.68 6.64 1 8 C0.67 5.36 0.34 2.72 0 0 Z " fill="#121C23" transform="translate(1253,712)"/>
<path d="M0 0 C1.5625 1.75 1.5625 1.75 3 4 C2.6875 6.25 2.6875 6.25 2 8 C1.34 8 0.68 8 0 8 C-0.79953138 4.71303767 -1.09658936 3.28976808 0 0 Z " fill="#202D37" transform="translate(939,681)"/>
<path d="M0 0 C0.99 0.33 1.98 0.66 3 1 C2.67 3.31 2.34 5.62 2 8 C1.34 7.67 0.68 7.34 0 7 C-1.26229508 2.52459016 -1.26229508 2.52459016 0 0 Z " fill="#1D2F33" transform="translate(700,668)"/>
<path d="M0 0 C1.4540625 0.0309375 1.4540625 0.0309375 2.9375 0.0625 C2.6075 0.7225 2.2775 1.3825 1.9375 2.0625 C2.2675 2.3925 2.5975 2.7225 2.9375 3.0625 C1.125 3.75 1.125 3.75 -1.0625 4.0625 C-2.8125 2.625 -2.8125 2.625 -4.0625 1.0625 C-3.0625 0.0625 -3.0625 0.0625 0 0 Z " fill="#F9F6F3" transform="translate(1036.0625,659.9375)"/>
<path d="M0 0 C0.33 0.99 0.66 1.98 1 3 C-3.53374042 4.03039555 -4.64467851 4.17766075 -9 2 C-6.03 1.34 -3.06 0.68 0 0 Z " fill="#E9EFEF" transform="translate(523,660)"/>
<path d="M0 0 C2.31 0 4.62 0 7 0 C7.33 0.66 7.66 1.32 8 2 C6 2.66666667 4 3.33333333 2 4 C1.34 3.67 0.68 3.34 0 3 C0 2.01 0 1.02 0 0 Z " fill="#F8F6F4" transform="translate(1128,660)"/>
<path d="M0 0 C0.33 0.99 0.66 1.98 1 3 C-0.375 4.5 -0.375 4.5 -2 6 C-2.66 6 -3.32 6 -4 6 C-4.33 4.68 -4.66 3.36 -5 2 C-4.360625 1.855625 -3.72125 1.71125 -3.0625 1.5625 C-1.02454854 1.18992819 -1.02454854 1.18992819 0 0 Z " fill="#F4F5F5" transform="translate(711,587)"/>
<path d="M0 0 C3.0916909 2.52956528 3.90931332 5.22454612 5 9 C2 8 2 8 0.8125 6.1875 C0 4 0 4 0 0 Z " fill="#1E282F" transform="translate(696,569)"/>
<path d="M0 0 C1.98 0.495 1.98 0.495 4 1 C4 1.99 4 2.98 4 4 C2.35 4 0.7 4 -1 4 C-0.67 2.68 -0.34 1.36 0 0 Z " fill="#CECED0" transform="translate(1239,715)"/>
<path d="M0 0 C2.475 0.495 2.475 0.495 5 1 C5 2.65 5 4.3 5 6 C4.01 6.495 4.01 6.495 3 7 C2.01 4.69 1.02 2.38 0 0 Z " fill="#17242A" transform="translate(97,703)"/>
<path d="M0 0 C0.66 1.32 1.32 2.64 2 4 C0.35 4.33 -1.3 4.66 -3 5 C-3.33 3.68 -3.66 2.36 -4 1 C-2.68 0.67 -1.36 0.34 0 0 Z " fill="#1B2931" transform="translate(909,689)"/>
<path d="M0 0 C0.99 0.33 1.98 0.66 3 1 C3 1.99 3 2.98 3 4 C3.66 4.33 4.32 4.66 5 5 C1.48283697 5 0.62878252 4.17554415 -2 2 C-1.34 1.34 -0.68 0.68 0 0 Z " fill="#19282E" transform="translate(914,587)"/>
<path d="M0 0 C2.475 0.99 2.475 0.99 5 2 C4.01 3.485 4.01 3.485 3 5 C1.35 4.67 -0.3 4.34 -2 4 C-1.34 3.67 -0.68 3.34 0 3 C0 2.01 0 1.02 0 0 Z " fill="#1C2A32" transform="translate(934,560)"/>
<path d="M0 0 C1.5625 1.25 1.5625 1.25 3 3 C2.6875 5.1875 2.6875 5.1875 2 7 C1.01 6.67 0.02 6.34 -1 6 C-0.67 4.02 -0.34 2.04 0 0 Z " fill="#1B2732" transform="translate(930,663)"/>
<path d="M0 0 C-1 2 -1 2 -3.375 2.8125 C-6 3 -6 3 -7.8125 1.5625 C-8.204375 1.046875 -8.59625 0.53125 -9 0 C-5.67465243 -1.10844919 -3.37817425 -0.84454356 0 0 Z " fill="#15262D" transform="translate(111,555)"/>
<path d="M0 0 C3.63 0 7.26 0 11 0 C11 1.32 11 2.64 11 4 C10.34 3.34 9.68 2.68 9 2 C6.79749008 1.53993654 6.79749008 1.53993654 4.375 1.375 C3.14910156 1.26285156 3.14910156 1.26285156 1.8984375 1.1484375 C1.27195312 1.09945312 0.64546875 1.05046875 0 1 C0 0.67 0 0.34 0 0 Z " fill="#2D3A40" transform="translate(679,552)"/>
</svg>
