<?xml version="1.0" encoding="UTF-8"?>
<svg version="1.1" xmlns="http://www.w3.org/2000/svg" width="400" height="400">
<path d="M0 0 C1.203125 2.328125 1.203125 2.328125 2.25 5.25 C2.78367187 6.68085938 2.78367187 6.68085938 3.328125 8.140625 C4.04467822 11.19014218 3.84919899 13.01691636 3 16 C3.99 16.33 4.98 16.66 6 17 C7.203125 19.36328125 7.203125 19.36328125 8.25 22.3125 C8.78367187 23.76076172 8.78367187 23.76076172 9.328125 25.23828125 C10.00546613 28.02246834 9.98017307 29.35478935 9 32 C9.99 32.33 10.98 32.66 12 33 C13.8012357 36.51533463 14.92195682 40.3253716 16.1875 44.0625 C16.55552734 45.08794922 16.92355469 46.11339844 17.30273438 47.16992188 C19.31492313 53.00489595 20.60698623 57.82548494 20 64 C15.84999412 72.30001177 8.55535816 74.79122821 0.296875 77.671875 C-0.62212585 77.99915588 -1.54112671 78.32643677 -2.48797607 78.66363525 C-4.41964561 79.34978957 -6.3527222 80.03199421 -8.28710938 80.71044922 C-11.25713159 81.75250217 -14.22257258 82.80682976 -17.1875 83.86328125 C-19.06745448 84.52936274 -20.94765442 85.19475196 -22.828125 85.859375 C-23.71767883 86.17493347 -24.60723267 86.49049194 -25.52374268 86.81561279 C-26.34509705 87.10301331 -27.16645142 87.39041382 -28.01269531 87.68652344 C-29.09807587 88.06813629 -29.09807587 88.06813629 -30.2053833 88.4574585 C-32 89 -32 89 -34 89 C-38.77676538 77.47835991 -38.77676538 77.47835991 -37 72 C-37.99 72 -38.98 72 -40 72 C-40.65043719 70.27255984 -41.29514844 68.5429631 -41.9375 66.8125 C-42.29714844 65.84957031 -42.65679687 64.88664062 -43.02734375 63.89453125 C-44 61 -44 61 -44.484375 58.48828125 C-45.08717642 55.57930771 -46.12715683 53.09798648 -47.3125 50.375 C-48.20833333 48.25 -49.10416667 46.125 -50 44 C-50.4021875 43.05125 -50.804375 42.1025 -51.21875 41.125 C-53.50352603 35.38042026 -55.79918517 29.15205253 -54 23 C-50.43430828 17.41806455 -46.48182313 14.75879665 -40.3125 12.6875 C-38.73433235 12.11860789 -37.15621052 11.54958866 -35.578125 10.98046875 C-34.70607422 10.67415527 -33.83402344 10.3678418 -32.93554688 10.05224609 C-29.57865541 8.84896913 -26.25115532 7.57843043 -22.921875 6.30078125 C-20.46891255 5.3667605 -18.01578795 4.43316547 -15.5625 3.5 C-14.37116455 3.04197998 -13.1798291 2.58395996 -11.95239258 2.11206055 C-10.83501709 1.69351807 -9.7176416 1.27497559 -8.56640625 0.84375 C-7.56552979 0.46412109 -6.56465332 0.08449219 -5.53344727 -0.30664062 C-3 -1 -3 -1 0 0 Z M-40.625 21.9375 C-41.81996094 22.47697266 -41.81996094 22.47697266 -43.0390625 23.02734375 C-44.95318818 23.84676996 -44.95318818 23.84676996 -46 25 C-45.59038621 30.91014187 -44.18434506 35.73981302 -41.9375 41.1875 C-38.57676826 49.36246073 -38.57676826 49.36246073 -39 54 C-36.9837767 53.28436734 -36.9837767 53.28436734 -35 52 C-33.38329184 48.30346416 -34.55173535 45.82221604 -35.9375 42.1875 C-39.43611241 32.14270339 -39.43611241 32.14270339 -37.12890625 27.09375 C-36.15604421 25.35471456 -35.08251658 23.67298018 -34 22 C-33.67 21.34 -33.34 20.68 -33 20 C-36.20663489 20 -37.74646994 20.62012712 -40.625 21.9375 Z M-24 24.6875 C-24.886875 25.00074219 -25.77375 25.31398437 -26.6875 25.63671875 C-29.1489447 26.84876603 -29.1489447 26.84876603 -30.4296875 29.28125 C-31.16077239 32.76642182 -30.44247856 34.52741458 -29.125 37.8125 C-25.35527731 48.27540378 -25.35527731 48.27540378 -27.87109375 53.97265625 C-28.83626993 55.69441743 -29.91272809 57.35261832 -31 59 C-31.33 59.66 -31.66 60.32 -32 61 C-30.39253944 60.57476184 -28.78910164 60.13429874 -27.1875 59.6875 C-26.29417969 59.44386719 -25.40085937 59.20023438 -24.48046875 58.94921875 C-21.90585898 57.96397438 -20.62493015 57.21186144 -19 55 C-19.16465115 50.88372133 -20.18616674 47.43524364 -21.625 43.625 C-23.2605983 38.86395148 -23.48510027 34.84195413 -22 30 C-20.5320421 27.38655365 -18.92768121 25.323103 -17 23 C-19.61485215 23 -21.54594357 23.78506355 -24 24.6875 Z M-9.0625 28.9375 C-9.96097656 29.29714844 -10.85945313 29.65679687 -11.78515625 30.02734375 C-13.93072645 30.80969065 -13.93072645 30.80969065 -15 32 C-14.88700676 36.12859914 -14.34218648 40.05395503 -12.9375 43.9375 C-11.4067411 48.93797909 -10.88362266 54.26730242 -12.8984375 59.19921875 C-14 61.125 -14 61.125 -16 64 C-11.43545749 63.45660208 -8.0271824 62.20536179 -4 60 C-4.11562606 58.60335892 -4.242992 57.20768801 -4.375 55.8125 C-4.44460937 55.03519531 -4.51421875 54.25789063 -4.5859375 53.45703125 C-4.91531143 50.94633044 -4.91531143 50.94633044 -6.015625 48.5390625 C-7.85445319 43.79605327 -8.20183189 37.75170561 -6.13671875 33.0234375 C-5.0625 31.4375 -5.0625 31.4375 -3 29 C-2.67 28.34 -2.34 27.68 -2 27 C-4.67645552 27 -6.5844751 27.93559353 -9.0625 28.9375 Z M2 34 C-0.3254167 36.83429242 -0.3254167 36.83429242 0.1875 40.125 C0.81501004 43.11774019 1.55440986 45.55298359 2.625 48.375 C4.27004568 53.13185624 4.3810922 57.14800502 3 62 C1.84517376 64.2630869 0.59272844 65.99624487 -1 68 C3.54484849 67.45894661 7.13866033 66.51436071 11 64 C12.33311667 60.05086869 11.83259868 57.62793099 10.34765625 53.8046875 C9.80141602 52.36029297 9.80141602 52.36029297 9.24414062 50.88671875 C8.65922852 49.39591797 8.65922852 49.39591797 8.0625 47.875 C7.29922848 45.89482648 6.53992465 43.91311767 5.78515625 41.9296875 C5.27287476 40.61846924 5.27287476 40.61846924 4.75024414 39.28076172 C4 37 4 37 4 34 C3.34 34 2.68 34 2 34 Z " fill="#DA6C41" transform="translate(81,156)"/>
<path d="M0 0 C5.383125 -0.061875 10.76625 -0.12375 16.3125 -0.1875 C18.00802002 -0.21481201 19.70354004 -0.24212402 21.45043945 -0.27026367 C22.79637947 -0.27902661 24.14232744 -0.28667101 25.48828125 -0.29296875 C26.53405334 -0.3159906 26.53405334 -0.3159906 27.60095215 -0.33947754 C30.50169265 -0.34104805 32.50495164 -0.33462119 34.94897461 1.31738281 C36.68070555 4.08976136 36.31737729 6.72697196 36.25 9.9375 C36.23453125 11.16339844 36.2190625 12.38929688 36.203125 13.65234375 C36.04163582 16.3138097 35.63907607 18.44961309 35 21 C35.495 21.99 35.495 21.99 36 23 C36.0716735 25.55157655 36.09308442 28.07472971 36.0625 30.625 C36.05798828 31.33140625 36.05347656 32.0378125 36.04882812 32.765625 C36.03703875 34.51045275 36.01910324 36.255237 36 38 C36.66 38 37.32 38 38 38 C38 38.66 38 39.32 38 40 C32.39 40 26.78 40 21 40 C21 34.72 21 29.44 21 24 C19.02 24 17.04 24 15 24 C15 29.28 15 34.56 15 40 C10.05 40 5.1 40 0 40 C0 26.8 0 13.6 0 0 Z M15 9 C15 11.31 15 13.62 15 16 C16.98 16 18.96 16 21 16 C21 13.69 21 11.38 21 9 C19.02 9 17.04 9 15 9 Z " fill="#1D1D1B" transform="translate(188,180)"/>
<path d="M0 0 C1.0186338 -0.00430527 1.0186338 -0.00430527 2.05784607 -0.00869751 C3.49096513 -0.01073622 4.92411213 -0.00521973 6.35717773 0.00732422 C8.55450329 0.02340756 10.74999661 0.00745849 12.94726562 -0.01171875 C14.33984782 -0.00973677 15.73242887 -0.00589402 17.125 0 C18.3941626 0.00338379 19.6633252 0.00676758 20.97094727 0.01025391 C22.46839478 0.20240479 22.46839478 0.20240479 23.99609375 0.3984375 C26.55390897 4.23516033 26.24915831 7.34379737 26.19140625 11.78515625 C26.18857635 12.60216507 26.18574646 13.41917389 26.18283081 14.26094055 C26.17163916 16.86942209 26.14653665 19.4775598 26.12109375 22.0859375 C26.11106263 23.85481275 26.10193701 25.62369338 26.09375 27.39257812 C26.07170317 31.72799699 26.03718045 36.06315895 25.99609375 40.3984375 C21.04609375 40.3984375 16.09609375 40.3984375 10.99609375 40.3984375 C10.99609375 35.7784375 10.99609375 31.1584375 10.99609375 26.3984375 C9.01609375 26.3984375 7.03609375 26.3984375 4.99609375 26.3984375 C4.99609375 31.0184375 4.99609375 35.6384375 4.99609375 40.3984375 C0.04609375 40.3984375 -4.90390625 40.3984375 -10.00390625 40.3984375 C-10.0780339 35.18403237 -10.13249729 29.96993357 -10.16870117 24.75512695 C-10.18379266 22.98098407 -10.20426816 21.20687852 -10.23022461 19.43286133 C-10.26659266 16.88353263 -10.28362863 14.33469691 -10.296875 11.78515625 C-10.31235886 10.99131027 -10.32784271 10.19746429 -10.34379578 9.37956238 C-10.34469764 6.43212452 -10.34446842 4.02854677 -8.92333984 1.39916992 C-5.95024918 -0.15090622 -3.33396554 0.00888099 0 0 Z M4.99609375 8.3984375 C4.99609375 11.3684375 4.99609375 14.3384375 4.99609375 17.3984375 C6.97609375 17.3984375 8.95609375 17.3984375 10.99609375 17.3984375 C10.99609375 14.4284375 10.99609375 11.4584375 10.99609375 8.3984375 C9.01609375 8.3984375 7.03609375 8.3984375 4.99609375 8.3984375 Z " fill="#1D1D1B" transform="translate(334.00390625,179.6015625)"/>
<path d="M0 0 C1.0186338 -0.00430527 1.0186338 -0.00430527 2.05784607 -0.00869751 C3.49096513 -0.01073622 4.92411213 -0.00521973 6.35717773 0.00732422 C8.55450329 0.02340756 10.74999661 0.00745849 12.94726562 -0.01171875 C14.33984782 -0.00973677 15.73242887 -0.00589402 17.125 0 C18.3941626 0.00338379 19.6633252 0.00676758 20.97094727 0.01025391 C22.46839478 0.20240479 22.46839478 0.20240479 23.99609375 0.3984375 C26.55390897 4.23516033 26.24915831 7.34379737 26.19140625 11.78515625 C26.18857635 12.60216507 26.18574646 13.41917389 26.18283081 14.26094055 C26.17163916 16.86942209 26.14653665 19.4775598 26.12109375 22.0859375 C26.11106263 23.85481275 26.10193701 25.62369338 26.09375 27.39257812 C26.07170317 31.72799699 26.03718045 36.06315895 25.99609375 40.3984375 C21.04609375 40.3984375 16.09609375 40.3984375 10.99609375 40.3984375 C11.32609375 35.7784375 11.65609375 31.1584375 11.99609375 26.3984375 C9.68609375 26.3984375 7.37609375 26.3984375 4.99609375 26.3984375 C4.99609375 31.0184375 4.99609375 35.6384375 4.99609375 40.3984375 C0.04609375 40.3984375 -4.90390625 40.3984375 -10.00390625 40.3984375 C-10.0780339 35.18403237 -10.13249729 29.96993357 -10.16870117 24.75512695 C-10.18379266 22.98098407 -10.20426816 21.20687852 -10.23022461 19.43286133 C-10.26659266 16.88353263 -10.28362863 14.33469691 -10.296875 11.78515625 C-10.31235886 10.99131027 -10.32784271 10.19746429 -10.34379578 9.37956238 C-10.34469764 6.43212452 -10.34446842 4.02854677 -8.92333984 1.39916992 C-5.95024918 -0.15090622 -3.33396554 0.00888099 0 0 Z M4.99609375 9.3984375 C4.99609375 12.0384375 4.99609375 14.6784375 4.99609375 17.3984375 C6.97609375 17.3984375 8.95609375 17.3984375 10.99609375 17.3984375 C10.99609375 14.7584375 10.99609375 12.1184375 10.99609375 9.3984375 C9.01609375 9.3984375 7.03609375 9.3984375 4.99609375 9.3984375 Z " fill="#1D1D1B" transform="translate(255.00390625,179.6015625)"/>
<path d="M0 0 C1.0186338 -0.00074776 1.0186338 -0.00074776 2.05784607 -0.00151062 C3.49098645 0.00082672 4.92413118 0.01053539 6.35717773 0.02709961 C8.55424544 0.05073447 10.75010275 0.04765358 12.94726562 0.04101562 C23.71694742 0.08413492 23.71694742 0.08413492 25.99609375 2.36328125 C26.19583108 5.06463448 26.27590948 7.66125336 26.26171875 10.36328125 C26.26458893 11.55050781 26.26458893 11.55050781 26.26751709 12.76171875 C26.26887893 14.43620115 26.26518257 16.1106941 26.25683594 17.78515625 C26.24613615 20.35310506 26.256731 22.92035428 26.26953125 25.48828125 C26.26820965 27.1132828 26.26564726 28.73828391 26.26171875 30.36328125 C26.26576721 31.13414062 26.26981567 31.905 26.27398682 32.69921875 C26.22601507 38.13335993 26.22601507 38.13335993 23.99609375 40.36328125 C19.59608038 40.76276596 15.18151213 40.69229686 10.76538086 40.67895508 C8.57029454 40.67579808 6.3765599 40.69923886 4.18164062 40.72460938 C2.78776212 40.72688268 1.39387998 40.72758572 0 40.7265625 C-1.27029053 40.72954346 -2.54058105 40.73252441 -3.84936523 40.7355957 C-7.00390625 40.36328125 -7.00390625 40.36328125 -8.91674805 39.31713867 C-10.6198079 36.25637334 -10.43116708 33.15004527 -10.40234375 29.73828125 C-10.40521393 28.99497559 -10.40808411 28.25166992 -10.41104126 27.48583984 C-10.41308101 25.91568235 -10.40755725 24.34549939 -10.39501953 22.77539062 C-10.37896328 20.37181793 -10.39486977 17.96992664 -10.4140625 15.56640625 C-10.41208005 14.04036087 -10.40823634 12.51431654 -10.40234375 10.98828125 C-10.41145279 9.91006104 -10.41145279 9.91006104 -10.42074585 8.81005859 C-10.38166928 6.03816042 -10.27987376 3.8592543 -8.91674805 1.40942383 C-5.95304598 -0.2114394 -3.35546716 -0.00787419 0 0 Z M4.99609375 9.36328125 C4.99609375 16.62328125 4.99609375 23.88328125 4.99609375 31.36328125 C7.30609375 31.36328125 9.61609375 31.36328125 11.99609375 31.36328125 C11.99609375 24.10328125 11.99609375 16.84328125 11.99609375 9.36328125 C9.68609375 9.36328125 7.37609375 9.36328125 4.99609375 9.36328125 Z " fill="#1D1D1B" transform="translate(158.00390625,179.63671875)"/>
<path d="M0 0 C17 0 17 0 20.84765625 3.5 C22.04882812 5.6875 22.04882812 5.6875 23.0625 8 C23.46275391 8.763125 23.86300781 9.52625 24.27539062 10.3125 C25.24338482 12.17851291 26.13060872 14.08605754 27 16 C27.33 10.72 27.66 5.44 28 0 C30.97 0 33.94 0 37 0 C37.02477941 4.8929813 37.04289763 9.7859258 37.05493164 14.67895508 C37.05995023 16.34237301 37.06676652 18.00578656 37.07543945 19.66918945 C37.08761357 22.06462693 37.09325314 24.46000591 37.09765625 26.85546875 C37.10281754 27.5952446 37.10797882 28.33502045 37.11329651 29.09721375 C37.11370241 32.86083154 36.90758309 36.34140381 36 40 C30.813278 40.66860088 26.16872949 40.95213438 21 40 C17.30896181 36.85937979 15.23029706 33.25940753 13 29 C12.01 27.35 11.02 25.7 10 24 C9.67 29.28 9.34 34.56 9 40 C6.03 40 3.06 40 0 40 C0 26.8 0 13.6 0 0 Z " fill="#1D1D1B" transform="translate(284,180)"/>
<path d="M0 0 C0.75042068 0.00565979 1.50084137 0.01131958 2.27400208 0.01715088 C4.66899629 0.03952832 7.06248994 0.08972329 9.45703125 0.140625 C11.08135859 0.16068841 12.7057094 0.17893947 14.33007812 0.1953125 C18.31047332 0.23939706 22.28974796 0.30843073 26.26953125 0.390625 C26.26953125 3.360625 26.26953125 6.330625 26.26953125 9.390625 C19.00953125 9.390625 11.74953125 9.390625 4.26953125 9.390625 C4.26953125 11.700625 4.26953125 14.010625 4.26953125 16.390625 C4.82938721 16.36967773 5.38924316 16.34873047 5.96606445 16.32714844 C8.50453711 16.24396298 11.04272325 16.19196119 13.58203125 16.140625 C14.46310547 16.10710937 15.34417969 16.07359375 16.25195312 16.0390625 C22.6528522 15.94171042 22.6528522 15.94171042 25.3515625 17.90625 C26.64334845 21.4023175 26.70444664 24.71581454 26.64453125 28.390625 C26.65613281 29.1021875 26.66773438 29.81375 26.6796875 30.546875 C26.66319813 33.49297551 26.49241015 35.91781043 25.2277832 38.60058594 C22.2928384 41.28342041 19.30858419 40.8881158 15.5390625 40.78125 C14.78864182 40.77559021 14.03822113 40.76993042 13.26506042 40.76409912 C10.87006621 40.74172168 8.47657256 40.69152671 6.08203125 40.640625 C4.45770391 40.62056159 2.8333531 40.60231053 1.20898438 40.5859375 C-2.77141082 40.54185294 -6.75068546 40.47281927 -10.73046875 40.390625 C-10.73046875 37.750625 -10.73046875 35.110625 -10.73046875 32.390625 C-3.47046875 32.390625 3.78953125 32.390625 11.26953125 32.390625 C11.26953125 30.080625 11.26953125 27.770625 11.26953125 25.390625 C10.10035156 25.44863281 8.93117188 25.50664062 7.7265625 25.56640625 C6.17842545 25.61331949 4.63024508 25.65881798 3.08203125 25.703125 C2.31310547 25.74501953 1.54417969 25.78691406 0.75195312 25.83007812 C-3.34824998 25.91806532 -5.25201533 25.71000658 -8.75 23.375 C-11.22988482 19.63805325 -11.40532523 16.66377083 -11.23046875 12.328125 C-11.23433594 11.26754883 -11.23433594 11.26754883 -11.23828125 10.18554688 C-11.18337794 7.26194575 -10.9432389 4.83965196 -9.68432617 2.18286133 C-6.7540006 -0.5050707 -3.76871095 -0.10684282 0 0 Z " fill="#1D1D1B" transform="translate(118.73046875,179.609375)"/>
<path d="M0 0 C4.95 0 9.9 0 15 0 C15 13.2 15 26.4 15 40 C10.05 40 5.1 40 0 40 C0 26.8 0 13.6 0 0 Z " fill="#1D1D1B" transform="translate(227,180)"/>
<path d="M0 0 C0.66 0.33 1.32 0.66 2 1 C-2.93420603 4.64982274 -7.92979728 6.65807687 -13.703125 8.671875 C-15.08162628 9.16279633 -15.08162628 9.16279633 -16.48797607 9.66363525 C-18.41964561 10.34978957 -20.3527222 11.03199421 -22.28710938 11.71044922 C-25.25713159 12.75250217 -28.22257258 13.80682976 -31.1875 14.86328125 C-33.06745448 15.52936274 -34.94765442 16.19475196 -36.828125 16.859375 C-38.16245575 17.33271271 -38.16245575 17.33271271 -39.52374268 17.81561279 C-40.34509705 18.10301331 -41.16645142 18.39041382 -42.01269531 18.68652344 C-42.73628235 18.94093201 -43.45986938 19.19534058 -44.2053833 19.4574585 C-46 20 -46 20 -48 20 C-48.67467562 18.25307205 -49.33944156 16.50231475 -50 14.75 C-50.37125 13.77546875 -50.7425 12.8009375 -51.125 11.796875 C-52 9 -52 9 -52 5 C-51.34 5 -50.68 5 -50 5 C-48.68 8.96 -47.36 12.92 -46 17 C-45.17862549 16.70577148 -44.35725098 16.41154297 -43.51098633 16.10839844 C-36.97497656 13.77022447 -30.43476635 11.44487839 -23.88671875 9.140625 C-21.84246093 8.41995283 -19.79829182 7.69902959 -17.75415039 6.97802734 C-16.3534336 6.48459114 -14.95238088 5.99210768 -13.55102539 5.50048828 C-11.49531892 4.77899736 -9.44090856 4.0539209 -7.38671875 3.328125 C-6.18233154 2.9043457 -4.97794434 2.48056641 -3.73706055 2.04394531 C-1.12500461 1.26123473 -1.12500461 1.26123473 0 0 Z " fill="#1F0A07" transform="translate(95,225)"/>
<path d="M0 0 C2.87255066 2.42195448 3.70838919 4.59742703 4.6875 8.1875 C4.93886719 9.08855469 5.19023438 9.98960937 5.44921875 10.91796875 C5.63097656 11.60503906 5.81273437 12.29210937 6 13 C13.04181565 10.83421821 19.57862353 8.42020935 26.0390625 4.85546875 C26.68617187 4.57316406 27.33328125 4.29085937 28 4 C28.66 4.33 29.32 4.66 30 5 C22.48782507 10.25852245 13.31757139 15 4 15 C3.32532438 13.25307205 2.66055844 11.50231475 2 9.75 C1.62875 8.77546875 1.2575 7.8009375 0.875 6.796875 C0 4 0 4 0 0 Z " fill="#170906" transform="translate(37,213)"/>
<path d="M0 0 C0.33 0 0.66 0 1 0 C1.185625 1.27875 1.37125 2.5575 1.5625 3.875 C2.78408519 10.16390155 5.18861303 15.93770636 7.61157227 21.84130859 C7.91764404 22.5936377 8.22371582 23.3459668 8.5390625 24.12109375 C8.81959473 24.7958374 9.10012695 25.47058105 9.38916016 26.16577148 C10 28 10 28 10 31 C11.65 30.67 13.3 30.34 15 30 C15 30.66 15 31.32 15 32 C12.03 32.495 12.03 32.495 9 33 C7.30202848 29.01255048 5.64404019 25.00996772 4 21 C3.59652344 20.04480469 3.19304688 19.08960938 2.77734375 18.10546875 C0.29454649 11.88512723 -0.5219473 6.68382515 0 0 Z " fill="#110905" transform="translate(27,179)"/>
<path d="M0 0 C1.32 0 2.64 0 4 0 C5.5778125 -0.0309375 5.5778125 -0.0309375 7.1875 -0.0625 C10 0 10 0 11 1 C11 2.65 11 4.3 11 6 C7.37 6 3.74 6 0 6 C0 4.02 0 2.04 0 0 Z " fill="#1D1D1B" transform="translate(362,214)"/>
<path d="M0 0 C3 1 3 1 3.9831543 2.74658203 C4.26070557 3.49278809 4.53825684 4.23899414 4.82421875 5.0078125 C5.13037109 5.83023438 5.43652344 6.65265625 5.75195312 7.5 C6.06068359 8.36625 6.36941406 9.2325 6.6875 10.125 C7.00783203 10.96804687 7.32816406 11.81109375 7.65820312 12.6796875 C9.47759713 17.67623222 10.38164239 21.68580975 10 27 C8.1743813 24.26157195 7.16877364 22.02982466 6.0546875 18.96484375 C5.70019531 17.99095703 5.34570312 17.01707031 4.98046875 16.01367188 C4.61566406 14.99853516 4.25085938 13.98339844 3.875 12.9375 C3.50246094 11.91849609 3.12992187 10.89949219 2.74609375 9.84960938 C0 2.26013049 0 2.26013049 0 0 Z " fill="#160B07" transform="translate(84,191)"/>
<path d="M0 0 C0.66 0 1.32 0 2 0 C3.32 3.96 4.64 7.92 6 12 C7.0725 11.649375 8.145 11.29875 9.25 10.9375 C12.78720743 10.05319814 13.74811124 9.97119449 17 11 C15.2097939 11.67057887 13.41778511 12.3363469 11.625 13 C10.62726562 13.37125 9.62953125 13.7425 8.6015625 14.125 C6 15 6 15 4 15 C3.32532438 13.25307205 2.66055844 11.50231475 2 9.75 C1.62875 8.77546875 1.2575 7.8009375 0.875 6.796875 C0 4 0 4 0 0 Z " fill="#090201" transform="translate(43,230)"/>
<path d="M0 0 C0.33 0 0.66 0 1 0 C1.12117188 0.88042969 1.24234375 1.76085937 1.3671875 2.66796875 C1.53476562 3.82941406 1.70234375 4.99085938 1.875 6.1875 C2.03742187 7.33605469 2.19984375 8.48460937 2.3671875 9.66796875 C2.94286339 12.69915107 3.84824935 15.15901507 5 18 C5.07646165 20.3320802 5.09143299 22.66845878 5 25 C4.34 25.33 3.68 25.66 3 26 C2.896875 25.030625 2.79375 24.06125 2.6875 23.0625 C2.27193313 20.03741764 1.48015727 17.3673075 0.4375 14.5 C-1.32620566 9.45838284 -1.71117885 5.13353656 0 0 Z " fill="#110905" transform="translate(43,182)"/>
<path d="M0 0 C0.33 0 0.66 0 1 0 C1.12117188 0.80824219 1.24234375 1.61648437 1.3671875 2.44921875 C1.53476562 3.51785156 1.70234375 4.58648437 1.875 5.6875 C2.03742187 6.74324219 2.19984375 7.79898438 2.3671875 8.88671875 C2.89535213 11.971712 2.89535213 11.971712 4.0625 14.625 C5.46969746 18.18990024 5.12898317 21.19499645 5 25 C0.6663516 16.74449785 -1.85088102 9.25440511 0 0 Z " fill="#0D0704" transform="translate(58,186)"/>
<path d="M0 0 C0.33 0 0.66 0 1 0 C1.10957031 0.6290625 1.21914062 1.258125 1.33203125 1.90625 C2.1278319 6.20227954 2.98701316 10.25246628 4.625 14.3125 C5.84598001 17.5869464 6.32082539 19.57786253 6 23 C5.34 23.33 4.68 23.66 4 24 C1.08308519 15.80919903 -0.62867565 8.71414306 0 0 Z " fill="#0D0604" transform="translate(73,191)"/>
<path d="M0 0 C-1 2 -1 2 -3.6875 3.125 C-6.9579435 3.98889074 -9.63706182 4.16013991 -13 4 C-10.56272708 2.37515139 -8.62713877 1.34310925 -5.9375 0.3125 C-5.24527344 0.04050781 -4.55304688 -0.23148438 -3.83984375 -0.51171875 C-2 -1 -2 -1 0 0 Z " fill="#3C100C" transform="translate(70,236)"/>
<path d="M0 0 C0.66 0 1.32 0 2 0 C2.66 2.31 3.32 4.62 4 7 C3.01 6.67 2.02 6.34 1 6 C0.67 4.02 0.34 2.04 0 0 Z " fill="#1D0906" transform="translate(43,230)"/>
</svg>
